<svg version="1.1" id="logo-icon" xmlns="http://www.w3.org/2000/svg" xmlns:xlink="http://www.w3.org/1999/xlink" x="0px" y="0px" width="51.359px" height="36.152px" viewBox="0 0 51.359 36.152" enable-background="new 0 0 51.359 36.152" xml:space="preserve">
	<g id="logo-bluemail">
		<polygon fill="#337FB2" points="30.845,12.283 29.104,1.644 23.619,8.464 20.684,11.224 24.706,15.172 29.83,18.932 29.34,19.619 25.846,17.665 19.871,11.907 16.647,15.924 11.939,13.392 10.562,16.32 5.347,23.443 4.34,22.793 9.494,15.707 11.289,12.473 6.505,10.245 0.663,6.159 1.218,13.629 3.142,24.806 13.08,25.266 24.38,22.949 30.398,22.161 31.59,20.342"/>
		<polygon fill="#337FB2" points="12.166,11.295 16.285,14.103 18.747,11.096 22.805,7.276 28.932,0.152 16.013,1.814 7.158,3.18 0.451,4.672 7.049,8.999"/>
	</g>
	<g id="logo-redmail">
		<polygon fill="#BE1C21" points="37.792,30.277 38.955,23.488 34.223,26.465 31.873,27.522 33.48,30.744 35.794,34.083 35.355,34.396 33.651,32.488 31.239,27.765 28.455,29.521 26.139,27.01 24.697,28.492 20.063,31.711 19.59,31.107 24.18,27.899 25.937,26.319 23.511,23.978 21.343,24.521 19.612,24.922 18.447,32.074 24.356,34.422 31.664,35.375 35.465,36.152 36.563,35.301"/>
		<polygon fill="#BE1C21" points="26.711,25.791 28.617,28.346 30.729,27.041 33.977,25.578 39.162,22.551 32.186,21.152 31.029,22.9 27.28,23.32 25.385,23.489 24.48,23.721"/>
	</g>
	<path id="logo-greenmail" fill="#4B9441" d="M48.834,1.655L41.45,2.97l-7.405,1.542l-2.729,0.433l1.311,7.074l1.351,6.243l4.976-1.134l7.71-1.351l4.696-1.044l-1.01-4.361L48.834,1.655z M44.243,12.998l0.073,0.423l-2.605,0.403l-5.567,1.019l-0.079-0.463l-0.113-0.472l2.204-0.486l0.03-0.005l3.516-0.531l2.488-0.343L44.243,12.998z M36,12.321v-0.36l2.67-0.582l2.711-0.494L42.66,10.6l1.12-0.211l0.087,0.769l-1.402,0.317l-3.99,0.682l-2.521,0.56L36,12.321z M43.418,8.727l0.096,0.434L40.75,9.694l-2.992,0.457l-2.437,0.434l-0.22-0.808l5.709-1.049l2.569-0.423L43.418,8.727z M48.141,5.422l-2.325,0.365l-0.326-1.106l-0.15-1.333l1.067-0.134l1.337-0.275l0.319,1.245L48.141,5.422z"/>
</svg>