<svg version="1.1" id="logo-name" xmlns="http://www.w3.org/2000/svg" xmlns:xlink="http://www.w3.org/1999/xlink" x="0px" y="0px" width="116.926px" height="29.117px" viewBox="0 0 116.926 29.117" enable-background="new 0 0 116.926 29.117" xml:space="preserve">
  <g>
  	<path fill="#4E4E4E" d="M1.984,10.559c0-0.48-0.257-0.704-0.704-0.704H0V6.399h3.744c1.439,0,2.144,0.672,2.144,1.824v0.48c0,0.352-0.032,0.704-0.032,0.704H5.92c0.768-1.6,2.72-3.392,5.279-3.392c2.464,0,4.063,1.152,4.768,3.359h0.064c0.863-1.76,2.976-3.359,5.567-3.359c3.392,0,5.344,1.92,5.344,6.208v6.367c0,0.449,0.256,0.705,0.704,0.705h1.247v3.424h-3.839c-1.536,0-2.176-0.641-2.176-2.176v-7.552c0-1.856-0.353-3.264-2.24-3.264c-2.016,0-3.456,1.696-3.904,3.744c-0.191,0.641-0.256,1.312-0.256,2.08v7.168h-4.063v-9.728c0-1.76-0.256-3.264-2.208-3.264c-2.048,0-3.424,1.696-3.936,3.776c-0.16,0.64-0.256,1.312-0.256,2.048v7.168H1.984V10.559z"/>
  	<path fill="#4E4E4E" d="M40.255,12.479h0.513v-0.128c0-2.336-0.929-3.2-3.008-3.2c-0.736,0-2.177,0.192-2.177,1.088v0.864h-3.775V9.375c0-3.04,4.288-3.359,5.983-3.359c5.439,0,7.04,2.848,7.04,6.496v6.079c0,0.449,0.256,0.705,0.704,0.705h1.279v3.424h-3.647c-1.504,0-2.08-0.832-2.08-1.793c0-0.416,0.032-0.703,0.032-0.703h-0.064c0,0-1.247,2.879-4.928,2.879c-2.911,0-5.567-1.823-5.567-5.087C30.56,12.895,37.6,12.479,40.255,12.479z M37.119,19.935c2.176,0,3.712-2.304,3.712-4.288v-0.384h-0.704c-2.111,0-5.472,0.288-5.472,2.56C34.655,18.91,35.455,19.935,37.119,19.935z"/>
  	<path fill="#4E4E4E" d="M50.208,10.559c0-0.48-0.257-0.704-0.704-0.704h-1.28V6.399h3.872c1.504,0,2.144,0.672,2.144,2.176V18.59c0,0.449,0.256,0.705,0.704,0.705h1.28v3.424h-3.872c-1.504,0-2.144-0.641-2.144-2.176V10.559z M50.399,0h3.52v3.744h-3.52V0z"/>
  	<path fill="#4E4E4E" d="M59.552,4.16c0-0.48-0.256-0.704-0.704-0.704h-1.279V0h3.871c1.504,0,2.176,0.672,2.176,2.176V18.59c0,0.449,0.257,0.705,0.704,0.705h1.248v3.424h-3.84c-1.535,0-2.176-0.641-2.176-2.176V4.16z"/>
  	<path fill="#4E4E4E" d="M69.087,9.215c0-0.448-0.257-0.704-0.704-0.704h-1.344V6.624h2.207c1.376,0,1.92,0.576,1.92,1.696c0,0.64-0.031,1.088-0.031,1.088h0.063c0,0,1.28-3.168,5.536-3.168c4.319,0,7.007,3.456,7.007,8.448c0,5.087-3.039,8.414-7.199,8.414c-3.936,0-5.279-3.039-5.279-3.039h-0.064c0,0,0.064,0.576,0.064,1.408v7.646h-2.176V9.215zM76.318,21.183c2.848,0,5.184-2.399,5.184-6.495c0-3.937-2.08-6.464-5.088-6.464c-2.688,0-5.216,1.92-5.216,6.496C71.198,17.951,72.958,21.183,76.318,21.183z"/>
  	<path fill="#4E4E4E" d="M88.03,9.215c0-0.448-0.256-0.704-0.703-0.704h-1.345V6.624h2.272c1.376,0,1.952,0.576,1.952,1.952v11.552c0,0.479,0.256,0.703,0.703,0.703h1.344v1.889h-2.271c-1.376,0-1.952-0.576-1.952-1.952V9.215z M87.967,0.224h2.111v2.751h-2.111V0.224z"/>
  	<path fill="#4E4E4E" d="M95.871,2.816c0-0.448-0.256-0.704-0.704-0.704h-1.344V0.224h2.271c1.376,0,1.952,0.576,1.952,1.952v17.951c0,0.479,0.256,0.703,0.704,0.703h1.344v1.889h-2.271c-1.376,0-1.952-0.576-1.952-1.952V2.816z"/>
  	<path fill="#4E4E4E" d="M110.174,6.239c4.448,0,6.752,3.424,6.752,7.424c0,0.384-0.063,1.088-0.063,1.088h-12.352c0.064,4.063,2.912,6.399,6.239,6.399c2.944,0,4.832-1.984,4.832-1.984l1.056,1.633c0,0-2.336,2.303-5.983,2.303c-4.768,0-8.415-3.455-8.415-8.414C102.239,9.407,105.854,6.239,110.174,6.239z M114.686,13.023c-0.128-3.328-2.176-4.959-4.543-4.959c-2.656,0-4.992,1.728-5.536,4.959H114.686z"/>
  </g>
</svg>