<?xml version="1.0" encoding="utf-8"?>
<!-- Generator: Adobe Illustrator 16.2.1, SVG Export Plug-In . SVG Version: 6.00 Build 0)  -->
<!DOCTYPE svg PUBLIC "-//W3C//DTD SVG 1.1//EN" "http://www.w3.org/Graphics/SVG/1.1/DTD/svg11.dtd">
<svg version="1.1" id="svg_logo" xmlns="http://www.w3.org/2000/svg" xmlns:xlink="http://www.w3.org/1999/xlink" x="0px" y="0px"
	 width="182.234px" height="39.569px" viewBox="0 0 182.234 39.569" enable-background="new 0 0 182.234 39.569"
	 xml:space="preserve">
<g>
	<g>
		<polygon fill="#3A6B8C" points="31.845,13.283 30.104,2.644 24.619,9.464 21.684,12.224 25.706,16.172 30.831,19.932 
			30.34,20.619 26.846,18.665 20.871,12.907 17.647,16.924 12.939,14.392 11.562,17.32 6.347,24.443 5.34,23.793 10.494,16.707 
			12.289,13.473 7.505,11.245 1.663,7.159 2.218,14.629 4.142,25.806 14.08,26.266 25.38,23.949 31.398,23.161 32.59,21.342 		"/>
		<polygon fill="#3A6B8C" points="13.166,12.295 17.285,15.103 19.747,12.096 23.805,8.276 29.932,1.152 17.013,2.814 8.158,4.18 
			1.451,5.672 8.049,9.999 		"/>
	</g>
	<g>
		<polygon fill="#A31304" points="38.792,31.277 39.955,24.488 35.223,27.465 32.873,28.522 34.481,31.744 36.794,35.083 
			36.356,35.396 34.651,33.488 32.239,28.765 29.455,30.521 27.139,28.01 25.697,29.492 21.063,32.711 20.59,32.107 25.18,28.899 
			26.937,27.319 24.511,24.978 22.343,25.521 20.612,25.922 19.447,33.074 25.356,35.422 32.665,36.375 36.464,37.152 
			37.563,36.301 		"/>
		<polygon fill="#A31304" points="27.711,26.791 29.617,29.346 31.729,28.041 34.976,26.578 40.162,23.551 33.186,22.152 
			32.029,23.9 28.28,24.32 26.385,24.489 25.48,24.721 		"/>
	</g>
	<path fill="#4B7945" d="M49.834,2.655L42.45,3.97l-7.405,1.542l-2.728,0.433l1.311,7.074l1.35,6.243l4.976-1.134l7.71-1.351
		l4.696-1.044L51.35,11.37L49.834,2.655z M45.243,13.998l0.073,0.423l-2.605,0.403l-5.568,1.019l-0.08-0.463l-0.113-0.472
		l2.204-0.486l0.03-0.005l3.517-0.531l2.488-0.343L45.243,13.998z M36.612,13.321l-0.001-0.36l2.865-0.582l2.808-0.494l1.329-0.286
		l1.144-0.211l0.101,0.769l-1.396,0.317l-3.988,0.682l-2.714,0.56L36.612,13.321z M44.418,9.727l0.095,0.434l-2.764,0.534
		l-2.992,0.457l-2.437,0.434l-0.219-0.808l5.709-1.049l2.569-0.423L44.418,9.727z M49.14,6.422l-2.325,0.365l-0.326-1.106
		l-0.15-1.333l1.068-0.134l1.336-0.275l0.319,1.245L49.14,6.422z"/>
</g>
<g id="svg_logo_name">
	<path fill="#4D4D4D" d="M64.423,18.073c0-0.48-0.257-0.704-0.704-0.704h-1.28v-3.456h3.744c1.439,0,2.144,0.672,2.144,1.824v0.48
		c0,0.352-0.032,0.704-0.032,0.704h0.064c0.768-1.6,2.72-3.392,5.279-3.392c2.464,0,4.063,1.152,4.768,3.359h0.064
		c0.863-1.76,2.976-3.359,5.567-3.359c3.392,0,5.344,1.92,5.344,6.208v6.367c0,0.448,0.256,0.704,0.704,0.704h1.247v3.424h-3.839
		c-1.536,0-2.176-0.64-2.176-2.176v-7.551c0-1.856-0.353-3.264-2.24-3.264c-2.016,0-3.456,1.696-3.904,3.744
		c-0.191,0.64-0.256,1.312-0.256,2.08v7.167h-4.063v-9.727c0-1.76-0.256-3.264-2.208-3.264c-2.048,0-3.424,1.696-3.936,3.776
		c-0.16,0.64-0.256,1.312-0.256,2.048v7.167h-4.031V18.073z"/>
	<path fill="#4D4D4D" d="M102.693,19.993h0.513v-0.128c0-2.336-0.929-3.2-3.008-3.2c-0.736,0-2.177,0.192-2.177,1.088v0.864h-3.775
		v-1.728c0-3.04,4.288-3.359,5.983-3.359c5.439,0,7.04,2.848,7.04,6.496v6.079c0,0.448,0.256,0.704,0.704,0.704h1.279v3.424h-3.647
		c-1.504,0-2.08-0.832-2.08-1.792c0-0.416,0.032-0.704,0.032-0.704h-0.064c0,0-1.247,2.879-4.928,2.879
		c-2.911,0-5.567-1.824-5.567-5.087C92.998,20.409,100.038,19.993,102.693,19.993z M99.558,27.448c2.176,0,3.712-2.304,3.712-4.288
		v-0.384h-0.704c-2.111,0-5.472,0.288-5.472,2.56C97.094,26.424,97.894,27.448,99.558,27.448z"/>
	<path fill="#4D4D4D" d="M112.646,18.073c0-0.48-0.257-0.704-0.704-0.704h-1.28v-3.456h3.872c1.504,0,2.144,0.672,2.144,2.176
		v10.015c0,0.448,0.256,0.704,0.704,0.704h1.28v3.424h-3.872c-1.504,0-2.144-0.64-2.144-2.176V18.073z M112.838,7.514h3.52v3.744
		h-3.52V7.514z"/>
	<path fill="#4D4D4D" d="M121.99,11.673c0-0.48-0.256-0.704-0.704-0.704h-1.279V7.514h3.871c1.504,0,2.176,0.672,2.176,2.176v16.415
		c0,0.448,0.257,0.704,0.704,0.704h1.248v3.424h-3.84c-1.535,0-2.176-0.64-2.176-2.176V11.673z"/>
	<path fill="#4D4D4D" d="M131.525,16.729c0-0.448-0.257-0.704-0.704-0.704h-1.344v-1.888h2.207c1.376,0,1.92,0.576,1.92,1.696
		c0,0.64-0.031,1.088-0.031,1.088h0.063c0,0,1.28-3.168,5.536-3.168c4.319,0,7.007,3.456,7.007,8.448
		c0,5.087-3.039,8.415-7.199,8.415c-3.936,0-5.279-3.04-5.279-3.04h-0.064c0,0,0.064,0.576,0.064,1.408v7.647h-2.176V16.729z
		 M138.757,28.696c2.848,0,5.184-2.4,5.184-6.496c0-3.936-2.08-6.464-5.088-6.464c-2.688,0-5.216,1.92-5.216,6.496
		C133.637,25.464,135.396,28.696,138.757,28.696z"/>
	<path fill="#4D4D4D" d="M150.469,16.729c0-0.448-0.256-0.704-0.703-0.704h-1.345v-1.888h2.272c1.376,0,1.952,0.576,1.952,1.952
		V27.64c0,0.48,0.256,0.704,0.703,0.704h1.344v1.888h-2.271c-1.376,0-1.952-0.576-1.952-1.952V16.729z M150.405,7.738h2.111v2.751
		h-2.111V7.738z"/>
	<path fill="#4D4D4D" d="M158.31,10.33c0-0.448-0.256-0.704-0.704-0.704h-1.344V7.738h2.271c1.376,0,1.952,0.576,1.952,1.952V27.64
		c0,0.48,0.256,0.704,0.704,0.704h1.344v1.888h-2.271c-1.376,0-1.952-0.576-1.952-1.952V10.33z"/>
	<path fill="#4D4D4D" d="M172.612,13.753c4.448,0,6.752,3.424,6.752,7.424c0,0.384-0.063,1.088-0.063,1.088h-12.352
		c0.064,4.063,2.912,6.399,6.239,6.399c2.944,0,4.832-1.984,4.832-1.984l1.056,1.632c0,0-2.336,2.304-5.983,2.304
		c-4.768,0-8.415-3.456-8.415-8.415C164.678,16.921,168.293,13.753,172.612,13.753z M177.124,20.537
		c-0.128-3.328-2.176-4.959-4.543-4.959c-2.656,0-4.992,1.728-5.536,4.959H177.124z"/>
</g>
</svg>
