<?xml version="1.0" standalone="no"?>
<!DOCTYPE svg PUBLIC "-//W3C//DTD SVG 1.1//EN" "http://www.w3.org/Graphics/SVG/1.1/DTD/svg11.dtd">
<svg width="100px" height="100px" version="1.1" xmlns="http://www.w3.org/2000/svg" xmlns:xlink="http://www.w3.org/1999/xlink" xml:space="preserve" style="fill-rule:evenodd;clip-rule:evenodd;stroke-linejoin:round;stroke-miterlimit:1.41421;">
    <g>
        <g id="addresses">
            <path d="M87.1146,11.82L88,93.7252C88,96.5687 85.5336,97.6808 82.4911,97.6808L16.5354,97.5306C13.4979,97.5306 11.0265,96.4088 11.0265,93.5749L11.0265,7.45026C11.0265,4.6067 13.493,2.31916 16.5354,2.31916L72.7321,2.31916C72.7321,2.31916 76.0373,2.31916 76.0373,7.16574C76.0373,10.3975 77.1391,84.5909 77.1391,84.5909C77.1391,84.5909 77.1391,86.6417 74.5486,86.6417C73.8512,86.6417 19.8404,86.4275 19.8404,86.4275C19.8404,89.2586 20.075,91.5283 23.1374,91.5283L77.1391,91.5283C80.1769,91.5283 81.8214,90.2494 81.8214,87.4275L80.3104,7.13248L84.4419,7.13248C84.4419,7.13248 87.1146,6.97639 87.1146,11.82ZM49.8684,45.2157C49.2428,44.5055 49.2428,44.5055 49.6628,41.8654C50.3788,38.9104 51.0284,40.7447 52.0528,34.8512C52.912,29.901 51.0772,25.6481 45.5024,25.6481C39.9291,25.6481 38.0927,29.901 38.9535,34.8512C39.9776,40.745 40.625,38.9104 41.3429,41.8654C41.7629,44.5058 41.7629,44.5058 41.1367,45.2157C38.1703,48.5846 29.8893,47.2737 28.9932,51.5749L28.9932,54.4224C28.9932,54.4224 28.8282,55.7543 30.8078,55.7543C40.2021,55.7543 50.9161,55.7543 60.3368,55.7543C62,55.7543 61.9865,54.4224 61.9865,54.4224C61.9865,54.4224 61.9865,52.8239 62,52.158C61.1032,47.8567 52.8368,48.5846 49.8684,45.2157Z" style="fill:black;"/>
        </g>
    </g>
</svg>
