<?xml version="1.0" encoding="utf-8"?>
<!-- Generator: Adobe Illustrator 16.2.1, SVG Export Plug-In . SVG Version: 6.00 Build 0)  -->
<!DOCTYPE svg PUBLIC "-//W3C//DTD SVG 1.1//EN" "http://www.w3.org/Graphics/SVG/1.1/DTD/svg11.dtd">
<svg xmlns="http://www.w3.org/2000/svg" xmlns:xlink="http://www.w3.org/1999/xlink" version="1.1" id="Layer_1" x="0px" y="0px" width="100px" height="100px" viewBox="0 0 100 100" enable-background="new 0 0 100 100" xml:space="preserve">
<path d="M96.75,7.543H2.748c-1.656,0-2.999,1.342-2.999,2.999v79.003c0,1.655,1.342,2.998,2.999,2.998H96.75  c1.657,0,2.999-1.343,2.999-2.998V10.542C99.749,8.886,98.407,7.543,96.75,7.543z M62.75,79.668c0,1.034-1.101,1.876-2.057,1.876  H10.484c-0.958,0-1.735-0.842-1.735-1.876v-0.249c0-1.037,0.777-1.875,1.735-1.875h50.209c0.956,0,2.057,0.838,2.057,1.875V79.668z   M10.428,65.544h48.47c0.927,0,1.922,0.811,1.922,1.813v0.373c0,1-0.995,1.814-1.922,1.814h-48.47c-0.929,0-1.679-0.814-1.679-1.814  v-0.373C8.749,66.354,9.5,65.544,10.428,65.544z M8.749,55.67v-0.253c0-1.034,0.777-1.874,1.735-1.874h45.581  c0.959,0,1.863,0.84,1.863,1.874v0.253c0,1.034-0.904,1.874-1.863,1.874H10.484C9.526,57.544,8.749,56.704,8.749,55.67z   M90.511,78.523l-3.186,2.364c-0.231,0.171-0.513,0.264-0.795,0.264c-0.07,0-0.137-0.003-0.208-0.015  c-0.352-0.055-0.669-0.249-0.877-0.539l-6.421-8.856l-3.686,2.716c-0.362,0.265-0.833,0.333-1.256,0.178  c-0.423-0.156-0.737-0.513-0.84-0.95l-4.54-19.359c-0.123-0.519,0.072-1.061,0.5-1.376c0.429-0.322,1.002-0.356,1.463-0.093  l17.274,9.851c0.39,0.22,0.643,0.626,0.673,1.075c0.027,0.449-0.17,0.878-0.526,1.15l-3.732,2.839l6.441,8.892  C91.225,77.257,91.098,78.086,90.511,78.523z M92.749,39.544c0,1.656-1.342,2.999-2.999,2.999H9.749  c-1.657,0-2.999-1.343-2.999-2.999v-19c0-1.657,1.342-3.001,2.999-3.001H89.75c1.657,0,2.999,1.344,2.999,3.001V39.544z"/>
</svg>
