<?xml version="1.0" encoding="UTF-8" standalone="no"?>
<svg width="100px" height="100px" viewBox="0 0 100 100" version="1.1" xmlns="http://www.w3.org/2000/svg" xmlns:xlink="http://www.w3.org/1999/xlink" xmlns:sketch="http://www.bohemiancoding.com/sketch/ns">
    <!-- Generator: Sketch 3.1.1 (8761) - http://www.bohemiancoding.com/sketch -->
    <title>alerts</title>
    <desc>Created with Sketch.</desc>
    <defs></defs>
    <g id="Page-1" stroke="none" stroke-width="1" fill="none" fill-rule="evenodd" sketch:type="MSPage">
        <g id="alerts" sketch:type="MSArtboardGroup" fill="#000000">
            <path d="M50.782238,95.5302825 C55.7563203,95.2157921 60.6930634,91.4615946 59.9053269,83 C52.6080246,83.4434652 46.3389454,83.5171801 41.0085108,83.2125902 C40.0085108,90.6425781 45.5597434,95.8630539 50.782238,95.5302825 L50.782238,95.5302825 Z M48.6150332,78.0822282 C6.15991964,78.0826819 9.80377152,69.9457125 15.8792847,65.7049679 C21.955164,61.4620019 22.691418,52.129299 22.7410648,36.056147 C22.7724746,25.887207 35.7508452,21.3768037 40.918349,20.909668 C46.5053712,20.012207 55.6876867,20.4638398 57.1523117,20.909668 C64.5553632,22.5314234 74.4904783,26.5347826 74.4875253,36.0577959 C74.4902739,52.1293742 75.2754269,61.4627286 81.3507285,65.7035346 C86.4881786,69.2941112 89.8801175,75.6641873 65.0782561,77.5492224 C64.1453568,77.6160543 49.6212493,78.0829609 48.6150332,78.0822282 L48.6150332,78.0822282 Z M48.3363999,15.9885254 C44.8451251,15.9885254 40.9695471,16.4224365 40.7704466,16.4224365 C39.570202,15.8818106 39.3302514,14.0354135 39.3304984,13.3538786 C39.3287332,8.99246777 42.9763826,4.99937131 48.3364,5 C53.6938794,4.99987718 57.2874529,8.99158626 57.2862183,13.353278 C57.2861673,14.1307403 57.1820984,16.0757072 55.8055115,16.4224365 C55.4955605,16.4224365 51.699874,15.9885254 48.3363999,15.9885254 L48.3363999,15.9885254 Z" sketch:type="MSShapeGroup"></path>
        </g>
    </g>
</svg>