<?xml version="1.0" encoding="UTF-8" standalone="no"?>
<svg width="100px" height="100px" viewBox="0 0 100 100" version="1.1" xmlns="http://www.w3.org/2000/svg" xmlns:xlink="http://www.w3.org/1999/xlink" xmlns:sketch="http://www.bohemiancoding.com/sketch/ns">
    <!-- Generator: Sketch 3.1.1 (8761) - http://www.bohemiancoding.com/sketch -->
    <title>animals</title>
    <desc>Created with Sketch.</desc>
    <defs></defs>
    <g id="Page-1" stroke="none" stroke-width="1" fill="none" fill-rule="evenodd" sketch:type="MSPage">
        <g id="animals" sketch:type="MSArtboardGroup" fill="#000000">
            <path d="M84.9266132,77.9429117 C82.602229,71.6984264 74.4003733,70.0764822 70.5042294,65.77833 C62.3513818,56.7726778 64.3012041,42.0245707 50.2638839,41.1440867 C36.2195626,42.0245707 38.1693848,56.7726778 30.0130367,65.77833 C26.1168927,70.0764822 17.9150371,71.6984264 15.5941534,77.9429117 C12.748183,85.6046672 17.4284566,92.5365479 20.9535393,95.5255594 C28.0352098,101.515168 39.422592,95.5912095 47.0573539,94.718449 C48.153035,94.583287 49.2137103,94.5601164 50.2603833,94.5601164 C51.3035557,94.5601164 52.3677316,94.583287 53.4634127,94.718449 C61.0911735,95.5912095 72.4820563,101.515168 79.5707279,95.5255594 C83.09231,92.5365479 87.7725836,85.6046672 84.9266132,77.9429117 Z M90.032427,42.5161849 C88.187622,50.1277374 82.4991818,55.0514966 77.3218261,53.5299585 C72.154972,51.9891115 69.4595265,44.5899564 71.307832,36.9784039 C73.1526369,29.3784367 78.8445777,24.4430921 84.0149323,25.9762156 C89.1887875,27.5132008 91.8807325,34.9123559 90.032427,42.5161849 Z M27.0240909,36.984504 C28.8688958,44.588333 26.1804514,52.0029351 21.0065963,53.5244733 C15.8327411,55.0498732 10.1408003,50.1222522 8.29599537,42.522285 C6.45119045,34.9107325 9.14313539,27.5115774 14.31349,25.9707304 C19.4908457,24.4569158 25.1757854,29.3729515 27.0240909,36.984504 Z M44.5252485,13.8108383 C46.373554,21.4069438 43.6781085,28.8138224 38.5077539,30.3430841 C33.3338987,31.868484 27.6454585,26.940863 25.8006536,19.3486193 C23.9523481,11.7370668 26.644293,4.33018819 31.8181482,2.80478826 C36.9885028,1.27552657 42.6804436,6.19928581 44.5252485,13.8108383 Z M72.5326231,19.3458607 C70.6878182,26.9419661 64.9958774,31.8811724 59.8220222,30.3441872 C54.6551682,28.8110637 51.9562221,21.4041851 53.8045276,13.8080797 C55.6528331,6.20038894 61.3412733,1.27276792 66.5116279,2.80589139 C71.6854831,4.32742954 74.3809286,11.7343081 72.5326231,19.3458607 Z" sketch:type="MSShapeGroup"></path>
        </g>
    </g>
</svg>