<?xml version="1.0" encoding="utf-8"?>
<!-- Generator: Adobe Illustrator 16.2.1, SVG Export Plug-In . SVG Version: 6.00 Build 0)  -->
<!DOCTYPE svg PUBLIC "-//W3C//DTD SVG 1.1//EN" "http://www.w3.org/Graphics/SVG/1.1/DTD/svg11.dtd">
<svg xmlns="http://www.w3.org/2000/svg" xmlns:xlink="http://www.w3.org/1999/xlink" version="1.1" id="One_Stack_1_" x="0px" y="0px" width="100px" height="100px" viewBox="0 0 100 100" enable-background="new 0 0 100 100" xml:space="preserve">
<path d="M93.664,14.332H6.335C2.75,14.332,0,17.667,0,20.668V79.33c0,2.67,3.25,6.337,6.335,6.337h87.329  c3.46,0,6.336-3.334,6.336-6.337V20.669C100,17.501,96.499,14.332,93.664,14.332z M51.334,71c-3.59,0-6.5-2.91-6.5-6.5  c0-2.287,1.184-4.295,2.971-5.453c0.963-0.65,2.138-1.048,3.196-1.048c0.06,0,0.119,0.007,0.179,0.009  C51.23,58.007,51.281,58,51.334,58c3.59,0,6.5,2.91,6.5,6.5S54.924,71,51.334,71z M71,46.426c0,0.91-0.741,1.648-1.662,1.648H32.66  c-0.917,0-1.66-0.738-1.66-1.648V28.683c0-0.909,0.743-1.645,1.66-1.645h4.195c1.917,0,1.748,1.629,1.748,1.629l0.009,9.994  c0,0.917,0.747,1.662,1.666,1.662h21.111c0.922,0,1.666-0.745,1.666-1.662l0.019-9.994c0,0,0.073-1.63,1.614-1.629h4.65  c0.921,0,1.662,0.737,1.662,1.645V46.426z"/>
</svg>
