<?xml version="1.0" encoding="UTF-8" standalone="no"?>
<svg width="100px" height="100px" viewBox="0 0 100 100" version="1.1" xmlns="http://www.w3.org/2000/svg" xmlns:xlink="http://www.w3.org/1999/xlink" xmlns:sketch="http://www.bohemiancoding.com/sketch/ns">
    <!-- Generator: Sketch 3.1.1 (8761) - http://www.bohemiancoding.com/sketch -->
    <title>attachment</title>
    <desc>Created with Sketch.</desc>
    <defs></defs>
    <g id="Page-1" stroke="none" stroke-width="1" fill="none" fill-rule="evenodd" sketch:type="MSPage">
        <g id="attachment" sketch:type="MSArtboardGroup" fill="#000000">
            <path d="M9,80.251475 C9,76.401275 10.5941413,72.685175 13.3926848,69.892475 L53.3364348,29.906375 C57.3348696,26.056175 63.863,26.056175 67.8569239,29.906375 C71.85175,33.895175 71.3230761,39.340175 67.592587,43.060775 L46.1542283,63.911975 C43.2176522,66.703775 38.963,62.320775 41.7570326,59.534375 L62.7930217,39.340175 C63.863,38.139575 63.863,36.146975 62.7930217,35.087675 C61.5931304,33.894275 59.5957174,33.894275 58.53025,35.087675 L18.4556848,74.935175 C15.3891957,77.991575 15.5236196,82.644575 18.4556848,85.565975 C21.2497174,88.754675 26.4435326,88.353275 28.9732283,85.565975 L80.8996522,33.760175 C85.9635543,28.842575 85.9635543,20.735375 80.8996522,15.822275 C75.9746848,10.909175 67.8560217,10.909175 62.9220326,15.822275 L22.845663,55.406975 C19.5184457,58.734275 14.5889674,53.950775 17.9206957,50.627975 L57.8635435,10.775975 C65.5879565,3.074675 78.2409457,3.074675 85.9644565,10.775975 C93.8178804,18.485375 93.8178804,31.099775 85.9644565,38.938775 L34.1679457,90.614075 C31.3657935,93.408575 27.6398152,94.999775 23.7758043,94.999775 C15.6544348,94.999775 9,87.959975 9,80.251475 L9,80.251475 Z" sketch:type="MSShapeGroup"></path>
        </g>
    </g>
</svg>