<?xml version="1.0" encoding="utf-8"?>
<!-- Generator: Adobe Illustrator 16.2.1, SVG Export Plug-In . SVG Version: 6.00 Build 0)  -->
<!DOCTYPE svg PUBLIC "-//W3C//DTD SVG 1.1//EN" "http://www.w3.org/Graphics/SVG/1.1/DTD/svg11.dtd">
<svg xmlns="http://www.w3.org/2000/svg" xmlns:xlink="http://www.w3.org/1999/xlink" version="1.1" id="Layer_1" x="0px" y="0px" width="100px" height="100px" viewBox="0 0 100 100" enable-background="new 0 0 100 100" xml:space="preserve">
<path display="none" d="M64.199,0L91.17,27.628V100H9.097V0H64.199z M16.941,92.159h66.391l-0.165-60.993L60.111,7.841h-43.17  V92.159z"/>
<path display="none" d="M66.833,29.528c-15.133-0.502-27.528,5.079-27.528,5.079l-0.009,28.326  c-1.541-0.612-3.414-0.757-5.316-0.295c-4.104,0.997-6.791,4.436-6.001,7.684c0.789,3.247,4.753,5.069,8.856,4.073  c3.869-0.94,6.477-4.05,6.101-7.124l0,0V46.106c0,0,8.766-3.064,20.136-3.833v15.741l0,0c-1.526-0.584-3.363-0.716-5.231-0.262  c-4.104,0.997-6.79,4.437-6.001,7.684c0.788,3.245,4.755,5.069,8.856,4.072c3.583-0.871,6.085-3.603,6.138-6.443l0.001,0.003  C66.833,63.067,66.833,35.277,66.833,29.528z"/>
<path display="none" d="M28,32v1v4v8v5v8v5v8v3v2h44v-2v-3v-8v-5v-8v-5v-8v-4v-1H28z M46,58v-8h8v8H46z M54,63v8h-8v-8H54z M46,45  v-8h8v8H46z M33,37h8v8h-8V37z M33,50h8v8h-8V50z M33,63h8v8h-8V63z M67,71h-8v-8h8V71z M67,58h-8v-8h8V58z M67,45h-8v-8h8V45z"/>
<rect x="29" y="42" display="none" width="42" height="5"/>
<rect x="29" y="57" display="none" width="42" height="5"/>
<rect x="29" y="72" display="none" width="42" height="5"/>
<g id="Your_Icon" display="none">
	<path display="inline" d="M56.752,62.371c-2.086-0.652-5.422-0.787-6.256-0.787c-1.295,0-2.569,0.102-3.816,0.291   c-1.346-8.642,0.027-14.144,2.039-17.61c0.374,0.591,1.002,0.98,1.718,0.98c0.994,0,1.823-0.754,2.025-1.76   c0.198,0.067,0.409,0.105,0.629,0.105c1.145,0,2.073-1.001,2.073-2.235c0-0.035-0.003-0.068-0.007-0.102   c0.386,0.258,0.774,0.542,1.153,0.857c1.685,1.397,3.138,3.321,3.136,5.792c0,0.599-0.086,1.233-0.274,1.908   c-0.04,0.143,0.031,0.295,0.16,0.345c0.029,0.012,0.061,0.017,0.089,0.017c0.103,0,0.199-0.066,0.239-0.173   c0.006-0.018,0.851-2.197,0.852-4.794c0-1.814-0.419-3.855-1.867-5.455c-0.365-0.404-0.795-0.777-1.297-1.111   c0.039,0,0.078-0.001,0.118-0.001c1.615,0,3.36,0.257,4.846,1.048c1.485,0.794,2.717,2.102,3.359,4.267   c0.037,0.119,0.139,0.196,0.25,0.196c0.021,0,0.044-0.003,0.065-0.009c0.134-0.04,0.218-0.184,0.188-0.33   c-0.005-0.018-0.444-2.255-1.729-4.517c-1.274-2.254-3.439-4.563-6.849-4.562c-1.497,0-3.221,0.447-5.2,1.51   c-3.292-4.185-6.388-5.669-9.092-5.668c-5.726,0.029-9.418,6.503-9.674,6.941v0c-0.009,0.015-0.014,0.022-0.014,0.023   c-0.071,0.128-0.036,0.294,0.081,0.377c0.115,0.083,0.271,0.052,0.354-0.068c1.754-2.569,4.036-3.417,6.377-3.422   c2.223-0.001,4.483,0.791,6.269,1.649c-0.369-0.046-0.724-0.069-1.063-0.069c-3.523-0.006-5.436,2.352-6.406,4.645   c-0.981,2.298-1.087,4.565-1.089,4.584c-0.007,0.149,0.096,0.278,0.233,0.293c0.009,0.001,0.019,0.002,0.027,0.002   c0.128,0,0.237-0.101,0.258-0.239c0.375-2.626,1.857-4.087,3.656-4.942c1.796-0.847,3.896-1.037,5.374-1.036   c0.172,0,0.336,0.002,0.49,0.007c-6.859,6.301-6.01,21.277-5.831,23.616c-6.023,2.048-11.135,6.302-14.518,11.887   c0.38,0.014,44.599-0.032,45.062-0.03C69.151,68.747,63.506,64.095,56.752,62.371z"/>
</g>
<g display="none">
	<polygon display="inline" points="30,43 30,59 60,59 60,51.141 60,43  "/>
	<polygon display="inline" points="60.322,51.141 70,57.656 70,51.141 70,44.627  "/>
</g>
<g display="none">
	<path display="inline" d="M56.328,31.672c0-0.752-0.608-1.36-1.359-1.36h-7.483c-0.752,0-1.36,0.608-1.36,1.36   c0,0.749,0.608,1.357,1.36,1.357h7.483C55.72,33.029,56.328,32.421,56.328,31.672z"/>
	<path display="inline" d="M56.328,23.154c0-0.752-0.608-1.358-1.359-1.358h-7.483c-0.752,0-1.36,0.606-1.36,1.358   c0,0.751,0.608,1.356,1.36,1.356h7.483C55.72,24.511,56.328,23.905,56.328,23.154z"/>
	<path display="inline" d="M56.328,14.636c0-0.748-0.608-1.36-1.359-1.36h-7.483c-0.752,0-1.36,0.612-1.36,1.361   c0,0.75,0.608,1.357,1.36,1.357h7.483C55.72,15.994,56.328,15.387,56.328,14.636z"/>
	<path display="inline" d="M50.115,17.485h-7.487c-0.75,0-1.355,0.606-1.355,1.359c0,0.748,0.605,1.357,1.355,1.357h7.487   c0.75,0,1.359-0.608,1.359-1.357C51.475,18.09,50.865,17.484,50.115,17.485z"/>
	<path display="inline" d="M41.272,35.875c0,0.752,0.605,1.358,1.355,1.358h7.487c0.75,0,1.359-0.606,1.359-1.358   c0-0.751-0.609-1.358-1.359-1.358h-7.487C41.878,34.517,41.272,35.124,41.272,35.875z"/>
	<path display="inline" d="M56.473,40.265c0-0.75-0.609-1.357-1.357-1.357h-7.486c-0.75,0-1.36,0.606-1.36,1.357   c0,0.749,0.608,1.356,1.36,1.356h7.486C55.862,41.621,56.473,41.014,56.473,40.265z"/>
	<path display="inline" d="M41.414,44.469c0,0.75,0.608,1.36,1.358,1.36h7.487c0.75,0,1.357-0.61,1.357-1.36   c0-0.751-0.607-1.358-1.357-1.358h-7.487C42.022,43.11,41.414,43.718,41.414,44.469z"/>
	<path display="inline" d="M41.272,27.359c0,0.75,0.605,1.357,1.355,1.357h7.487c0.75,0,1.359-0.606,1.359-1.357   c0-0.751-0.609-1.361-1.359-1.361h-7.487C41.878,25.999,41.272,26.608,41.272,27.359z"/>
	<path display="inline" d="M56.473,48.78c0-0.747-0.609-1.357-1.357-1.357h-7.486c-0.75,0-1.36,0.609-1.36,1.357   c0,0.754,0.608,1.359,1.36,1.359h7.486C55.862,50.14,56.473,49.534,56.473,48.78z"/>
	<path display="inline" d="M41.522,52.625c0,0.752,0.605,1.358,1.355,1.358h7.487c0.75,0,1.359-0.606,1.359-1.358   c0-0.751-0.609-1.358-1.359-1.358h-7.487C42.128,51.267,41.522,51.874,41.522,52.625z"/>
	<path display="inline" d="M56.723,57.015c0-0.75-0.609-1.357-1.357-1.357h-7.486c-0.75,0-1.36,0.606-1.36,1.357   c0,0.749,0.608,1.356,1.36,1.356h7.486C56.112,58.371,56.723,57.764,56.723,57.015z"/>
	<path display="inline" d="M41.664,61.219c0,0.75,0.608,1.36,1.358,1.36h7.487c0.75,0,1.357-0.61,1.357-1.36   c0-0.751-0.607-1.358-1.357-1.358h-7.487C42.272,59.86,41.664,60.468,41.664,61.219z"/>
	<path display="inline" d="M56.723,65.53c0-0.747-0.609-1.357-1.357-1.357h-7.486c-0.75,0-1.36,0.609-1.36,1.357   c0,0.754,0.608,1.359,1.36,1.359h7.486C56.112,66.89,56.723,66.284,56.723,65.53z"/>
	<path display="inline" d="M41.772,69.541c0,0.752,0.605,1.359,1.355,1.359h7.487c0.75,0,1.36-0.607,1.36-1.359   c0-0.75-0.609-1.357-1.36-1.357h-7.487C42.377,68.184,41.772,68.791,41.772,69.541z"/>
	<path display="inline" d="M58.123,73H39.71c-2.141,0-3.876,1.924-3.876,4.5S37.569,82,39.71,82h18.413C60.265,82,62,80.076,62,77.5   S60.265,73,58.123,73z M49,80.334c-1.473,0-2.667-1.194-2.667-2.667S47.527,75,49,75s2.667,1.194,2.667,2.667   S50.473,80.334,49,80.334z"/>
</g>
<path display="none" d="M63.602,50.645c-0.493,0-0.794,0-0.794,0v-6.456c-0.041-7.917-5.44-12.227-12.003-12.227  c-6.562,0-12.446,4.515-12.241,12.227l-0.006,6.448c0,0,0.099,0.009-0.396,0.009c-0.523,0-3.976,0.607-3.976,3.686v14.776  c0,3.283,3.885,4.102,3.976,4.102c6.913,0,18.33,0,25.244,0c0.091,0,3.776-0.41,3.776-4.102V54.536  C67.182,51.048,63.693,50.645,63.602,50.645z M53.632,67.525h-5.886l1.222-6.009c-0.874-0.582-1.455-1.595-1.455-2.749  c0-1.809,1.42-3.275,3.171-3.275s3.17,1.468,3.17,3.275c0,1.152-0.578,2.167-1.452,2.747L53.632,67.525z M44.116,50.645l0.007-6.37  c0-4.104,2.504-7.385,6.561-7.385c4.018,0,6.56,2.87,6.56,7.385l0.004,6.37H44.116z"/>
<g display="none">
	<path display="inline" d="M40.816,32.907c2.213-1.426,4.934-2.139,8.16-2.139c4.24,0,7.762,1.013,10.567,3.039   s4.206,5.027,4.206,9.004c0,2.438-0.609,4.493-1.824,6.163c-0.71,1.013-2.077,2.307-4.096,3.883l-1.993,1.548   c-1.086,0.844-1.806,1.829-2.162,2.954c-0.223,0.713-0.345,1.82-0.364,3.32h-7.625c0.112-3.17,0.411-5.36,0.898-6.57   c0.486-1.21,1.739-2.603,3.759-4.179l2.048-1.604c0.673-0.506,1.217-1.06,1.627-1.66c0.748-1.032,1.123-2.167,1.123-3.405   c0-1.426-0.417-2.725-1.249-3.897c-0.833-1.172-2.354-1.758-4.562-1.758c-2.172,0-3.711,0.722-4.619,2.167   c-0.907,1.444-1.361,2.945-1.361,4.502h-8.132C35.441,38.929,37.308,35.14,40.816,32.907z M45.487,64.535h8.415v8.132h-8.415   V64.535z"/>
</g>
<g display="none">
	<path display="inline" d="M28.794,47.054l12.073-7.748v4.83l-8.603,5.131l8.603,5.149v4.813l-12.073-7.748V47.054z"/>
	<path display="inline" d="M52.242,39.331l3.334,0.059L47.16,59.078l-3.303-0.058L52.242,39.331z"/>
	<path display="inline" d="M70.952,51.183L58.88,58.93v-4.813l8.612-5.155l-8.612-5.125v-4.83l12.072,7.783V51.183L70.952,51.183z"/>
	<path display="inline" d="M67.199,71.029c0.807-0.521,1.798-0.779,2.974-0.779c1.545,0,2.828,0.369,3.852,1.107   c1.021,0.738,1.531,1.832,1.531,3.281c0,0.889-0.221,1.637-0.664,2.245c-0.26,0.369-0.757,0.841-1.492,1.414l-0.727,0.563   c-0.396,0.309-0.658,0.666-0.788,1.076c-0.081,0.261-0.126,0.664-0.133,1.211h-2.778c0.041-1.155,0.149-1.953,0.326-2.395   c0.178-0.441,0.635-0.949,1.37-1.523l0.747-0.584c0.245-0.185,0.441-0.387,0.593-0.604c0.272-0.375,0.409-0.789,0.409-1.24   c0-0.52-0.152-0.991-0.455-1.42c-0.305-0.428-0.857-0.641-1.663-0.641c-0.791,0-1.353,0.263-1.683,0.788   c-0.33,0.527-0.496,1.074-0.496,1.642h-2.963C65.241,73.225,65.921,71.843,67.199,71.029z M68.901,82.555h3.065v2.963h-3.065   V82.555z"/>
	<path display="inline" d="M24.556,24.923h2.076l0.812-3.004h-2.083l0.458-1.712h2.087l1.119-4.143h2.04l-1.12,4.143h1.678   l1.11-4.143h2.039l-1.111,4.143h2.084l-0.458,1.712h-2.084l-0.806,3.004h2.086l-0.459,1.712h-2.086l-1.1,4.102h-2.039l1.1-4.102   h-1.692l-1.108,4.102H25.06l1.108-4.102h-2.071L24.556,24.923z M30.359,24.923l0.806-3.004h-1.682l-0.812,3.004H30.359z"/>
	<path display="inline" d="M28.797,72.429c-0.192,0-0.344,0.038-0.456,0.112c-0.112,0.075-0.2,0.168-0.264,0.28   c-0.064,0.111-0.104,0.237-0.12,0.376s-0.024,0.271-0.024,0.399v2.433c0,0.395-0.062,0.712-0.184,0.952   c-0.123,0.239-0.267,0.427-0.432,0.56c-0.166,0.134-0.339,0.227-0.52,0.28c-0.181,0.053-0.331,0.085-0.448,0.096v0.048   c0.117,0.011,0.267,0.046,0.448,0.104s0.354,0.154,0.52,0.288c0.166,0.133,0.31,0.31,0.432,0.527   c0.123,0.219,0.184,0.499,0.184,0.84v2.561c0,0.117,0.008,0.245,0.024,0.384s0.056,0.264,0.12,0.376s0.152,0.205,0.264,0.28   c0.112,0.074,0.264,0.111,0.456,0.111h0.864v1.793h-2.032c-0.182,0-0.387-0.046-0.616-0.137c-0.229-0.091-0.443-0.224-0.64-0.399   c-0.198-0.177-0.366-0.4-0.504-0.672c-0.139-0.272-0.208-0.59-0.208-0.952v-3.104c0-0.245-0.054-0.453-0.16-0.624   c-0.107-0.17-0.235-0.307-0.384-0.408c-0.15-0.101-0.31-0.176-0.48-0.224c-0.171-0.048-0.315-0.072-0.432-0.072v-1.392   c0.117,0,0.261-0.024,0.432-0.072c0.17-0.048,0.33-0.128,0.48-0.24c0.149-0.111,0.277-0.261,0.384-0.447   c0.106-0.187,0.16-0.414,0.16-0.681v-3.008c0-0.362,0.069-0.68,0.208-0.952c0.138-0.271,0.306-0.496,0.504-0.672   c0.197-0.176,0.411-0.31,0.64-0.399c0.229-0.091,0.434-0.137,0.616-0.137h2.032v1.792H28.797z"/>
	<path display="inline" d="M34.973,83.437c0.192,0,0.344-0.037,0.456-0.111c0.112-0.075,0.2-0.168,0.264-0.28   s0.104-0.237,0.12-0.376s0.024-0.267,0.024-0.384v-2.561c0-0.341,0.061-0.621,0.184-0.84c0.123-0.218,0.267-0.395,0.432-0.527   c0.165-0.134,0.338-0.229,0.52-0.288c0.182-0.059,0.331-0.094,0.448-0.104v-0.048c-0.118-0.011-0.267-0.043-0.448-0.096   c-0.181-0.054-0.354-0.146-0.52-0.28c-0.166-0.133-0.31-0.32-0.432-0.56c-0.123-0.24-0.184-0.558-0.184-0.952v-2.433   c0-0.128-0.008-0.261-0.024-0.399s-0.056-0.265-0.12-0.376c-0.064-0.112-0.152-0.205-0.264-0.28   c-0.112-0.074-0.264-0.112-0.456-0.112h-0.864v-1.792h2.032c0.181,0,0.386,0.046,0.616,0.137c0.229,0.09,0.442,0.224,0.64,0.399   c0.197,0.176,0.365,0.4,0.504,0.672c0.139,0.272,0.208,0.59,0.208,0.952v3.008c0,0.267,0.053,0.494,0.16,0.681   c0.106,0.187,0.234,0.336,0.384,0.447c0.149,0.112,0.309,0.192,0.48,0.24c0.17,0.048,0.32,0.072,0.448,0.072v1.392   c-0.128,0-0.278,0.024-0.448,0.072c-0.171,0.048-0.331,0.123-0.48,0.224c-0.149,0.102-0.277,0.238-0.384,0.408   c-0.107,0.171-0.16,0.379-0.16,0.624v3.104c0,0.362-0.069,0.68-0.208,0.952c-0.139,0.271-0.307,0.495-0.504,0.672   c-0.198,0.176-0.411,0.309-0.64,0.399s-0.435,0.137-0.616,0.137h-2.032v-1.793H34.973z"/>
</g>
<path display="none" d="M72.131,67.557c-1.209-5.746-12.111-5.136-16.113-9.636c-0.844-0.95-0.844-0.95-0.277-4.476  c0.966-3.949,1.841-1.498,3.223-9.373c1.159-6.614-1.315-12.296-8.831-12.296c-7.515,0-9.991,5.682-8.83,12.296  c1.381,7.875,2.253,5.423,3.221,9.373c0.567,3.525,0.567,3.525-0.277,4.476c-4.001,4.5-14.905,3.89-16.114,9.636  C27.99,68.237,27.889,72,27.889,72h44.485C72.374,72,72.272,68.237,72.131,67.557z"/>
<g display="none">
	<path display="inline" d="M29.333,43.425v28.592c0,2.135,1.709,3.863,3.818,3.863h34.364c2.109,0,3.818-1.729,3.818-3.863V43.425   H29.333z M39.833,73.016h-7.636v-7.637h7.636V73.016z M39.833,63.471h-7.636v-7.637h7.636V63.471z M39.833,53.925h-7.636v-7.637   h7.636V53.925z M49.379,73.016h-7.637v-7.637h7.637V73.016z M49.379,63.471h-7.637v-7.637h7.637V63.471z M49.379,53.925h-7.637   v-7.637h7.637V53.925z M58.925,73.016h-7.637v-7.637h7.637V73.016z M58.925,63.471h-7.637v-7.637h7.637V63.471z M58.925,53.925   h-7.637v-7.637h7.637V53.925z M68.471,73.016h-7.638v-7.637h7.638V73.016z M68.471,63.471h-7.638v-7.637h7.638V63.471z    M68.471,53.925h-7.638v-7.637h7.638V53.925z"/>
	<path display="inline" d="M67.516,33.879h-6.204v-4.295c0-0.791-0.642-1.432-1.432-1.432c-0.791,0-1.433,0.641-1.433,1.432v4.295   H42.22v-4.295c0-0.791-0.641-1.432-1.432-1.432c-0.791,0-1.432,0.641-1.432,1.432v4.295h-6.205c-2.108,0-3.818,1.729-3.818,3.863   v3.296l0,0v0.478h42v-0.478l0,0v-3.296C71.334,35.608,69.625,33.879,67.516,33.879z M40.788,40.561   c-1.581,0-2.863-1.283-2.863-2.864c0-1.058,0.577-1.981,1.432-2.477v2.477c0,0.792,0.641,1.433,1.432,1.433   c0.791,0,1.432-0.641,1.432-1.433V35.22c0.855,0.496,1.432,1.419,1.432,2.477C43.652,39.278,42.37,40.561,40.788,40.561z    M59.88,40.561c-1.582,0-2.864-1.283-2.864-2.864c0-1.058,0.577-1.981,1.432-2.477v2.477c0,0.792,0.642,1.433,1.433,1.433   c0.79,0,1.432-0.641,1.432-1.433V35.22c0.854,0.496,1.432,1.419,1.432,2.477C62.743,39.278,61.461,40.561,59.88,40.561z"/>
</g>
<g>
	<g>
		<path fill="none" d="M89.621,53.715c0,0-0.006,0.127-0.016,0.352c-0.035,0.222-0.084,0.538-0.144,0.918    c-0.116,0.761-0.27,1.773-0.423,2.786c-0.205,1.004-0.503,1.986-0.68,2.733c-0.188,0.744-0.314,1.24-0.314,1.24l9.001,2.775    c0,0,0.161-0.612,0.4-1.534c0.225-0.923,0.581-2.144,0.833-3.386c0.192-1.253,0.385-2.507,0.528-3.446    c0.069-0.471,0.128-0.861,0.168-1.137C98.991,54.74,99,54.583,99,54.583L89.621,53.715z"/>
		<path fill-rule="evenodd" clip-rule="evenodd" fill="#202020" d="M92.547,63.133c-1.24-0.385-2.242-1.218-2.875-2.185    c-0.645-0.977-0.865-2.075-0.633-3.179c0.164-1.116,0.841-2.038,1.806-2.696c0.985-0.649,2.183-1.041,3.468-0.925    c1.301,0.117,2.447,0.75,3.141,1.737c0.714,0.983,1.044,2.327,0.826,3.713c-0.284,1.372-1.156,2.479-2.189,3.116    C95.044,63.355,93.787,63.519,92.547,63.133z"/>
	</g>
	<g>
		<path fill="none" d="M85.191,68.586c0,0-0.055,0.116-0.152,0.318c-0.103,0.199-0.281,0.467-0.478,0.796    c-0.398,0.657-0.93,1.534-1.461,2.41c-0.59,0.839-1.227,1.644-1.679,2.266c-0.229,0.31-0.42,0.566-0.554,0.747    c-0.13,0.184-0.218,0.276-0.218,0.276l7.248,6.014c0,0,0.108-0.114,0.271-0.34c0.167-0.222,0.404-0.538,0.69-0.917    c0.564-0.766,1.344-1.767,2.067-2.805c0.66-1.083,1.319-2.166,1.813-2.979c0.242-0.409,0.457-0.742,0.585-0.987    c0.122-0.249,0.191-0.392,0.191-0.392L85.191,68.586z"/>
		<path fill-rule="evenodd" clip-rule="evenodd" fill="#202020" d="M84.275,78.408c-0.984-0.821-1.599-1.98-1.812-3.117    c-0.219-1.147-0.015-2.26,0.638-3.181c0.581-0.968,1.56-1.561,2.703-1.796c1.159-0.221,2.404-0.128,3.552,0.478    c1.151,0.604,1.978,1.637,2.236,2.812c0.281,1.183,0.07,2.55-0.664,3.746c-0.804,1.147-2.017,1.844-3.216,2.035    C86.502,79.575,85.285,79.25,84.275,78.408z"/>
	</g>
	<g>
		<path fill="none" d="M75.399,80.65c0,0-0.093,0.088-0.276,0.218c-0.181,0.134-0.438,0.324-0.747,0.554    c-0.622,0.452-1.427,1.089-2.266,1.679c-0.876,0.531-1.753,1.062-2.41,1.461c-0.329,0.196-0.597,0.375-0.796,0.478    c-0.202,0.098-0.318,0.152-0.318,0.152l4.408,8.325c0,0,0.142-0.069,0.392-0.191c0.245-0.128,0.578-0.343,0.987-0.585    c0.812-0.494,1.896-1.153,2.979-1.813c1.038-0.724,2.039-1.503,2.805-2.067c0.379-0.286,0.695-0.523,0.917-0.69    c0.226-0.162,0.34-0.271,0.34-0.271L75.399,80.65z"/>
		<path fill-rule="evenodd" clip-rule="evenodd" fill="#202020" d="M70.791,89.355c-0.604-1.147-0.696-2.393-0.476-3.552    c0.235-1.144,0.828-2.123,1.796-2.704c0.921-0.653,2.033-0.855,3.18-0.638c1.137,0.215,2.296,0.829,3.117,1.813    c0.842,1.01,1.168,2.227,0.979,3.437c-0.191,1.198-0.887,2.41-2.034,3.214c-1.196,0.735-2.564,0.947-3.747,0.666    C72.43,91.333,71.396,90.507,70.791,89.355z"/>
	</g>
	<g>
		<path fill="none" d="M61.744,88.045c0,0-0.496,0.127-1.24,0.314c-0.747,0.177-1.729,0.475-2.733,0.68    c-1.013,0.153-2.025,0.307-2.786,0.423c-0.38,0.06-0.696,0.108-0.918,0.144c-0.225,0.01-0.352,0.016-0.352,0.016L54.583,99    c0,0,0.157-0.009,0.434-0.024c0.275-0.04,0.666-0.099,1.137-0.168c0.939-0.144,2.193-0.336,3.446-0.528    c1.242-0.252,2.463-0.608,3.386-0.833c0.922-0.239,1.534-0.4,1.534-0.4L61.744,88.045z"/>
		<path fill-rule="evenodd" clip-rule="evenodd" fill="#202020" d="M54.148,94.312c-0.116-1.285,0.275-2.482,0.926-3.468    c0.658-0.965,1.581-1.642,2.697-1.806c1.104-0.232,2.201-0.012,3.177,0.632c0.968,0.634,1.8,1.636,2.185,2.876    c0.386,1.24,0.224,2.496-0.417,3.543c-0.638,1.032-1.742,1.904-3.115,2.189c-1.386,0.217-2.729-0.112-3.714-0.826    C54.899,96.76,54.266,95.613,54.148,94.312z"/>
	</g>
	<g>
		<path fill="none" d="M46.286,89.621c0,0-0.128-0.006-0.353-0.016c-0.221-0.035-0.538-0.084-0.917-0.144    c-0.76-0.116-1.773-0.27-2.787-0.423c-1.002-0.205-1.985-0.503-2.732-0.68c-0.745-0.188-1.241-0.314-1.241-0.314l-2.775,9.001    c0,0,0.614,0.161,1.535,0.4c0.924,0.225,2.145,0.581,3.387,0.833c1.253,0.192,2.506,0.385,3.446,0.528    c0.47,0.069,0.862,0.128,1.136,0.168C45.26,98.991,45.418,99,45.418,99L46.286,89.621z"/>
		<path fill-rule="evenodd" clip-rule="evenodd" fill="#202020" d="M36.867,92.547c0.386-1.24,1.218-2.242,2.186-2.875    c0.976-0.645,2.074-0.865,3.177-0.633c1.118,0.164,2.04,0.841,2.697,1.806c0.649,0.985,1.041,2.183,0.925,3.468    c-0.117,1.301-0.75,2.447-1.737,3.141c-0.982,0.714-2.326,1.044-3.712,0.826c-1.374-0.284-2.479-1.156-3.117-2.189    C36.644,95.044,36.481,93.787,36.867,92.547z"/>
	</g>
	<g>
		<path fill="none" d="M31.414,85.191c0,0-0.116-0.055-0.318-0.152c-0.199-0.103-0.467-0.281-0.796-0.478    c-0.658-0.398-1.535-0.93-2.411-1.461c-0.837-0.59-1.644-1.227-2.266-1.679c-0.309-0.229-0.566-0.42-0.746-0.554    c-0.184-0.13-0.276-0.218-0.276-0.218l-6.015,7.248c0,0,0.116,0.108,0.34,0.271c0.222,0.167,0.538,0.404,0.918,0.69    c0.764,0.564,1.765,1.344,2.804,2.067c1.083,0.66,2.166,1.319,2.978,1.813c0.408,0.242,0.742,0.457,0.988,0.585    c0.249,0.122,0.392,0.191,0.392,0.191L31.414,85.191z"/>
		<path fill-rule="evenodd" clip-rule="evenodd" fill="#202020" d="M21.592,84.275c0.821-0.984,1.98-1.599,3.118-1.812    c1.147-0.219,2.258-0.015,3.18,0.638c0.969,0.581,1.56,1.56,1.796,2.703c0.22,1.159,0.127,2.404-0.477,3.552    c-0.606,1.151-1.638,1.978-2.814,2.236c-1.182,0.281-2.549,0.07-3.745-0.664c-1.148-0.804-1.844-2.017-2.036-3.216    C20.424,86.502,20.75,85.285,21.592,84.275z"/>
	</g>
	<g>
		<path fill="none" d="M19.351,75.399c0,0-0.09-0.093-0.218-0.276c-0.134-0.181-0.325-0.438-0.554-0.747    c-0.453-0.622-1.089-1.427-1.678-2.266c-0.532-0.876-1.063-1.753-1.462-2.41c-0.197-0.329-0.375-0.597-0.479-0.796    c-0.096-0.202-0.151-0.318-0.151-0.318l-8.325,4.408c0,0,0.069,0.143,0.191,0.392c0.128,0.245,0.343,0.578,0.586,0.987    c0.494,0.812,1.153,1.896,1.812,2.979c0.725,1.038,1.504,2.039,2.068,2.805c0.286,0.379,0.523,0.695,0.69,0.917    c0.162,0.226,0.271,0.34,0.271,0.34L19.351,75.399z"/>
		<path fill-rule="evenodd" clip-rule="evenodd" fill="#202020" d="M10.645,70.792c1.147-0.605,2.392-0.697,3.552-0.477    c1.144,0.235,2.123,0.828,2.704,1.796c0.653,0.921,0.856,2.033,0.637,3.18c-0.214,1.137-0.828,2.296-1.813,3.117    c-1.011,0.842-2.226,1.168-3.436,0.979c-1.199-0.191-2.411-0.887-3.216-2.034c-0.733-1.196-0.945-2.564-0.664-3.747    C8.667,72.43,9.494,71.396,10.645,70.792z"/>
	</g>
	<g>
		<path fill="none" d="M11.956,61.744c0,0-0.126-0.496-0.314-1.24c-0.177-0.747-0.475-1.729-0.68-2.733    c-0.153-1.013-0.307-2.025-0.422-2.786c-0.06-0.38-0.109-0.696-0.144-0.918c-0.011-0.225-0.016-0.352-0.016-0.352L1,54.583    c0,0,0.008,0.157,0.024,0.434c0.041,0.275,0.098,0.666,0.168,1.137c0.144,0.939,0.336,2.193,0.529,3.446    c0.252,1.242,0.608,2.463,0.833,3.386c0.24,0.922,0.4,1.534,0.4,1.534L11.956,61.744z"/>
		<path fill-rule="evenodd" clip-rule="evenodd" fill="#202020" d="M5.688,54.148c1.285-0.116,2.483,0.275,3.468,0.926    c0.965,0.658,1.642,1.581,1.806,2.697c0.232,1.104,0.012,2.201-0.632,3.177c-0.634,0.968-1.636,1.8-2.876,2.185    c-1.24,0.386-2.497,0.224-3.542-0.417c-1.032-0.638-1.904-1.742-2.189-3.115c-0.218-1.386,0.112-2.729,0.827-3.714    C3.24,54.899,4.386,54.266,5.688,54.148z"/>
	</g>
	<g>
		<path fill="none" d="M10.379,46.286c0,0,0.005-0.128,0.016-0.353c0.035-0.221,0.083-0.538,0.144-0.917    c0.115-0.76,0.269-1.773,0.422-2.787c0.205-1.002,0.503-1.985,0.68-2.732c0.188-0.745,0.314-1.241,0.314-1.241l-9.001-2.775    c0,0-0.16,0.614-0.4,1.535c-0.226,0.924-0.582,2.145-0.833,3.387c-0.192,1.253-0.385,2.506-0.529,3.446    c-0.07,0.47-0.127,0.862-0.168,1.136C1.008,45.26,1,45.418,1,45.418L10.379,46.286z"/>
		<path fill-rule="evenodd" clip-rule="evenodd" fill="#202020" d="M7.453,36.867c1.241,0.386,2.243,1.218,2.876,2.186    c0.645,0.976,0.864,2.074,0.632,3.177c-0.165,1.118-0.841,2.04-1.806,2.697c-0.985,0.649-2.183,1.041-3.468,0.925    c-1.301-0.117-2.448-0.75-3.14-1.737c-0.714-0.982-1.044-2.326-0.827-3.712c0.285-1.374,1.158-2.479,2.19-3.117    C4.956,36.644,6.213,36.481,7.453,36.867z"/>
	</g>
	<g>
		<path fill="none" d="M14.809,31.414c0,0,0.055-0.116,0.151-0.318c0.104-0.199,0.282-0.467,0.479-0.796    c0.399-0.658,0.93-1.535,1.462-2.411c0.589-0.837,1.226-1.644,1.678-2.266c0.229-0.309,0.42-0.566,0.554-0.746    c0.128-0.184,0.218-0.276,0.218-0.276l-7.249-6.015c0,0-0.109,0.116-0.271,0.34c-0.167,0.222-0.405,0.538-0.69,0.918    c-0.564,0.764-1.344,1.765-2.068,2.804c-0.659,1.083-1.318,2.166-1.812,2.978c-0.243,0.408-0.458,0.742-0.586,0.988    c-0.122,0.249-0.191,0.392-0.191,0.392L14.809,31.414z"/>
		<path fill-rule="evenodd" clip-rule="evenodd" fill="#202020" d="M15.725,21.592c0.985,0.821,1.598,1.98,1.812,3.118    c0.218,1.147,0.015,2.258-0.637,3.18c-0.582,0.969-1.561,1.56-2.704,1.796c-1.16,0.22-2.404,0.127-3.551-0.477    c-1.151-0.606-1.978-1.638-2.236-2.814c-0.281-1.182-0.069-2.549,0.664-3.745c0.804-1.148,2.017-1.844,3.216-2.036    C13.498,20.424,14.714,20.75,15.725,21.592z"/>
	</g>
	<g>
		<path fill="none" d="M24.601,19.351c0,0,0.092-0.09,0.276-0.218c0.18-0.134,0.438-0.325,0.746-0.554    c0.622-0.453,1.428-1.089,2.266-1.678c0.876-0.532,1.753-1.063,2.411-1.462c0.329-0.197,0.597-0.375,0.796-0.479    c0.202-0.096,0.318-0.151,0.318-0.151l-4.407-8.325c0,0-0.143,0.069-0.392,0.191c-0.246,0.128-0.58,0.343-0.988,0.586    c-0.812,0.494-1.896,1.153-2.978,1.812c-1.04,0.725-2.04,1.504-2.804,2.068c-0.38,0.286-0.697,0.523-0.918,0.69    c-0.225,0.162-0.34,0.271-0.34,0.271L24.601,19.351z"/>
		<path fill-rule="evenodd" clip-rule="evenodd" fill="#202020" d="M29.209,10.645c0.604,1.147,0.697,2.392,0.476,3.552    c-0.236,1.144-0.828,2.123-1.797,2.704c-0.921,0.653-2.032,0.856-3.179,0.637c-1.137-0.214-2.296-0.828-3.117-1.813    c-0.842-1.011-1.169-2.226-0.979-3.436c0.191-1.199,0.887-2.411,2.035-3.216c1.195-0.733,2.563-0.945,3.746-0.664    C27.571,8.667,28.603,9.494,29.209,10.645z"/>
	</g>
	<g>
		<path fill="none" d="M38.255,11.956c0,0,0.497-0.126,1.241-0.314c0.747-0.177,1.73-0.475,2.732-0.68    c1.014-0.153,2.027-0.307,2.787-0.422c0.379-0.06,0.696-0.109,0.917-0.144c0.225-0.011,0.353-0.016,0.353-0.016L45.418,1    c0,0-0.158,0.008-0.435,0.024c-0.274,0.041-0.667,0.098-1.136,0.168c-0.94,0.144-2.193,0.336-3.446,0.529    c-1.242,0.252-2.463,0.608-3.387,0.833c-0.92,0.24-1.535,0.4-1.535,0.4L38.255,11.956z"/>
		<path fill-rule="evenodd" clip-rule="evenodd" fill="#202020" d="M45.852,5.688c0.116,1.285-0.276,2.483-0.926,3.468    c-0.658,0.965-1.58,1.642-2.698,1.806c-1.103,0.232-2.201,0.012-3.176-0.632c-0.967-0.634-1.799-1.636-2.185-2.876    c-0.385-1.24-0.223-2.497,0.417-3.542c0.637-1.032,1.742-1.904,3.116-2.189c1.386-0.218,2.73,0.112,3.713,0.827    C45.101,3.24,45.734,4.386,45.852,5.688z"/>
	</g>
	<g>
		<path fill="none" d="M53.715,10.379c0,0,0.127,0.005,0.352,0.016c0.222,0.035,0.538,0.083,0.918,0.144    c0.761,0.115,1.773,0.269,2.786,0.422c1.004,0.205,1.986,0.503,2.733,0.68c0.744,0.188,1.24,0.314,1.24,0.314l2.775-9.001    c0,0-0.612-0.16-1.534-0.4c-0.923-0.226-2.144-0.582-3.386-0.833c-1.253-0.192-2.507-0.385-3.446-0.529    c-0.471-0.07-0.861-0.127-1.137-0.168C54.74,1.008,54.583,1,54.583,1L53.715,10.379z"/>
		<path fill-rule="evenodd" clip-rule="evenodd" fill="#202020" d="M63.133,7.453c-0.385,1.241-1.218,2.243-2.185,2.876    c-0.977,0.645-2.075,0.864-3.179,0.632c-1.116-0.165-2.038-0.841-2.696-1.806c-0.649-0.985-1.041-2.183-0.925-3.468    c0.117-1.301,0.75-2.448,1.737-3.14c0.983-0.714,2.327-1.044,3.713-0.827c1.372,0.285,2.479,1.158,3.116,2.19    C63.355,4.956,63.519,6.213,63.133,7.453z"/>
	</g>
	<g>
		<path fill="none" d="M68.586,14.809c0,0,0.116,0.055,0.318,0.151c0.199,0.104,0.467,0.282,0.796,0.479    c0.657,0.399,1.534,0.93,2.41,1.462c0.839,0.589,1.644,1.226,2.266,1.678c0.31,0.229,0.566,0.42,0.747,0.554    c0.184,0.128,0.276,0.218,0.276,0.218l6.014-7.249c0,0-0.114-0.109-0.34-0.271c-0.222-0.167-0.538-0.405-0.917-0.69    c-0.766-0.564-1.767-1.344-2.805-2.068c-1.083-0.659-2.166-1.318-2.979-1.812c-0.409-0.243-0.742-0.458-0.987-0.586    c-0.25-0.122-0.392-0.191-0.392-0.191L68.586,14.809z"/>
		<path fill-rule="evenodd" clip-rule="evenodd" fill="#202020" d="M78.408,15.725c-0.821,0.985-1.98,1.598-3.117,1.812    c-1.147,0.218-2.26,0.015-3.181-0.637c-0.968-0.582-1.561-1.561-1.796-2.704c-0.221-1.16-0.128-2.404,0.477-3.551    c0.605-1.151,1.638-1.978,2.813-2.236c1.183-0.281,2.55-0.069,3.746,0.664c1.147,0.804,1.844,2.017,2.035,3.216    C79.575,13.498,79.25,14.714,78.408,15.725z"/>
	</g>
	<g>
		<path fill="none" d="M80.65,24.601c0,0,0.088,0.092,0.218,0.276c0.134,0.18,0.324,0.438,0.554,0.746    c0.452,0.622,1.089,1.428,1.679,2.266c0.531,0.876,1.062,1.753,1.461,2.411c0.196,0.329,0.375,0.597,0.478,0.796    c0.098,0.202,0.152,0.318,0.152,0.318l8.325-4.407c0,0-0.069-0.143-0.191-0.392c-0.128-0.246-0.343-0.58-0.585-0.988    c-0.494-0.812-1.153-1.896-1.813-2.978c-0.724-1.04-1.503-2.04-2.067-2.804c-0.286-0.38-0.523-0.697-0.69-0.918    c-0.162-0.225-0.271-0.34-0.271-0.34L80.65,24.601z"/>
		<path fill-rule="evenodd" clip-rule="evenodd" fill="#202020" d="M89.355,29.209c-1.147,0.604-2.393,0.697-3.552,0.476    c-1.144-0.236-2.123-0.828-2.704-1.797c-0.653-0.921-0.855-2.032-0.638-3.179c0.215-1.137,0.829-2.296,1.813-3.117    c1.01-0.842,2.227-1.169,3.437-0.979c1.198,0.191,2.41,0.887,3.214,2.035c0.735,1.195,0.947,2.563,0.666,3.746    C91.333,27.571,90.507,28.603,89.355,29.209z"/>
	</g>
	<g>
		<path fill="none" d="M88.045,38.255c0,0,0.127,0.497,0.314,1.241c0.177,0.747,0.475,1.73,0.68,2.732    c0.153,1.014,0.307,2.027,0.423,2.787c0.06,0.379,0.108,0.696,0.144,0.917c0.01,0.225,0.016,0.353,0.016,0.353L99,45.418    c0,0-0.009-0.158-0.024-0.435c-0.04-0.274-0.099-0.667-0.168-1.136c-0.144-0.94-0.336-2.193-0.528-3.446    c-0.252-1.242-0.608-2.463-0.833-3.387c-0.239-0.92-0.4-1.535-0.4-1.535L88.045,38.255z"/>
		<path fill-rule="evenodd" clip-rule="evenodd" fill="#202020" d="M94.312,45.852c-1.285,0.116-2.482-0.276-3.468-0.926    c-0.965-0.658-1.642-1.58-1.806-2.698c-0.232-1.103-0.012-2.201,0.632-3.176c0.634-0.967,1.636-1.799,2.876-2.185    c1.24-0.385,2.496-0.223,3.543,0.417c1.032,0.637,1.904,1.742,2.189,3.116c0.217,1.386-0.112,2.73-0.826,3.713    C96.76,45.101,95.613,45.734,94.312,45.852z"/>
	</g>
</g>
</svg>
