<?xml version="1.0" encoding="utf-8"?>
<!-- Generator: Adobe Illustrator 16.2.1, SVG Export Plug-In . SVG Version: 6.00 Build 0)  -->
<!DOCTYPE svg PUBLIC "-//W3C//DTD SVG 1.1//EN" "http://www.w3.org/Graphics/SVG/1.1/DTD/svg11.dtd">
<svg xmlns="http://www.w3.org/2000/svg" xmlns:xlink="http://www.w3.org/1999/xlink" version="1.1" id="Layer_1" x="0px" y="0px" width="100px" height="100px" viewBox="0 0 100 100" enable-background="new 0 0 100 100" xml:space="preserve">
<path d="M50-0.263c-27.614,0-50,22.386-50,50c0,27.615,22.386,50,50,50c27.613,0,50-22.385,50-50C100,22.123,77.613-0.263,50-0.263z   M49.778,16.501c4.341,0,7.859,3.518,7.859,7.858c0,4.34-3.519,7.858-7.859,7.858c-4.34,0-7.857-3.518-7.857-7.858  C41.921,20.02,45.438,16.501,49.778,16.501z M60.552,79.247H50.124c-4.051,0-5.774-1.725-5.774-5.859V49.5  c0-1.292-0.689-1.896-1.896-1.896h-3.447v-9.308h10.428c4.051,0,5.775,1.81,5.775,5.861V68.13c0,1.206,0.688,1.896,1.896,1.896  h3.447L60.552,79.247L60.552,79.247z"/>
</svg>
