<?xml version="1.0" standalone="no"?>
<!DOCTYPE svg PUBLIC "-//W3C//DTD SVG 1.1//EN" "http://www.w3.org/Graphics/SVG/1.1/DTD/svg11.dtd">
<svg width="100px" height="100px" version="1.1" xmlns="http://www.w3.org/2000/svg" xmlns:xlink="http://www.w3.org/1999/xlink" xml:space="preserve" style="fill-rule:evenodd;clip-rule:evenodd;stroke-linejoin:round;stroke-miterlimit:1.41421;">
    <g>
        <path id="clock" d="M45,40.1994C41.4383,42.0201 39,45.7253 39,50C39,56.0751 43.9249,61 50,61C54.1871,61 57.8277,58.6606 59.6862,55.2176L69.9792,55.4255C71.3352,55.4255 71.4352,53.1841 71.4352,50.4255C71.4352,47.665 71.3342,45.4255 69.9792,45.4255L60.0067,45.4255C58.9431,43.1029 57.0947,41.2146 54.8009,40.1002L55,21.5912C55,20.2352 52.7586,20.1352 50,20.1352C47.2394,20.1352 45,20.2362 45,21.5912L45,40.1994M50,95C75.4051,95 96,74.4051 96,49C96,23.5949 75.4051,3 50,3C24.5949,3 4,23.5949 4,49C4,74.4051 24.5949,95 50,95M50,84C69.33,84 85,68.33 85,49C85,29.67 69.33,14 50,14C30.67,14 15,29.67 15,49C15,68.33 30.67,84 50,84" style="fill:black;"/>
    </g>
</svg>
