<?xml version="1.0" encoding="UTF-8" standalone="no"?>
<svg width="100px" height="100px" viewBox="0 0 100 100" version="1.1" xmlns="http://www.w3.org/2000/svg" xmlns:xlink="http://www.w3.org/1999/xlink" xmlns:sketch="http://www.bohemiancoding.com/sketch/ns">
    <!-- Generator: Sketch 3.1.1 (8761) - http://www.bohemiancoding.com/sketch -->
    <title>code</title>
    <desc>Created with Sketch.</desc>
    <defs></defs>
    <g id="Page-1" stroke="none" stroke-width="1" fill="none" fill-rule="evenodd" sketch:type="MSPage">
        <g id="code" sketch:type="MSArtboardGroup" fill="#000000">
            <path d="M20.9321795,50.887113 L45.3965176,85.0328715 C48.0307617,88.6518555 44.7521973,93.7851549 42.453125,95.22119 C40.1540527,96.6572252 34.1503906,98.2529297 31.1681893,94.6507632 L-1.45579822e-16,50.887113 L31.1681893,6.64146743 C34.4226074,3.01440432 40.4263024,5.15984798 41.7805176,6.13378904 C43.1347327,7.10773009 48.487793,11.5090334 45.3965176,16.173512 L20.9321795,50.887113 L20.9321795,50.887113 Z M79.0678205,50.887113 L54.6034824,85.0328715 C51.9692383,88.6518555 55.2478027,93.7851549 57.546875,95.22119 C59.8459473,96.6572252 65.8496094,98.2529297 68.8318107,94.6507632 L100,50.887113 L68.8318107,6.64146743 C65.5773926,3.01440432 59.5736976,5.15984798 58.2194824,6.13378904 C56.8652673,7.10773009 51.512207,11.5090334 54.6034824,16.173512 L79.0678205,50.887113 L79.0678205,50.887113 Z" sketch:type="MSShapeGroup"></path>
        </g>
    </g>
</svg>