<?xml version="1.0" encoding="iso-8859-1"?>
<!-- Generator: Adobe Illustrator 16.2.1, SVG Export Plug-In . SVG Version: 6.00 Build 0)  -->
<!DOCTYPE svg PUBLIC "-//W3C//DTD SVG 1.1//EN" "http://www.w3.org/Graphics/SVG/1.1/DTD/svg11.dtd">
<svg xmlns="http://www.w3.org/2000/svg" xmlns:xlink="http://www.w3.org/1999/xlink" version="1.1" id="Layer_1" x="0px" y="0px" width="100px" height="100px" viewBox="0 0 100 100" style="enable-background:new 0 0 100 100;" xml:space="preserve">
<g>
	<path d="M4.992,85.334c-5.581-0.018-6.352-8.145-2.964-9.708c0.014-0.01,43.396-19.905,43.036-20.063   c3.355-1.558,6.529-1.558,9.606,0c0.098,0.064,42.542,19.947,42.912,20.26c3.688,1.685,3.201,9.516-1.775,9.513   C95.807,85.355,5.022,85.337,4.992,85.334z"/>
	<path d="M95.008,14.666c5.581,0.017,6.352,8.145,2.963,9.708c-0.013,0.01-43.57,20.132-43.535,20.125   c-3.355,1.557-6.529,1.557-9.606,0C44.731,44.434,2.788,24.49,2.417,24.179c-3.688-1.684-3.2-9.515,1.777-9.513   C4.195,14.644,94.979,14.664,95.008,14.666z"/>
</g>
</svg>
