<?xml version="1.0" encoding="utf-8"?>
<!-- Generator: Adobe Illustrator 16.2.1, SVG Export Plug-In . SVG Version: 6.00 Build 0)  -->
<!DOCTYPE svg PUBLIC "-//W3C//DTD SVG 1.1//EN" "http://www.w3.org/Graphics/SVG/1.1/DTD/svg11.dtd">
<svg xmlns="http://www.w3.org/2000/svg" xmlns:xlink="http://www.w3.org/1999/xlink" version="1.1" id="Layer_1" x="0px" y="0px" width="100px" height="100px" viewBox="0 0 100 100" enable-background="new 0 0 100 100" xml:space="preserve">
<path d="M55.075,5.333H43.924c-2.209,0-4,1.791-4,4V42c0,2.207,1.791,3.998,4,3.998h11.151c2.209,0,4-1.791,4-3.998V9.333  C59.075,7.125,57.284,5.333,55.075,5.333z"/>
<path d="M27.658,9.333c0-2.209-1.791-4-4-4H12.505c-2.209,0-4,1.791-4,4V42c0,2.207,1.791,3.998,4,3.998h11.153  c2.209,0,4-1.791,4-3.998L27.658,9.333z"/>
<path d="M86.492,5.333H75.343c-2.21,0-4.001,1.791-4.001,4V42c0,2.207,1.791,3.998,4.001,3.998h11.149c2.209,0,4-1.791,4-3.998  V9.333C90.492,7.125,88.701,5.333,86.492,5.333z"/>
<path d="M55.076,53.422H43.924c-2.209,0-4,1.791-4,4v33.156c0,2.207,1.791,3.998,4,3.998h11.151c2.209,0,4-1.791,4-3.998  l0.001-33.156C59.076,55.213,57.285,53.422,55.076,53.422z"/>
<path d="M23.658,53.422H12.505c-2.209,0-4,1.791-4,4v33.156c0,2.207,1.791,3.998,4,3.998h11.153c2.209,0,4-1.791,4-3.998V57.422  C27.658,55.213,25.867,53.422,23.658,53.422z"/>
<path d="M86.492,53.422H75.343c-2.21,0-4.001,1.791-4.001,4v33.156c0,2.207,1.791,3.998,4.001,3.998h11.149c2.209,0,4-1.791,4-3.998  V57.422C90.492,55.213,88.701,53.422,86.492,53.422z"/>
</svg>
