<?xml version="1.0" standalone="no"?>
<!DOCTYPE svg PUBLIC "-//W3C//DTD SVG 1.1//EN" "http://www.w3.org/Graphics/SVG/1.1/DTD/svg11.dtd">
<svg width="100px" height="100px" version="1.1" xmlns="http://www.w3.org/2000/svg" xmlns:xlink="http://www.w3.org/1999/xlink" xml:space="preserve" style="fill-rule:evenodd;clip-rule:evenodd;stroke-linejoin:round;stroke-miterlimit:1.41421;">
    <g>
        <g id="Rectangle-25">
            <path d="M90.9988,72.5263C93.2086,72.5263 95,70.7365 95,68.5275L95,35.7883C95,33.5798 93.2057,31.7895 90.9988,31.7895L78.3762,31.7895C76.1664,31.7895 74.375,33.5792 74.375,35.7883L74.375,68.5275C74.375,70.736 76.1693,72.5263 78.3762,72.5263M9.14844,73.2349L34.7422,73.2349C34.7422,73.2349 38.5218,75.2392 37.5291,80.1307C36.3364,86.0083 35.9773,88.7852 36.8666,91.8812C37.7558,94.9773 37.0063,99.5329 42.6669,99.7802C45.9866,99.2667 48.0341,97.4701 48.0341,92.8568L48.0341,87.4976C48.6455,79.4391 56.0278,70.3651 60.0875,69.7534C64.1472,69.1416 71.21,68.7548 71.21,68.7548L71.21,34.4364C71.21,34.4364 63.7461,34.4464 61.8803,33.6819C60.5826,33.1501 53.1997,28.2207 50.7416,28.2207C48.2778,28.2207 19.4997,28.2207 17.8559,28.2207C15.4025,28.2207 12.7558,28.7628 12.308,33.0135C11.8458,34.7667 12.9435,36.8827 14.8783,37.3863L21.2445,37.3863C23.1737,37.3863 23.3929,39.8111 23.3929,39.8111C23.3929,39.8111 15.8517,39.7274 15.4025,39.8111C11.8183,39.7274 10.0729,39.8111 8.78473,44.3162C8.78478,46.249 10.3497,48.5641 11.8183,48.5641L21.5372,48.5641C23.3929,48.5641 23.3929,51.0202 23.3929,51.0202C23.3929,51.0202 13.3059,51.0202 12.7558,51.0202C10.7848,51.0202 8.78473,51.0202 7.75986,54.8571C7.75986,56.5004 7.84723,59.3055 10.0729,59.7086L21.5372,59.7086C23.5071,60.0354 23.6347,62.2686 23.6347,62.2686L10.58,62.0567C10.58,62.0567 8.99678,62.156 8.78473,62.2585C7.17181,63.0379 5.21281,64.5865 5.21281,67.5109C5.21281,72.4837 9.14844,73.2349 9.14844,73.2349" style="fill:black;"/>
        </g>
    </g>
</svg>
