<?xml version="1.0" encoding="utf-8"?>
<!-- Generator: Adobe Illustrator 16.2.1, SVG Export Plug-In . SVG Version: 6.00 Build 0)  -->
<!DOCTYPE svg PUBLIC "-//W3C//DTD SVG 1.1//EN" "http://www.w3.org/Graphics/SVG/1.1/DTD/svg11.dtd">
<svg xmlns="http://www.w3.org/2000/svg" xmlns:xlink="http://www.w3.org/1999/xlink" version="1.1" id="Layer_1" x="0px" y="0px" width="100px" height="100px" viewBox="0 0 100 100" enable-background="new 0 0 100 100" xml:space="preserve">
<path d="M60.055-0.158c4.32,0,6.523,2.581,6.523,2.581l21.67,22.199c0,0,2.781,2.253,2.781,6.851c0,2.155,0,2.155,0,63.365  c0,0-0.904,5.005-6.03,5.005c-1.874,0-67.827,0-70.332,0c-4.667,0-5.711-5.005-5.711-5.005c0-86.835,0-86.835,0-89.169  c0-4.834,5.002-5.826,5.002-5.826S58.488-0.158,60.055-0.158z M22.802,90.003h54.388c0,0,3.937-0.127,4.004-4.502  c0.035-2.299,0.002-40.541,0.002-52.377c0-3.75-4.006-3.708-4.006-3.708s-9.312,0.031-12.938,0  c-4.875-0.042-4.278-5.002-4.278-5.002V13.684c0,0,0.278-4.002-3.347-4.002c-8.306,0-31.38,0-33.824,0  c-3.677,0-4.002,3.818-4.002,3.818s-0.058,69.486,0,72.501C18.875,89.876,22.802,90.003,22.802,90.003z"/>
<path d="M71.242,46.169c0,1.381-1.119,2.5-2.5,2.5h-37.5c-1.381,0-2.5-1.119-2.5-2.5l0,0c0-1.381,1.119-2.5,2.5-2.5h37.5  C70.123,43.669,71.242,44.788,71.242,46.169L71.242,46.169z"/>
<path d="M71.242,60.173c0,1.381-1.119,2.5-2.5,2.5h-37.5c-1.381,0-2.5-1.119-2.5-2.5l0,0c0-1.381,1.119-2.5,2.5-2.5h37.5  C70.123,57.673,71.242,58.792,71.242,60.173L71.242,60.173z"/>
<path d="M71.242,74.34c0,1.381-1.119,2.5-2.5,2.5h-37.5c-1.381,0-2.5-1.119-2.5-2.5l0,0c0-1.381,1.119-2.5,2.5-2.5h37.5  C70.123,71.84,71.242,72.959,71.242,74.34L71.242,74.34z"/>
</svg>
