<?xml version="1.0" encoding="utf-8"?>
<!-- Generator: Adobe Illustrator 16.2.1, SVG Export Plug-In . SVG Version: 6.00 Build 0)  -->
<!DOCTYPE svg PUBLIC "-//W3C//DTD SVG 1.1//EN" "http://www.w3.org/Graphics/SVG/1.1/DTD/svg11.dtd">
<svg xmlns="http://www.w3.org/2000/svg" xmlns:xlink="http://www.w3.org/1999/xlink" version="1.1" id="Layer_1" x="0px" y="0px" width="100px" height="100px" viewBox="0 0 100 100" enable-background="new 0 0 100 100" xml:space="preserve">
<path d="M95.807,56.404c4.979-0.002,5.465,7.828,1.776,9.513c-0.37,0.312-42.815,20.194-42.912,20.259  c-3.077,1.559-6.251,1.559-9.607,0c0.36-0.158-43.022-20.054-43.036-20.062c-3.388-1.563-2.617-9.69,2.964-9.71  C5.021,56.402,95.805,56.383,95.807,56.404z"/>
<path d="M4.194,43.656c-4.978,0.002-5.465-7.829-1.777-9.513c0.371-0.311,42.314-20.254,42.41-20.32  c3.077-1.557,6.253-1.557,9.608,0C54.4,13.816,97.958,33.938,97.973,33.948c3.389,1.562,2.617,9.69-2.964,9.708  C94.979,43.659,4.195,43.678,4.194,43.656z"/>
</svg>
