<?xml version="1.0" encoding="utf-8"?>
<!-- Generator: Adobe Illustrator 16.2.1, SVG Export Plug-In . SVG Version: 6.00 Build 0)  -->
<!DOCTYPE svg PUBLIC "-//W3C//DTD SVG 1.1//EN" "http://www.w3.org/Graphics/SVG/1.1/DTD/svg11.dtd">
<svg xmlns="http://www.w3.org/2000/svg" xmlns:xlink="http://www.w3.org/1999/xlink" version="1.1" id="Layer_1" x="0px" y="0px" width="100px" height="100px" viewBox="0 0 100 100" enable-background="new 0 0 100 100" xml:space="preserve">
<g>
	<path d="M99.995,49.515c-0.005-0.042-0.01-0.081-0.01-0.122c0-0.021-0.004-0.042-0.004-0.062c-0.005-0.03-0.01-0.06-0.015-0.09   c-0.004-0.032-0.009-0.069-0.014-0.101c0-0.005,0-0.012,0-0.012c-0.124-0.775-0.492-1.502-1.044-2.059   c-3.192-3.779-6.988-7.146-10.848-10.22c-8.313-6.62-17.812-12.161-28.307-14.39c-6.067-1.288-12.167-1.343-18.263-0.253   c-5.543,0.991-10.885,3.055-15.89,5.608c-7.83,4.002-14.979,9.516-21.208,15.699c-1.15,1.143-2.3,2.312-3.349,3.556   c-1.394,1.654-1.394,3.612,0,5.266c3.192,3.781,6.983,7.144,10.843,10.217c8.312,6.625,17.817,12.164,28.311,14.395   c6.063,1.284,12.163,1.339,18.263,0.253c5.544-0.993,10.885-3.055,15.891-5.612c7.825-4.002,14.979-9.514,21.207-15.696   c1.155-1.144,2.301-2.312,3.35-3.556c0.557-0.558,0.92-1.281,1.044-2.056c0-0.005,0.005-0.008,0.005-0.012   c0-0.035,0.005-0.069,0.009-0.104c0.005-0.03,0.015-0.06,0.015-0.09c0.004-0.021,0.004-0.041,0.004-0.062   c0.005-0.042,0.01-0.081,0.01-0.122c0.004-0.062,0.004-0.124,0.004-0.186C99.999,49.639,99.995,49.579,99.995,49.515z    M49.998,68.942c-10.627,0-19.239-8.612-19.239-19.239s8.612-19.241,19.239-19.241s19.243,8.614,19.243,19.241   S60.625,68.942,49.998,68.942z"/>
	<path d="M49.998,43.332c-3.519,0-6.367,2.854-6.367,6.372c0,3.517,2.848,6.371,6.367,6.371c3.519,0,6.366-2.854,6.366-6.371   C56.364,46.186,53.517,43.332,49.998,43.332z"/>
</g>
</svg>
