<?xml version="1.0" encoding="UTF-8" standalone="no"?>
<svg width="100px" height="100px" viewBox="0 0 100 100" version="1.1" xmlns="http://www.w3.org/2000/svg" xmlns:xlink="http://www.w3.org/1999/xlink" xmlns:sketch="http://www.bohemiancoding.com/sketch/ns">
    <!-- Generator: Sketch 3.1.1 (8761) - http://www.bohemiancoding.com/sketch -->
    <title>fingerprint</title>
    <desc>Created with Sketch.</desc>
    <defs></defs>
    <g id="Page-1" stroke="none" stroke-width="1" fill="none" fill-rule="evenodd" sketch:type="MSPage">
        <g id="fingerprint" sketch:type="MSArtboardGroup" fill="#000000">
            <path d="M49.214961,59.4153846 C49.6578855,58.1692308 49.0890176,56.7692308 47.9413761,56.2861538 C46.80081,55.8061538 45.5074138,56.4230769 45.0644893,57.6692308 C42.3673195,65.2492308 32.7984516,79.6507692 23.939961,84.9630769 C22.8644893,85.6107692 22.4739233,87.0815385 23.0668478,88.2507692 C23.4729799,89.0492308 24.2343006,89.5 25.0182629,89.5 C25.380527,89.5 25.7498667,89.4030769 26.0923195,89.2 C36.3475082,83.0492308 46.27581,67.6830769 49.214961,59.4153846 L49.214961,59.4153846 Z M57.2159044,64.0892308 C60.1465648,54.9215385 56.5069421,48.7230769 51.6036402,46.6476923 C46.6437346,44.5446154 39.7748667,46.3707692 36.7960931,53.8676923 C34.2630742,60.24 27.7225082,71.3646154 20.0824138,75.8953846 C19.0041119,76.5353846 18.6064704,78.0046154 19.1965648,79.1784615 C19.785244,80.3476923 21.1366591,80.7830769 22.2163761,80.1415385 C31.5135459,74.6230769 38.4913761,61.7969231 40.8814704,55.7861538 C42.7564704,51.0692308 46.9677912,49.8753846 49.9904327,51.1553846 C52.8220365,52.3523077 55.1031685,55.9630769 53.0144893,62.5015385 C49.7597723,72.6784615 37.6918478,86.4707692 29.8692063,91.1061538 C28.7894893,91.7446154 28.3918478,93.2138462 28.980527,94.3876923 C29.385244,95.1938462 30.1479799,95.6492308 30.9361874,95.6492308 C31.2942063,95.6492308 31.6593006,95.5553846 31.9989233,95.3538462 C40.6819421,90.2092308 53.5890176,75.4307692 57.2159044,64.0892308 L57.2159044,64.0892308 Z M54.6319421,38.1907692 C51.2470365,36.76 47.5762817,36.3876923 44.0328855,37.1153846 C37.4385459,38.4661538 31.8701497,43.3830769 29.1319421,50.2676923 C26.2720365,57.4676923 22.0522251,62.6830769 16.5857157,65.7692308 C15.494678,66.3861538 15.0715648,67.8461538 15.6361874,69.0307692 C16.2050553,70.2138462 17.5437346,70.6753846 18.6361874,70.0630769 C25.035244,66.4492308 29.9413761,60.4323077 33.2159044,52.1846154 C35.3654327,46.7769231 39.7168478,42.92 44.8536402,41.8692308 C47.5932629,41.3092308 50.4135459,41.5923077 53.0173195,42.6969231 C59.4503384,45.4169231 64.6593006,53.7061538 60.8965648,65.4784615 C57.3064704,76.7061538 46.664961,89.4338462 38.0059987,96.2046154 C37.0083572,96.9846154 36.780527,98.4953846 37.499395,99.58 C37.9338289,100.236923 38.6144893,100.586154 39.3078855,100.586154 C39.7578855,100.586154 40.2121308,100.436923 40.605527,100.130769 C49.8319421,92.9184615 61.2078855,79.2430769 65.099395,67.0661538 C69.8328855,52.2692308 62.9909044,41.7246154 54.6319421,38.1907692 L54.6319421,38.1907692 Z M57.6588289,29.7338462 C52.8291119,27.6892308 47.5833572,27.1584615 42.4876025,28.1984615 C33.1833572,30.1030769 25.9635459,35.76 22.1526968,44.1323077 L22.0465648,44.3646154 C20.7347723,47.2553846 19.3776968,50.2446154 17.114961,50.9969231 C15.9390176,51.3876923 15.2767534,52.74 15.6376025,54.0184615 C15.9956214,55.2953846 17.2451497,56.0138462 18.4140176,55.6246154 C22.5163761,54.26 24.4692063,49.9615385 26.0385459,46.5061538 L26.1432629,46.2753846 C29.3173195,39.3 35.414961,34.5676923 43.3126025,32.9523077 C47.580527,32.0753846 51.9871308,32.5230769 56.0470365,34.2415385 C66.4111874,38.6246154 74.1135459,51.7861538 68.7814704,68.4584615 C66.3475082,76.0676923 61.1286402,84.7061538 54.0843006,92.78 C53.2394893,93.7507692 53.2762817,95.2815385 54.1663761,96.2 C54.5965648,96.6446154 55.1484516,96.8630769 55.6989233,96.8630769 C56.2876025,96.8630769 56.8762817,96.6107692 57.3135459,96.1092308 C64.7838289,87.5430769 70.3479799,78.2892308 72.9843006,70.0446154 C79.2418478,50.4830769 70.0111874,34.9569231 57.6588289,29.7338462 L57.6588289,29.7338462 Z M60.689961,21.2784615 C54.3998667,18.6123077 47.5635459,17.9261538 40.9437346,19.28 C31.2319421,21.2692308 23.1121308,27.2846154 17.4644893,36.6784615 C16.7909044,37.7969231 17.0795836,39.2953846 18.1097723,40.0276923 C19.139961,40.76 20.519678,40.4476923 21.1890176,39.3276923 C26.2295836,30.9446154 33.1522251,25.8 41.7659044,24.0369231 C47.580527,22.8461538 53.564961,23.4538462 59.0767534,25.7892308 C72.8215648,31.6015385 83.6597723,49.5784615 76.6677912,71.44 C75.6531685,74.6076923 74.2748667,77.8723077 72.5725082,81.14 C71.9668478,82.3015385 72.3418478,83.7784615 73.4116591,84.4384615 C73.7597723,84.6507692 74.1347723,84.7523077 74.5069421,84.7523077 C75.2824138,84.7523077 76.0338289,84.3107692 76.4456214,83.5261538 C78.2809987,80.0046154 79.769678,76.4753846 80.8720365,73.0307692 C88.7781685,48.3030769 76.3734516,27.9107692 60.689961,21.2784615 L60.689961,21.2784615 Z M65.7135459,13.4507692 C52.6706214,7.52 37.6904327,8.71384615 25.635244,16.6369231 C24.5838289,17.3292308 24.2470365,18.8153846 24.8838289,19.96 C25.5163761,21.1015385 26.880527,21.4676923 27.9390176,20.7784615 C38.7828855,13.6507692 52.2630742,12.5784615 63.9970365,17.9153846 C75.2003384,23.0107692 82.980527,33.14 85.9026968,46.4369231 C86.1460931,47.5476923 87.0588289,48.2938462 88.064961,48.2938462 C88.2361874,48.2938462 88.410244,48.2723077 88.5843006,48.2276923 C89.7800553,47.9169231 90.5159044,46.6123077 90.2314704,45.3123077 C86.969678,30.4738462 78.2611874,19.1584615 65.7135459,13.4507692 L65.7135459,13.4507692 Z M38.639961,6.20461538 C65.7517534,1.18307692 78.60081,15.6230769 82.8673195,22.0646154 C83.3017534,22.7215385 83.9838289,23.0692308 84.67581,23.0692308 C85.12581,23.0692308 85.5800553,22.9215385 85.9734516,22.6138462 C86.9710931,21.8338462 87.1960931,20.3215385 86.4800553,19.2369231 C81.7239233,12.06 67.4597723,-4.04 37.8942063,1.43538462 C36.6814704,1.66 35.8692063,2.90923077 36.07581,4.22615385 C36.2809987,5.54461538 37.4343006,6.43230769 38.639961,6.20461538 L38.639961,6.20461538 Z" sketch:type="MSShapeGroup"></path>
        </g>
    </g>
</svg>