<?xml version="1.0" encoding="UTF-8" standalone="no"?>
<svg width="100px" height="100px" viewBox="0 0 100 100" version="1.1" xmlns="http://www.w3.org/2000/svg" xmlns:xlink="http://www.w3.org/1999/xlink" xmlns:sketch="http://www.bohemiancoding.com/sketch/ns">
    <!-- Generator: Sketch 3.1.1 (8761) - http://www.bohemiancoding.com/sketch -->
    <title>food</title>
    <desc>Created with Sketch.</desc>
    <defs></defs>
    <g id="Page-1" stroke="none" stroke-width="1" fill="none" fill-rule="evenodd" sketch:type="MSPage">
        <g id="food" sketch:type="MSArtboardGroup" fill="#000000">
            <path d="M64.5777726,14.5323712 C64.5777726,14.5323712 68.3340635,13.2652572 66.7378521,9.01994486 C65.1416406,4.77463256 61.7214779,6.54292279 61.7214779,6.54292279 C52.3724644,7.51914289 49.414307,13.5075872 46.8672563,23.882422 C3.00838343,11.8866297 11.5581529,51.2911066 16.7896512,61.841175 C18.2953766,71.1982522 27.1551057,94.6886409 39.0265615,94.4963836 C41.7482064,94.4523068 48.5700203,90.7317965 50.414681,88.1283867 C51.4411952,87.6766643 51.8951211,87.4397384 52.6861841,88.1283867 C55.6758323,90.7309814 62.425574,94.4638032 64.5777719,94.4963861 C77.3351969,94.6895253 83.3283809,70.8397969 84.8980625,61.841175 C88.7226282,48.6454154 96.2562726,12.2781993 55.6169786,23.0745889 C57.7729258,16.4575891 60.0494854,14.5323712 64.5777726,14.5323712 Z" sketch:type="MSShapeGroup" transform="translate(50.000000, 50.000000) scale(-1, 1) translate(-50.000000, -50.000000) "></path>
        </g>
    </g>
</svg>