<?xml version="1.0" encoding="iso-8859-1"?>
<!-- Generator: Adobe Illustrator 16.2.1, SVG Export Plug-In . SVG Version: 6.00 Build 0)  -->
<!DOCTYPE svg PUBLIC "-//W3C//DTD SVG 1.1//EN" "http://www.w3.org/Graphics/SVG/1.1/DTD/svg11.dtd">
<svg xmlns="http://www.w3.org/2000/svg" xmlns:xlink="http://www.w3.org/1999/xlink" version="1.1" id="Layer_1" x="0px" y="0px" width="100px" height="100px" viewBox="0 0 100 100" style="enable-background:new 0 0 100 100;" xml:space="preserve">
<path d="M90.841,61.072c-3.338,0-6.229,1.804-7.829,4.471l-19.054-8.076c0.56-1.667,0.875-3.445,0.875-5.301  c0-2.775-0.688-5.387-1.889-7.688l18.362-14.514c1.303,0.711,2.772,1.151,4.36,1.151c5.058,0,9.159-4.101,9.159-9.159  c0-5.059-4.102-9.16-9.159-9.16s-9.159,4.101-9.159,9.16c0,1.755,0.52,3.379,1.375,4.772l-17.707,13.9  c-2.506-2.608-5.852-4.392-9.604-4.936l0.703-18.728c3.441-0.542,6.176-3.403,6.404-7.026c0.264-4.194-2.923-7.807-7.117-8.073  c-4.196-0.265-7.81,2.92-8.075,7.115c-0.195,3.093,1.492,5.86,4.074,7.211l-0.748,19.493c-3.791,0.537-7.167,2.339-9.689,4.978  L19.561,27.019c0.909-1.605,1.363-3.49,1.169-5.464c-0.5-5.099-5.037-8.825-10.135-8.325c-5.098,0.5-8.824,5.036-8.324,10.135  c0.5,5.098,5.039,8.824,10.134,8.324c1.394-0.137,2.674-0.598,3.805-1.271l17.147,14.125c-1.179,2.286-1.857,4.874-1.857,7.623  c0,2.254,0.453,4.401,1.264,6.362l-17.577,9.735c-1.581-1.879-3.919-3.096-6.566-3.096C3.86,65.168,0,69.025,0,73.788  c0,4.762,3.86,8.621,8.621,8.621c4.761,0,8.621-3.859,8.621-8.621c0-0.449-0.065-0.881-0.132-1.312l18.086-9.855  c2.313,2.865,5.555,4.941,9.268,5.785L44.46,82.9c-3.402,0.758-5.949,3.785-5.949,7.414c0,4.203,3.407,7.609,7.611,7.609  s7.61-3.406,7.61-7.609c0-3.1-1.858-5.754-4.518-6.939l0.006-14.596c5.229-0.328,9.803-3.054,12.625-7.106l19.854,8.371  c-0.001,0.063-0.02,0.124-0.02,0.188c0,5.058,4.103,9.158,9.16,9.158c5.059,0,9.159-4.102,9.159-9.158  C100,65.174,95.898,61.072,90.841,61.072z"/>
</svg>
