<?xml version="1.0" encoding="UTF-8" standalone="no"?>
<svg width="100px" height="100px" viewBox="0 0 100 100" version="1.1" xmlns="http://www.w3.org/2000/svg" xmlns:xlink="http://www.w3.org/1999/xlink" xmlns:sketch="http://www.bohemiancoding.com/sketch/ns">
    <!-- Generator: Sketch 3.1.1 (8761) - http://www.bohemiancoding.com/sketch -->
    <title>forum</title>
    <desc>Created with Sketch.</desc>
    <defs></defs>
    <g id="Page-1" stroke="none" stroke-width="1" fill="none" fill-rule="evenodd" sketch:type="MSPage">
        <g id="forum" sketch:type="MSArtboardGroup" fill="#000000">
            <path d="M33.0000062,45.8785228 C29.2378854,49.7059888 21.3258382,56.9948609 17.6809805,60.8546898 C17.236161,61.3967611 16.3744822,60.941107 16.3744822,60.2955969 L16.3744822,45.5939276 L7.71934216,45.5939276 C2.64331692,45.5939276 0,43.3206493 0,37.846253 L0,7.748984 C0,2.27458774 2.64331692,1.07497789e-16 7.71934216,1.07497789e-16 L53.2844665,1.07497789e-16 C58.3604917,1.07497789e-16 61.0038086,2.27458774 60.9999959,7.748984 L60.9999959,35 L40.4154481,35 C35.5890637,35 32.9963809,38.2510769 33.0000062,43.4939108 L33.0000062,45.8785228 L33.0000062,45.8785228 Z M92.1382385,40 C97.2974771,40 100,42.3491643 100,48.0030487 L100,77.0871122 C100,82.7409967 97.2974771,85.0888087 92.1382385,85.0888087 L88.6108462,85.0888087 L88.6108462,99.1741388 C88.6108462,99.8408131 87.7350415,100.311407 87.28293,99.7515626 C82.8520508,96.2734375 73.1786953,88.9549784 69.4817146,85.0915132 L45.8617681,85.0915132 C40.7025295,85.0915132 38.0000066,82.7409967 38.0000066,77.0898168 L38.0000066,48.0030487 C37.9961314,42.3491643 40.6986542,40 45.8578928,40 L92.1382385,40 L92.1382385,40 Z" sketch:type="MSShapeGroup"></path>
        </g>
    </g>
</svg>