<?xml version="1.0" encoding="UTF-8" standalone="no"?>
<svg width="100px" height="100px" viewBox="0 0 100 100" version="1.1" xmlns="http://www.w3.org/2000/svg" xmlns:xlink="http://www.w3.org/1999/xlink" xmlns:sketch="http://www.bohemiancoding.com/sketch/ns">
    <!-- Generator: Sketch 3.1.1 (8761) - http://www.bohemiancoding.com/sketch -->
    <title>groups</title>
    <desc>Created with Sketch.</desc>
    <defs></defs>
    <g id="Page-1" stroke="none" stroke-width="1" fill="none" fill-rule="evenodd" sketch:type="MSPage">
        <g id="groups" sketch:type="MSArtboardGroup" fill="#010101">
            <path d="M73.3117693,48.4135923 C77.349328,51.7669871 78.7979708,54.0534828 79.5912044,56.5382868 C80.1692733,58.4113095 82.6243311,74.8818377 82.6243311,74.8818377 C82.6243311,74.8818377 83.2648988,80.2971794 86.1046433,80.2971739 C87.3002925,80.2971716 92.4223628,79.6293936 97.2603984,78.2971739 C100.630214,77.3692487 99.8316035,74.881835 99.9999995,73.8174429 L99.9999995,57.2181387 C99.7863765,56.1985464 98.2971686,49.6282311 89.202746,44.4315599 L89.1214396,41.632437 C89.1214396,41.632437 97.125166,39.1555653 97.6943111,38.6925152 C97.6943111,38.6925152 96.2684738,34.4794535 95.6824725,32.3932493 C95.0825896,30.3090282 94.6909306,27.0428891 94.6909306,26.7484011 C94.6909306,26.4439978 93.4594355,17.6916571 92.7871701,16.2360736 C92.1208539,14.7814816 91.200703,12.8112878 89.6479483,11.8415598 C88.0971768,10.8738148 85.7829179,9.49358848 82.4632355,9.3071786 C82.416633,9.30420397 82.3660644,9.30420397 82.3164873,9.29726318 C82.2659187,9.30420397 82.2212993,9.30420397 82.167756,9.3071786 C78.8579891,9.49358848 76.539764,10.8708402 74.9850263,11.8415598 C73.4362378,12.8102962 72.5269938,14.7814816 71.8458045,16.2360736 C71.1775053,17.6916571 69.9460102,26.4439978 69.9460102,26.7484011 C69.9460102,27.0438806 69.6009536,30.4409033 69.0010707,32.5271075 C68.4081287,34.6113286 67.2113376,38.8868574 67.2113376,38.8868574 C68.0511736,39.5482159 75.5055858,41.6334286 75.5055858,41.6334286 C75.5055858,41.6334286 73.3117693,45.5648923 73.3117693,48.4135923 Z M76.3111892,66.4773765 C74.9947601,60.3488721 73.6046821,54.0298191 66.3522316,50.5254676 C62.7211701,48.6509345 57.6989255,46.1060963 57.6989255,46.1060963 C57.6989255,45.8923337 56.7510192,39.5140918 56.7510192,39.5140918 C60.5310374,38.4007855 63.5807808,23.445926 63.5807808,23.445926 C64.3004158,18.5448635 63.0313821,11.0438295 63.0313821,11.0438295 C61.337725,-1.42790914 39.3346918,0.0229678501 36.3565249,8.38775734 C33.3580458,11.599999 34.0012679,21.7097099 34.0012679,21.7097099 L36.7946898,34.400234 C37.8431902,39.3399865 41.0950892,39.6524087 41.0950892,39.6524087 C41.1115325,40.3749455 39.6645245,46.9592119 39.6645245,46.9592119 C39.6645245,46.9592119 32.9234742,49.8338829 29.7238068,51.227692 C22.1424909,53.9079455 22.3890021,60.2318347 21.207021,66.6863028 L18.3015359,90.3771069 C18.3015359,91.2487529 17.2182618,94.2866216 22.7634662,95.9068827 C23.7881718,96.2062929 36.7752844,98.9068828 49.4741211,98.9068828 C61.7561183,98.9068828 73.8322736,96.1899419 74.5226036,95.9068827 C79.812519,93.7378347 79.2988907,90.3771069 79.2988907,90.3771069 L76.3111892,66.4773765 Z M27.2723468,46.4782009 C26.7967069,44.3842132 23.8569201,41.0059001 23.8569201,41.0059001 C23.8569201,41.0059001 27.1815162,38.0651367 27.929648,32.4355915 C27.929648,32.4355915 28.9737118,24.1299613 29.0284055,22.5116136 C29.1211894,20.1060671 29.1250961,16.243324 24.966421,13.5330555 C22.5208309,12.2829136 14.9447758,10.7339097 10.2938573,13.8680544 C6.39888397,17.164327 5.98282112,21.3649991 6.10685864,23.7744522 C6.18792253,25.4006133 6.2035493,28.4361141 6.83057359,30.76255 C7.83361712,34.5217658 11.5186057,40.9990634 11.5186057,40.9990634 C11.5186057,40.9990634 11.3428045,45.0825347 11.0605459,45.6206817 C6.21136269,48.2694198 -0.0026101437,49.75494 -0.0026101437,57.3729921 L0.0345034436,74.8797142 C0.0345034417,75.6917721 0.0345034408,78.8121983 1.90483291,79.2962311 C6.10297848,80.3826921 10.2673736,81.2942776 11.8320043,81.2942777 C13.8392166,81.2942778 14.4328854,76.9451513 14.4328854,76.9451513 L16.8941023,57.4628461 C19.8895594,48.7558031 22.38898,49.222653 27.2723468,46.4782009 Z" sketch:type="MSShapeGroup"></path>
        </g>
    </g>
</svg>