<?xml version="1.0" standalone="no"?>
<!DOCTYPE svg PUBLIC "-//W3C//DTD SVG 1.1//EN" "http://www.w3.org/Graphics/SVG/1.1/DTD/svg11.dtd">
<svg width="100px" height="100px" version="1.1" xmlns="http://www.w3.org/2000/svg" xmlns:xlink="http://www.w3.org/1999/xlink" xml:space="preserve" style="fill-rule:evenodd;clip-rule:evenodd;stroke-linejoin:round;stroke-miterlimit:1.41421;">
    <g>
        <path id="help" d="M68.9876,65.4722L55.9025,65.4722L55.9025,78.5316L45.5479,78.5316L45.5479,65.4722L32.4628,65.4722L32.4628,55.1651L45.5479,55.1651L45.5479,42.1058L55.9025,42.1058L55.9025,55.1651L68.9876,55.1651M78.2907,12.2129C78.2907,12.2129 78.2907,7.94979 74.3647,7.94979L26.3589,7.94979C21.6312,7.94979 21.7293,12.2129 21.7293,12.2129L21.6312,27.0809L7.80142,27.0809C3.49113,27.0809 0,31.6284 0,35.927L0,84.5428C0,84.5428 1.06383,92.0033 8.56882,92.0033C16.1308,92.0033 87.2029,92.0033 92.0898,92.0033C98.9362,92.0033 100,84.5428 100,84.5428L100,35.927C100,31.6284 96.505,27.0809 92.1986,27.0809L78.3688,27.0809M66.0827,17.5954L34.8222,17.5954C32.9787,17.5954 32.9787,19.727 32.9787,19.727L32.9787,27.1875L68.0851,27.1875L68.0851,19.727C67.9599,18.0232 67.0659,17.5795 66.0827,17.5954" style="fill:black;"/>
    </g>
</svg>
