<?xml version="1.0" encoding="UTF-8" standalone="no"?>
<svg width="100px" height="100px" viewBox="0 0 100 100" version="1.1" xmlns="http://www.w3.org/2000/svg" xmlns:xlink="http://www.w3.org/1999/xlink" xmlns:sketch="http://www.bohemiancoding.com/sketch/ns">
    <!-- Generator: Sketch 3.1.1 (8761) - http://www.bohemiancoding.com/sketch -->
    <title>home</title>
    <desc>Created with Sketch.</desc>
    <defs></defs>
    <g id="Page-1" stroke="none" stroke-width="1" fill="none" fill-rule="evenodd" sketch:type="MSPage">
        <g id="home" sketch:type="MSArtboardGroup" fill="#000000">
            <path d="M54.022,5.622 C50.7226571,3.3696289 49.6293954,3.2692871 46.314,5.622 L1.45043943,38.061037 C0.564208987,38.5850009 0.196999858,39.3574237 0.197,40.546 C0.197000252,42.6579989 1.58299997,42.3349983 1.80899997,42.6579983 L98.4298134,42.6579984 C100.000004,41.9257825 100.070001,40.9339994 100.000001,40.5459994 C99.9330014,40.1579994 100.000004,39.102052 98.4298134,38.0610364 L54.022,5.622 L54.022,5.622 Z M85.654,21.773 C85.908,21.951 86.206,22.042 86.507,22.042 C86.743,22.042 86.979,21.986 87.195,21.874 C87.686,21.618 87.996,21.109 87.996,20.553 L87.996,3.693 C87.996,2.871 87.329,2.205 86.507,2.205 L75.094,2.205 C74.271,2.205 73.606,2.872 73.606,3.693 L73.606,12.564 C73.605,13.048 73.842,13.504 74.241,13.783 L85.654,21.773 L85.654,21.773 Z M15.67,49.818 C13.035,49.682 12.035,53.551 12.035,54.038 L12.035,93.491 C12.035,96.9800003 14.702,97.98 15.524,97.98 L37.026,97.98 C37.848,97.98 40.5149995,96.9800003 40.515,93.491 L40.515,65.5024414 C40.5149995,63.1100005 40.5149995,61.1100005 43.515,61.11 L56.835,61.11 C59.8349992,61.1100005 59.8349992,63.1100005 59.835,65.2905273 C59.835,68.7436523 59.835,93.491 59.835,93.491 C59.8349992,96.9800003 62.501,97.98 63.324,97.98 L84.632,97.98 C85.455,97.98 88.1189996,96.9800003 88.119,93.491 L88.119,53.9 C88.119,53.415 87.1189996,49.682 84.485,49.682 L15.67,49.818 L15.67,49.818 Z" sketch:type="MSShapeGroup"></path>
        </g>
    </g>
</svg>