<?xml version="1.0" standalone="no"?>
<!DOCTYPE svg PUBLIC "-//W3C//DTD SVG 1.1//EN" "http://www.w3.org/Graphics/SVG/1.1/DTD/svg11.dtd">
<svg width="100px" height="100px" version="1.1" xmlns="http://www.w3.org/2000/svg" xmlns:xlink="http://www.w3.org/1999/xlink" xml:space="preserve" style="fill-rule:evenodd;clip-rule:evenodd;stroke-linejoin:round;stroke-miterlimit:1.41421;">
    <g id="Layer_1">
        <path id="path5203" d="M47.432,-0.159C47.432,-0.159 44.0882,0.137953 40.7137,1.86915C35.2383,4.67809 14.354,16.247 14.354,16.247L56.687,16.247L83.739,-0.159ZM60.839,20.543L60.839,99.206L84.9818,75.9176C84.9818,75.9176 88.021,72.7552 88.183,67.5545C88.2801,64.4389 88.183,2.965 88.183,2.965ZM11.62,20.934L11.62,96.841C11.62,96.841 11.5047,99.6577 17.0249,99.841C19.248,99.9148 56.152,99.841 56.152,99.841L56.152,20.934ZM19.432,29.528L47.557,29.528L47.557,34.215L19.432,34.215ZM19.432,38.903L47.557,38.903L47.557,43.59L19.432,43.59ZM19.432,48.278L47.557,48.278L47.557,52.966L19.432,52.966ZM19.432,57.653L47.557,57.653L47.557,62.341L19.432,62.341Z" style="fill:black;fill-rule:nonzero;"/>
    </g>
</svg>
