<?xml version="1.0" encoding="utf-8"?>
<!-- Generator: Adobe Illustrator 16.2.1, SVG Export Plug-In . SVG Version: 6.00 Build 0)  -->
<!DOCTYPE svg PUBLIC "-//W3C//DTD SVG 1.1//EN" "http://www.w3.org/Graphics/SVG/1.1/DTD/svg11.dtd">
<svg xmlns="http://www.w3.org/2000/svg" xmlns:xlink="http://www.w3.org/1999/xlink" version="1.1" id="Layer_1" x="0px" y="0px" width="100px" height="100px" viewBox="0 0 100 100" enable-background="new 0 0 100 100" xml:space="preserve">
<g id="Your_Icon">
	<path d="M64.548,71.166c-4.63-1.448-12.032-1.747-13.883-1.747c-2.874,0-5.701,0.226-8.468,0.646   c-2.987-19.177,0.061-31.387,4.525-39.079c0.829,1.312,2.225,2.175,3.813,2.175c2.206,0,4.046-1.673,4.495-3.906   c0.439,0.148,0.908,0.233,1.396,0.233c2.54,0,4.601-2.222,4.601-4.961c0-0.077-0.006-0.151-0.015-0.226   c0.856,0.572,1.719,1.204,2.56,1.902c3.738,3.102,6.963,7.371,6.959,12.853c0,1.329-0.191,2.737-0.609,4.235   c-0.089,0.317,0.069,0.655,0.355,0.766c0.065,0.026,0.135,0.037,0.197,0.037c0.228,0,0.442-0.146,0.531-0.385   c0.013-0.039,1.888-4.876,1.89-10.639c0-4.026-0.93-8.556-4.144-12.105c-0.811-0.897-1.765-1.725-2.878-2.465   c0.086-0.001,0.173-0.002,0.262-0.002c3.585-0.001,7.457,0.57,10.754,2.325c3.296,1.763,6.028,4.664,7.455,9.469   c0.082,0.264,0.308,0.435,0.555,0.435c0.045,0,0.098-0.006,0.145-0.021c0.298-0.088,0.483-0.407,0.419-0.732   c-0.011-0.04-0.986-5.005-3.838-10.024C78.795,14.945,73.99,9.822,66.424,9.823c-3.322,0-7.146,0.992-11.54,3.352   C47.579,3.887,40.708,0.594,34.707,0.595C22,0.66,13.806,15.026,13.238,15.998V16c-0.021,0.032-0.03,0.05-0.031,0.052   c-0.157,0.285-0.079,0.653,0.18,0.836c0.255,0.183,0.602,0.116,0.784-0.15c3.893-5.701,8.957-7.582,14.152-7.594   c4.933-0.002,9.948,1.755,13.911,3.659c-0.819-0.102-1.607-0.153-2.36-0.153c-7.818-0.013-12.062,5.22-14.215,10.308   c-2.177,5.1-2.413,10.132-2.417,10.174c-0.015,0.331,0.212,0.617,0.518,0.651c0.02,0.003,0.041,0.004,0.06,0.004   c0.284,0,0.526-0.223,0.572-0.531c0.831-5.827,4.121-9.069,8.113-10.968c3.987-1.88,8.646-2.302,11.925-2.299   c0.382,0,0.745,0.005,1.086,0.016C30.293,33.988,32.177,67.224,32.576,72.414C19.21,76.959,7.866,86.398,0.358,98.793   c0.843,0.03,98.973-0.071,100-0.067C92.064,85.315,79.536,74.991,64.548,71.166z"/>
</g>
</svg>
