<?xml version="1.0" encoding="utf-8"?>
<!-- Generator: Adobe Illustrator 16.2.1, SVG Export Plug-In . SVG Version: 6.00 Build 0)  -->
<!DOCTYPE svg PUBLIC "-//W3C//DTD SVG 1.1//EN" "http://www.w3.org/Graphics/SVG/1.1/DTD/svg11.dtd">
<svg xmlns="http://www.w3.org/2000/svg" xmlns:xlink="http://www.w3.org/1999/xlink" version="1.1" id="Layer_1" x="0px" y="0px" width="100px" height="100px" viewBox="0 0 100 100" enable-background="new 0 0 100 100" xml:space="preserve">
<path d="M95.207,43.95H46.589c-3.023-9.647-12.031-17.711-22.675-17.711c-13.122,0-23.76,10.638-23.76,23.761  c0,13.123,10.638,23.759,23.76,23.759c11.045,0,20.327-8.602,22.991-18.811h17.124l0.002,9.942h6.221l0.025-9.942h4.66l0.003,9.932  h6.22l0.024-9.932h4.137v9.932h6.225v-9.932h3.665c3.524,0,4.944-1.975,4.944-5.5C100.151,45.928,98.734,43.95,95.207,43.95z   M23.75,63.033c-7.197,0-13.033-5.836-13.033-13.034c0-7.198,5.836-13.033,13.033-13.033c7.198,0,13.033,5.835,13.033,13.033  C36.783,57.197,30.948,63.033,23.75,63.033z"/>
</svg>
