<?xml version="1.0" encoding="utf-8"?>
<!-- Generator: Adobe Illustrator 16.2.1, SVG Export Plug-In . SVG Version: 6.00 Build 0)  -->
<!DOCTYPE svg PUBLIC "-//W3C//DTD SVG 1.1//EN" "http://www.w3.org/Graphics/SVG/1.1/DTD/svg11.dtd">
<svg xmlns="http://www.w3.org/2000/svg" xmlns:xlink="http://www.w3.org/1999/xlink" version="1.1" id="Layer_1" x="0px" y="0px" width="100px" height="100px" viewBox="0 0 100 100" enable-background="new 0 0 100 100" xml:space="preserve">
<path d="M49.237,0.497c-27.615,0-50,22.385-50,50c0,27.614,22.385,50,50,50s50-22.386,50-50  C99.236,22.882,76.854,0.497,49.237,0.497z M79.03,57.805l-32.595,0.088c-1.926,0-4.435-3.336-4.435-5.31V20.036  c0-1.972,3.574-3.573,5.5-3.573c1.929,0,5.5,1.598,5.5,3.573V48h25.899c1.933,0,3.168,3.191,3.168,5.162  C82.067,55.139,80.962,57.805,79.03,57.805z"/>
</svg>
