<?xml version="1.0" encoding="UTF-8" standalone="no"?>
<svg width="100px" height="100px" viewBox="0 0 100 100" version="1.1" xmlns="http://www.w3.org/2000/svg" xmlns:xlink="http://www.w3.org/1999/xlink" xmlns:sketch="http://www.bohemiancoding.com/sketch/ns">
    <!-- Generator: Sketch 3.1.1 (8761) - http://www.bohemiancoding.com/sketch -->
    <title>lightbulb</title>
    <desc>Created with Sketch.</desc>
    <defs></defs>
    <g id="Page-1" stroke="none" stroke-width="1" fill="none" fill-rule="evenodd" sketch:type="MSPage">
        <g id="lightbulb" sketch:type="MSArtboardGroup" fill="#000000">
            <path d="M44.4299997,2.56175299 C36.9691302,4.17211155 29.9604345,9.60239044 26.6068113,16.3434263 C24.4213041,20.7625498 23.8184055,23.6836653 24.0444925,29.1513944 C24.157536,33.0087649 24.3459418,34.0948207 25.3633331,36.7912351 C26.0039128,38.5139442 26.9459418,40.6111554 27.473478,41.47251 C28.9807244,44.0940239 32.5604345,52.0709163 33.9169563,56.0031873 C35.7633331,61.2836653 36.3285505,63.5681275 36.7430432,67.9498008 C37.2705795,73.1553785 37.3836229,73.6796813 38.4386954,74.8031873 L39.3430432,75.7768924 L49.7430432,75.7768924 C56.1488403,75.7768924 60.4444925,75.6270916 60.8966664,75.4023904 C62.1401447,74.7282869 62.7053621,73.0055777 63.1198548,68.736255 C63.7981157,61.3585657 66.0589853,54.5426295 71.2589853,43.9816733 C74.6879708,37.0908367 75.4039128,35.1434263 75.931449,31.136255 C78.041594,15.8940239 65.531449,1.8876494 49.9691302,2.0374502 C48.1981157,2.0374502 45.7111592,2.29960159 44.4299997,2.56175299 L44.4299997,2.56175299 Z M39.0039128,82.2071713 L39.757536,82.8812749 L39.0039128,83.4055777 C37.9865215,84.1171315 37.9865215,86.289243 39.0039128,87.0007968 L39.757536,87.5250996 L39.0039128,88.1992032 C38.0618838,89.0605578 38.0242026,90.7083665 38.9285505,91.4948207 C39.531449,92.0565737 40.8879708,92.1314741 50.0444925,92.1314741 C59.9923186,92.1314741 60.5198548,92.0940239 61.2357969,91.3824701 C62.215507,90.4087649 62.1778258,89.2478088 61.1227534,88.3115538 L60.2560867,87.5250996 L61.1227534,86.663745 C62.215507,85.5776892 62.215507,84.8286853 61.1227534,83.7426295 L60.2560867,82.8812749 L61.1227534,82.0948207 C62.1778258,81.1585657 62.215507,79.9976096 61.2357969,79.0239044 C60.5198548,78.3123506 59.9923186,78.2749004 49.9691302,78.2749004 C40.8879708,78.2749004 39.3430432,78.3498008 38.8531882,78.8741036 C38.0242026,79.698008 38.099565,81.3832669 39.0039128,82.2071713 L39.0039128,82.2071713 Z M42.7720287,94.6294821 C42.7720287,95.2661355 46.0126084,97.2135458 47.8213041,97.6629482 C50.9488403,98.4494024 54.7923186,97.3258964 56.8647824,95.0414343 L57.5807244,94.2549801 L50.1952171,94.2549801 C45.7488403,94.2549801 42.7720287,94.4047809 42.7720287,94.6294821 L42.7720287,94.6294821 Z M51.6069096,70.2228816 L48.7453323,70.2228816 L48.7453324,37.7352576 C48.7453324,37.7352576 47.363265,36.5678452 46.6497244,35.8974477 C43.6473183,33.0765769 42.5156263,26.979137 47.1811398,23.1378894 C49.5786025,21.1639912 50.9055414,21.1298644 52.9376984,21.3285571 C55.7203576,21.6006295 56.4183017,23.6974804 57.0324326,25.9066366 C57.9107573,29.0661528 57.0950925,29.720742 56.2053227,31.0395511 C53.6610661,33.1629756 52.1396638,30.0544539 53.6610661,29.669996 C54.3134065,28.7982801 54.9812199,28.2322763 54.5455289,27.2673235 C53.9047571,25.7754224 54.0839513,24.3298617 52.6912314,24.172889 C51.34434,24.0210816 49.0484403,25.3071634 49,25.3470457 C45.7013509,28.0629157 46.8330429,32.1432382 48.6091343,33.8119412 C48.8900328,34.0758557 51.6069096,36.068875 51.6069096,36.068875 L51.6069096,70.2228816 Z" sketch:type="MSShapeGroup"></path>
        </g>
    </g>
</svg>