<?xml version="1.0" standalone="no"?>
<!DOCTYPE svg PUBLIC "-//W3C//DTD SVG 1.1//EN" "http://www.w3.org/Graphics/SVG/1.1/DTD/svg11.dtd">
<svg width="100px" height="100px" version="1.1" xmlns="http://www.w3.org/2000/svg" xmlns:xlink="http://www.w3.org/1999/xlink" xml:space="preserve" style="fill-rule:evenodd;clip-rule:evenodd;stroke-linejoin:round;stroke-miterlimit:1.41421;">
    <g>
        <g id="like">
            <path d="M9.00116,34.4737C6.79138,34.4737 5,36.2635 5,38.4725L5,71.2117C5,73.4202 6.79425,75.2105 9.00116,75.2105L21.6238,75.2105C23.8336,75.2105 25.625,73.4208 25.625,71.2117L25.625,38.4725C25.625,36.264 23.8307,34.4737 21.6238,34.4737M90.8516,33.7651L65.2578,33.7651C65.2578,33.7651 61.4782,31.7608 62.4709,26.8693C63.6636,20.9917 64.0227,18.2148 63.1334,15.1188C62.2442,12.0227 62.9937,7.46705 57.3331,7.21979C54.0134,7.73326 51.9659,9.52986 51.9659,14.1432L51.9659,19.5024C51.3545,27.5609 43.9722,36.6349 39.9125,37.2466C35.8528,37.8584 28.79,38.2452 28.79,38.2452L28.79,72.5636C28.79,72.5636 36.2539,72.5536 38.1197,73.3181C39.4174,73.8499 46.8003,78.7793 49.2584,78.7793L80.2691,78.7793C80.2691,78.7793 83.7658,78.2116 84.8795,73.9865C85.3417,72.2333 85.1815,70.1173 83.2467,69.6137L78.7555,69.6137C76.8263,69.6137 76.6071,67.1889 76.6071,67.1889C76.6071,67.1889 82.2733,67.2726 82.7225,67.1889C84.4506,66.8669 88.6382,65.9108 88.6381,61.3723C88.6381,59.4395 87.7753,58.4359 86.3067,58.4359L78.4628,58.4359C76.6071,58.4359 76.6071,55.9798 76.6071,55.9798C76.6071,55.9798 85.7566,55.9798 86.3067,55.9798C88.2777,55.9798 90.8516,54.8856 91.2153,51.8948C91.2153,50.2514 91.2153,47.6945 88.9896,47.2914L78.4628,47.2914C76.4929,46.9646 76.3653,44.7314 76.3653,44.7314L89.42,44.9433C89.42,44.9433 91.0032,44.844 91.2153,44.7415C92.8282,43.9621 94.7872,42.4135 94.7872,39.4891C94.7872,34.5163 90.8516,33.7651 90.8516,33.7651" style="fill:black;"/>
        </g>
    </g>
</svg>
