<?xml version="1.0" encoding="UTF-8" standalone="no"?>
<svg width="100px" height="100px" viewBox="0 0 100 100" version="1.1" xmlns="http://www.w3.org/2000/svg" xmlns:xlink="http://www.w3.org/1999/xlink" xmlns:sketch="http://www.bohemiancoding.com/sketch/ns">
    <!-- Generator: Sketch 3.1.1 (8761) - http://www.bohemiancoding.com/sketch -->
    <title>links</title>
    <desc>Created with Sketch.</desc>
    <defs></defs>
    <g id="Page-1" stroke="none" stroke-width="1" fill="none" fill-rule="evenodd" sketch:type="MSPage">
        <g id="links" sketch:type="MSArtboardGroup" fill="#000000">
            <path d="M84.48368,15.279965 C74.78336,5.57376503 59.05184,5.57376503 49.34984,15.277445 L38.73392,25.893365 C37.81748,26.808965 36.98672,27.783365 36.24248,28.795565 C36.08036,29.013965 35.93336,29.246645 35.77964,29.468405 C40.90784,28.084085 46.35104,28.166405 51.44228,29.721245 L52.31,28.852685 L58.16648,22.997885 C63.30056,17.863805 71.6258,17.863805 76.76408,22.997885 C81.90068,28.134485 81.90068,36.460565 76.76408,41.598005 L70.0886,48.272645 L68.71856,49.646885 L67.38212,50.979965 L67.37456,50.986685 L65.08808,53.211005 C62.77052,55.529405 60.0632,56.794445 56.7032,57.019565 L56.7032,57.029645 C56.7032,57.026285 56.76788,57.026285 56.76452,57.026285 C56.12864,57.080885 55.50452,57.087605 55.04,57.067445 C54.01268,57.019565 53.13236,56.867525 53.13236,56.867525 C50.4284,56.499605 48.53,55.156445 46.5518,53.176565 C44.624,51.248765 43.4228,48.895085 42.94064,46.403645 C42.92636,46.334765 42.9188,46.272605 42.9062,46.203725 C40.65416,46.388525 38.45672,47.336045 36.73556,49.055525 L33.2,52.591085 C34.4138,55.663805 36.25256,58.546685 38.7356,61.028045 C41.21696,63.512765 44.09312,65.351525 47.16248,66.565325 C47.72612,66.787925 48.299,66.990365 48.87524,67.168445 C49.35908,67.318805 49.84208,67.459085 50.33432,67.581725 C50.37044,67.591805 50.40152,67.595165 50.43176,67.601885 C50.5208,67.625405 50.609,67.639685 50.69804,67.659845 C55.78676,68.835005 61.17032,68.387285 66.03392,66.319205 C66.62864,66.063005 67.22336,65.789165 67.8038,65.485925 C67.83488,65.471645 67.86512,65.454845 67.8962,65.437205 C67.99532,65.385965 68.08772,65.331365 68.18348,65.276765 C68.4296,65.144045 68.67572,65.010485 68.91764,64.866845 C68.92184,64.866845 68.9252,64.866845 68.9252,64.863485 C70.6892,63.821045 72.34988,62.542565 73.86776,61.028885 L84.48368,50.412965 C94.18736,40.709285 94.18736,24.976925 84.48368,15.279965 Z M48.08312,70.278125 L47.21456,71.145845 L41.35976,77.001485 C36.224,82.134725 27.89792,82.134725 22.76132,77.001485 C17.62388,71.864045 17.62388,63.538805 22.76132,58.400525 L29.43596,51.725885 L30.80852,50.351645 L32.14496,49.018565 L32.15,49.011845 L34.23992,46.786685 C36.56,44.472485 39.9032,43.204925 42.4232,42.978965 C42.4232,42.978965 43.74116,42.894965 44.2082,42.915125 C45.23552,42.959645 45.38924,42.967205 46.21664,43.125125 C49.18268,43.860125 50.99288,44.915165 52.97108,46.890005 C54.89888,48.817805 56.1026,51.138725 56.58056,53.626805 C56.59484,53.699045 56.60408,53.744405 56.615,53.812445 C58.87124,53.631845 61.07204,52.671725 62.78816,50.956445 L66.3254,47.412485 C65.11244,44.339765 63.27284,41.458565 60.78812,38.973845 C58.30676,36.492485 55.42892,34.648685 52.35956,33.435725 C51.7976,33.213125 51.22472,33.010685 50.64932,32.833445 C50.16548,32.683085 49.67828,32.542805 49.19024,32.422685 C49.15076,32.412605 49.12304,32.405045 49.09112,32.394965 C49.00376,32.374805 48.91388,32.360525 48.82652,32.340365 C43.73528,31.165205 38.35424,31.616285 33.49232,33.683525 C32.89424,33.936365 32.30288,34.209365 31.7216,34.514285 C31.68716,34.531925 31.6586,34.545365 31.62752,34.562165 C31.53008,34.613405 31.436,34.668005 31.34024,34.722605 C31.09412,34.856165 30.84464,34.988885 30.60692,35.132525 C30.6002,35.132525 30.6002,35.135885 30.59852,35.139245 C28.83284,36.178325 27.17216,37.456805 25.65764,38.970485 L15.0392,49.585565 C5.33552,59.289245 5.33552,75.021605 15.0392,84.721925 C24.7412,94.425605 40.47188,94.425605 50.17388,84.721925 L60.79148,74.106005 C61.70792,73.186205 62.53784,72.216005 63.28376,71.200445 C63.4442,70.977845 63.59456,70.749365 63.74492,70.523405 C58.61672,71.915285 53.17268,71.832965 48.08312,70.278125 Z M56.50916,56.688605 C56.50916,56.695325 56.50916,56.702045 56.50496,56.708765 L56.50916,56.708765 L56.50916,56.688605 Z" sketch:type="MSShapeGroup"></path>
        </g>
    </g>
</svg>