<?xml version="1.0" encoding="iso-8859-1"?>
<!-- Generator: Adobe Illustrator 16.2.1, SVG Export Plug-In . SVG Version: 6.00 Build 0)  -->
<!DOCTYPE svg PUBLIC "-//W3C//DTD SVG 1.1//EN" "http://www.w3.org/Graphics/SVG/1.1/DTD/svg11.dtd">
<svg xmlns="http://www.w3.org/2000/svg" xmlns:xlink="http://www.w3.org/1999/xlink" version="1.1" id="Calque_1" x="0px" y="0px" width="100px" height="100px" viewBox="0 0 100 100" style="enable-background:new 0 0 100 100;" xml:space="preserve">
<path d="M97.993,50.729c0,3.586-2.097,6.5-5.688,6.5H25.168c-3.587,0-5.686-2.914-5.686-6.5l0,0c0-3.59,2.099-6.5,5.686-6.5h67.137  C95.896,44.229,97.993,47.139,97.993,50.729L97.993,50.729z"/>
<path d="M15.006,50.729c0,3.586-2.912,6.5-6.5,6.5l0,0c-3.59,0-6.5-2.914-6.5-6.5l0,0c0-3.59,2.91-6.5,6.5-6.5l0,0  C12.095,44.229,15.006,47.139,15.006,50.729L15.006,50.729z"/>
<path d="M98,80.395c0,3.586-2.098,6.498-5.688,6.498H25.167c-3.588,0-5.688-2.912-5.688-6.498l0,0c0-3.594,2.099-6.502,5.688-6.502  h67.146C95.902,73.893,98,76.801,98,80.395L98,80.395z"/>
<path d="M15.002,80.395c0,3.586-2.912,6.498-6.5,6.498l0,0C4.912,86.893,2,83.98,2,80.395l0,0c0-3.594,2.91-6.502,6.502-6.502l0,0  C12.091,73.893,15.002,76.801,15.002,80.395L15.002,80.395z"/>
<path d="M98,21.065c0,3.587-2.098,6.5-5.688,6.5H25.172c-3.587,0-5.687-2.912-5.687-6.5l0,0c0-3.59,2.1-6.5,5.687-6.5h67.141  C95.902,14.565,98,17.475,98,21.065L98,21.065z"/>
<path d="M15.009,21.065c0,3.587-2.912,6.5-6.5,6.5l0,0c-3.591,0-6.501-2.912-6.501-6.5l0,0c0-3.59,2.909-6.5,6.501-6.5l0,0  C12.097,14.565,15.009,17.475,15.009,21.065L15.009,21.065z"/>
</svg>
