<?xml version="1.0" encoding="utf-8"?>
<!-- Generator: Adobe Illustrator 16.2.1, SVG Export Plug-In . SVG Version: 6.00 Build 0)  -->
<!DOCTYPE svg PUBLIC "-//W3C//DTD SVG 1.1//EN" "http://www.w3.org/Graphics/SVG/1.1/DTD/svg11.dtd">
<svg xmlns="http://www.w3.org/2000/svg" xmlns:xlink="http://www.w3.org/1999/xlink" version="1.1" id="Layer_1" x="0px" y="0px" width="100px" height="100px" viewBox="0 0 100 100" enable-background="new 0 0 100 100" xml:space="preserve">
<path d="M79.577,26.479c0-15.646-13.19-26.643-29.101-26.643c-15.906,0-30.172,10.946-29.675,29.643l-0.016,15.633  c0,0,0.24,0.021-0.96,0.021c-1.27,0-9.64,1.473-9.64,8.936v35.824c0,7.959,9.42,9.943,9.64,9.943c16.76,0,44.438,0,61.202,0  c0.22,0,9.154-0.993,9.154-9.943V54.564c0-8.457-8.455-9.434-8.681-9.434c-1.194,0-47.241,0-47.241,0l0.016-15.446  c0-9.949,6.071-17.903,15.906-17.903c9.741,0,16.483,6.383,16.483,17.383 M59.334,86.055H41.061l4.963-14.565  c-2.12-1.412-3.528-3.866-3.528-6.665c0-4.385,3.442-7.938,7.687-7.938c4.245,0,7.687,3.558,7.687,7.938  c0,2.795-1.404,5.253-3.522,6.66L59.334,86.055z"/>
</svg>
