<?xml version="1.0" encoding="UTF-8" standalone="no"?>
<svg width="100px" height="100px" viewBox="0 0 100 100" version="1.1" xmlns="http://www.w3.org/2000/svg" xmlns:xlink="http://www.w3.org/1999/xlink" xmlns:sketch="http://www.bohemiancoding.com/sketch/ns">
    <!-- Generator: Sketch 3.1.1 (8761) - http://www.bohemiancoding.com/sketch -->
    <title>logout</title>
    <desc>Created with Sketch.</desc>
    <defs></defs>
    <g id="Page-1" stroke="none" stroke-width="1" fill="none" fill-rule="evenodd" sketch:type="MSPage">
        <g id="logout" sketch:type="MSArtboardGroup" fill="#000000">
            <path d="M23.2525376,17.2469632 C12.6040039,17.2469632 2,39.8438551 2,53.5093724 C2,78.6331523 23.2664744,99 49.5,99 C75.7335256,99 97,78.6331523 97,53.5093724 C97,40.279144 86.1976335,18.0535374 75.6880469,18.0556566 C73.2329102,18.0561516 71.1779099,19.0898438 71.1779076,21.3508541 C71.1779076,21.3508541 71.0949079,34.2788189 71.8021155,35.0583491 C76.2422055,39.9525053 78.9299764,47.4952164 78.9299764,54.4876655 C78.9299764,69.8861112 65.5786125,82.6719553 49.5,82.6719553 C33.4213875,82.6719553 20.0700236,69.8861112 20.0700236,54.4876655 C20.0700236,47.1197501 23.054189,39.2678708 27.9281417,34.2830479 C28.6223631,33.5730347 27.710423,20.350854 27.710423,20.350854 C27.7104225,18.2469632 25.7211015,17.2469632 23.2525376,17.2469632 Z M40.8172043,6.08214773 L40.8172043,55.829015 C40.8172043,58.6358077 43.1087655,60.9111627 45.9146181,60.9111627 L52.9483507,60.9111627 C55.7635746,60.9111627 58.0457645,58.635732 58.0457645,55.829015 L58.0457645,6.08214773 C58.0457645,3.27535504 55.7542033,1 52.9483507,1 L45.9146181,1 C43.0993942,1 40.8172043,3.27543073 40.8172043,6.08214773 Z" sketch:type="MSShapeGroup"></path>
        </g>
    </g>
</svg>