<?xml version="1.0" standalone="no"?>
<!DOCTYPE svg PUBLIC "-//W3C//DTD SVG 1.1//EN" "http://www.w3.org/Graphics/SVG/1.1/DTD/svg11.dtd">
<svg width="100px" height="100px" version="1.1" xmlns="http://www.w3.org/2000/svg" xmlns:xlink="http://www.w3.org/1999/xlink" xml:space="preserve" style="fill-rule:evenodd;clip-rule:evenodd;stroke-linejoin:round;stroke-miterlimit:1.41421;">
    <g id="Layer_1">
        <g>
            <g>
                <path d="M59.607,40.829L56.189,19.931L45.415,33.327L39.649,38.749L47.55,46.504L57.616,53.89L56.652,55.239L49.79,51.401L38.052,40.09L31.72,47.981L22.472,43.007L19.768,48.759L9.523,62.752L7.546,61.474L17.668,47.554L21.195,41.202L11.799,36.826L0.322,28.8L1.413,43.473L5.19,65.429L24.712,66.329L46.909,61.78L58.732,60.233L61.07,56.659Z" style="fill:black;fill-rule:nonzero;"/>
                <path d="M22.917,38.89L31.009,44.403L35.845,38.498L43.815,30.995L55.852,17L30.475,20.266L13.08,22.948L-0.095,25.879L12.866,34.377Z" style="fill:black;fill-rule:nonzero;"/>
            </g>
            <g>
                <path d="M73.255,76.179L75.539,62.84L66.244,68.688L61.629,70.765L64.787,77.093L69.33,83.651L68.471,84.267L65.121,80.519L60.384,71.239L54.914,74.688L50.364,69.757L47.532,72.67L38.429,78.993L37.501,77.808L46.516,71.505L49.968,68.399L45.203,63.802L40.944,64.868L37.544,65.653L35.256,79.704L46.862,84.315L61.219,86.188L68.684,87.716L70.842,86.045Z" style="fill:black;fill-rule:nonzero;"/>
                <path d="M51.488,67.364L55.23,72.381L59.383,69.817L65.76,66.944L75.945,60.998L62.243,58.251L59.971,61.685L52.605,62.513L48.884,62.843L47.106,63.297Z" style="fill:black;fill-rule:nonzero;"/>
            </g>
            <g>
                <path d="M94.945,19.954L80.439,22.536L65.895,25.563L60.536,26.414L63.11,40.31L65.762,52.574L75.534,50.345L90.68,47.69L99.905,45.639L97.923,37.072ZM85.927,42.233L86.073,43.065L80.956,43.856L70.018,45.858L69.862,44.948L69.639,44.022L73.969,43.067L74.028,43.056L80.936,42.014L85.824,41.339ZM68.975,40.903L68.971,40.196L74.598,39.052L80.114,38.082L82.723,37.521L84.969,37.106L85.166,38.617L82.424,39.24L74.591,40.58L69.258,41.679ZM84.307,33.844L84.495,34.695L79.064,35.744L73.187,36.642L68.402,37.495L67.97,35.906L79.185,33.846L84.232,33.015ZM93.582,27.353L89.016,28.069L88.374,25.896L88.079,23.276L90.177,23.013L92.802,22.472L93.43,24.918Z" style="fill:black;fill-rule:nonzero;"/>
            </g>
        </g>
    </g>
</svg>
