<?xml version="1.0" encoding="UTF-8" standalone="no"?>
<svg width="100px" height="100px" viewBox="0 0 100 100" version="1.1" xmlns="http://www.w3.org/2000/svg" xmlns:xlink="http://www.w3.org/1999/xlink" xmlns:sketch="http://www.bohemiancoding.com/sketch/ns">
    <!-- Generator: Sketch 3.1.1 (8761) - http://www.bohemiancoding.com/sketch -->
    <title>inbox</title>
    <desc>Created with Sketch.</desc>
    <defs></defs>
    <g id="Page-1" stroke="none" stroke-width="1" fill="none" fill-rule="evenodd" sketch:type="MSPage">
        <g id="inbox" sketch:type="MSArtboardGroup" fill="#000000">
            <path d="M58.1613686,35.4684762 L51.8274174,6 L48.6942394,6 L43.1523891,35.5276116 L32.4,35.5781628 L50.6982928,62.2758621 L68.8137931,35.4169713 L58.1613686,35.4684762 Z M98.5263242,64.0479188 C98.5263242,64.0479188 83.6995391,18.8239792 83.2447028,17.0369184 C82.7898665,15.2498577 79.1269542,15.2498578 79.1269542,15.2498578 L59.3605035,14.2758621 L61.2846472,21.7253238 L75.7838279,21.7253238 L86.3455161,64.5334572 L67.5878917,62.5854667 C67.5878917,62.5854667 65.8115245,62.5854667 65.2126328,64.6522678 C64.186906,67.3153969 62.1354526,72.6416553 62.1354526,72.6416553 L39.2366076,72.6416553 C39.2366076,72.6416553 37.3734368,67.2990981 36.2338411,64.6858823 C35.3178722,62.5854667 33.3356926,62.5854667 33.3356926,62.5854667 L14.8673178,64.5334572 L25.42421,21.7253238 L40.3310483,21.7253238 L42.2523144,14.2758621 L21.2521965,15.2498578 C21.2521965,15.2498578 19.7543937,15.2498578 19.315894,17.0813155 C13.8165691,32.6794416 2.81791929,63.8756938 2.81791929,63.8756938 L2.60689655,90.7761465 C2.60689655,90.7761465 2.60689589,93.7241348 5.5262443,93.7241379 C7.59375044,93.7241348 93.3450006,93.7958095 95.6060173,93.7241379 C97.867034,93.6524664 98.5263242,90.7761465 98.5263242,90.7761465 L98.5263242,64.0479188 Z" sketch:type="MSShapeGroup"></path>
        </g>
    </g>
</svg>