<?xml version="1.0" encoding="UTF-8" standalone="no"?>
<svg width="100px" height="100px" viewBox="0 0 100 100" version="1.1" xmlns="http://www.w3.org/2000/svg" xmlns:xlink="http://www.w3.org/1999/xlink" xmlns:sketch="http://www.bohemiancoding.com/sketch/ns">
    <!-- Generator: Sketch 3.1.1 (8761) - http://www.bohemiancoding.com/sketch -->
    <title>map</title>
    <desc>Created with Sketch.</desc>
    <defs></defs>
    <g id="Page-1" stroke="none" stroke-width="1" fill="none" fill-rule="evenodd" sketch:type="MSPage">
        <g id="map" sketch:type="MSArtboardGroup" fill="#000000">
            <path d="M99.475,80.2976 L99.475,87.457 C99.475,87.457 100,91.3628 95.3491,92.2002 C86.2329,93.8069 69.137,96.804 69.137,96.804 L69.137,59.2966 L83.3907,60.7385 L84.7806,73.3026 L99.475,80.2976 Z M66.475,58.955 L66.475,96.802 L34.6617,91.869 L34.6617,72.9274 L49.8233,62.3846 L66.475,58.955 Z M30.762,72.8923 L30.762,91.46 L4.7842,96.352 C4.7842,96.352 0.42402,97.0063 0.42402,92.1807 L0.424021,68.8599 L15.945921,66.3846 L30.762,72.8923 Z M34.6617,65.708 L34.6617,56.5635 L47.4053,26.9575 L66.475,23.71 L66.475,53.0414 L48.5015,56.6923 L34.6617,65.708 Z M30.762,65.5786 L17.2678,59.6923 L0.424,61.9552 L0.424,27.7903 C0.424001,24.5791 4.11035,24.998 4.11035,24.998 L16.54395,27.9092 L30.76205,58.4711 L30.762,65.5786 Z M99.475,73.2508 L90.1533,68.7563 L88.5324,54.8236 L69.1541,53.1751 L69.137,53.3945 L69.137,23.708 C69.137,23.708 92.4185,28.0503 95.3491,28.5942 C98.6343,29.2144 99.475,33.127 99.475,33.127 L99.475,73.2508 Z M44.882,15.215 C44.882,16.835 44.581,18.392 44.031,19.819 L31.764,48.677 C31.764,48.677 19.667,20.143 19.524,19.767 C18.981,18.341 18.608,16.828 18.608,15.219 C18.608,8.027 24.487,2.194 31.746,2.194 C39.003,2.194 44.882,8.027 44.882,15.215 L44.882,15.215 Z M31.753,9.433 C28.527,9.433 25.913,12.02 25.913,15.215 C25.913,18.406 28.527,21 31.753,21 C34.966,20.999 37.584,18.406 37.584,15.215 C37.584,12.02 34.974,9.433 31.753,9.433 L31.753,9.433 Z" sketch:type="MSShapeGroup"></path>
        </g>
    </g>
</svg>