<?xml version="1.0" encoding="UTF-8" standalone="no"?>
<svg width="100px" height="100px" viewBox="0 0 100 100" version="1.1" xmlns="http://www.w3.org/2000/svg" xmlns:xlink="http://www.w3.org/1999/xlink" xmlns:sketch="http://www.bohemiancoding.com/sketch/ns">
    <!-- Generator: Sketch 3.1.1 (8761) - http://www.bohemiancoding.com/sketch -->
    <title>merge</title>
    <desc>Created with Sketch.</desc>
    <defs></defs>
    <g id="Page-1" stroke="none" stroke-width="1" fill="none" fill-rule="evenodd" sketch:type="MSPage">
        <g id="merge" sketch:type="MSArtboardGroup" fill="#000000">
            <path d="M57,52.1219494 L57,31.1817052 C64.4693037,31.1791506 70.2926941,31.1761245 70.2978219,31.1750408 C72.958755,31.1569037 73.3263556,26.1857293 71.7110105,24.6108302 C71.7043355,24.6007541 50.0204798,1.33659857 50.1921221,1.17739573 C48.5925109,-0.392465243 47.0791975,-0.392465243 45.6121323,1.17739573 C45.5654074,1.24188296 24.3287754,24.4939471 24.1523652,24.80933 C22.3939848,26.5071578 22.6261787,31.1800788 24.9986573,31.177056 C24.9986573,31.1844362 31.7283495,31.186276 40,31.1855772 L40,31.1855772 L40,51.5282373 L40,51.5282373 L11.2108147,88.376714 C10.188082,89.6857523 10.4124595,91.5699954 11.7282758,92.5980237 L20.4150799,99.384899 C21.7235985,100.407226 23.6065897,100.183582 24.6361838,98.8657619 L48.3504975,68.5128246 L72.8012371,98.7069734 C73.8536736,100.006624 75.7402811,100.197371 77.0307583,99.152363 L85.5977921,92.2149158 C86.8954664,91.1640799 87.0869252,89.2762078 86.0415023,87.9852181 L57,52.1219494 Z" sketch:type="MSShapeGroup"></path>
        </g>
    </g>
</svg>