<?xml version="1.0" encoding="UTF-8" standalone="no"?>
<svg width="100px" height="100px" viewBox="0 0 100 100" version="1.1" xmlns="http://www.w3.org/2000/svg" xmlns:xlink="http://www.w3.org/1999/xlink" xmlns:sketch="http://www.bohemiancoding.com/sketch/ns">
    <!-- Generator: Sketch 3.1.1 (8761) - http://www.bohemiancoding.com/sketch -->
    <title>money</title>
    <desc>Created with Sketch.</desc>
    <defs></defs>
    <g id="Page-1" stroke="none" stroke-width="1" fill="none" fill-rule="evenodd" sketch:type="MSPage">
        <g id="money" sketch:type="MSArtboardGroup" fill="#000000">
            <path d="M3.99732351,21 C1.78966269,21 0,22.7956808 0,25.0065556 L0,76.9934444 C0,79.206204 1.79952991,81 3.99732351,81 L96.0026765,81 C98.2103373,81 100,79.2043192 100,76.9934444 L100,25.0065556 C100,22.793796 98.2004701,21 96.0026765,21 L3.99732351,21 L3.99732351,21 Z M32,50.5 C32,40.2827321 40.0588745,32 50,32 C59.9411255,32 68,40.2827321 68,50.5 C68,60.7172679 59.9411255,69 50,69 C40.0588745,69 32,60.7172679 32,50.5 Z M43.7816107,54.1063549 C40.3195687,57.7811197 40.9627817,59.8140953 41.2189619,60.6368198 C41.4751421,61.4595442 43.1431285,62.7941189 45.7607422,63.6726189 C47.2563477,64.1745605 50.355957,63.9570312 52,63.6726189 C53.644043,63.3882065 55.502799,62.6678262 56.0352774,61.3466797 C56.5677557,60.0255332 54.8012872,57.4841435 54.1040153,56.3517418 C53.9985542,56.1813918 52.4307002,53.3852671 52.4680724,52.9226678 C52.7371005,49.6308682 55.107885,51.3732825 56.0352771,50.7810523 C56.8979078,50.2313453 56.7486753,46.8841368 56.6887775,46.7181681 C56.5569511,46.3540161 58.2336382,45.9419209 57.9722893,45.4633433 C57.7849167,45.1200663 56.8915509,41.7004481 56.8649297,41.4625767 C56.7354071,40.3234743 56.078067,38.8613787 55.87508,38.5791803 C55.0687634,37.4539946 52.394352,37.0060851 51.1121806,37.0004153 C47.3626803,36.9839216 45.1420185,37.4430274 44.1744386,41.1943336 C43.5636858,43.5617078 44.7074669,45.3958301 46.0999629,47.3212223 C47.4466396,49.1819279 43.7816107,54.1063549 43.7816107,54.1063549 Z M82.5,40.3064631 L82.5,35.8636364 C83.3751394,35.8188918 83.9877278,35.751776 84.3377836,35.6622869 C84.8952798,35.5205959 85.349049,35.237218 85.6991048,34.8121449 C85.9389578,34.5213054 86.1204655,34.1335252 86.2436333,33.6487926 C86.3149409,33.3579531 86.3505942,33.141691 86.3505942,33 L91.5,33 L91.5,50.856179 L85.8157895,50.856179 L85.8157895,40.3064631 L82.5,40.3064631 L82.5,40.3064631 Z M8.97070312,40.3064631 L8.97070312,35.8636364 C9.84584255,35.8188918 10.458431,35.751776 10.8084867,35.6622869 C11.365983,35.5205959 11.8197522,35.237218 12.1698079,34.8121449 C12.409661,34.5213054 12.5911686,34.1335252 12.7143364,33.6487926 C12.7856441,33.3579531 12.8212974,33.141691 12.8212974,33 L17.9707031,33 L17.9707031,50.856179 L12.2864926,50.856179 L12.2864926,40.3064631 L8.97070312,40.3064631 L8.97070312,40.3064631 Z" sketch:type="MSShapeGroup"></path>
        </g>
    </g>
</svg>