<?xml version="1.0" encoding="utf-8"?>
<!-- Generator: Adobe Illustrator 16.2.1, SVG Export Plug-In . SVG Version: 6.00 Build 0)  -->
<!DOCTYPE svg PUBLIC "-//W3C//DTD SVG 1.1//EN" "http://www.w3.org/Graphics/SVG/1.1/DTD/svg11.dtd">
<svg xmlns="http://www.w3.org/2000/svg" xmlns:xlink="http://www.w3.org/1999/xlink" version="1.1" id="Layer_1" x="0px" y="0px" width="100px" height="100px" viewBox="0 0 100 100" enable-background="new 0 0 100 100" xml:space="preserve">
<g id="Your_Icon_4_">
	<path d="M39.714,86.637l22.954-0.082c0,0,6.305,0.082,6.305-3.569c0-4.063-5.859-4.498-5.859-4.498l-5.686-0.727   c-0.439,0-2.398-0.401-2.398-1.953c0-1.329,0.934-1.975,2.398-2.121l11.35-0.684c2.191,0,5.458-1.373,5.458-4.4   c0-3.229-3.679-4.308-5.458-4.308l-11.735-0.977c0,0-2.153-0.104-2.007-1.904l-0.006-0.011c0-1.324,1.074-2.002,2.398-2.002   l12.603-0.684c2.653,0,6.771-1.227,6.771-4.52c0-3.31-4.117-4.481-6.771-4.481l-12.988-0.781c-1.323,0-2.007-0.613-2.007-1.926   v-0.005c0-1.329,0.765-2.094,2.088-2.094l11.058-0.309l25.45-0.494c2.652,0,6.369-0.949,6.369-4.302c0-3.657-3.679-4.275-6.18-4.66   l-56.754-3.521l13.248-5.263l5.426-4.899c0,0,3.342-2.903,4.237-6.125c0.439-1.579,0.478-3.619-1.08-4.812   c-1.47-1.123-5.658,1.02-5.658,1.02l-5.865,3.228c-5.034,2.642-12.668,6.288-20.291,8.631l0.011,0.043   C10.465,29.562,0.027,38.758,0.027,38.758S0,42.8,0,52.061l0,0v20.942C18.88,86.637,39.714,86.637,39.714,86.637L39.714,86.637z"/>
</g>
</svg>
