<?xml version="1.0" encoding="utf-8"?>
<!-- Generator: Adobe Illustrator 16.2.1, SVG Export Plug-In . SVG Version: 6.00 Build 0)  -->
<!DOCTYPE svg PUBLIC "-//W3C//DTD SVG 1.1//EN" "http://www.w3.org/Graphics/SVG/1.1/DTD/svg11.dtd">
<svg xmlns="http://www.w3.org/2000/svg" xmlns:xlink="http://www.w3.org/1999/xlink" version="1.1" id="Layer_1" x="0px" y="0px" width="100px" height="100px" viewBox="0 0 100 100" enable-background="new 0 0 100 100" xml:space="preserve">
<path d="M90.001,0.085c-29.438,0.478-45.712,6.783-54.053,9.933c-3.76,1.42-3.391,7.382-3.391,7.382l-0.021,56.706  c-3.411-1.355-7.558-1.676-11.77-0.652C11.682,75.66,5.733,83.271,7.48,90.463c1.746,7.188,10.523,11.223,19.605,9.018  c8.564-2.082,14.338-8.965,13.505-15.771l0,0c0,0-0.021-42.647,0-44.21c0.035-2.688,2.085-3.352,2.085-3.352  s15.151-5.925,40.322-7.628c0,0,2.169-0.208,2.169,2.167c0,1.125,0,32.528,0,32.528l0,0c-3.379-1.293-7.445-1.585-11.581-0.58  c-9.084,2.208-15.03,9.822-13.284,17.011c1.744,7.185,10.525,11.223,19.605,9.016c7.933-1.93,13.471-7.977,13.588-14.266  l0.002,0.008c0.001-0.004,0.001-50.955,0.001-69.342C93.497,3.404,93.188,0.375,90.001,0.085z"/>
</svg>
