<?xml version="1.0" encoding="UTF-8" standalone="no"?>
<svg width="100px" height="100px" viewBox="0 0 100 100" version="1.1" xmlns="http://www.w3.org/2000/svg" xmlns:xlink="http://www.w3.org/1999/xlink" xmlns:sketch="http://www.bohemiancoding.com/sketch/ns">
    <!-- Generator: Sketch 3.1.1 (8761) - http://www.bohemiancoding.com/sketch -->
    <title>new</title>
    <desc>Created with Sketch.</desc>
    <defs></defs>
    <g id="Page-1" stroke="none" stroke-width="1" fill="none" fill-rule="evenodd" sketch:type="MSPage">
        <g id="new" sketch:type="MSArtboardGroup" fill="#000000">
            <path d="M37.4289322,44.5 L26.486986,33.5580538 C24.6385887,31.7096565 24.6337091,28.6972433 26.4886995,26.8422529 C28.3399154,24.9910371 31.3504564,24.9864954 33.2045004,26.8405394 L44,37.636039 L44,37.636039 L44,20.9984212 C44,17.6798602 46.6862915,15 50,15 C53.3069658,15 56,17.6855846 56,20.9984212 L56,36.9289322 L66.4419462,26.486986 C68.2903435,24.6385887 71.3027567,24.6337091 73.1577471,26.4886995 C75.0089629,28.3399154 75.0135046,31.3504564 73.1594606,33.2045004 L61.863961,44.5 L79.5077703,44.5 C82.8141643,44.5 85.5,47.1862915 85.5,50.5 C85.5,53.8069658 82.8171874,56.5 79.5077703,56.5 L62.863961,56.5 L73.4314247,67.0674637 C75.279822,68.915861 75.2847016,71.9282742 73.4297112,73.7832646 C71.5784954,75.6344805 68.5679544,75.6390222 66.7139103,73.7849781 L56,63.0710678 L56,79.0015788 C56,82.3201398 53.3137085,85 50,85 C46.6930342,85 44,82.3144154 44,79.0015788 L44,62.363961 L32.9325363,73.4314247 C31.084139,75.279822 28.0717258,75.2847016 26.2167354,73.4297112 C24.3655195,71.5784954 24.3609778,68.5679544 26.2150219,66.7139103 L36.4289322,56.5 L20.4922297,56.5 C17.1858357,56.5 14.5,53.8137085 14.5,50.5 C14.5,47.1930342 17.1828126,44.5 20.4922297,44.5 L37.4289322,44.5 L37.4289322,44.5 L37.4289322,44.5 Z M50,12 C52.7614237,12 55,9.76142375 55,7 C55,4.23857625 52.7614237,2 50,2 C47.2385763,2 45,4.23857625 45,7 C45,9.76142375 47.2385763,12 50,12 L50,12 Z M93,56 C95.7614237,56 98,53.7614237 98,51 C98,48.2385763 95.7614237,46 93,46 C90.2385763,46 88,48.2385763 88,51 C88,53.7614237 90.2385763,56 93,56 L93,56 Z M7,56 C9.76142375,56 12,53.7614237 12,51 C12,48.2385763 9.76142375,46 7,46 C4.23857625,46 2,48.2385763 2,51 C2,53.7614237 4.23857625,56 7,56 L7,56 Z M81,24 C83.7614237,24 86,21.7614237 86,19 C86,16.2385763 83.7614237,14 81,14 C78.2385763,14 76,16.2385763 76,19 C76,21.7614237 78.2385763,24 81,24 L81,24 Z M20,24 C22.7614237,24 25,21.7614237 25,19 C25,16.2385763 22.7614237,14 20,14 C17.2385763,14 15,16.2385763 15,19 C15,21.7614237 17.2385763,24 20,24 L20,24 Z M81,87 C83.7614237,87 86,84.7614237 86,82 C86,79.2385763 83.7614237,77 81,77 C78.2385763,77 76,79.2385763 76,82 C76,84.7614237 78.2385763,87 81,87 L81,87 Z M20,87 C22.7614237,87 25,84.7614237 25,82 C25,79.2385763 22.7614237,77 20,77 C17.2385763,77 15,79.2385763 15,82 C15,84.7614237 17.2385763,87 20,87 L20,87 Z M50,98 C52.7614237,98 55,95.7614237 55,93 C55,90.2385763 52.7614237,88 50,88 C47.2385763,88 45,90.2385763 45,93 C45,95.7614237 47.2385763,98 50,98 L50,98 Z" sketch:type="MSShapeGroup"></path>
        </g>
    </g>
</svg>