<?xml version="1.0" standalone="no"?>
<!DOCTYPE svg PUBLIC "-//W3C//DTD SVG 1.1//EN" "http://www.w3.org/Graphics/SVG/1.1/DTD/svg11.dtd">
<svg width="100px" height="100px" version="1.1" xmlns="http://www.w3.org/2000/svg" xmlns:xlink="http://www.w3.org/1999/xlink" xml:space="preserve" style="fill-rule:evenodd;clip-rule:evenodd;stroke-linejoin:round;stroke-miterlimit:1.41421;">
    <g id="Layer_1">
        <path d="M93.894,36.659L84.715,36.659C83.77,33.824 82.406,32.402 80.989,30.568L80.989,7.407L65.035,18.45C59.14,16.112 54.188,12.817 43.375,13.268C25.121,14.03 13.065,26.565 13.065,26.565C13.065,26.565 4.481,34.02 2.672,42.89C2.342,44.678 1.339,49.534 2.673,56.204C4.495,63.171 9.804,69.526 16.281,74.187L13.901,89.11L30.852,89.11L31.103,81.588C35.208,82.598 39.583,83.029 44.125,83.029C48.666,83.029 53.041,82.415 57.148,81.408L57.441,89.11L74.932,89.11L71.773,75.172C76.263,73.281 82.143,64.948 82.143,64.948C82.143,64.948 82.081,64.866 81.986,64.74L82.169,64.923C82.169,64.923 84.084,60.758 84.715,59.338L93.894,59.338C96.325,59.341 98,57.097 98,55L98,40.211C98,38.108 96.325,36.659 93.894,36.659ZM43.748,53.8797L33.5366,64.0912L27.7125,58.2671L37.924,48.0557L27.7125,37.8442L33.5366,32.0202L43.748,42.2317L53.9595,32.0202L59.7835,37.8442L49.572,48.0557L59.7835,58.2671L53.9595,64.0912L43.748,53.8797ZM71.326,29.564C73.013,29.564 74.381,30.906 74.381,32.564C74.381,34.222 73.013,35.563 71.326,35.563C69.638,35.563 68.268,34.221 68.268,32.564C68.268,30.907 69.638,29.564 71.326,29.564Z" style="fill:black;"/>
    </g>
</svg>
