<?xml version="1.0" encoding="utf-8"?>
<!-- Generator: Adobe Illustrator 16.2.1, SVG Export Plug-In . SVG Version: 6.00 Build 0)  -->
<!DOCTYPE svg PUBLIC "-//W3C//DTD SVG 1.1//EN" "http://www.w3.org/Graphics/SVG/1.1/DTD/svg11.dtd">
<svg xmlns="http://www.w3.org/2000/svg" xmlns:xlink="http://www.w3.org/1999/xlink" version="1.1" id="Layer_1" x="0px" y="0px" width="100px" height="100px" viewBox="0 0 100 100" enable-background="new 0 0 100 100" xml:space="preserve">
<g>
	<g>
		<path d="M31.625,7.25c-3.25-0.875-4.39,2.333-4.37,4.25c0.14,13.444,0.003,26.891,0,40.333c0,2.418,0.723,3.891,2.829,5.501    c17.978,10.057,28.068-6.516,52.564-0.976c3.936,0.562,6.76-0.981,6.76-4.19c0-13.11,0-27.225,0-40.334    c0-2.334-0.443-4.151-1.783-5.334C76-1.437,55.727,15.564,31.625,7.25z"/>
	</g>
</g>
<g>
	<path d="M17.404,100.213c-2.238,0-5.055-1.822-5.055-4.059V4.268c0-2.238,2.817-4.055,5.055-4.055c2.244,0,5.062,1.817,5.062,4.055   v91.886C22.466,98.391,19.647,100.213,17.404,100.213z"/>
</g>
</svg>
