<?xml version="1.0" encoding="UTF-8" standalone="no"?>
<svg width="100px" height="100px" viewBox="0 0 100 100" version="1.1" xmlns="http://www.w3.org/2000/svg" xmlns:xlink="http://www.w3.org/1999/xlink" xmlns:sketch="http://www.bohemiancoding.com/sketch/ns">
    <!-- Generator: Sketch 3.1.1 (8761) - http://www.bohemiancoding.com/sketch -->
    <title>outbox</title>
    <desc>Created with Sketch.</desc>
    <defs></defs>
    <g id="Page-1" stroke="none" stroke-width="1" fill="none" fill-rule="evenodd" sketch:type="MSPage">
        <g id="outbox" sketch:type="MSArtboardGroup" fill="#010101">
            <path d="M42.605,32.107 L49.258,63.003 L52.549,63.003 L58.37,32.045 L69.664,31.992 L50.444,4.001 L31.416,32.161 L42.605,32.107 Z M98.5263242,63.0479188 C98.5263242,63.0479188 83.6995391,17.8239792 83.2447028,16.0369184 C82.7898665,14.2498577 79.1269542,14.2498578 79.1269542,14.2498578 L66.3605035,13.2758621 L70.2846472,20.7253238 L75.7838279,20.7253238 L86.3455161,63.5334572 L67.5878917,61.5854667 C67.5878917,61.5854667 65.8115245,61.5854667 65.2126328,63.6522678 C64.186906,66.3153969 62.1354526,71.6416553 62.1354526,71.6416553 L39.2366076,71.6416553 C39.2366076,71.6416553 37.3734368,66.2990981 36.2338411,63.6858823 C35.3178722,61.5854667 33.3356926,61.5854667 33.3356926,61.5854667 L14.8673178,63.5334572 L25.42421,20.7253238 L31.3310483,20.7253238 L35.2523144,13.2758621 L21.2521965,14.2498578 C21.2521965,14.2498578 19.7543937,14.2498578 19.315894,16.0813155 C13.8165691,31.6794416 2.81791929,62.8756938 2.81791929,62.8756938 L2.60689655,89.7761465 C2.60689655,89.7761465 2.60689589,92.7241348 5.5262443,92.7241379 C7.59375044,92.7241348 93.3450006,92.7958095 95.6060173,92.7241379 C97.867034,92.6524664 98.5263242,89.7761465 98.5263242,89.7761465 L98.5263242,63.0479188 Z" sketch:type="MSShapeGroup"></path>
        </g>
    </g>
</svg>