<?xml version="1.0" standalone="no"?>
<!DOCTYPE svg PUBLIC "-//W3C//DTD SVG 1.1//EN" "http://www.w3.org/Graphics/SVG/1.1/DTD/svg11.dtd">
<svg width="100px" height="100px" version="1.1" xmlns="http://www.w3.org/2000/svg" xmlns:xlink="http://www.w3.org/1999/xlink" xml:space="preserve" style="fill-rule:evenodd;clip-rule:evenodd;stroke-linejoin:round;stroke-miterlimit:1.41421;">
    <g id="Layer_1">
        <g>
            <path d="M83.214,44.852L99.941,44.854L99.917,77.094C99.917,81.599 96.272,85.278 91.795,85.278L8.039,85.278C3.548,85.278 -0.059,81.599 -0.059,77.094L-0.059,44.842L41.8705,44.847C41.0968,47.0855 40.6764,49.4896 40.6764,51.9919C40.6764,64.0675 50.4657,73.8568 62.5413,73.8568C74.617,73.8568 84.4062,64.0675 84.4062,51.9919C84.4062,49.4919 83.9867,47.09 83.214,44.852ZM43.8496,40.6415L-0.035,40.595L-0.059,28.522C-0.059,23.989 3.549,20.311 8.039,20.311L12.151,20.311C12.151,20.311 12.4944,17.7721 13.498,17.445C14.9638,16.9673 19.5006,16.9673 20.946,17.445C21.9324,17.771 21.9376,19.349 22.1704,20.311L32.6277,20.311C33.6588,18.0407 35.5864,12.4976 37.796,11.884C41.3991,10.8834 60.2081,11.3009 61.5983,11.6924C64.8151,12.5985 66.7458,20.311 66.7458,20.311L74.9925,20.311C74.9925,20.311 75.6764,16.5015 77.213,15.997C79.4031,15.278 85.9587,15.278 88.133,15.997C89.655,16.5003 89.8743,19.1508 90.2588,20.311L91.796,20.311C96.272,20.311 99.918,23.989 99.918,28.522L99.918,40.701L81.2571,40.6812C77.4263,34.3552 70.4776,30.127 62.5413,30.127C54.6217,30.127 47.6856,34.3375 43.8496,40.6415Z" style="fill:black;"/>
            <g>
                <path d="M62.5413,37.1637C70.7307,37.1637 77.3695,43.8025 77.3695,51.9919C77.3695,60.1812 70.7307,66.8201 62.5413,66.8201C54.352,66.8201 47.7132,60.1812 47.7132,51.9919C47.7132,43.8025 54.352,37.1637 62.5413,37.1637Z" style="fill:black;"/>
            </g>
        </g>
    </g>
</svg>
