<?xml version="1.0" encoding="UTF-8" standalone="no"?>
<svg width="100px" height="100px" viewBox="0 0 100 100" version="1.1" xmlns="http://www.w3.org/2000/svg" xmlns:xlink="http://www.w3.org/1999/xlink" xmlns:sketch="http://www.bohemiancoding.com/sketch/ns">
    <!-- Generator: Sketch 3.1.1 (8761) - http://www.bohemiancoding.com/sketch -->
    <title>preferences</title>
    <desc>Created with Sketch.</desc>
    <defs></defs>
    <g id="Page-1" stroke="none" stroke-width="1" fill="none" fill-rule="evenodd" sketch:type="MSPage">
        <g id="preferences" sketch:type="MSArtboardGroup" fill="#000000">
            <path d="M80.143,52.287 C78.17,52.287 76.572,50.686 76.572,48.712 L76.572,23.689 C76.572,21.714 78.171,20.114 80.143,20.114 L96.429,20.114 C98.402,20.114 100,21.715 100,23.689 L100,48.712 C100,50.687 98.401,52.287 96.429,52.287 L80.143,52.287 Z M88.286,3.815 C90.258,3.815 92.857,5.415 92.857,7.39 L92.857,14.54 L83.713,14.54 L83.713,7.39 C83.714,5.415 86.314,3.815 88.286,3.815 Z M42.857,80.886 C40.885,80.886 39.286,79.285 39.286,77.311 L39.286,52.287 C39.286,50.313 40.885,48.712 42.857,48.712 L59.143,48.712 C61.116,48.712 62.715,50.313 62.715,52.287 L62.715,77.31 C62.715,79.285 61.115,80.886 59.143,80.886 L42.857,80.886 Z M51,3.815 C52.972,3.815 55.571,5.415 55.571,7.39 L55.571,43.138 L46.428,43.138 L46.428,7.39 C46.429,5.415 49.028,3.815 51,3.815 Z M3.572,66.587 C1.599,66.587 0,64.986 0,63.012 L0,37.988 C0,36.014 1.599,34.413 3.572,34.413 L19.858,34.413 C21.83,34.413 23.429,36.014 23.429,37.988 L23.429,63.012 C23.428,64.986 21.83,66.587 19.857,66.587 L3.572,66.587 Z M11.714,3.815 C13.686,3.815 16.285,5.415 16.285,7.39 L16.285,28.839 L7.143,28.839 L7.143,7.39 C7.143,5.415 9.742,3.815 11.714,3.815 Z M11.715,97.184 C9.743,97.184 7.144,95.584 7.144,93.61 L7.144,72.161 L16.287,72.161 L16.287,93.61 C16.286,95.585 13.687,97.184 11.715,97.184 Z M51,97.184 C49.028,97.184 46.429,95.584 46.429,93.61 L46.429,86.461 L55.572,86.461 L55.572,93.61 C55.571,95.585 52.972,97.184 51,97.184 Z M88.286,97.184 C86.314,97.184 83.714,95.584 83.714,93.61 L83.714,57.861 L92.858,57.861 L92.858,93.61 C92.857,95.585 90.258,97.184 88.286,97.184 Z" sketch:type="MSShapeGroup"></path>
        </g>
    </g>
</svg>