<?xml version="1.0" encoding="utf-8"?>
<!-- Generator: Adobe Illustrator 16.2.1, SVG Export Plug-In . SVG Version: 6.00 Build 0)  -->
<!DOCTYPE svg PUBLIC "-//W3C//DTD SVG 1.1//EN" "http://www.w3.org/Graphics/SVG/1.1/DTD/svg11.dtd">
<svg xmlns="http://www.w3.org/2000/svg" xmlns:xlink="http://www.w3.org/1999/xlink" version="1.1" id="Layer_1" x="0px" y="0px" width="100px" height="100px" viewBox="0 0 100 100" enable-background="new 0 0 100 100" xml:space="preserve">
<g>
	<path d="M50,37.763c-5.94,0-10.755,4.816-10.755,10.756S44.059,59.276,50,59.276c5.941,0,10.755-4.816,10.755-10.757   S55.94,37.763,50,37.763z M50,51.815c-1.966,0-3.559-1.594-3.559-3.56c0-1.967,1.593-3.561,3.559-3.561   c1.965,0,3.561,1.594,3.561,3.561C53.561,50.222,51.965,51.815,50,51.815z"/>
	<path d="M98.933,47.425L52.574,1.067c-1.422-1.423-3.728-1.423-5.15,0L1.066,47.425c-1.423,1.422-1.422,3.729,0,5.149   l46.358,46.359c1.422,1.423,3.728,1.423,5.15,0l46.358-46.359C100.355,51.153,100.355,48.847,98.933,47.425z M77.948,48.624   c0,0.023-0.005,0.046-0.005,0.068c0,0.012-0.002,0.023-0.002,0.035c-0.003,0.016,0.032,0.034,0.028,0.049   c-0.002,0.02,0.03,0.038,0.03,0.059c0,0.002,0,0.004,0,0.006c0,0.433-0.312,0.837-0.622,1.149   c-0.586,0.696-1.247,1.349-1.892,1.988c-3.482,3.456-7.488,6.538-11.864,8.777c-2.796,1.429-5.789,2.579-8.89,3.135   c-3.407,0.608-6.82,0.579-10.21-0.143c-5.865-1.245-11.178-4.343-15.824-8.045c-2.157-1.719-4.281-3.598-6.064-5.712   c-0.779-0.924-0.779-2.019,0.001-2.944c0.584-0.694,1.227-1.347,1.871-1.986c3.483-3.457,7.48-6.54,11.856-8.776   c2.796-1.429,5.783-2.582,8.883-3.137c3.408-0.608,6.818-0.578,10.208,0.142c5.865,1.246,11.179,4.343,15.825,8.046   c2.158,1.716,4.315,3.598,6.101,5.71C77.688,47.359,78,47.764,78,48.197c0,0.002,0,0.005,0,0.007c0,0.019-0.032,0.039-0.03,0.059   c0.004,0.015-0.013,0.033-0.013,0.049c0.004,0.012-0.007,0.023-0.005,0.035c0,0.022-0.002,0.045-0.002,0.068   c0.003,0.035,0.002,0.069,0.002,0.104C77.952,48.555,77.95,48.589,77.948,48.624z"/>
</g>
</svg>
