<?xml version="1.0" encoding="UTF-8" standalone="no"?>
<svg width="100px" height="100px" viewBox="0 0 100 100" version="1.1" xmlns="http://www.w3.org/2000/svg" xmlns:xlink="http://www.w3.org/1999/xlink" xmlns:sketch="http://www.bohemiancoding.com/sketch/ns">
    <!-- Generator: Sketch 3.1.1 (8761) - http://www.bohemiancoding.com/sketch -->
    <title>profiles</title>
    <desc>Created with Sketch.</desc>
    <defs></defs>
    <g id="Page-1" stroke="none" stroke-width="1" fill="none" fill-rule="evenodd" sketch:type="MSPage">
        <g id="profiles" sketch:type="MSArtboardGroup" fill="#000000">
            <path d="M36.822,45.0144009 C31.382,37.772105 28.9094345,28.1128598 31.751,19.4923601 C35.2294926,8.93960504 40.755,2.93909481 55.403,3.00113562 C60.412,3.02246216 68.86,6.64603358 72.01,10.8783805 C72.803,11.9398601 75.4639994,15.2076669 75.9699994,19.4923608 C76.0739994,20.3871057 75.6631779,24.0856746 77.4091779,26.4810317 C78.5461779,28.041746 82.129,36.2879724 82.861,37.5791968 C83.882,39.3793499 78.008,40.4069009 78.523,41.7766458 C78.757,42.4009315 78.2670037,47.2687721 78.5230037,47.8804558 C78.8300037,48.6191292 77.8807433,55.9562964 74.5107433,58.0240005 C70.8877433,60.2516535 61.751,53.702054 60.7,66.0840438 C60.554,67.8240948 61.6331595,70.9542361 66.1289069,74.3947292 C74.0099988,80.4259493 77.9699979,86.1627558 76.5107441,93.2892704 C73.6123053,96.7995144 62.5517577,98.1068625 50.2702559,98.1068625 C38.106974,98.1068625 21.8047767,97.5083002 19.1259766,93.2892704 C16.6357422,89.367226 15.0175781,85.2747814 24.7792967,72.6869406 L32.169,63.5898091 C32.169,63.5898091 42.083,52.0133805 36.822,45.0144009 Z" sketch:type="MSShapeGroup"></path>
        </g>
    </g>
</svg>