<?xml version="1.0" encoding="UTF-8" standalone="no"?>
<svg width="100px" height="100px" viewBox="0 0 100 100" version="1.1" xmlns="http://www.w3.org/2000/svg" xmlns:xlink="http://www.w3.org/1999/xlink" xmlns:sketch="http://www.bohemiancoding.com/sketch/ns">
    <!-- Generator: Sketch 3.1.1 (8761) - http://www.bohemiancoding.com/sketch -->
    <title>purchases</title>
    <desc>Created with Sketch.</desc>
    <defs></defs>
    <g id="Page-1" stroke="none" stroke-width="1" fill="none" fill-rule="evenodd" sketch:type="MSPage">
        <g id="purchases" sketch:type="MSArtboardGroup" fill="#000000">
            <path d="M1.97265627,12.3374023 C2.0254392,9.46524316 2.49194336,7.92281866 4.12060541,5.69848633 C5.74926747,3.474154 8.79223623,2.41015625 12.1298827,2.41015625 C15.4675292,2.41015625 19.2539062,5.06494141 19.8488268,7.92281845 C20.3513184,9.44238281 22.3568582,18.1124973 22.3568582,18.1124973 L89.9450908,18.1124973 C91.5014648,18.1124973 97.0190261,18.1124973 97.0190257,25.1864322 L94.8904087,48.5529168 C94.8904087,50.0534271 93.4824202,56.1955566 87.8164738,55.8197772 L27.3752441,56.1955566 L29.4018572,67.2795631 L87.1862619,67.2795631 C88.848877,67.2795639 89.4949324,67.7087402 89.4949313,69.2699084 C89.2272933,70.9172363 88.8574202,74.2019043 88.3663143,76.1219818 C87.8752085,78.0420593 87.8164733,78.3406219 85.1862619,78.340625 L22.3568582,78.340625 C19.2850285,78.340625 18.5626568,75.6182533 18.5626568,74.5464236 C18.5626568,73.7747216 18.1660663,70.8594244 17.3729496,65.8004677 C16.5798328,60.741511 15.3901256,53.5175443 13.8038279,44.1285035 L9.16601562,16.3291016 L4.69042963,16.3291016 C3.0995001,16.3291016 1.94338966,13.9299316 1.97265627,12.3374023 Z M33.8037711,82.0705179 C35.9045368,82.0705179 37.662281,82.7457572 39.077068,84.0962357 C40.491855,85.4467142 41.1992485,87.1723041 41.1992485,89.2730699 C41.1992485,91.4166651 40.4811155,93.2066278 39.0449138,94.6428295 C37.6087121,96.0790312 35.8616431,96.7971643 33.8037711,96.7971643 C31.7030053,96.7971643 29.9560007,96.0790312 28.5626284,94.6428295 C27.1692562,93.2066278 26.4726022,91.4166651 26.4726022,89.2730699 C26.4726022,87.1723041 27.1478414,85.4467142 28.4983199,84.0962357 C29.8487984,82.7457572 31.6172821,82.0705179 33.8037711,82.0705179 Z M69.5271424,84.1605442 C71.0062378,82.7671719 72.7533068,82.0705179 74.768285,82.0705179 C76.8690508,82.0705179 78.6696888,82.7671719 80.170199,84.1605442 C81.6707092,85.5539164 82.4209964,87.2580916 82.4209964,89.2730699 C82.4209964,91.4595588 81.6814487,93.2816115 80.2023532,94.7392923 C78.7232577,96.196973 76.9333593,96.9257813 74.8325935,96.9257813 C72.6889983,96.9257813 70.8990356,96.196973 69.4628339,94.7392923 C68.0266321,93.2816115 67.3084991,91.4595588 67.3084991,89.2730699 C67.3084991,87.2580916 68.0480469,85.5539164 69.5271424,84.1605442 Z" sketch:type="MSShapeGroup"></path>
        </g>
    </g>
</svg>