<?xml version="1.0" encoding="utf-8"?>
<!-- Generator: Adobe Illustrator 16.2.1, SVG Export Plug-In . SVG Version: 6.00 Build 0)  -->
<!DOCTYPE svg PUBLIC "-//W3C//DTD SVG 1.1//EN" "http://www.w3.org/Graphics/SVG/1.1/DTD/svg11.dtd">
<svg xmlns="http://www.w3.org/2000/svg" xmlns:xlink="http://www.w3.org/1999/xlink" version="1.1" id="Layer_1" x="0px" y="0px" width="100px" height="100px" viewBox="0 0 100 100" enable-background="new 0 0 100 100" xml:space="preserve">
<g>
	<path d="M78.976,7.229L69.42,0l-9.716,7.229L50.448,0L40.407,7.229L30.15,0l-9.661,7.229L10,0v92.437l10.679,7.229l9.119-7.229   l10.984,7.229l9.642-7.229l9.641,7.229l8.695-7.229l9.519,7.229L88,92.437V0L78.976,7.229z M45,79H21v-4h24V79z M45,65H21v-4h24V65   z M45,52H21v-4h24V52z M74.622,73.679c-0.518,1.16-1.222,2.123-2.115,2.889c-0.894,0.768-1.941,1.356-3.141,1.76   c-1.2,0.405-2.499,0.634-3.895,0.691v3.267h-1.801v-3.267c-1.509-0.028-2.89-0.266-4.145-0.713   c-1.258-0.446-2.334-1.08-3.226-1.904c-0.895-0.823-1.586-1.836-2.074-3.037c-0.487-1.201-0.718-2.582-0.69-4.145h4.775   c-0.028,1.843,0.376,3.295,1.215,4.354c0.837,1.062,2.218,1.62,4.145,1.677V65.114c-1.145-0.307-2.28-0.677-3.413-1.11   c-1.131-0.432-2.15-0.99-3.057-1.674c-0.908-0.683-1.642-1.543-2.198-2.575c-0.56-1.033-0.839-2.317-0.839-3.854   c0-1.341,0.259-2.521,0.774-3.538c0.518-1.02,1.216-1.871,2.095-2.556c0.881-0.684,1.892-1.207,3.037-1.57   c1.145-0.363,2.345-0.544,3.601-0.544v-3.267h1.801v3.267c1.257,0,2.443,0.167,3.56,0.502c1.116,0.335,2.086,0.838,2.911,1.507   c0.823,0.67,1.479,1.523,1.968,2.555c0.487,1.033,0.731,2.233,0.731,3.603h-4.772c-0.057-1.425-0.426-2.514-1.109-3.269   c-0.684-0.752-1.781-1.131-3.288-1.131v8.837c1.257,0.336,2.484,0.727,3.687,1.174c1.198,0.446,2.261,1.02,3.182,1.715   c0.921,0.7,1.661,1.566,2.221,2.599c0.558,1.032,0.837,2.303,0.837,3.81C75.397,71.161,75.137,72.521,74.622,73.679z M77,38H21v-4   h56V38z M77,24H21v-4h56V24z"/>
	<path d="M58.938,55.565c0,0.67,0.14,1.243,0.419,1.718c0.279,0.476,0.635,0.879,1.068,1.214c0.433,0.335,0.934,0.608,1.508,0.816   c0.57,0.21,1.15,0.385,1.737,0.524v-8.377c-1.509,0-2.673,0.314-3.497,0.943S58.938,54.086,58.938,55.565z"/>
	<path d="M69.012,66.957c-0.49-0.363-1.041-0.654-1.655-0.88c-0.614-0.224-1.243-0.418-1.885-0.584v9.757   c1.507-0.111,2.743-0.553,3.707-1.319c0.962-0.769,1.442-1.99,1.442-3.665c0-0.78-0.146-1.437-0.439-1.969   C69.891,67.767,69.499,67.32,69.012,66.957z"/>
</g>
</svg>
