<?xml version="1.0" encoding="UTF-8" standalone="no"?>
<svg width="100px" height="100px" viewBox="0 0 100 100" version="1.1" xmlns="http://www.w3.org/2000/svg" xmlns:xlink="http://www.w3.org/1999/xlink" xmlns:sketch="http://www.bohemiancoding.com/sketch/ns">
    <!-- Generator: Sketch 3.1.1 (8761) - http://www.bohemiancoding.com/sketch -->
    <title>robot</title>
    <desc>Created with Sketch.</desc>
    <defs></defs>
    <g id="Page-1" stroke="none" stroke-width="1" fill="none" fill-rule="evenodd" sketch:type="MSPage">
        <g id="robot" sketch:type="MSArtboardGroup" fill="#000000">
            <path d="M7.40299572,49.39684 C7.40299572,49.39684 7,46.2718407 10.165986,46.2659539 C14.6139642,46.2576832 21.0878579,46.1935667 24.9406531,45.9864057 C25.790966,44.9105391 27.1328659,43.1735845 28.6436896,43.1735845 L40.1125624,43.1735845 L40.1125624,40.943174 L32.8412489,40.943174 C30.4573362,40.943174 28.5251521,39.0787046 28.5251521,36.780595 L28.5251521,29.7215929 L25.9571315,29.7215929 C24.6740702,29.7215929 23.6320574,28.7170848 23.6320574,27.4802041 L23.6320574,18.4158452 C23.6320574,17.1789646 24.6721721,16.1744565 25.9571315,16.1744565 L28.5232541,16.1744565 L28.5232541,8.32741599 C28.5232541,6.02930642 29.4085557,5.20833333 31.7905704,4.16666667 L44.4088939,-2.77555756e-15 L56.5369546,5.55111512e-15 L68.2308998,4.16666667 C70.6148125,5.20833333 71.5001141,6.03113613 71.5001141,8.32741599 L71.5001141,16.1744565 L74.0320724,16.1744565 C75.3189297,16.1744565 76.3609425,17.1771349 76.3609425,18.4158452 L76.3609425,27.4802041 C76.3609425,28.7170848 75.3189297,29.7215929 74.0320724,29.7215929 L71.5001141,29.7215929 L71.5001141,36.780595 C71.5001141,39.0787046 69.564134,40.943174 67.1821193,40.943174 L59.9677464,40.943174 L59.9677464,43.1735845 L71.4328232,43.1735845 C73.0708142,43.1735845 74.5133092,45.034959 75.3408458,46.2718397 C79.1207104,46.271841 85.2158222,46.2718426 90.0249215,46.2718415 C93,46.2718407 93,49.3968415 93,49.3968415 L93,85.2835041 C93,85.2835041 93,87.1821098 90.5460482,87.3260727 C90.1784211,87.2846005 82.7675802,91.441377 81.8798436,91.4413702 C79.3394377,91.4413507 79.3394445,89.3158361 79.3394445,89.3158361 L79.3394411,61.4644569 L73.8792944,61.464456 L73.8792944,95.5227117 C73.8792944,97.996473 71.7971668,100 69.2329422,100 L30.8416726,100 C28.2736519,100 26.1934223,97.9946432 26.1934223,95.5227117 L26.1934227,61.4644569 L20.9056683,61.4644569 L20.905668,90.6785594 C20.905668,90.6785594 20.9056685,92.7618901 18.7230775,92.7618922 C18.5365822,92.7618917 9.5921956,88.5026317 9.51405568,88.5026312 C7.40299573,88.5026308 7,86.4192973 7,86.4192973 L7.40299572,49.39684 Z M59.9845111,19.7258772 C62.5932122,19.7258772 64.7046971,17.6273761 64.7046971,15.0390464 C64.7046971,12.4493783 62.5932122,10.3508772 59.9845111,10.3508772 C57.3798524,10.3508772 55.2656727,12.4493783 55.2656727,15.0390464 C55.2656727,17.6273761 57.378505,19.7258772 59.9845111,19.7258772 Z M37.3614883,28.8925439 C37.3614883,31.1693973 38.1775804,31.9736842 40.4776466,31.9736842 L59.5309668,31.9736842 C61.829333,31.9736842 62.6454252,31.1693973 62.6454252,28.8925439 C62.6454252,26.6156904 61.8276331,25.8114035 59.5309668,25.8114035 L40.4776466,25.8114035 C37.0577006,25.8114035 37.3614883,28.8925439 37.3614883,28.8925439 Z M41.0200552,19.7258772 C43.6270367,19.7258772 45.7395674,17.6273761 45.7395674,15.0390464 C45.7395674,12.4493783 43.6270367,10.3508772 41.0200552,10.3508772 C38.4130737,10.3508772 36.300543,12.4493783 36.300543,15.0390464 C36.300543,17.6273761 38.4130737,19.7258772 41.0200552,19.7258772 Z" sketch:type="MSShapeGroup"></path>
        </g>
    </g>
</svg>