<?xml version="1.0" encoding="UTF-8" standalone="no"?>
<svg width="100px" height="100px" viewBox="0 0 100 100" version="1.1" xmlns="http://www.w3.org/2000/svg" xmlns:xlink="http://www.w3.org/1999/xlink" xmlns:sketch="http://www.bohemiancoding.com/sketch/ns">
    <!-- Generator: Sketch 3.1.1 (8761) - http://www.bohemiancoding.com/sketch -->
    <title>routes</title>
    <desc>Created with Sketch.</desc>
    <defs></defs>
    <g id="Page-1" stroke="none" stroke-width="1" fill="none" fill-rule="evenodd" sketch:type="MSPage">
        <g id="routes" sketch:type="MSArtboardGroup" fill="#000000">
            <path d="M75.1524675,63.0745565 C72.7380448,62.3251204 70.8899203,61.0193394 69.2443567,59.3663566 L62.1528316,52.8703613 L50.168366,64.4957424 L60.7101069,74.9092835 C63.184094,77.3961145 68.7534742,80.7019427 75.1564732,81.9524188 C75.1583064,86.5674541 75.1602305,89.9169883 75.1609838,89.9203894 C75.1755233,91.9558108 79.1606608,92.2369987 80.4231772,91.0013765 C80.4312548,90.9962706 99.0809441,74.4096889 99.208569,74.5409829 C100.467047,73.3173959 100.467047,72.1598206 99.208569,71.0376218 C99.1568728,71.0018807 80.5168765,54.7573927 80.2640501,54.6224517 C78.9029879,53.2774178 75.156945,53.4550293 75.1593682,55.2698039 C75.1546515,55.2698039 75.1527577,58.541646 75.1524675,63.0745565 Z M75.6524339,14.3268797 C69.6900785,15.1494028 65.4361162,17.5199938 62.9262136,20.0429268 L27.9747573,55.164878 C25.3339806,57.817561 21.3446602,62.8019512 16.1572816,62.8019512 C16.1572816,62.8019512 2.65242718,62.8019519 1.18758343,62.8019512 C-0.347572816,62.8019505 -0.347572816,64.8019512 -0.347572816,64.8019512 L-0.347572816,79.484878 C-0.347572816,79.484878 -0.516029847,81.4848767 1.18758343,81.484878 L16.1572816,81.484878 C24.5621359,81.484878 30.3543689,75.6643902 33.4660194,72.5365854 L68.4174757,37.4146341 C70.2188558,35.6051324 72.6477338,33.6185838 75.6563443,32.5385188 C75.6580942,37.1090559 75.6599229,40.4170095 75.6606415,40.4203894 C75.6745994,42.4558108 79.5003315,42.7369987 80.7123472,41.5013765 C80.7201016,41.4962706 98.6238035,24.9096889 98.7463233,25.0409829 C99.9544618,23.8173959 99.9544618,22.6598206 98.7463233,21.5376218 C98.696695,21.5018807 80.8022985,5.25739269 80.5595852,5.12245165 C79.2529655,3.77741777 75.6567643,3.95502935 75.6590906,5.76980392 C75.6543157,5.76980392 75.6525543,9.40813344 75.6524339,14.3268797 L75.6524339,14.3268797 Z M32.4473491,41.9065027 L43.9978459,30.5628125 L34.2240405,21.1423256 C31.11239,18.0145207 24.5621359,12.9970732 16.1572816,12.9970732 L0.956138122,12.9970732 C-0.347572816,12.9970732 -0.347572816,14.9970732 -0.347572816,14.9970732 L-0.347572816,28.7043902 C-0.347572816,28.7043902 -0.347572816,30.7043905 1.19564008,30.7043902 C6.1828539,30.7043893 16.1572816,30.7043902 16.1572816,30.7043902 C21.3446602,30.7043902 25.3339806,34.7131707 27.9747573,37.3658537 L32.4473491,41.9065027 Z" sketch:type="MSShapeGroup"></path>
        </g>
    </g>
</svg>