<?xml version="1.0" encoding="utf-8"?>
<!-- Generator: Adobe Illustrator 16.2.1, SVG Export Plug-In . SVG Version: 6.00 Build 0)  -->
<!DOCTYPE svg PUBLIC "-//W3C//DTD SVG 1.1//EN" "http://www.w3.org/Graphics/SVG/1.1/DTD/svg11.dtd">
<svg xmlns="http://www.w3.org/2000/svg" xmlns:xlink="http://www.w3.org/1999/xlink" version="1.1" id="Layer_1" x="0px" y="0px" width="100px" height="100px" viewBox="0 0 100 100" enable-background="new 0 0 100 100" xml:space="preserve">
<g>
	<path d="M63.784,73.167c-8.537,0-16.903-2.95-23.8-8.703l-6.742,16.427L16.157,97.973c-1.804,1.311-3.772,1.961-5.91,1.961   c-5.414,0-9.845-4.769-9.845-10.014c0-2.137,0.653-4.269,1.963-5.912l16.919-17.087l16.577-6.726   c-5.757-6.897-8.7-15.434-8.7-23.976c0-19.871,16.749-36.286,36.618-36.286c19.702,0,36.459,16.749,36.459,36.449   c0,9.523-3.45,18.881-10.515,25.952C82.506,69.55,73.147,73.167,63.784,73.167z M63.784,59.056   c12.154,0,22.335-10.189,22.335-22.673c0-12.145-10.339-22.329-22.335-22.329c-12.308,0-22.49,10.346-22.49,22.329   c0,5.912,2.132,11.662,6.563,16.089C52.297,56.744,58.039,59.056,63.784,59.056z"/>
</g>
</svg>
