<?xml version="1.0" encoding="UTF-8" standalone="no"?>
<svg width="100px" height="100px" viewBox="0 0 100 100" version="1.1" xmlns="http://www.w3.org/2000/svg" xmlns:xlink="http://www.w3.org/1999/xlink" xmlns:sketch="http://www.bohemiancoding.com/sketch/ns">
    <!-- Generator: Sketch 3.1.1 (8761) - http://www.bohemiancoding.com/sketch -->
    <title>settings</title>
    <desc>Created with Sketch.</desc>
    <defs></defs>
    <g id="Page-1" stroke="none" stroke-width="1" fill="none" fill-rule="evenodd" sketch:type="MSPage">
        <g id="settings" sketch:type="MSArtboardGroup" fill="#000000">
            <path d="M88.047,51.018 L88.047,49.164 C88.047,47.312 87.891,45.307 87.43,43.453 C87.276,42.063 86.815,40.677 86.504,39.287 C90.052,36.818 93.602,34.195 96.998,31.57 L97.15,31.57 C95.297,26.941 92.832,22.62 89.433,18.61 C85.422,20.306 81.562,22.158 77.704,24.01 C76.627,22.929 75.543,21.849 74.463,20.925 C73.073,19.843 71.683,18.762 70.144,17.991 C69.681,17.529 69.06,17.22 68.601,16.91 C69.216,12.589 69.989,8.268 70.607,3.949 C68.754,3.178 66.747,2.405 64.742,1.788 C64.281,1.633 63.663,1.477 63.2,1.477 C62.585,1.169 62.117,1.016 61.657,1.016 C59.804,0.553 57.957,0.245 56.101,-0.065 C54.402,4.103 53.017,8.115 51.627,12.126 L49.466,12.126 L48.845,12.126 C46.996,12.281 45.3,12.435 43.601,12.743 C42.211,12.899 40.822,13.36 39.435,13.825 C36.964,10.274 34.341,6.725 31.873,3.33 L31.717,3.177 C30.789,3.483 29.868,3.792 29.093,4.256 C27.55,4.874 26.16,5.646 24.774,6.57 C22.613,7.651 20.605,9.041 18.753,10.738 C18.753,10.738 18.753,10.738 18.753,10.892 C20.605,14.751 22.304,18.609 24.156,22.467 C23.075,23.546 22.151,24.473 21.223,25.706 C19.99,26.941 18.909,28.484 17.981,30.028 C17.519,30.645 17.21,31.262 16.9,32.033 C12.584,31.262 8.258,30.489 3.939,29.873 C3.168,31.725 2.396,33.576 1.778,35.584 C1.159,38.669 0.544,41.602 0.235,44.535 C4.245,46.077 8.258,47.621 12.272,49.164 L12.272,51.325 C12.272,53.022 12.428,54.874 12.887,56.726 C13.043,58.269 13.506,59.812 13.968,61.355 C10.42,63.825 7.025,66.293 3.474,68.917 C5.329,73.549 7.953,77.868 11.038,81.885 L11.191,81.885 C15.048,80.031 18.908,78.333 22.921,76.482 C23.842,77.408 24.773,78.178 25.697,79.105 C27.087,80.342 28.786,81.419 30.638,82.498 C31.097,82.81 31.716,83.117 32.331,83.582 C31.56,87.748 30.944,92.066 30.329,96.391 C32.022,97.162 33.724,97.782 35.573,98.243 C36.038,98.396 36.963,98.706 38.506,99.014 C40.667,99.629 42.828,99.939 44.834,100.246 C46.53,96.078 48.073,92.066 49.465,87.9 L51.314,87.9 L51.47,87.9 C53.324,87.9 55.019,87.748 56.717,87.438 C58.261,87.128 59.804,86.667 61.343,86.205 C61.343,86.205 61.343,86.354 61.502,86.354 C63.97,89.906 66.597,93.457 69.06,97.003 C69.831,96.54 70.607,96.234 71.224,95.923 C72.767,95.305 74.158,94.532 75.543,93.762 C77.856,92.374 80.019,90.835 82.022,89.133 C80.328,85.122 78.475,81.266 76.626,77.253 C77.548,76.325 78.318,75.399 79.246,74.474 C80.327,73.087 81.407,71.544 82.332,70.156 C82.332,70 82.488,69.844 82.488,69.689 C82.797,69.227 83.103,68.612 83.413,68.146 C87.734,68.917 92.055,69.537 96.377,70.307 C97.148,68.454 97.768,66.603 98.382,64.598 C98.535,64.136 98.692,63.669 98.844,63.055 C99,62.593 99,62.128 99.311,61.509 C99.617,59.503 100.082,57.499 100.235,55.647 C96.227,53.947 92.057,52.559 88.047,51.018 L88.047,51.018 Z M67.218,54.671 C66.046,59.378 63.251,62.908 59.133,65.257 C54.72,67.759 50.31,68.345 45.751,67.024 C41.045,65.847 37.37,63.053 35.019,58.934 C32.519,54.67 31.93,50.261 33.251,45.554 C34.43,40.849 37.224,37.322 41.488,34.821 C45.603,32.468 50.16,31.882 54.718,33.056 C59.424,34.381 63.102,37.027 65.455,41.292 C67.952,45.555 68.544,49.966 67.218,54.671 L67.218,54.671 Z" id="Shape" sketch:type="MSShapeGroup"></path>
        </g>
    </g>
</svg>