<?xml version="1.0" encoding="UTF-8" standalone="no"?>
<svg width="100px" height="100px" viewBox="0 0 100 100" version="1.1" xmlns="http://www.w3.org/2000/svg" xmlns:xlink="http://www.w3.org/1999/xlink" xmlns:sketch="http://www.bohemiancoding.com/sketch/ns">
    <!-- Generator: Sketch 3.1.1 (8761) - http://www.bohemiancoding.com/sketch -->
    <title>social</title>
    <desc>Created with Sketch.</desc>
    <defs></defs>
    <g id="Page-1" stroke="none" stroke-width="1" fill="none" fill-rule="evenodd" sketch:type="MSPage">
        <g id="social" sketch:type="MSArtboardGroup" fill="#010101">
            <path d="M44.9664962,73.4813079 C46.2698951,67.4134641 46.6363159,61.1569578 53.8169808,57.6872927 C54.3815762,57.3958207 55.0289809,57.0879805 55.7192607,56.7761018 C59.4244097,55.1020602 62.3648393,53.3116648 62.3648393,53.3116648 C62.3648393,53.1000181 63.3033632,47.7849087 63.3033632,47.7849087 C59.56076,46.682622 56.5412033,32.8757874 56.5412033,32.8757874 C55.8286913,28.0232362 57.085164,20.5964482 57.085164,20.5964482 C58.7620571,8.24815617 80.5473019,9.68467223 83.4959905,17.9666661 C86.4647903,21.1471127 85.8279349,31.1567565 85.8279349,31.1567565 L83.0621627,42.7216684 C82.0240404,47.6125268 78.8043291,47.9218566 78.8043291,47.9218566 C78.7880486,48.6372416 80.2207339,54.1563362 80.2207339,54.1563362 C80.2207339,54.1563362 86.8752643,57.0025534 90.043261,58.3825665 C97.5495363,61.0362905 96.2955669,67.2975851 97.4658487,73.6881662 L99.3524731,94.134578 C99.3524731,94.9975964 100.341263,99.609619 94.9347074,99.6096196 C92.905389,99.6096198 49.2137953,99.6096196 47.72748,99.6096196 C42.3181083,99.609619 42.9984692,94.134578 42.9984692,94.134578 L44.9664962,73.4813079 Z M34.34842,54.759811 C39.1947917,56.5348837 39.3945312,56.7558594 42.1286458,59.5903888 C37.6071147,63.7396439 36.7483073,90.6077398 36.0343961,94.9439564 C36.0343961,94.9439564 35.2890012,99.9998991 31.9845399,99.9998978 C30.7834287,99.9998973 8.91904877,100.000128 3.03348852,99.9998978 C-0.919308993,99.9997432 0.124745649,94.8667491 0.124745649,94.8667491 C0.124745649,94.8667491 1.78515625,78.0756836 2.12243804,75.8825899 C4.63427734,62.065918 8.52856598,59.3832667 18.4097548,55.3024336 L18.5043668,51.0980574 C18.5043668,51.0980574 9.19085138,48.2618253 8.5285672,47.731593 C8.5285672,47.731593 10.1877391,42.9072734 10.8696379,40.5183894 C11.5676901,38.1317761 13.4564691,26.6123062 14.2387491,24.9455373 C15.0141061,23.2799038 16.0848374,21.0238617 17.8916963,19.9134394 C19.6962476,18.8052878 22.3892289,17.2248094 26.2521686,17.011354 C26.3063975,17.0079478 26.3652416,17.0079478 26.4229318,17 C26.4817759,17.0079478 26.5336971,17.0079478 26.5960026,17.011354 C30.4474043,17.2248094 33.1450008,18.8018816 34.9541674,19.9134394 C36.756411,21.0227263 37.8144504,23.2799038 38.6071146,24.9455373 C39.3847793,26.6123062 41.2193295,38.2827845 41.9173816,40.6716685 C42.6073571,43.0582818 44,47.9541316 44,47.9541316 C43.022727,48.7114442 34.3484196,51.0991928 34.3484196,51.0991928 C34.3484196,51.0991928 34.34842,54.28879 34.34842,54.759811 Z" sketch:type="MSShapeGroup"></path>
        </g>
    </g>
</svg>