<?xml version="1.0" encoding="iso-8859-1"?>
<!-- Generator: Adobe Illustrator 16.2.1, SVG Export Plug-In . SVG Version: 6.00 Build 0)  -->
<!DOCTYPE svg PUBLIC "-//W3C//DTD SVG 1.1//EN" "http://www.w3.org/Graphics/SVG/1.1/DTD/svg11.dtd">
<svg xmlns="http://www.w3.org/2000/svg" xmlns:xlink="http://www.w3.org/1999/xlink" version="1.1" id="Layer_1" x="0px" y="0px" width="100px" height="100px" viewBox="0 0 100 100" style="enable-background:new 0 0 100 100;" xml:space="preserve">
<path d="M93.894,36.659h-9.179c-0.945-2.835-2.309-4.257-3.726-6.091V7.407L65.035,18.45c-5.895-2.338-10.847-5.633-21.66-5.182  c-18.254,0.762-30.31,13.297-30.31,13.297S4.481,34.02,2.672,42.89c-0.33,1.788-1.333,6.644,0.001,13.314  c1.822,6.967,7.131,13.322,13.608,17.983l-2.38,14.923h16.951l0.251-7.522c4.105,1.01,8.48,1.441,13.022,1.441  c4.541,0,8.916-0.614,13.023-1.621l0.293,7.702h17.491l-3.159-13.938c4.49-1.891,10.37-10.224,10.37-10.224  s-0.062-0.082-0.157-0.208l0.183,0.183c0,0,1.915-4.165,2.546-5.585h9.179C96.325,59.341,98,57.097,98,55V40.211  C98,38.108,96.325,36.659,93.894,36.659z M71.326,29.564c1.687,0,3.055,1.342,3.055,3s-1.368,2.999-3.055,2.999  c-1.688,0-3.058-1.342-3.058-2.999S69.638,29.564,71.326,29.564z"/>
</svg>
