<?xml version="1.0" standalone="no"?>
<!DOCTYPE svg PUBLIC "-//W3C//DTD SVG 1.1//EN" "http://www.w3.org/Graphics/SVG/1.1/DTD/svg11.dtd">
<svg width="100px" height="100px" version="1.1" xmlns="http://www.w3.org/2000/svg" xmlns:xlink="http://www.w3.org/1999/xlink" xml:space="preserve" style="fill-rule:evenodd;clip-rule:evenodd;stroke-linejoin:round;stroke-miterlimit:1.41421;">
    <g id="Layer_1">
        <g id="g3015">
            <g>
                <path d="M50.2275,0.0388963C22.6134,0.0388963 0.22733,22.427 0.22733,50.039C0.22733,77.6469 22.6134,100.039 50.2275,100.039C77.8436,100.039 100.228,77.648 100.228,50.039C100.227,22.427 77.8436,0.0388963 50.2275,0.0388963ZM58.3069,44.274C60.0911,46.2231 61.1795,48.8191 61.1795,51.6694C61.1795,57.7201 56.2745,62.6252 50.2238,62.6252C44.1731,62.6252 39.2681,57.7201 39.2681,51.6694C39.2681,45.6188 44.1731,40.7137 50.2238,40.7137C50.3735,40.7137 50.5225,40.7167 50.6705,40.7227L61.3102,21.1767L63.5561,22.4404L58.3069,44.274ZM47.7454,7.78944C37.1542,8.40265 27.6052,12.9148 20.5128,19.911L23.4784,22.8766L20.9814,25.3736L18.1024,22.4945C11.7478,29.8985 7.90723,39.5223 7.90723,50.039C7.90723,50.5062 7.91481,50.9716 7.92987,51.4352L11.5362,51.1884L11.7773,54.7114L8.19024,54.9569C9.2223,63.8653 13.0234,71.932 18.71,78.274L21.4604,75.9452L23.7423,78.6402L21.1807,80.8091C28.7613,87.967 38.984,92.3562 50.2275,92.3562C61.0688,92.3562 70.9614,88.2753 78.4514,81.5663L75.052,78.837L77.2629,76.0834L81,79.084C87.0571,72.6706 91.1321,64.3657 92.2428,55.151L87.0558,54.745L87.3314,51.2245L92.5193,51.6306C92.5389,51.1024 92.5487,50.5719 92.5487,50.039C92.5487,39.1436 88.4261,29.2064 81.6565,21.7033L77.9037,25.4561L75.4067,22.9591L79.1842,19.1816C71.9232,12.3647 62.2575,8.07968 51.6002,7.73965L51.6002,13.2026L47.7454,13.2026L47.7454,7.78944Z" style="fill:black;"/>
            </g>
        </g>
    </g>
</svg>
