<?xml version="1.0" encoding="UTF-8" standalone="no"?>
<svg width="100px" height="100px" viewBox="0 0 100 100" version="1.1" xmlns="http://www.w3.org/2000/svg" xmlns:xlink="http://www.w3.org/1999/xlink" xmlns:sketch="http://www.bohemiancoding.com/sketch/ns">
    <!-- Generator: Sketch 3.1.1 (8761) - http://www.bohemiancoding.com/sketch -->
    <title>spreadsheet</title>
    <desc>Created with Sketch.</desc>
    <defs></defs>
    <g id="Page-1" stroke="none" stroke-width="1" fill="none" fill-rule="evenodd" sketch:type="MSPage">
        <g id="spreadsheet" sketch:type="MSArtboardGroup" fill="#000000">
            <path d="M12.0034569,4 C7.5832697,4 4,7.57827291 4,12.0034569 L4,87.9965431 C4,92.4167303 7.57827291,96 12.0034569,96 L87.9965431,96 C92.4167303,96 96,92.4217271 96,87.9965431 L96,12.0034569 C96,7.5832697 92.4217271,4 87.9965431,4 L12.0034569,4 Z M41.72,58.28 L41.72,41.72 L58.28,41.72 L58.28,58.28 L41.72,58.28 Z M58.28,68.4 L58.28,85.88 L41.72,85.88 L41.72,68.4 L58.28,68.4 Z M41.72,31.6 L41.72,14.12 L58.28,14.12 L58.28,31.6 L41.72,31.6 Z M14.12,14.12 L31.6,14.12 L31.6,31.6 L14.12,31.6 L14.12,14.12 Z M14.12,41.72 L31.6,41.72 L31.6,58.28 L14.12,58.28 L14.12,41.72 Z M14.12,68.4 L31.6,68.4 L31.6,85.88 L14.12,85.88 L14.12,68.4 Z M85.88,85.88 L68.4,85.88 L68.4,68.4 L85.88,68.4 L85.88,85.88 Z M85.88,58.28 L68.4,58.28 L68.4,41.72 L85.88,41.72 L85.88,58.28 Z M85.88,31.6 L68.4,31.6 L68.4,14.12 L85.88,14.12 L85.88,31.6 Z" sketch:type="MSShapeGroup"></path>
        </g>
    </g>
</svg>