<?xml version="1.0" encoding="UTF-8" standalone="no"?>
<svg width="100px" height="100px" viewBox="0 0 100 100" version="1.1" xmlns="http://www.w3.org/2000/svg" xmlns:xlink="http://www.w3.org/1999/xlink" xmlns:sketch="http://www.bohemiancoding.com/sketch/ns">
    <!-- Generator: Sketch 3.1.1 (8761) - http://www.bohemiancoding.com/sketch -->
    <title>star</title>
    <desc>Created with Sketch.</desc>
    <defs></defs>
    <g id="Page-1" stroke="none" stroke-width="1" fill="none" fill-rule="evenodd" sketch:type="MSPage">
        <g id="star" sketch:type="MSArtboardGroup" fill="#000000">
            <path d="M75.7864892,96.9038752 C73.4840815,95.6207962 50.5,78.5876237 50.5,78.5876237 C50.5,78.5876237 26.3335979,96.0598519 24.5569064,97.322118 C22.0234088,99.402932 17.4580926,97.3221202 18.6360991,93.1067406 C18.6360991,92.0020894 30.1446621,61.8913778 30.1446621,61.8913778 C30.1446621,61.8913778 12.0125517,49.9123721 4.34952987,43.5946239 C1.25887993,41.0841745 2.98543673,35.5609182 6.55883219,35.5609187 C7.66348336,35.5609187 37.2369973,35.5589964 37.2369973,35.5589964 L45.7399661,7.75591259 C47.7033141,1.59976832 53.4347708,1.91206962 55.252499,7.75591249 C55.9833424,9.02541914 63.7630027,35.5589964 63.7630027,35.5589964 C63.7630027,35.5589964 92.7022023,35.5609187 93.8068535,35.5609187 C97.8700085,35.5609182 98.4352818,41.5845821 96.0161558,43.1525595 C87.7253143,49.9879111 70.8553379,61.8913778 70.8553379,61.8913778 C70.8553379,61.8913778 82.3326131,91.2453386 82.3326131,92.3499898 C83.8962817,97.3221202 77.7699986,98.9579431 75.7864892,96.9038752 Z" id="Star-1" sketch:type="MSShapeGroup"></path>
        </g>
    </g>
</svg>