<?xml version="1.0" encoding="UTF-8" standalone="no"?>
<svg width="100px" height="100px" viewBox="0 0 100 100" version="1.1" xmlns="http://www.w3.org/2000/svg" xmlns:xlink="http://www.w3.org/1999/xlink" xmlns:sketch="http://www.bohemiancoding.com/sketch/ns">
    <!-- Generator: Sketch 3.1.1 (8761) - http://www.bohemiancoding.com/sketch -->
    <title>tags</title>
    <desc>Created with Sketch.</desc>
    <defs></defs>
    <g id="Page-1" stroke="none" stroke-width="1" fill="none" fill-rule="evenodd" sketch:type="MSPage">
        <g id="tags" sketch:type="MSArtboardGroup" fill="#000000">
            <path d="M74.7234208,60.1105583 C66.4822805,68.0737055 58.2411403,76.0368528 50,84 C47.5,86 44.5,86 41.2709226,82.8819069 C30.5716575,72.1822158 11.5512113,53.1610123 3.6245777,45.2340632 C1.35925019,42.9686455 0,41.6093412 0,41.6093412 L0,18.7857765 L9.78577647,9 L29.6074824,9 C29.6074824,9 33,9 35.9806041,12.3898747 C45.9134183,22.3709469 74.4292929,51.0172272 75.5,52 C79,55.5 76,58.5 74.7234208,60.1105583 Z M12.3509529,21.3500235 C11.0404824,22.6623529 11.0404824,24.7944235 12.3518824,26.1067529 C13.6623529,27.4181529 15.7962824,27.4181529 17.1067529,26.1067529 C18.4200118,24.7972118 18.4200118,22.6623529 17.1067529,21.3500235 C15.7962824,20.0414118 13.6614235,20.0414118 12.3509529,21.3500235 L12.3509529,21.3500235 Z M55.2881981,12.5832646 C51.4999996,8.5 45.7485354,8.87461329 45.7485354,8.87461329 L41.1456447,8.87461329 C41.1456447,8.87461329 81.449219,50.2629976 82.4999996,51.4999986 C85.4999996,54.4999986 84.4999996,60.3929772 81.9999996,62.9999986 C73.4864738,71.5143916 59.1027801,85.6879995 59.1027801,85.6879995 C59.1027801,85.6879995 60.4999996,87.4000878 61.4999996,88.5000024 C64.4999996,91.0000024 67.3298,89.3194908 68.7315164,87.900085 C77.7862836,78.7310486 80.4452323,76.169035 89.4999996,66.9999986 C92.4999996,63.9999986 95.4999996,54.9999986 90.9999996,49.9999986 C79.0960658,37.5277539 67.1921319,25.0555093 55.2881981,12.5832646 Z" sketch:type="MSShapeGroup"></path>
        </g>
    </g>
</svg>