<?xml version="1.0" encoding="utf-8"?>
<!-- Generator: Adobe Illustrator 15.1.0, SVG Export Plug-In . SVG Version: 6.00 Build 0)  -->
<!DOCTYPE svg PUBLIC "-//W3C//DTD SVG 1.1//EN" "http://www.w3.org/Graphics/SVG/1.1/DTD/svg11.dtd">
<svg xmlns="http://www.w3.org/2000/svg" xmlns:xlink="http://www.w3.org/1999/xlink" version="1.1" id="Layer_1" x="0px" y="0px" width="100px" height="100px" viewBox="0 0 100 100" enable-background="new 0 0 100 100" xml:space="preserve">
<g enable-background="new    ">
	<path d="M2.662,11.156h63.663l0.605,16.697h-2.695c-1.318-5.246-2.996-8.661-5.029-10.244c-2.035-1.583-6.314-2.375-12.837-2.375   h-6.268v50.284c0,3.787,0.678,6.133,2.034,7.039c1.355,0.908,4.324,1.504,8.906,1.79v1.823H18.22v-1.823   c4.764-0.317,7.733-1.003,8.906-2.054c1.173-1.051,1.759-3.691,1.759-7.926V15.234h-6.322c-6.231,0-10.473,0.784-12.727,2.351   c-2.254,1.568-3.95,4.99-5.085,10.268H2.002L2.662,11.156z"/>
</g>
<g enable-background="new    ">
	<path d="M60.539,47.808h36.279l0.346,9.516h-1.535c-0.752-2.989-1.707-4.936-2.867-5.838c-1.158-0.902-3.598-1.354-7.314-1.354   h-3.572v28.656c0,2.157,0.387,3.495,1.158,4.011c0.773,0.518,2.465,0.857,5.076,1.021v1.039H69.404v-1.039   c2.717-0.181,4.408-0.571,5.076-1.171c0.668-0.598,1.002-2.104,1.002-4.517v-28h-3.602c-3.551,0-5.969,0.446-7.254,1.34   s-2.25,2.844-2.898,5.852h-1.566L60.539,47.808z"/>
</g>
</svg>
