<?xml version="1.0" encoding="utf-8"?>
<!-- Generator: Adobe Illustrator 16.2.1, SVG Export Plug-In . SVG Version: 6.00 Build 0)  -->
<!DOCTYPE svg PUBLIC "-//W3C//DTD SVG 1.1//EN" "http://www.w3.org/Graphics/SVG/1.1/DTD/svg11.dtd">
<svg xmlns="http://www.w3.org/2000/svg" xmlns:xlink="http://www.w3.org/1999/xlink" version="1.1" id="Layer_1" x="0px" y="0px" width="100px" height="100px" viewBox="0 0 100 100" enable-background="new 0 0 100 100" xml:space="preserve">
<g>
	<path fill="#0A0B0C" d="M97.734,34.914c-8.679,0.469-6.915-6.017-13.028-8.028c-3.2-1.053-4.479-1.195-6.842-0.877   c-2.152,0.286-2.199,1.876-2.656,3.182c-0.41,1.177-1.297,2.902-0.172,4.26c1.59,1.917,5.847,3.443,9.413,4.669   C90.539,40.21,96.75,37.75,97.734,34.914z"/>
	<path fill="#0A0B0C" d="M72.332,32.383l2.497-7.185c0.37-1.071-1.894-2.849-2.802-3.137L6.783,3.042   C5.872,2.753,4.656,4.017,4.288,5.083C3.917,6.153,3.772,7.685,4.67,8.015l63.512,25.117   C69.078,33.462,71.957,33.451,72.332,32.383z"/>
</g>
<path fill="#0A0B0C" d="M2.537,73.127c5.036,13.36,23.895,21.993,46.158,23.308l0,0c24.569,1.454,48.353-12.559,47.359-29.052  c-0.998-16.498-22.987-29.547-49.116-29.146c-15.098,0.226-26.435,4.091-33.151,9.736c-2.224,1.86-2.241,6.759,5.323,5.573  c12.619-1.945,9.757,2.247,6.111,4.473C22,59.981,10.203,61.932,7.247,63.489C0.151,67.246,2.015,71.729,2.537,73.127z   M78.214,66.365c1.629,0.151,5.056-7.447,9.207-1.553c0.478,0.684,3.361,5.087,0.779,6.965c-0.721,0.521-2.329,3.009-3.171,3.284  C80.746,76.487,73.683,67.075,78.214,66.365z M62.178,55.233c0.885-0.557,0.646-5.774,3.6-6.138  c3.043-0.361,9.953-3.415,7.621,4.367c-0.255,0.848-0.011,3.796-0.513,4.533C70.352,61.729,59.021,58.548,62.178,55.233z   M60.604,79.59c0.192-0.864-0.464-3.967,0.209-4.56c6.104-5.269,8.788,4.091,10.051,4.559c2.745,1.027,1.932,3.155-0.915,3.81  c-1.318-0.32-2.85,1.244-4.167,0.926C64.964,84.125,59.886,82.713,60.604,79.59z M20.506,72.591  c-0.118-1.912,2.189-3.141,5.147-2.741c2.964,0.399,5.461,2.268,5.578,4.181c0.11,1.905-2.199,3.135-5.162,2.734  C23.109,76.369,20.617,74.497,20.506,72.591z"/>
</svg>
