<?xml version="1.0" encoding="UTF-8" standalone="no"?>
<svg width="100px" height="100px" viewBox="0 0 100 100" version="1.1" xmlns="http://www.w3.org/2000/svg" xmlns:xlink="http://www.w3.org/1999/xlink" xmlns:sketch="http://www.bohemiancoding.com/sketch/ns">
    <!-- Generator: Sketch 3.1.1 (8761) - http://www.bohemiancoding.com/sketch -->
    <title>tor</title>
    <desc>Created with Sketch.</desc>
    <defs></defs>
    <g id="Page-1" stroke="none" stroke-width="1" fill="none" fill-rule="evenodd" sketch:type="MSPage">
        <g id="tor" sketch:type="MSArtboardGroup" fill-opacity="0.980000019" fill="#000000">
            <path d="M31.9334937,89.815772 C32.6812525,90.2211174 33.4498532,90.6134773 34.2379153,90.9924666 C35.7173433,91.7005548 36.9966635,92.194551 38.2342559,92.5574169 L38.2342559,92.5574169 C37.7003334,88.634855 37.2633671,83.0732318 37.2393348,81.9077028 C36.1572673,69.8579241 49.416138,70.467528 49.416138,70.467528 C49.416138,70.467528 42.2833379,73.3567274 43.1862426,86.3792232 C43.28202,87.7606099 43.6976701,89.5159797 44.4223092,93.62357 C45.114516,93.695279 45.8510802,93.767015 46.647504,93.8468984 C51.9011843,93.8468984 51.5444476,93.237707 53.1391596,93.3194319 C54.070216,91.1704841 55.6821757,85.38128 56.1993648,80.61512 C56.1993648,75.0836219 51.0436126,29.1549207 51.0436126,29.1549207 L53.1391601,21.3900593 C53.1391601,21.3900593 56.2606332,23.1160082 56.7149876,23.5086764 C57.1693419,23.9013446 60.6704846,33.6935689 61.9139839,34.3813136 C66.893456,37.102235 73.9844477,38.5484551 77.808245,41.9711351 C85.0111514,48.4656159 89.1012406,57.5936194 89.1012406,67.2479419 C89.1012406,76.8142233 84.6550102,86.0296254 77.1858118,92.1732268 C70.1613015,97.9659488 60.4693069,100.423389 51.0436108,100.423389 C45.174769,100.423389 39.9283603,100.160551 34.2379145,98.3168281 C21.2560154,94.0163072 10.5244152,83.0458658 9.72423693,69.8801796 C9.01260576,59.6114968 11.3245935,51.8002547 19.4168761,43.6381333 C23.5955124,39.3376123 30.3847839,36.4376294 36.1650787,32.4879878 C39.0109527,30.5568662 43.9593998,25.0085055 36.8998564,19.3374951 L40.0111166,14.1042227 C40.0111166,14.1042227 40.781888,15.1454796 44.005836,16.5754214 C45.3153176,17.1562256 45.9042471,0.702566883 46.6424081,2.50833854 C47.0321991,3.46188872 48.7641589,8.24328223 49.4889523,11.9133688 C49.2041469,13.1828095 59.5610641,0.955598959 61.8451701,-0.453802334 C61.8173085,1.57246389 58.9529576,10.0610473 58.2059063,11.7060198 C57.2239406,13.6352526 69.6959929,9.30095267 71.9922886,8.3926458 C71.0345316,10.6930746 53.1391579,21.3900599 53.1391579,21.3900599 L51.0436126,29.1549207 L46.6475058,26.5054541 C47.269939,27.383295 46.1530329,29.9069066 45.4414016,31.3104239 C41.7960005,37.8055472 34.6872264,39.9519714 30.1524489,43.6381322 C22.1493642,50.1326129 15.4006671,52.063735 16.3785904,69.8801791 C16.6694218,75.6201052 19.7691608,80.7425583 24.7894362,84.9995855 C23.9871581,80.7948067 23.7016942,76.0619329 23.7949658,72.733181 C22.8704134,59.0836968 33.2565893,53.7971477 36.1192259,52.6844238 C41.1116909,50.743823 46.6436165,51.3112185 46.6436165,51.3112185 C46.6436165,51.3112185 34.7963952,55.9529014 30.8864939,66.3539109 C28.4410764,72.8591415 29.5824106,81.2104394 31.9334937,89.815772 Z" sketch:type="MSShapeGroup"></path>
        </g>
    </g>
</svg>