<?xml version="1.0" encoding="UTF-8" standalone="no"?>
<svg width="100px" height="100px" viewBox="0 0 100 100" version="1.1" xmlns="http://www.w3.org/2000/svg" xmlns:xlink="http://www.w3.org/1999/xlink" xmlns:sketch="http://www.bohemiancoding.com/sketch/ns">
    <!-- Generator: Sketch 3.2.2 (9983) - http://www.bohemiancoding.com/sketch -->
    <title>transit</title>
    <desc>Created with Sketch.</desc>
    <defs></defs>
    <g id="Page-1" stroke="none" stroke-width="1" fill="none" fill-rule="evenodd" sketch:type="MSPage">
        <g id="transit" sketch:type="MSArtboardGroup" fill="#000000">
            <path d="M59.8890219,26.1757105 C59.8890219,24.9962187 58.9327638,24.040014 57.7533254,24.040014 L42.2695259,24.040014 C41.0900341,24.040014 40.1338294,24.9962187 40.1338294,26.1757105 L40.1338294,74.7628056 C40.1338294,75.942244 41.0900341,76.8985021 42.2695259,76.8985021 L57.7533254,76.8985021 C58.9327638,76.8985021 59.8890219,75.942244 59.8890219,74.7628056 L59.8890219,26.1757105 Z M22.0144202,57.1433096 C25.2581161,57.1433096 27.8875856,59.7728859 27.8875856,63.0164749 C27.8875856,66.2600639 25.2581161,68.8896402 22.0144202,68.8896402 C18.7707778,68.8896402 16.1412549,66.2600639 16.1412549,63.0164749 C16.1412549,59.7728859 18.7707778,57.1433096 22.0144202,57.1433096 L22.0144202,57.1433096 Z M78.0766132,57.1433096 C81.3202023,57.1433096 83.9497786,59.7728859 83.9497786,63.0164749 C83.9497786,66.2600639 81.3202023,68.8896402 78.0766132,68.8896402 C74.8330242,68.8896402 72.2034479,66.2600639 72.2034479,63.0164749 C72.2034479,59.7728859 74.8330242,57.1433096 78.0766132,57.1433096 L78.0766132,57.1433096 Z M94.7088835,47.6035271 L94.7088835,78.8756231 C94.7088835,82.407088 90.0557348,87.9117549 87.1159486,87.7008549 C87.0347921,88.8802933 83.2973233,96.43265 83.2973233,96.43265 L17.1163605,96.43265 C17.1163605,96.43265 13.3591365,88.390151 13.3591365,87.9117549 C10.2338116,88.390151 4.85805,83.2871498 4.85805,78.8756231 L4.85805,47.6035271 L29.5103412,47.6035271 C31.2638548,47.6035271 31.4327884,44.4174951 31.4327884,44.4174951 L31.4327884,26.3190157 C31.4327884,23.9320012 29.3304621,24.0425768 29.3304621,24.0425768 C29.3304621,24.0425768 13.3793722,24.0377715 9.21641921,24.0413488 C11.306305,19.5099348 14.388649,13.1482823 18.930955,10.3383998 C28.6119604,2.92497015 46.637132,2 49.9099801,2 C52.6703678,2 69.1437957,2 79.3059735,10.3383998 C83.9687329,13.4454644 87.5807296,19.277838 90.1312851,24.041509 C86.3206686,24.0376113 70.105927,24.0425768 70.105927,24.0425768 C70.105927,24.0425768 67.8976168,23.9320012 67.8976168,26.3190157 L67.8976168,44.4174951 C67.8976168,44.4174951 68.0748796,47.6035271 69.9169178,47.6035271 L94.7088835,47.6035271 Z M64.694339,10.1579868 C64.694339,9.56821425 64.2164769,9.09013859 63.6264908,9.09013859 L35.3285123,9.09013859 C34.7387397,9.09013859 34.2606641,9.56821425 34.2606641,10.1579868 L34.2606641,15.4972281 C34.2606641,16.0870006 34.7387397,16.5650763 35.3285123,16.5650763 L63.6264908,16.5650763 C64.2164769,16.5650763 64.694339,16.0870006 64.694339,15.4972281 L64.694339,10.1579868 Z" sketch:type="MSShapeGroup"></path>
        </g>
    </g>
</svg>