<?xml version="1.0" encoding="UTF-8" standalone="no"?>
<svg width="100px" height="100px" viewBox="0 0 100 100" version="1.1" xmlns="http://www.w3.org/2000/svg" xmlns:xlink="http://www.w3.org/1999/xlink" xmlns:sketch="http://www.bohemiancoding.com/sketch/ns">
    <!-- Generator: Sketch 3.1.1 (8761) - http://www.bohemiancoding.com/sketch -->
    <title>trash</title>
    <desc>Created with Sketch.</desc>
    <defs></defs>
    <g id="Page-1" stroke="none" stroke-width="1" fill="none" fill-rule="evenodd" sketch:type="MSPage">
        <g id="trash" sketch:type="MSArtboardGroup" fill="#000000">
            <path d="M22.793,95.902 L22.976,95.902 C24.56,98.49 36.324,100.492 50.61,100.492 C64.892,100.492 76.66,98.49 78.247,95.902 L78.378,95.902 L85.727,25.565 L14.834,25.565 L22.793,95.902 L22.793,95.902 Z M58.7921294,40.4101521 C58.8255686,39.4617714 59.566337,38.6862532 60.4442084,38.6777267 L66.0542578,38.5069803 C66.9232829,38.5029592 67.6066767,39.2651767 67.5691856,40.2138408 L66.011943,84.207599 C65.9785038,85.1559797 65.2458392,85.9309312 64.3687103,85.935519 L58.753596,86.1066196 C57.8798847,86.1164099 57.2004346,85.3523618 57.2340902,84.4070754 L58.7921294,40.4101521 Z M40.667324,38.0782734 C41.567659,38.0813769 42.3278297,38.8520045 42.3689057,39.8071003 L44.126318,83.7967912 C44.1718772,84.7459819 43.4745246,85.5071913 42.5678975,85.5067571 L36.8636675,85.3426307 C35.9613072,85.3393856 35.2074826,84.5653151 35.1659199,83.6171812 L33.4048898,39.6210187 C33.3680656,38.6778801 34.0648383,37.9104116 34.9671985,37.9136567 L40.667324,38.0782734 Z M66.312,9.694 L59.408,0.492 L58.997,0.74 L58.997,0.492 L42.145,0.492 L42.145,0.822 L35.435,9.69 L19.792,9.69 L11.721,20.207 L89.502,20.207 L80.778,9.694 L66.312,9.694 Z" sketch:type="MSShapeGroup"></path>
        </g>
    </g>
</svg>