<?xml version="1.0" encoding="UTF-8" standalone="no"?>
<svg width="100px" height="100px" viewBox="0 0 100 100" version="1.1" xmlns="http://www.w3.org/2000/svg" xmlns:xlink="http://www.w3.org/1999/xlink" xmlns:sketch="http://www.bohemiancoding.com/sketch/ns">
    <!-- Generator: Sketch 3.1.1 (8761) - http://www.bohemiancoding.com/sketch -->
    <title>travel</title>
    <desc>Created with Sketch.</desc>
    <defs></defs>
    <g id="Page-1" stroke="none" stroke-width="1" fill="none" fill-rule="evenodd" sketch:type="MSPage">
        <g id="travel" sketch:type="MSArtboardGroup" fill="#000000">
            <path d="M68.265474,48.2957114 C68.265474,48.2957114 87.0095315,52.5430623 100.004375,59.1097106 C101.984577,60.1103605 103.52065,59.7936976 104.630066,58.3904068 C105.739483,56.9871161 103.99998,51.0557048 103.99998,51.0557048 L68.5037058,22.2988522 C67.1727398,-0.781460462 59.1350057,-7.68838235 59.1350057,-7.68838235 C57.9091748,-10.112589 55.0045373,-9.9991696 55.0045373,-9.9991696 C54.9530882,-9.9991696 52.0473322,-10.112589 50.8226198,-7.68838235 C50.8226198,-7.68838235 42.7848857,-0.781460462 41.4539197,22.2988522 L5.95652678,51.0567648 C5.95652678,51.0567648 4.52413996,55.2937479 5.16504335,58.3904068 C6.8690021,60.38969 7.84519166,60.1744051 9.76202403,59.2057775 C22.8202367,52.6071069 41.6910329,48.2957114 41.6910329,48.2957114 C41.6910329,48.2957114 45.3039484,62.3242313 48.3416825,80.0770134 C48.3416825,80.0770134 33.8163761,91.6182297 34.0691478,92.4259452 L34.0691478,97.6578674 C34.0691478,97.6578674 34.6686417,98.2398042 36.7478566,97.8857661 L50.4189743,94.0846271 C50.4189743,94.0846271 53.7541003,93.6182297 54.9788127,93.744369 C56.2046436,93.6182297 59.5386511,94.0846271 59.5386511,94.0846271 L73.2097688,97.8857661 C75.2878653,98.2398042 75.8884777,97.6578674 75.8884777,97.6578674 L75.8884777,92.4270052 C76.1401309,91.6182297 61.6148245,80.0770134 61.6148245,80.0770134 C64.6525586,62.3242313 68.265474,48.2957114 68.265474,48.2957114 Z" sketch:type="MSShapeGroup" transform="translate(55.000000, 44.000000) rotate(-306.000000) translate(-55.000000, -44.000000) "></path>
        </g>
    </g>
</svg>