<?xml version="1.0" encoding="utf-8"?>
<!-- Generator: Adobe Illustrator 16.2.1, SVG Export Plug-In . SVG Version: 6.00 Build 0)  -->
<!DOCTYPE svg PUBLIC "-//W3C//DTD SVG 1.1//EN" "http://www.w3.org/Graphics/SVG/1.1/DTD/svg11.dtd">
<svg xmlns="http://www.w3.org/2000/svg" xmlns:xlink="http://www.w3.org/1999/xlink" version="1.1" id="Layer_1" x="0px" y="0px" width="100px" height="100px" viewBox="0 0 100 100" enable-background="new 0 0 100 100" xml:space="preserve">
<g>
	<path d="M28.797,4.822c5.283-3.403,11.775-5.104,19.476-5.104c10.119,0,18.526,2.418,25.221,7.253   c6.693,4.835,10.038,11.999,10.038,21.491c0,5.82-1.454,10.723-4.354,14.708c-1.694,2.417-4.958,5.505-9.775,9.267l-4.757,3.694   c-2.592,2.014-4.31,4.366-5.161,7.051c-0.531,1.701-0.822,4.345-0.869,7.925h-18.2c0.267-7.565,0.981-12.794,2.143-15.682   c1.16-2.888,4.15-6.211,8.972-9.973l4.888-3.827c1.605-1.208,2.903-2.53,3.883-3.962c1.785-2.462,2.681-5.172,2.681-8.126   c0-3.403-0.996-6.504-2.981-9.302c-1.988-2.798-5.619-4.196-10.887-4.196c-5.184,0-8.857,1.724-11.023,5.171   c-2.165,3.447-3.249,7.029-3.249,10.745H15.433C15.97,19.194,20.425,10.15,28.797,4.822z M39.946,80.31h20.083v19.408H39.946V80.31   z"/>
</g>
</svg>
