<?xml version="1.0" encoding="UTF-8" standalone="no"?>
<svg width="100px" height="100px" viewBox="0 0 100 100" version="1.1" xmlns="http://www.w3.org/2000/svg" xmlns:xlink="http://www.w3.org/1999/xlink" xmlns:sketch="http://www.bohemiancoding.com/sketch/ns">
    <!-- Generator: Sketch 3.1.1 (8761) - http://www.bohemiancoding.com/sketch -->
    <title>work</title>
    <desc>Created with Sketch.</desc>
    <defs></defs>
    <g id="Page-1" stroke="none" stroke-width="1" fill="none" fill-rule="evenodd" sketch:type="MSPage">
        <g id="work" sketch:type="MSArtboardGroup" fill="#000000">
            <path d="M52.4812252,31.0357267 L52.470031,31.0241089 L1.331,81.936 C-0.927,84.192 -0.927,87.954 1.331,90.061 L7.197,96.079 C9.455,98.337 13.221,98.337 15.327,96.079 L64.1635773,43.1601565 L64.1474614,43.1434308 C64.1493637,43.1412759 69.2242383,37.3928867 69.9750975,36.7899997 C72.2314452,34.9830005 75.973,34.831 79.581,38.593 C82.141,41.003 82.59,43.712 81.239,44.614 C80.482,45.668 81.088,47.925 82.444,49.13 L84.248,51.086 C86.052,52.742 88.613,52.742 90.266,51.086 L98.396,42.807 C100.049,41.003 100.049,38.445 98.396,36.79 L96.738,34.983 C95.533,33.63 93.13,33.179 91.622,34.532 C90.266,34.532 88.462,33.929 87.106,32.576 C84.249,29.412 86.204,21.846 84.249,19.891 C83.346,18.986 77.9750975,15.2460935 75.1362303,10.949707 C72.2973631,6.65332039 61.3764024,-2.07400003 33.8374024,4.99999997 L35.5063477,11.6074215 C35.5063477,11.6074215 48.437,8.498 58.213,18.129 C58.213,18.129 61.6759992,22.0340944 58.2129992,25.4960944 C57.3099992,26.5490944 56.8629992,27.0000944 56.8629992,27.0000944 L52.4812252,31.0357267 Z" sketch:type="MSShapeGroup"></path>
        </g>
    </g>
</svg>