<?xml version="1.0" encoding="utf-8"?>
<!-- Generator: Adobe Illustrator 16.2.1, SVG Export Plug-In . SVG Version: 6.00 Build 0)  -->
<!DOCTYPE svg PUBLIC "-//W3C//DTD SVG 1.1//EN" "http://www.w3.org/Graphics/SVG/1.1/DTD/svg11.dtd">
<svg xmlns="http://www.w3.org/2000/svg" xmlns:xlink="http://www.w3.org/1999/xlink" version="1.1" id="Layer_1" x="0px" y="0px" width="100px" height="100px" viewBox="0 0 100 100" enable-background="new 0 0 100 100" xml:space="preserve">
<g>
	<path d="M60.701,26.407c0-1.094-0.886-1.979-1.979-1.979H47.834c-1.094,0-1.979,0.885-1.979,1.979c0,1.09,0.885,1.974,1.979,1.974   h10.889C59.815,28.381,60.701,27.497,60.701,26.407z"/>
	<path d="M60.701,14.012c0-1.094-0.886-1.977-1.979-1.977H47.834c-1.094,0-1.979,0.883-1.979,1.977s0.885,1.974,1.979,1.974h10.889   C59.815,15.986,60.701,15.104,60.701,14.012z"/>
	<path d="M60.701,1.617c0-1.088-0.886-1.979-1.979-1.979H47.834c-1.094,0-1.979,0.891-1.979,1.98c0,1.092,0.885,1.975,1.979,1.975   h10.889C59.815,3.593,60.701,2.71,60.701,1.617z"/>
	<path d="M51.661,5.762H40.766c-1.091,0-1.973,0.882-1.973,1.978c0,1.088,0.881,1.975,1.973,1.975h10.895   c1.091,0,1.978-0.885,1.978-1.975C53.639,6.644,52.752,5.761,51.661,5.762z"/>
	<path d="M38.793,32.522c0,1.094,0.881,1.977,1.973,1.977h10.895c1.091,0,1.978-0.883,1.978-1.977c0-1.093-0.887-1.977-1.978-1.977   H40.766C39.675,30.545,38.793,31.429,38.793,32.522z"/>
	<path d="M60.911,38.909c0-1.091-0.887-1.975-1.975-1.975H48.043c-1.091,0-1.979,0.882-1.979,1.975c0,1.09,0.885,1.974,1.979,1.974   h10.894C60.023,40.883,60.911,39.999,60.911,38.909z"/>
	<path d="M39,45.026c0,1.091,0.885,1.979,1.977,1.979h10.895c1.091,0,1.975-0.888,1.975-1.979c0-1.093-0.884-1.977-1.975-1.977   H40.976C39.885,43.05,39,43.934,39,45.026z"/>
	<path d="M38.793,20.131c0,1.092,0.881,1.974,1.973,1.974h10.895c1.091,0,1.978-0.882,1.978-1.974c0-1.094-0.887-1.98-1.978-1.98   H40.766C39.675,18.15,38.793,19.037,38.793,20.131z"/>
	<path d="M60.911,51.3c0-1.087-0.887-1.975-1.975-1.975H48.043c-1.091,0-1.979,0.886-1.979,1.975c0,1.098,0.885,1.979,1.979,1.979   h10.894C60.023,53.278,60.911,52.397,60.911,51.3z"/>
	<path d="M39.157,56.895c0,1.094,0.881,1.977,1.973,1.977h10.895c1.092,0,1.979-0.883,1.979-1.977c0-1.093-0.887-1.977-1.979-1.977   H41.13C40.039,54.918,39.157,55.802,39.157,56.895z"/>
	<path d="M61.275,63.282c0-1.092-0.887-1.976-1.976-1.976H48.407c-1.091,0-1.979,0.883-1.979,1.976c0,1.09,0.885,1.974,1.979,1.974   H59.3C60.387,65.256,61.275,64.372,61.275,63.282z"/>
	<path d="M39.363,69.399c0,1.091,0.885,1.979,1.977,1.979h10.895c1.092,0,1.976-0.889,1.976-1.979c0-1.093-0.884-1.977-1.976-1.977   H41.34C40.249,67.423,39.363,68.307,39.363,69.399z"/>
	<path d="M61.275,75.673c0-1.087-0.887-1.975-1.976-1.975H48.407c-1.091,0-1.979,0.886-1.979,1.975c0,1.097,0.885,1.979,1.979,1.979   H59.3C60.387,77.651,61.275,76.77,61.275,75.673z"/>
	<path d="M39.521,81.509c0,1.095,0.881,1.979,1.972,1.979h10.896c1.091,0,1.978-0.884,1.978-1.979c0-1.091-0.887-1.975-1.978-1.975   H41.493C40.401,79.534,39.521,80.418,39.521,81.509z"/>
	<path d="M63.312,87H36.52c-3.115,0-5.641,2.752-5.641,6.5c0,3.749,2.526,6.5,5.641,6.5h26.792c3.116,0,5.642-2.751,5.642-6.5   C68.954,89.752,66.429,87,63.312,87z M50.038,97.214c-2.143,0-3.88-1.738-3.88-3.881s1.737-3.881,3.88-3.881   c2.143,0,3.881,1.738,3.881,3.881S52.181,97.214,50.038,97.214z"/>
</g>
</svg>
