<?xml version="1.0" standalone="no"?>
<!DOCTYPE svg PUBLIC "-//W3C//DTD SVG 1.1//EN" "http://www.w3.org/Graphics/SVG/1.1/DTD/svg11.dtd" >
<svg>
<metadata>
Created by FontForge 20120731 at Wed Sep 18 21:03:50 2013
 By Stefan Warting
Copyright (c) 2013, Mailpile (http://mailpile.is), with Reserved Font Name 'Mailpile'
</metadata>
<defs>
<font id="Mailpile-Regular" horiz-adv-x="1272" >
  <font-face 
    font-family="Mailpile"
    font-weight="400"
    font-stretch="normal"
    units-per-em="2048"
    panose-1="2 0 5 3 2 0 0 2 0 4"
    ascent="1638"
    descent="-410"
    x-height="1084"
    cap-height="1495"
    bbox="-44 -606 2300 2030"
    underline-thickness="102"
    underline-position="-103"
    unicode-range="U+0020-FB04"
  />
<missing-glyph horiz-adv-x="580" 
 />
    <glyph glyph-name=".notdef" horiz-adv-x="580" 
 />
    <glyph glyph-name="Eth" unicode="&#xd0;" horiz-adv-x="1490" 
d="M102 1359v136h658q307 0 467.5 -190.5t160.5 -556.5q0 -367 -160.5 -557.5t-467.5 -190.5h-519v690h-139v135h139v533zM737 825v-135h-332v-553h363q223 0 341 150.5t118 460.5q0 309 -118 459.5t-341 150.5h-363v-533h332z" />
    <glyph glyph-name="eth" unicode="&#xf0;" horiz-adv-x="1420" 
d="M892 1421q185 -232 283 -398.5t90 -436.5q-9 -299 -163.5 -457t-396.5 -158q-119 0 -245 44t-193 125q-68 81 -104 170t-36 230q0 282 159 437t408 160q46 1 112.5 -3.5t165.5 -54.5q-62 91 -100 137.5t-102 126.5l-170 -96l-72 88l166 97q-24 31 -64 72t-70 71l109 83
q39 -39 73 -68.5t68 -72.5l158 94l76 -96zM703 96q162 0 286 124t124 351q0 228 -130 327.5t-296 99.5q-162 0 -281 -118.5t-119 -341.5q0 -111 25.5 -177t71.5 -130q46 -65 141.5 -100t177.5 -35v0z" />
    <glyph glyph-name="Lslash" unicode="&#x141;" horiz-adv-x="1053" 
d="M440 752v-615h469l-1 127h124v-201q0 -31 -15.5 -47t-47.5 -16h-693v686l-174 -70v148l174 70v538h-128l2 123h290v-596l178 72v-148z" />
    <glyph glyph-name="lslash" unicode="&#x142;" horiz-adv-x="682" 
d="M401 750v-514q0 -56 22 -77t66 -21l103 -1v-150l-156 -1q-98 0 -147.5 58t-49.5 174v468l-174 -70v148l174 70v620h-145v123h246q31 0 46 -16t15 -48v-616l180 74v-148z" />
    <glyph glyph-name="Scaron" unicode="&#x160;" horiz-adv-x="1116" 
d="M557 1803l229 200l66 -67l-252 -293h-86l-250 293l65 67zM1068 1164h-132q-1 42 -10 86.5t-52 76.5q-42 20 -58 27t-53 17q-45 11 -90.5 16.5t-83.5 5.5q-70 0 -126 -19t-95 -52q-39 -34 -55.5 -73.5t-16.5 -96.5q0 -38 11.5 -70.5t27.5 -58.5t40.5 -50t51.5 -44
q25 -20 58 -38.5t67 -33.5t70.5 -30.5t72.5 -30.5q34 -15 68.5 -32t68.5 -35t72 -39t65 -45q25 -24 52.5 -52.5t43.5 -62.5q16 -33 24 -74t8 -88t-13 -88.5t-30 -78.5q-17 -36 -56 -67.5t-69 -56.5q-31 -25 -67 -45t-78 -33q-43 -13 -108 -20t-114 -7q-102 0 -179.5 30.5
t-139.5 83.5q-63 54 -103 113.5t-72 132.5l138 78q24 -64 60.5 -115t79.5 -92q42 -40 95 -65t119 -25q73 0 143.5 16.5t117.5 45.5q46 28 86.5 76.5t40.5 112.5q0 46 -19.5 89t-46.5 71q-28 28 -78.5 51.5t-91.5 45.5q-42 22 -89.5 43t-96.5 40q-49 20 -97.5 44.5
t-89.5 52.5q-42 28 -80 63t-65 77q-28 42 -45 96t-17 119q0 44 8.5 83t26.5 74q17 34 41 63t55 53q30 23 66 41t78 31q41 12 85.5 18t94.5 6q48 0 104 -4.5t108 -16.5q41 -10 106.5 -34t103.5 -62q57 -51 58 -147.5l1 -96.5v0z" />
    <glyph glyph-name="scaron" unicode="&#x161;" horiz-adv-x="1034" 
d="M515 1479l229 200l66 -67l-252 -293h-86l-250 293l65 67zM759 519q69 -42 116 -105t45 -152q-2 -75 -31 -120.5t-83 -87.5q-55 -42 -116.5 -63t-151.5 -21t-163.5 22t-128.5 65q-56 43 -92.5 109t-56.5 138l142 46q17 -61 44 -107.5t63 -77.5q35 -30 80 -45.5t99 -15.5
q60 0 109 8t82 33q60 49 63.5 107t-45.5 107q-22 23 -65.5 46t-103.5 50q-44 15 -97.5 34.5t-101.5 43.5q-70 41 -112 64.5t-82 79.5q-58 78 -43.5 182t105.5 173q54 42 126 62.5t162 20.5t166.5 -21.5t132.5 -64.5q55 -43 63.5 -80.5t13.5 -117.5h-139q-1 40 -1 47t-28 48
q-36 30 -86.5 44t-104.5 14q-60 0 -109.5 -11.5t-81.5 -36.5q-62 -49 -70.5 -99.5t40.5 -99.5q30 -31 65.5 -55.5t80.5 -42.5h1q3 -2 1.5 2t1.5 3q70 -31 148 -58t143 -67v0z" />
    <glyph glyph-name="Yacute" unicode="&#xdd;" horiz-adv-x="1122" 
d="M797 1981l88 -128l-400 -256l-82 126zM763 537l1 -537h-167v530l-422 828h-136v137h212q29 0 48 -11.5t28 -35.5l353 -737l334 737q10 24 29 35.5t47 11.5h210v-137h-136z" />
    <glyph glyph-name="yacute" unicode="&#xfd;" horiz-adv-x="1165" 
d="M820 1657l88 -128l-400 -256l-82 126zM1017 1084h163v-136h-100l-434 -1168q-14 -40 -29 -73.5t-30 -59.5q-14 -26 -31 -47.5t-35 -37.5t-39 -27.5t-43 -19.5q-22 -7 -53.5 -10.5t-59.5 -3.5t-68.5 11.5t-67.5 18.5q-26 7 -65 23.5t-62 30.5l45 118q19 -11 52 -25t52 -20
q19 -5 51 -15.5t50 -10.5q30 0 61.5 8t52.5 24t38.5 40.5t26.5 56.5l66 219l-419 968h-100v136h163q15 0 27.5 -3.5t21.5 -9.5t16 -16.5t11 -23.5l351 -879l312 879q4 13 11 23.5t16 16.5t21.5 9.5t27.5 3.5v0z" />
    <glyph glyph-name="Thorn" unicode="&#xde;" horiz-adv-x="1284" 
d="M672 397h-230v-397h-163v1467l-127 2v121h291l-1 -347h230q235 0 358 -111t123 -315q0 -205 -121 -312.5t-360 -107.5v0zM442 1109v-579h230q160 0 239.5 66t79.5 221q0 158 -79.5 225t-239.5 67h-230z" />
    <glyph glyph-name="thorn" unicode="&#xfe;" horiz-adv-x="1487" 
d="M412 204q63 -35 167.5 -59.5t182.5 -24.5q165 0 307 87t142 379q0 100 -23 183.5t-59 151.5q-37 67 -148.5 99t-199.5 32q-80 0 -187.5 -35.5t-181.5 -130.5v-682zM106 1457v120h218q32 0 47.5 -15t15.5 -46v-454q101 93 222 115t229 22q111 0 241.5 -52.5t181.5 -139.5
q50 -87 85 -198t35 -223q0 -121 -39.5 -232.5t-93.5 -196.5q-55 -85 -190.5 -135.5t-268.5 -50.5q-72 0 -186 17.5t-191 56.5v-519l-162 -3v1931z" />
    <glyph glyph-name="Zcaron" unicode="&#x17d;" horiz-adv-x="1231" 
d="M655 1802l230 201l121 -68l-308 -293h-86l-250 293l66 68zM1006 342h108v-279q0 -31 -15.5 -47t-47.5 -16h-934v98l815 1284h-651l-17 -229h-106v279q0 32 16 47.5t47 15.5h893v-98l-815 -1284h692z" />
    <glyph glyph-name="zcaron" unicode="&#x17e;" horiz-adv-x="1167" 
d="M612 1479l230 200l98 -67l-285 -293h-86l-250 293l66 67zM940 344h100v-281q0 -31 -15 -47t-46 -16h-852v106l696 953h-551l-16 -232h-100v281q0 32 16 47.5t47 15.5h793v-106l-697 -952h609z" />
    <glyph glyph-name="onehalf" unicode="&#xbd;" horiz-adv-x="1690" 
d="M1067 1628l-492 -1763h-126l491 1763h127zM414 1524v-793h-133v672l-183 -39l-10 94l221 66h105zM1298 707q-65 0 -104 -39t-39 -111h-125q0 123 70.5 186.5t195.5 63.5q129 0 199 -56.5t70 -166.5q0 -74 -45 -136.5t-125 -144.5l-203 -205h385v-98h-557v92l285 285
q36 37 61 63.5t40 50.5q15 23 21.5 45.5t6.5 47.5q0 51 -35 87t-101 36v0z" />
    <glyph glyph-name="onequarter" unicode="&#xbc;" horiz-adv-x="1690" 
d="M1087 1628l-491 -1763h-127l492 1763h126zM414 1524v-793h-133v672l-183 -39l-10 94l221 66h105zM1489 793v-535h92v-86h-92v-172h-133v172h-402v78l336 543h199zM1096 258h260v410z" />
    <glyph glyph-name="threequarters" unicode="&#xbe;" horiz-adv-x="1690" 
d="M1182 1628l-492 -1763h-127l492 1763h127zM283 1169h57q96 0 144 36t48 108q0 57 -37.5 92t-105.5 35q-65 0 -103 -41t-38 -111h-119q0 113 70.5 182.5t195.5 69.5t197 -57.5t72 -167.5q0 -60 -33 -108t-96 -72q71 -21 109 -72t38 -113q0 -112 -75 -172.5t-210 -60.5
t-206.5 67.5t-71.5 184.5h121q0 -70 38.5 -112t112.5 -42q76 0 118 35t42 98q0 73 -51.5 109.5t-155.5 36.5h-61v75zM1489 793v-535h92v-86h-92v-172h-133v172h-402v78l336 543h199zM1096 258h260v410z" />
    <glyph glyph-name="brokenbar" unicode="&#xa6;" horiz-adv-x="657" 
d="M414 1587v-672h-170v672h170zM414 453v-670h-170v670h170z" />
    <glyph glyph-name="multiply" unicode="&#xd7;" horiz-adv-x="1196" 
d="M872 1114l95 -92l-275 -274l275 -277l-95 -92l-274 276l-274 -276l-93 92l273 277l-273 274l93 92l274 -274z" />
    <glyph glyph-name="space" unicode=" " horiz-adv-x="594" 
 />
    <glyph glyph-name="exclam" unicode="!" horiz-adv-x="575" 
d="M381 1495l-43 -1135h-93l-33 1135h169zM395 90q0 -43 -31.5 -74.5t-76.5 -31.5q-43 0 -76 31.5t-33 74.5q0 45 33 78t76 33q45 0 76.5 -33t31.5 -78v0z" />
    <glyph glyph-name="quotedbl" unicode="&#x22;" horiz-adv-x="811" 
d="M673 1495l-107 -491h-133l107 491h133zM386 1495l-108 -491h-131l106 491h133z" />
    <glyph glyph-name="numbersign" unicode="#" horiz-adv-x="1632" 
d="M1094 1036h-463l-92 -510h465zM1376 1683l-98 -522h244l-20 -125h-247l-90 -510h247l-23 -125h-248l-92 -522h-164l96 522h-465l-94 -522h-162l94 522h-246l22 125h247l92 510h-249l21 125h251l96 522h162l-97 -522h465l94 522h164z" />
    <glyph glyph-name="dollar" unicode="$" horiz-adv-x="1116" 
d="M290 1148q0 -95 63.5 -154t154.5 -105v482q-104 -20 -161 -82.5t-57 -140.5v0zM646 125q104 19 164 91t60 166q0 101 -65.5 163.5t-158.5 110.5v-531zM646 -211h-138v197q-215 25 -315.5 149.5l-100.5 124.5l109 88l76.5 -98.5t230.5 -125.5v598q-138 64 -254 155
t-116 269q0 136 101 238t269 124v202h138v-197q105 -12 220.5 -68.5t115.5 -184.5v-105h-139v69q0 58 -56.5 99.5t-140.5 51.5v-549q139 -63 257.5 -156t118.5 -282q0 -145 -101 -263t-275 -139v-197z" />
    <glyph glyph-name="percent" unicode="%" horiz-adv-x="1850" 
d="M1615 1640l94 -76l-1431 -1689l-96 97zM215 933q-28 27 -49 59t-36 67q-16 36 -24 75t-8 79t8 79t24 76q15 35 36 67t49 59q27 27 58.5 48.5t67.5 36.5q36 16 75 23.5t79 7.5t79 -7.5t76 -23.5q35 -15 67 -36.5t59 -48.5t48.5 -59t36.5 -67q15 -37 23 -76t8 -79t-8 -79
t-23 -75q-15 -35 -36.5 -67t-48.5 -59t-59 -48.5t-67 -36.5q-37 -16 -76 -23.5t-79 -7.5t-79 7.5t-75 23.5q-36 15 -67.5 36.5t-58.5 48.5v0zM305 1404q-38 -38 -58.5 -87.5t-20.5 -103.5q0 -53 20.5 -102.5t58.5 -87.5t87.5 -58.5t102.5 -20.5q54 0 103.5 20.5t87.5 58.5
t58 87.5t20 102.5q0 54 -20 103.5t-58 87.5t-87.5 58.5t-103.5 20.5q-53 0 -102.5 -20.5t-87.5 -58.5v0zM1655 554q27 -27 48.5 -59t36.5 -67q15 -36 23 -75t8 -79t-8 -79t-23 -76q-15 -35 -36.5 -67t-48.5 -59q-28 -27 -59.5 -48.5t-67.5 -36.5t-75 -23t-79 -8t-79 8
t-76 23q-35 15 -67 36.5t-59 48.5t-48.5 59t-36.5 67q-15 37 -23 76t-8 79t8 79t23 75q15 35 36.5 67t48.5 59q27 28 59 49t67 36q37 16 76 24t79 8t79 -8t75 -24q36 -15 67.5 -36t59.5 -49v0zM1564 83q38 38 58.5 87.5t20.5 103.5q0 53 -20.5 102.5t-58.5 87.5t-87 58.5
t-103 20.5t-103.5 -20.5t-86.5 -58.5q-38 -38 -58.5 -87.5t-20.5 -102.5q0 -54 20.5 -103.5t58.5 -87.5q37 -38 86.5 -58t103.5 -20t103 20t87 58v0z" />
    <glyph glyph-name="ampersand" unicode="&#x26;" horiz-adv-x="1362" 
d="M708 989q30 22 52.5 61t29.5 77q4 22 3.5 51t-1.5 53q-2 24 -9.5 45.5t-18.5 40.5q-12 20 -31.5 36t-39.5 28q-20 13 -44 19.5t-51 6.5q-19 0 -37 -3.5t-35 -9.5t-32 -15t-29 -21q-13 -11 -24 -25.5t-19 -31.5q-8 -16 -12 -35t-4 -40q0 -17 4 -35.5t12 -38.5t18 -39.5
t21 -38.5q12 -19 24 -37t25 -35q13 -18 43 -56t40 -50q30 18 57.5 44t57.5 49v0zM918 283l-433 549q-30 -14 -56.5 -36.5t-51.5 -42.5q-25 -21 -44.5 -47t-37.5 -51q-19 -25 -31.5 -56.5t-23.5 -60.5t-16 -62t-5 -63q0 -38 10.5 -75t23.5 -67q12 -30 30.5 -55.5t39.5 -46.5
q22 -21 47.5 -37.5t54.5 -27.5q29 -12 61.5 -17.5t66.5 -5.5q58 0 109 14t95 41q45 28 85 65t76 82v0zM669 801l317 -404q19 34 32 69.5t18 72.5q5 38 11.5 69t11.5 73l112 -37q-7 -54 -13 -80t-17 -77q-10 -51 -29.5 -99t-46.5 -92l234 -296h-162l-139 185
q-47 -59 -97.5 -101t-104.5 -67q-53 -25 -116.5 -38t-134.5 -13q-47 0 -91 8.5t-85 24.5q-40 16 -76 39t-66 52q-31 30 -56.5 65.5t-42.5 76.5q-17 42 -30.5 91t-13.5 100q0 41 6.5 83.5t20.5 77.5q14 36 31 73t40 67q23 29 48 58t56 52q30 22 61.5 46.5t66.5 41.5
q-29 35 -43 56t-37 62q-24 42 -36 88t-12 96q0 36 6.5 68t19.5 60q13 27 30.5 50.5t38.5 42.5q22 19 48 33.5t55 23.5q29 10 60.5 14.5t63.5 4.5q33 0 63.5 -6t58.5 -17q27 -12 51 -27.5t44 -35.5t39.5 -43.5t30.5 -50.5t17.5 -55t6.5 -57q0 -38 -2 -77.5t-8 -69.5
q-7 -35 -20.5 -66.5t-32.5 -53.5q-19 -21 -42 -41t-48 -38q-26 -17 -47.5 -40.5t-49.5 -41.5v0z" />
    <glyph glyph-name="quotesingle" unicode="'" horiz-adv-x="479" 
d="M368 1495l-108 -491h-132l106 491h134z" />
    <glyph glyph-name="parenleft" unicode="(" horiz-adv-x="650" 
d="M258 748q0 -273 81 -471.5t222 -315.5v-113q-100 50 -185 131.5t-147 195.5q-63 114 -98 258.5t-35 314.5t35 300.5t98 244.5q62 114 147 195.5t185 128.5v-110q-141 -117 -222 -302t-81 -457v0z" />
    <glyph glyph-name="parenright" unicode=")" horiz-adv-x="600" 
d="M372 175q-63 -114 -148 -195.5t-185 -131.5v113q141 117 222 315.5t81 471.5q0 272 -81 469.5t-222 314.5v110q100 -47 185 -128.5t148 -195.5q62 -114 97 -257t35 -313t-35 -314.5t-97 -258.5v0z" />
    <glyph glyph-name="asterisk" unicode="*" horiz-adv-x="1102" 
d="M481 1575h142v-343l333 99l46 -136l-324 -103l185 -284l-118 -89l-189 296l-200 -296l-125 87l201 288l-325 90l40 144l334 -99v346z" />
    <glyph glyph-name="plus" unicode="+" horiz-adv-x="1196" 
d="M664 1165v-352h349v-131h-349v-354h-134v354h-349v131h349v352h134z" />
    <glyph glyph-name="comma" unicode="," horiz-adv-x="537" 
d="M279 209q10 0 22 -5t16 -5q28 -17 42 -41.5t14 -55.5v-14q-4 -39 -11.5 -78t-29.5 -80l-17 -30q-16 -27 -35.5 -53.5t-48.5 -55.5l-36 -37l-43 -35l-52 58l25 24q41 56 55.5 86.5t9.5 67.5l-2 29q-4 4 -6 12l-4 16q-1 4 -1.5 9t-0.5 10l-6 20q-2 8 -6 16.5t-4 24.5
q0 14 6 34.5t24 53.5l39 23l4 2q5 0 7.5 0.5t3.5 1.5z" />
    <glyph glyph-name="hyphen" unicode="-" horiz-adv-x="993" 
d="M856 713v-125h-721v125h721z" />
    <glyph glyph-name="period" unicode="." horiz-adv-x="537" 
d="M381 96q0 -45 -34 -78.5t-81 -33.5q-45 0 -77.5 32.5t-32.5 77.5q0 47 33.5 81t78.5 34t79 -34t34 -79v0z" />
    <glyph glyph-name="slash" unicode="/" horiz-adv-x="658" 
d="M638 1587l-491 -1804h-127l492 1804h126z" />
    <glyph glyph-name="zero" unicode="0" horiz-adv-x="1369" 
d="M700 -31q-250 0 -402.5 215.5t-152.5 575.5q0 364 152 564t400 200q244 0 385.5 -214.5t141.5 -578.5t-136 -563t-388 -199v0zM701 94q174 0 267.5 166t93.5 473q0 308 -97.5 487t-265.5 179q-174 0 -283 -167t-109 -474q0 -303 111 -483.5t283 -180.5v0z" />
    <glyph glyph-name="one" unicode="1" horiz-adv-x="951" 
d="M876 137v-137h-756v137h298v1195l-278 -99l-65 126l386 136h121v-1358h294z" />
    <glyph glyph-name="two" unicode="2" horiz-adv-x="1258" 
d="M385 136h611v136h136v-272h-912q-58 0 -70.5 55.5t53.5 121.5q29 29 280 290.5l251 261.5q31 32 56.5 60.5t45.5 53.5t37 49.5t30 48.5t22.5 48t14.5 47q6 24 8.5 46t2.5 51q0 55 -19 101t-57 83t-101.5 55.5t-136.5 18.5q-70 0 -130 -20.5t-102 -61.5
q-28 -27 -51.5 -63.5t-32.5 -79.5v-81h-152v113q3 50 40.5 108t80.5 97q60 56 149.5 84.5t199.5 28.5q111 0 204 -26t153 -78q59 -52 89 -125.5t30 -166.5q0 -31 -4.5 -57.5t-12.5 -55.5q-9 -29 -21.5 -58.5t-29.5 -58.5t-38 -59.5t-46 -60.5q-25 -31 -54.5 -64.5
t-63.5 -70.5z" />
    <glyph glyph-name="three" unicode="3" horiz-adv-x="1227" 
d="M1089 1377l-487 -523q127 4 284 -59t197 -275q5 -30 6 -59.5t1 -60.5q0 -52 -11 -98t-28 -86q-18 -40 -42 -74t-56 -61q-33 -27 -73 -48.5t-87 -35.5q-48 -14 -101 -21.5t-111 -7.5t-110 6.5t-95 24.5q-106 44 -172.5 119.5l-66.5 75.5l97 93l32 -43t69 -68
q62 -43 113 -64t131 -21q81 0 145 20.5t111 60.5q46 40 72.5 96.5t26.5 127.5q0 76 -19 149.5t-68 108.5q-49 36 -123.5 53.5t-173.5 17.5h-92l-32 129l467 504h-578v-136h-136v140q0 70 29.5 101.5t99.5 31.5h781v-118z" />
    <glyph glyph-name="four" unicode="4" horiz-adv-x="1249" 
d="M952 1495v-1030h181v-138h-181v-327h-164v327h-749v122l663 1046h250zM219 465h569v885z" />
    <glyph glyph-name="five" unicode="5" horiz-adv-x="1245" 
d="M915 1222v136h-509l-50 -520q74 23 141 34t126 11q125 0 220 -33t159 -94q63 -62 94.5 -147t31.5 -189q0 -211 -133 -323.5t-385 -112.5q-104 0 -187 33t-142 94q-60 60 -91.5 145t-31.5 191h145q0 -153 82 -245.5t242 -92.5q159 0 249.5 80.5t90.5 248.5q0 86 -30 148.5
t-82 103.5t-119 58t-149 17q-84 0 -153.5 -24.5t-153.5 -52.5l-75 57l69 750h777v-273h-136z" />
    <glyph glyph-name="six" unicode="6" horiz-adv-x="1288" 
d="M988 1100q-14 141 -82.5 208t-204.5 67q-182 0 -287 -137.5t-107 -453.5q90 71 187 111t200 40q101 0 183.5 -38.5t146.5 -94.5q63 -56 101 -159.5t38 -212.5q0 -213 -132 -336t-378 -123q-243 0 -374.5 189.5t-131.5 556.5q0 180 35 320.5t103 247.5q67 106 166.5 168.5
t230.5 62.5q215 0 328.5 -104.5t132.5 -278.5zM1008 432q0 160 -94.5 259.5t-231.5 99.5q-100 0 -194.5 -49.5t-182.5 -121.5q10 -244 100.5 -385t253.5 -141q162 0 255.5 90t93.5 248v0z" />
    <glyph glyph-name="seven" unicode="7" horiz-adv-x="1081" 
d="M379 0h-162l606 1358h-621v-103h-128v240h911v-121z" />
    <glyph glyph-name="eight" unicode="8" horiz-adv-x="1284" 
d="M973 1410q61 -50 95.5 -118.5t34.5 -156.5q0 -125 -57 -238t-213 -169q80 -30 122 -57.5t85 -71.5t65.5 -106.5t22.5 -135.5q0 -101 -37 -169.5t-102 -118.5q-66 -51 -157 -75.5t-198 -24.5q-106 0 -197 24.5t-159 74.5q-68 49 -105.5 120.5t-37.5 174.5q0 143 61 250.5
t193 175.5q-79 39 -152.5 124.5t-73.5 221.5q0 90 35 158.5t98 118.5q62 50 149 77t189 27q105 0 191 -28t148 -78v0zM412 934q41 -38 117.5 -76t156.5 -68q131 37 204 128.5t73 207.5q0 56 -31 103t-70 85t-96.5 57.5t-133.5 19.5q-149 0 -234 -70t-85 -199
q0 -61 29 -105.5t70 -82.5v0zM632 86q160 0 254 67.5t94 215.5q0 55 -23 98t-69 80t-148.5 86.5t-224.5 94.5q-129 -35 -176.5 -133.5t-47.5 -231.5t91 -205t250 -72v0z" />
    <glyph glyph-name="nine" unicode="9" horiz-adv-x="1282" 
d="M285 1061q0 -160 87 -245t222 -85q101 0 197 51.5t188 125.5q-4 248 -98.5 364.5t-257.5 116.5q-162 0 -250 -84.5t-88 -243.5v0zM1137 821q0 -405 -142.5 -616.5t-408.5 -220.5q-141 -5 -237.5 18.5t-196.5 106.5l72 131q126 -80 171 -96.5t195 -16.5q186 0 288.5 146.5
t108.5 476.5q-95 -74 -197 -109t-206 -35q-103 0 -187 34t-144 89t-95 140t-35 194q0 217 131 335t373 118q241 0 375.5 -177.5t134.5 -517.5v0z" />
    <glyph glyph-name="colon" unicode=":" horiz-adv-x="537" 
d="M381 997q0 -45 -34 -78.5t-81 -33.5q-45 0 -77.5 32.5t-32.5 77.5q0 47 33.5 81t78.5 34t79 -34t34 -79v0zM381 96q0 -45 -34 -78.5t-81 -33.5q-45 0 -77.5 32.5t-32.5 77.5q0 47 33.5 81t78.5 34t79 -34t34 -79v0z" />
    <glyph glyph-name="semicolon" unicode=";" horiz-adv-x="537" 
d="M381 997q0 -45 -34 -78.5t-81 -33.5q-45 0 -77.5 32.5t-32.5 77.5q0 47 33.5 81t78.5 34t79 -34t34 -79v0zM244 207h4l20 2q9 0 16 -1t13 -3l20 -6l4.5 -3t2.5 -1l10 -7l16 -18q21 -27 21 -40t2 -19v-23q-3 -32 -10.5 -66t-20.5 -69l-16 -33q-7 -13 -15 -26t-16 -25
l-64 -78q-24 -25 -44 -43t-35 -29l-52 58l25 24q22 31 43.5 72t21.5 82v14q-4 21 -16 50.5t-12 70.5v12q0 23 4 36.5t11 22.5t17.5 17t22.5 21q2 0 3 0.5t1 1.5l12 4q5 0 7.5 0.5t3.5 1.5v0z" />
    <glyph glyph-name="less" unicode="&#x3c;" horiz-adv-x="1196" 
d="M1001 1176v-148l-682 -283l682 -282v-148l-806 347v167z" />
    <glyph glyph-name="equal" unicode="=" horiz-adv-x="1196" 
d="M1001 1004v-133h-806v133h806zM1001 588v-133h-806v133h806z" />
    <glyph glyph-name="greater" unicode="&#x3e;" horiz-adv-x="1196" 
d="M195 463l682 282l-682 283v148l806 -347v-167l-806 -347v148z" />
    <glyph glyph-name="question" unicode="?" horiz-adv-x="936" 
d="M434 1401q-117 0 -185.5 -77t-68.5 -194h-141q0 89 27.5 161.5t80.5 123.5q52 51 126.5 80t166.5 29q95 0 169.5 -29t125.5 -80t78 -122.5t27 -157.5q0 -89 -32.5 -170t-98.5 -154l-109 -123q-65 -74 -98 -167t-33 -183h-119q0 78 14.5 151.5t43.5 131.5q28 57 68 110
t93 113q60 67 89.5 139.5t29.5 151.5q0 55 -17.5 103t-49.5 85q-33 37 -80 57.5t-107 20.5v0zM520 90q0 -43 -31.5 -74.5t-76.5 -31.5q-43 0 -76 31.5t-33 74.5q0 45 33 78t76 33q45 0 76.5 -33t31.5 -78v0z" />
    <glyph glyph-name="at" unicode="@" horiz-adv-x="2191" 
d="M1806 1382q107 -118 158 -275t51 -331q0 -106 -27.5 -205.5t-82.5 -176.5q-56 -77 -141 -123t-199 -46q-106 0 -157.5 45t-83.5 143q-56 -84 -149.5 -121.5t-189.5 -37.5q-80 0 -138.5 35t-97.5 94q-40 59 -59.5 139t-19.5 170q0 99 21.5 190t67.5 162q46 70 119.5 113
t176.5 43q59 0 122.5 -17.5t129.5 -56.5l-1 92l126 -16l-29 -561q-2 -10 -2 -20.5v-20.5q0 -131 49 -197.5t141 -66.5q68 0 119 31.5t86 89.5q35 57 53.5 139t18.5 180q0 148 -44 282t-134 235q-91 100 -232 159t-334 59q-190 0 -338.5 -62.5t-251.5 -173.5
q-104 -112 -157 -264.5t-53 -332.5q0 -166 47 -302t139 -233q92 -98 228 -152t315 -54q164 0 256 27t205 115l78 -103q-127 -94 -240 -129t-305 -35q-224 0 -388.5 68.5t-271.5 186.5q-108 117 -160.5 273t-52.5 332q0 196 60.5 371.5t181.5 307.5t300 208.5t417 76.5
q231 0 398 -68.5t275 -185.5v0zM1282 1020q-47 27 -100.5 48t-106.5 21q-133 0 -196 -100t-63 -301q0 -67 12 -126.5t38 -103.5q25 -44 67 -68.5t103 -24.5t115.5 32.5t103.5 96.5z" />
    <glyph glyph-name="A" unicode="A" horiz-adv-x="1297" 
d="M898 586l-247 755h-11l-247 -755h505zM218 53q-9 -26 -27 -39.5t-46 -13.5h-164v137h102l453 1358h217l455 -1359h98v-136h-160q-28 0 -46.5 13.5t-27.5 39.5l-133 406h-587z" />
    <glyph glyph-name="B" unicode="B" horiz-adv-x="1298" 
d="M119 1495h546q223 0 346 -105.5t123 -285.5q0 -131 -67.5 -221t-190.5 -115q154 -20 239 -117.5t85 -240.5q0 -205 -115.5 -307.5t-347.5 -102.5h-482v1358h-136v137zM421 842h275q140 0 208 60t68 202q0 129 -81 191.5t-236 62.5h-234v-516zM421 697v-560h312
q153 0 229 62.5t76 210.5q0 141 -88 214t-254 73h-275z" />
    <glyph glyph-name="C" unicode="C" horiz-adv-x="1400" 
d="M40 752q0 324 213 544.5t529 220.5q159 0 348 -74t231 -244l-137 -38q-46 123 -177.5 169t-260.5 46q-249 0 -419.5 -176.5t-170.5 -447.5q0 -268 170.5 -458t426.5 -190q231 0 348 92.5l117 92.5l112 -82l-151 -122t-428 -122q-329 0 -540 231t-211 558v0z" />
    <glyph glyph-name="D" unicode="D" horiz-adv-x="1436" 
d="M70 1358v137h654q307 0 474.5 -190.5t167.5 -556.5q0 -367 -167.5 -558.5t-474.5 -189.5l-518 3v1355h-136zM732 1358h-362v-1227h362q223 0 351.5 153.5t128.5 463.5q0 309 -128.5 459.5t-351.5 150.5v0z" />
    <glyph glyph-name="E" unicode="E" horiz-adv-x="1232" 
d="M109 1358v137h912q31 0 46 -15.5t15 -47.5v-210h-115v136h-559v-531h582v-137h-582v-553h559v135h136v-209q0 -31 -16 -47t-48 -16h-794v1358h-136z" />
    <glyph glyph-name="F" unicode="F" horiz-adv-x="1198" 
d="M440 690v-690h-163v1358h-136v137h877q32 0 47.5 -15.5t15.5 -47.5v-230h-126v156h-515v-531h547v-137h-547z" />
    <glyph glyph-name="G" unicode="G" horiz-adv-x="1425" 
d="M31 758q0 322 216.5 547.5t533.5 225.5q260 0 393 -91.5l133 -91.5l-88 -112l-117.5 77t-318.5 77q-252 0 -424 -181.5t-172 -450.5q0 -276 175.5 -457.5t428.5 -181.5q169 0 306 89t157 138q2 5 2 20v15v144q0 24 -12.5 35.5t-34.5 11.5h-206v132h263q69 0 100 -31
t31 -99v-229q0 -109 -190 -238t-418 -129q-306 0 -532 221.5t-226 558.5v0z" />
    <glyph glyph-name="H" unicode="H" horiz-adv-x="1587" 
d="M1339 1358l-1 -1358l-163 1v689h-765v-690h-164v1358h-126v137h227q32 0 47.5 -15.5t15.5 -47.5v-605h765v605q0 32 16 47.5t47 15.5h228v-137h-127z" />
    <glyph glyph-name="I" unicode="I" horiz-adv-x="717" 
d="M576 137v-137h-436v137h136v1221h-136v137h436v-137h-136v-1221h136z" />
    <glyph glyph-name="J" unicode="J" horiz-adv-x="1100" 
d="M943 1495q34 0 51 -15.5t17 -47.5v-985q0 -223 -125 -335t-327 -112q-199 0 -340.5 112t-141.5 335v61h147v-55q0 -164 104 -242.5t229 -78.5q122 0 210.5 64.5t88.5 256.5v905h-383v137h470z" />
    <glyph glyph-name="K" unicode="K" horiz-adv-x="1365" 
d="M1316 137v-137h-189q-23 0 -47.5 15t-39.5 35l-414 635h-186v-685h-168v1358h-136v137h235q32 0 50.5 -18.5t18.5 -50.5v-598h194l495 667h179l-536 -741l399 -617h145z" />
    <glyph glyph-name="L" unicode="L" horiz-adv-x="1053" 
d="M444 1495v-1359h466l-2 136h124v-209q0 -31 -15.5 -47t-47.5 -16h-693v1358h-136v137h304z" />
    <glyph glyph-name="M" unicode="M" horiz-adv-x="1971" 
d="M1862 136v-136h-230q-30 0 -46.5 15t-18.5 44l-78 1213l-414 -1061h-153l-392 1061l-75 -1213q-2 -29 -18.5 -44t-47.5 -15h-230v136h136l74 1359h186q26 0 44.5 -12.5t27.5 -38.5l370 -1036l396 1036q9 26 27 38.5t44 12.5l177 -1l85 -1358h136z" />
    <glyph glyph-name="N" unicode="N" horiz-adv-x="1624" 
d="M1368 1358v-1358h-135q-26 0 -45 10.5t-31 30.5l-717 1194v-1172q0 -31 -15.5 -47t-47.5 -16h-236v137h136v1360h135q22 -2 42.5 -12t32.5 -31l717 -1196v1174q0 32 15.5 47.5t46.5 15.5h238v-137h-136z" />
    <glyph glyph-name="O" unicode="O" horiz-adv-x="1633" 
d="M51 772q0 323 223 538.5t542 215.5q318 0 542 -215.5t224 -538.5q0 -328 -224 -550t-542 -222q-319 0 -542 222t-223 550v0zM207 772q0 -271 178.5 -451t430.5 -180q251 0 430.5 180t179.5 451q0 265 -179.5 439t-430.5 174q-252 0 -430.5 -174t-178.5 -439v0z" />
    <glyph glyph-name="P" unicode="P" horiz-adv-x="1312" 
d="M409 572v-572h-163v1358h-136v137h609q236 0 357.5 -111t121.5 -341q0 -229 -119.5 -350t-359.5 -121h-310zM719 1358h-309v-653h309q160 0 240 84.5t80 257.5t-80 242t-240 69v0z" />
    <glyph glyph-name="Q" unicode="Q" horiz-adv-x="1678" 
d="M1610 754q0 -143 -46.5 -272t-127.5 -231l174 -173l-111 -111l-172 173q-98 -81 -222 -127t-261 -46q-319 0 -542.5 229.5t-223.5 557.5q0 323 223.5 545.5t542.5 222.5q318 0 542 -222.5t224 -545.5v0zM844 108q106 0 203 36.5t174 100.5l-220 220l111 111l216 -217
q59 81 92.5 182t33.5 213q0 265 -179.5 446t-430.5 181q-252 0 -431 -181t-179 -446q0 -271 179 -458.5t431 -187.5v0z" />
    <glyph glyph-name="R" unicode="R" horiz-adv-x="1409" 
d="M400 1358v-611h296q160 0 239.5 75t79.5 231q0 159 -79.5 232t-239.5 73h-296zM620 616h-220v-616h-164v1358h-136v137h596q235 0 357 -113.5t122 -328.5q0 -163 -74.5 -267.5t-189.5 -142.5q50 -23 79 -61.5t52 -92.5l160 -352h136l1 -137h-207q-27 0 -45.5 12t-28.5 35
l-178 420q-20 47 -41.5 75.5t-50.5 45.5q-29 16 -69.5 22t-98.5 6v0z" />
    <glyph glyph-name="S" unicode="S" horiz-adv-x="1185" 
d="M1068 1164h-132q-1 42 -10 86.5t-52 76.5q-42 20 -58 27t-53 17q-45 11 -90.5 16.5t-83.5 5.5q-70 0 -126 -19t-95 -52q-39 -34 -55.5 -73.5t-16.5 -96.5q0 -38 11.5 -70.5t27.5 -58.5t40.5 -50t51.5 -44q25 -20 58 -38.5t67 -33.5t70.5 -30.5t72.5 -30.5
q34 -15 68.5 -32t68.5 -35t72 -39t65 -45q25 -24 52.5 -52.5t43.5 -62.5q16 -33 24 -74t8 -88t-13 -88.5t-30 -78.5q-17 -36 -56 -67.5t-69 -56.5q-31 -25 -67 -45t-78 -33q-43 -13 -108 -20t-114 -7q-102 0 -179.5 30.5t-139.5 83.5q-63 54 -103 113.5t-72 132.5l138 78
q24 -64 60.5 -115t79.5 -92q42 -40 95 -65t119 -25q73 0 143.5 16.5t117.5 45.5q46 28 86.5 76.5t40.5 112.5q0 46 -19.5 89t-46.5 71q-28 28 -78.5 51.5t-91.5 45.5q-42 22 -89.5 43t-96.5 40q-49 20 -97.5 44.5t-89.5 52.5q-42 28 -80 63t-65 77q-28 42 -45 96t-17 119
q0 44 8.5 83t26.5 74q17 34 41 63t55 53q30 23 66 41t78 31q41 12 85.5 18t94.5 6q48 0 104 -4.5t108 -16.5q41 -10 106.5 -34t103.5 -62q57 -51 58 -147.5l1 -96.5v0z" />
    <glyph glyph-name="T" unicode="T" horiz-adv-x="1143" 
d="M39 1432q0 32 16 47.5t47 15.5h938q32 0 48 -15.5t16 -47.5v-210h-136v136h-314v-1358h-166v1358h-313v-136h-136v210z" />
    <glyph glyph-name="U" unicode="U" horiz-adv-x="1494" 
d="M1279 1358v-784q0 -160 -37.5 -269.5t-107.5 -176.5q-70 -68 -169 -98t-220 -30q-117 0 -214 29t-168 97q-71 67 -109.5 176.5t-38.5 271.5v784h-136v137h232q34 0 50.5 -15.5t16.5 -47.5v-852q0 -225 92 -329.5t275 -104.5q186 0 278.5 104.5t92.5 329.5v852
q0 32 17 47.5t50 15.5h232v-137h-136z" />
    <glyph glyph-name="V" unicode="V" horiz-adv-x="1436" 
d="M1115 1442q8 27 25.5 40t44.5 13h212v-137h-136l-437 -1358h-213l-436 1358h-136v137h214q27 0 44.5 -13t25.5 -40l391 -1276h8z" />
    <glyph glyph-name="W" unicode="W" horiz-adv-x="2005" 
d="M1682 1442q6 27 24 40t48 13h212v-137h-136l-299 -1358h-205l-324 1358l-323 -1358h-205l-299 1358h-136v137h214q29 0 46.5 -13t23.5 -40l251 -1264h11l307 1264q6 27 23.5 40t45.5 13h82q29 0 46.5 -13t23.5 -40l309 -1264h8z" />
    <glyph glyph-name="X" unicode="X" horiz-adv-x="1378" 
d="M1026 1452q14 22 32.5 32.5t41.5 10.5h194v-137h-139l-369 -584l485 -774h-179l-396 640l-393 -640h-189l478 776l-369 582h-136v137h204q24 0 43 -10.5t33 -32.5l331 -537z" />
    <glyph glyph-name="Y" unicode="Y" horiz-adv-x="1339" 
d="M763 537l1 -537h-167v530l-422 828h-136v137h212q29 0 48 -11.5t28 -35.5l353 -737l334 737q10 24 29 35.5t47 11.5h210v-137h-136z" />
    <glyph glyph-name="Z" unicode="Z" horiz-adv-x="1113" 
d="M919 272h136v-209q0 -31 -15.5 -47t-47.5 -16h-918v109l788 1249h-627v-136h-136v210q0 32 16 47.5t47 15.5h883v-116l-773 -1243h647v136z" />
    <glyph glyph-name="bracketleft" unicode="[" horiz-adv-x="713" 
d="M655 1629v-164h-247v-1429h247v-164h-411v1757h411z" />
    <glyph glyph-name="backslash" unicode="\" horiz-adv-x="743" 
d="M207 1587l491 -1758h-161l-492 1758h162z" />
    <glyph glyph-name="bracketright" unicode="]" horiz-adv-x="713" 
d="M305 29v1435h-248v164h412v-1763h-412v164h248z" />
    <glyph glyph-name="asciicircum" unicode="^" horiz-adv-x="1196" 
d="M691 1266l305 -619h-156l-242 502l-242 -502h-155l303 619h187z" />
    <glyph glyph-name="underscore" unicode="_" horiz-adv-x="1174" 
d="M1036 0v-127h-901v127h901z" />
    <glyph glyph-name="grave" unicode="`" horiz-adv-x="643" 
d="M513 1322h-147l-240 254h201z" />
    <glyph glyph-name="a" unicode="a" horiz-adv-x="1232" 
d="M844 479l6 78h-119q-239 0 -362 -59t-123 -165q0 -95 53 -158.5t195 -63.5q174 0 260.5 143.5t89.5 224.5v0zM1089 136h88v-136h-139q-49 0 -82 14.5t-57 42.5q-25 29 -29.5 56t-4.5 84l-95 -114t-283 -114q-149 0 -270.5 72.5t-121.5 285.5q0 204 160 286t488 77h106
q1 54 -12.5 171.5t-239.5 116.5q-128 -1 -201 -19t-73 -79v-54h-147v96q0 45 71 113t320 80q107 0 201.5 -25.5t141.5 -76.5q46 -51 66 -107t20 -160v-500q0 -50 31 -80t62 -30v0z" />
    <glyph glyph-name="b" unicode="b" horiz-adv-x="1320" 
d="M721 1111q232 0 375 -147t143 -425q0 -256 -139.5 -400.5t-375.5 -144.5q-100 0 -208 33t-190 103v-130h-147v422q-1 14 -1.5 28.5t-0.5 28.5v879h-127v137h224q43 0 47.5 -22t4.5 -52v-494q80 92 182.5 138t212.5 46v0zM716 136q170 0 266 84t107 306q0 229 -95.5 334.5
t-284.5 105.5q-97 1 -240.5 -95.5t-142.5 -228.5v-172q0 -193 127 -263.5t263 -70.5v0z" />
    <glyph glyph-name="c" unicode="c" horiz-adv-x="1231" 
d="M281 141q-82 80 -124 182.5t-42 226.5q0 125 41.5 227.5t123.5 180.5t184 117.5t222 39.5q103 0 182.5 -22t134.5 -66q54 -45 83 -68.5l29 -23.5l-87 -119l-20.5 18t-66.5 57q-45 38 -105.5 60.5t-142.5 22.5q-86 0 -161 -29.5t-138 -86.5q-63 -58 -90.5 -133.5
t-27.5 -174.5q0 -98 26.5 -170t87.5 -133q62 -60 133.5 -89.5t158.5 -29.5q34 0 73.5 7t83.5 22q45 14 75 37t46 58l22 51l122 -56l-12 -36q-26 -65 -71.5 -110.5t-110.5 -70.5t-120.5 -37.5t-101.5 -12.5q-120 0 -222.5 40.5t-184.5 120.5v0z" />
    <glyph glyph-name="d" unicode="d" horiz-adv-x="1335" 
d="M968 883q-62 35 -159.5 68.5t-175.5 33.5q-166 1 -284.5 -109t-118.5 -355q0 -203 115.5 -301t290.5 -98q90 0 179.5 70t150.5 163zM845 1358v137h218q35 0 48 -15.5t13 -48.5v-1183q0 -56 22 -84t66 -28h105v-136h-158q-88 0 -126.5 40.5t-47.5 132.5
q-68 -92 -157.5 -137.5t-190.5 -45.5q-275 0 -415 142.5t-142 399.5q-2 230 129 406.5t408 176.5q76 0 177 -19t174 -57v319h-123z" />
    <glyph glyph-name="e" unicode="e" horiz-adv-x="1200" 
d="M1122 616v-117h-895q11 -102 27.5 -150t60.5 -104q46 -58 145 -99t189 -39q85 2 183.5 44.5t164.5 78.5l62 -137q-103 -49 -215 -86t-193 -37q-156 0 -278 50.5t-182 129.5q-64 85 -97.5 189t-35.5 210q8 260 157 419.5t420 159.5q220 0 353.5 -133t133.5 -379v0z
M634 991q-155 0 -268.5 -95t-129.5 -266h737q0 186 -92.5 273.5t-246.5 87.5v0z" />
    <glyph glyph-name="f" unicode="f" horiz-adv-x="816" 
d="M446 948v-948h-166l-1 948h-201v136h201q10 215 95.5 313t288.5 98h75v-137h-79q-109 0 -156.5 -59t-56.5 -215h257v-136h-257z" />
    <glyph glyph-name="g" unicode="g" horiz-adv-x="1268" 
d="M951 494q1 149 -8 215.5t-40 119.5q-32 57 -120.5 100.5t-198.5 42.5q-162 -1 -259.5 -115.5t-97.5 -282.5q0 -201 107.5 -309t247.5 -113q107 -4 237.5 63.5t131.5 278.5v0zM878 -427q-77 -27 -194.5 -44t-262.5 6q-56 9 -141 35.5t-126 42.5l52 139q19 -6 105 -35.5
t133 -38.5q112 -21 195 -11t139 28q63 24 115.5 60.5t68.5 83.5v302q-14 -10 -34.5 -27.5t-36.5 -27.5q-46 -30 -136 -58t-171 -28q-60 0 -157.5 28t-222.5 140q-64 70 -101 143.5t-37 260.5q0 215 138 378t385 163q105 0 208.5 -44t158.5 -96v76q0 15 11.5 25t29.5 10h214
v-136h-70q-28 0 -35.5 -20t-7.5 -49v-1092q-4 -19 -11.5 -37t-17.5 -35q-29 -46 -74 -81.5t-117 -60.5v0z" />
    <glyph glyph-name="h" unicode="h" horiz-adv-x="1378" 
d="M1161 0q-91 0 -136.5 58t-45.5 174v525q0 129 -60.5 167t-172.5 38q-96 0 -183 -49t-180 -125v-788h-155v1358h-143v137h210q32 0 60 -15t28 -46v-468q107 85 195 117t198 32q179 0 269 -86.5t90 -272.5v-513q0 -56 22 -81.5t66 -25.5h105v-136h-167z" />
    <glyph glyph-name="i" unicode="i" horiz-adv-x="632" 
d="M402 1388q0 -41 -30.5 -71.5t-73.5 -30.5q-41 0 -73 30.5t-32 71.5q0 43 32 75t73 32q43 0 73.5 -32t30.5 -75v0zM321 1084q31 0 46.5 -15.5t15.5 -47.5v-785q0 -56 22.5 -78t67.5 -22h104v-136h-187q-91 0 -129 50t-38 166v732h-123v136h221z" />
    <glyph glyph-name="j" unicode="j" horiz-adv-x="621" 
d="M476 1388q0 -41 -30.5 -71.5t-73.5 -30.5q-41 0 -73 30.5t-32 71.5q0 43 32 75t73 32q43 0 73.5 -32t30.5 -75v0zM400 1084q31 0 45.5 -15.5t14.5 -47.5v-1084q0 -121 -7.5 -194.5t-54.5 -126.5q-56 -44 -112 -53.5t-168 -9.5h-162v137h162q67 0 103.5 6.5t62.5 40.5
q25 34 28 76t3 128v1007h-158v136h243z" />
    <glyph glyph-name="k" unicode="k" horiz-adv-x="1193" 
d="M675 534l294 -345q22 -32 46.5 -41.5t51.5 -11.5h91v-136h-138q-54 0 -98.5 29t-73.5 72l-311 369h-115v-470h-162v1358h-143v137h241q32 0 48 -16t16 -48v-815h120l433 468h179z" />
    <glyph glyph-name="l" unicode="l" horiz-adv-x="639" 
d="M325 1495q31 0 46 -16t15 -48v-1184q0 -56 22 -83.5t66 -27.5h105v-136h-158q-98 0 -145 58t-47 174v1126h-123v137h219z" />
    <glyph glyph-name="m" unicode="m" horiz-adv-x="2139" 
d="M1212 0h-162v747q0 129 -80.5 180t-193.5 51q-85 0 -180 -58t-166 -148v-772h-162v948h-143v136h217q32 0 51 -15t19 -46v-80q97 85 185.5 127.5t194.5 42.5q108 0 208.5 -39.5t136.5 -118.5q98 79 198.5 118.5t192.5 39.5q188 0 280.5 -90t92.5 -276v-508
q0 -56 22 -79.5t66 -23.5h105v-138h-158q-98 0 -147.5 44.5t-49.5 160.5v544q0 129 -58 181.5t-171 52.5q-82 0 -174 -52.5t-124 -108.5v-820z" />
    <glyph glyph-name="n" unicode="n" horiz-adv-x="1410" 
d="M1226 0q-98 0 -147.5 58t-49.5 174v515q0 129 -71 179t-184 50q-96 0 -213.5 -77.5t-170.5 -126.5v-772h-161v948h-144v136h217q32 0 49 -15t17 -46v-88q109 85 206.5 131.5t205.5 46.5q178 0 294.5 -90t116.5 -276v-499q0 -56 22 -84t66 -28h86v-136h-139z" />
    <glyph glyph-name="o" unicode="o" horiz-adv-x="1357" 
d="M679 1115q234 0 400.5 -167t166.5 -401q0 -233 -166.5 -400t-400.5 -167t-401 167t-167 400q0 234 167 401t401 167v0zM976 252q64 64 94.5 136t30.5 160q0 87 -30.5 160.5t-94.5 137.5t-137 95t-160 31t-161 -32t-138 -96t-94 -136.5t-30 -159.5q0 -88 30.5 -160
t94.5 -136t137.5 -96t160.5 -32t160 32t137 96v0z" />
    <glyph glyph-name="p" unicode="p" horiz-adv-x="1469" 
d="M397 253q63 -35 182.5 -70t197.5 -35q165 0 276 93.5t112 330.5q-1 212 -91.5 306.5t-292.5 94.5q-113 0 -213 -72.5t-171 -166.5v-481zM90 948v136h213q32 0 50 -12.5t18 -65.5v-93q81 99 185 150.5t228 51.5q287 0 413.5 -150.5t126.5 -391.5q0 -243 -140 -408
t-405 -165q-72 0 -189 26.5t-194 65.5v-582h-162v1438h-144z" />
    <glyph glyph-name="q" unicode="q" horiz-adv-x="1373" 
d="M990 153q-75 -85 -191.5 -119t-225.5 -34q-115 0 -229.5 54.5t-165.5 142.5t-75.5 162t-24.5 185q0 247 134.5 409.5t401.5 162.5q127 0 242.5 -44.5t166.5 -158.5l2 100q1 44 31.5 57.5t69.5 13.5h166v-136h-144l1 -1425h-159v630zM990 345v328q0 138 -118.5 223.5
t-259.5 76.5q-165 -11 -269.5 -106.5t-104.5 -322.5q0 -97 17 -146.5t54 -117.5q37 -69 118.5 -102.5t173.5 -33.5q87 0 195 41t194 160v0z" />
    <glyph glyph-name="r" unicode="r" horiz-adv-x="932" 
d="M552 1008q55 46 141.5 73.5t166.5 31.5h47v-147h-17q-93 4 -194.5 -55t-157.5 -122q-56 -64 -91.5 -145t-35.5 -188v-456h-152v948h-144v136h207q32 0 48 -15.5t16 -47.5v-216q26 70 68 113.5t98 89.5v0z" />
    <glyph glyph-name="s" unicode="s" horiz-adv-x="993" 
d="M759 519q69 -42 116 -105t45 -152q-2 -75 -31 -120.5t-83 -87.5q-55 -42 -116.5 -63t-151.5 -21t-163.5 22t-128.5 65q-56 43 -92.5 109t-56.5 138l142 46q17 -61 44 -107.5t63 -77.5q35 -30 80 -45.5t99 -15.5q60 0 109 8t82 33q60 49 63.5 107t-45.5 107
q-22 23 -65.5 46t-103.5 50q-44 15 -97.5 34.5t-101.5 43.5q-70 41 -112 64.5t-82 79.5q-58 78 -43.5 182t105.5 173q54 42 126 62.5t162 20.5t166.5 -21.5t132.5 -64.5q55 -43 63.5 -80.5t13.5 -117.5h-139q-1 40 -1 47t-28 48q-36 30 -86.5 44t-104.5 14
q-60 0 -109.5 -11.5t-81.5 -36.5q-62 -49 -70.5 -99.5t40.5 -99.5q30 -31 65.5 -55.5t80.5 -42.5h1q3 -2 1.5 2t1.5 3q70 -31 148 -58t143 -67v0z" />
    <glyph glyph-name="t" unicode="t" horiz-adv-x="723" 
d="M258 948h-178v136h178v414h162v-414h223v-136h-223v-698q0 -55 22.5 -82.5t67.5 -27.5h133v-140h-194q-99 0 -145 56.5t-46 179.5v712z" />
    <glyph glyph-name="u" unicode="u" horiz-adv-x="1448" 
d="M1052 1084h167v-836q0 -28 6 -49t17 -35q12 -14 29.5 -21t40.5 -7h71v-136h-126q-87 0 -129 35t-42 105v91q-17 -106 -72.5 -148.5t-99.5 -65.5q-47 -24 -114 -35.5t-117 -11.5q-99 0 -150 16.5t-125 59.5q-75 44 -119.5 120t-44.5 171v611h-148v136h244q17 0 30.5 -3.5
t22.5 -11.5t13.5 -20t4.5 -28v-663q0 -76 20.5 -122t68.5 -72t81.5 -39.5t99.5 -14.5q52 -1 117.5 16t127.5 59q63 42 94.5 166.5t31.5 234.5v498z" />
    <glyph glyph-name="v" unicode="v" horiz-adv-x="1195" 
d="M996 1084h160v-136h-99l-349 -948h-179l-393 948h-97v136h161q14 0 26.5 -3t21.5 -10q9 -6 16 -16t12 -24l341 -859l303 859q5 14 11.5 24t16.5 16q9 7 21 10t27 3v0z" />
    <glyph glyph-name="w" unicode="w" horiz-adv-x="1679" 
d="M1479 1084h161v-136h-100l-286 -948h-180l-236 892l-231 -892h-182l-288 948h-98v136h162q14 0 26 -3.5t22 -9.5q9 -7 16 -17t12 -23l246 -859l242 912h149l242 -912l247 859q4 13 10.5 23t16.5 17q9 6 21.5 9.5t27.5 3.5v0z" />
    <glyph glyph-name="x" unicode="x" horiz-adv-x="1126" 
d="M660 551l427 -551h-179l-343 424l-316 -424h-189l410 551l-331 397h-100v136h145q12 0 24 -2.5t22 -8.5q9 -5 18 -13t16 -19l303 -374l285 374q8 10 16 18.5t18 13.5q9 6 21 8.5t25 2.5h146v-136h-100z" />
    <glyph glyph-name="y" unicode="y" horiz-adv-x="1219" 
d="M1017 1084h163v-136h-100l-434 -1168q-14 -40 -29 -73.5t-30 -59.5q-14 -26 -31 -47.5t-35 -37.5t-39 -27.5t-43 -19.5q-22 -7 -53.5 -10.5t-59.5 -3.5t-68.5 11.5t-67.5 18.5q-26 7 -65 23.5t-62 30.5l45 118q19 -11 52 -25t52 -20q19 -5 51 -15.5t50 -10.5q30 0 61.5 8
t52.5 24t38.5 40.5t26.5 56.5l66 219l-419 968h-100v136h163q15 0 27.5 -3.5t21.5 -9.5t16 -16.5t11 -23.5l351 -879l312 879q4 13 11 23.5t16 16.5t21.5 9.5t27.5 3.5v0z" />
    <glyph glyph-name="z" unicode="z" horiz-adv-x="1167" 
d="M904 272h136v-209q0 -31 -15 -47t-46 -16h-856v112l696 836h-528v-136h-136v209q0 31 16.5 47t47.5 16h797v-114l-691 -834h579v136z" />
    <glyph glyph-name="braceleft" unicode="{" horiz-adv-x="715" 
d="M655 1495q-128 0 -192 -66.5t-64 -226.5l17 -309q0 -62 -31 -100.5t-80 -42.5v-5q49 -4 80 -42.5t31 -100.5l-17 -309q0 -160 64 -226.5t192 -66.5v-139q-212 0 -318 104t-106 311l17 312q0 55 -46 80.5t-106 25.5v107q60 0 106 25.5t46 80.5q-1 17 -2 36.5t-2 41.5
l-5 97.5t-8 136.5q0 208 106 311.5t318 103.5v-139z" />
    <glyph glyph-name="bar" unicode="|" horiz-adv-x="657" 
d="M414 1587v-1804h-170v1804h170z" />
    <glyph glyph-name="braceright" unicode="}" horiz-adv-x="715" 
d="M59 0q128 0 192 66.5t64 226.5l-16 309q0 62 30.5 100.5t80.5 42.5v5q-50 4 -80.5 42.5t-30.5 100.5l16 309q0 160 -64 226.5t-192 66.5v139q212 0 318 -103.5t106 -311.5l-16 -312q0 -55 46 -80.5t105 -25.5v-107q-59 0 -105 -25.5t-46 -80.5q1 -16 2 -35.5t2 -42.5
l5 -97.5l7 -136.5q0 -207 -106 -311t-318 -104v139z" />
    <glyph glyph-name="asciitilde" unicode="~" horiz-adv-x="1196" 
d="M195 543q0 146 63 204t162 58q160 0 224 -75.5t130 -75.5q79 0 98.5 54t19.5 103h113q0 -146 -66.5 -203.5t-165.5 -57.5q-123 0 -191.5 76t-151.5 76t-100.5 -55t-17.5 -104h-117z" />
    <glyph glyph-name="Adieresis" unicode="&#xc4;" horiz-adv-x="1317" 
d="M868 1688q-20 0 -37.5 8t-33.5 23q-15 15 -23 33t-8 38q0 41 31 72t71 31q41 0 72 -31t31 -72t-31 -71.5t-72 -30.5v0zM449 1688q-20 0 -38 8t-34 23q-15 15 -23 33t-8 38q0 41 31 72t72 31t71.5 -31t30.5 -72t-30.5 -71.5t-71.5 -30.5v0zM898 586l-247 755h-11
l-247 -755h505zM218 53q-9 -26 -27 -39.5t-46 -13.5h-164v137h102l453 1358h217l455 -1359h98v-136h-160q-28 0 -46.5 13.5t-27.5 39.5l-133 406h-587z" />
    <glyph glyph-name="Aring" unicode="&#xc5;" horiz-adv-x="1317" 
d="M659 1590q-104 0 -166.5 62.5t-62.5 160.5t58.5 157.5t162.5 59.5q107 0 171.5 -63.5t64.5 -161.5q0 -99 -60.5 -157t-167.5 -58v0zM657 1682q51 0 79 34.5t28 90.5q0 55 -31 92t-80 37t-76.5 -35t-27.5 -90q0 -53 29.5 -91t78.5 -38v0zM898 586l-247 755h-11l-247 -755
h505zM218 53q-9 -26 -27 -39.5t-46 -13.5h-164v137h102l453 1358h217l455 -1359h98v-136h-160q-28 0 -46.5 13.5t-27.5 39.5l-133 406h-587z" />
    <glyph glyph-name="Ccedilla" unicode="&#xc7;" 
d="M658 -494q-92 0 -144 53.5t-52 141.5h106q0 -41 22.5 -69.5t69.5 -28.5t76 28.5t29 75.5q0 41 -27 67t-82 38l-100 20l36 156q-248 66 -400 277.5t-152 486.5q0 324 213 544.5t529 220.5q159 0 348 -74t231 -244l-137 -38q-46 123 -177.5 169t-260.5 46
q-249 0 -419.5 -176.5t-170.5 -447.5q0 -268 170.5 -458t426.5 -190q231 0 348 92.5l117 92.5l112 -82l-151 -122t-428 -122q-36 0 -70.5 3t-67.5 9l-19 -92q112 -18 172.5 -57t60.5 -129q0 -88 -58.5 -139.5t-150.5 -51.5v0z" />
    <glyph glyph-name="Eacute" unicode="&#xc9;" horiz-adv-x="1284" 
d="M880 1981l88 -128l-400 -256l-82 126zM109 1358v137h912q31 0 46 -15.5t15 -47.5v-210h-115v136h-559v-531h582v-137h-582v-553h559v135h136v-209q0 -31 -16 -47t-48 -16h-794v1358h-136z" />
    <glyph glyph-name="Ntilde" unicode="&#xd1;" horiz-adv-x="1624" 
d="M1145 1903q-25 -97 -69 -146t-108 -49q-20 0 -62 11.5t-86 26.5q-44 14 -81 25t-45 11q-36 0 -60 -22t-36 -66l-97 29q27 97 71.5 145.5t105.5 48.5q18 0 61 -11t88 -25q45 -15 82 -26t45 -11q33 0 56.5 22.5t37.5 67.5zM1368 1358v-1358h-135q-26 0 -45 10.5t-31 30.5
l-717 1194v-1172q0 -31 -15.5 -47t-47.5 -16h-236v137h136v1360h135q22 -2 42.5 -12t32.5 -31l717 -1196v1174q0 32 15.5 47.5t46.5 15.5h238v-137h-136z" />
    <glyph glyph-name="Odieresis" unicode="&#xd6;" horiz-adv-x="1448" 
d="M935 1688q-20 0 -37.5 8t-33.5 23q-15 15 -23 33t-8 38q0 41 31 72t71 31q41 0 72 -31t31 -72t-31 -71.5t-72 -30.5v0zM516 1688q-20 0 -38 8t-34 23q-15 15 -23 33t-8 38q0 41 31 72t72 31t71.5 -31t30.5 -72t-30.5 -71.5t-71.5 -30.5v0zM51 772q0 323 223 538.5
t542 215.5q318 0 542 -215.5t224 -538.5q0 -328 -224 -550t-542 -222q-319 0 -542 222t-223 550v0zM207 772q0 -271 178.5 -451t430.5 -180q251 0 430.5 180t179.5 451q0 265 -179.5 439t-430.5 174q-252 0 -430.5 -174t-178.5 -439v0z" />
    <glyph glyph-name="Udieresis" unicode="&#xdc;" horiz-adv-x="1536" 
d="M978 1688q-20 0 -37.5 8t-33.5 23q-15 15 -23 33t-8 38q0 41 31 72t71 31q41 0 72 -31t31 -72t-31 -71.5t-72 -30.5v0zM559 1688q-20 0 -38 8t-34 23q-15 15 -23 33t-8 38q0 41 31 72t72 31t71.5 -31t30.5 -72t-30.5 -71.5t-71.5 -30.5v0zM1279 1358v-784
q0 -160 -37.5 -269.5t-107.5 -176.5q-70 -68 -169 -98t-220 -30q-117 0 -214 29t-168 97q-71 67 -109.5 176.5t-38.5 271.5v784h-136v137h232q34 0 50.5 -15.5t16.5 -47.5v-852q0 -225 92 -329.5t275 -104.5q186 0 278.5 104.5t92.5 329.5v852q0 32 17 47.5t50 15.5h232
v-137h-136z" />
    <glyph glyph-name="aacute" unicode="&#xe1;" horiz-adv-x="1253" 
d="M878 1657l88 -128l-400 -256l-82 126zM844 479l6 78h-119q-239 0 -362 -59t-123 -165q0 -95 53 -158.5t195 -63.5q174 0 260.5 143.5t89.5 224.5v0zM1089 136h88v-136h-139q-49 0 -82 14.5t-57 42.5q-25 29 -29.5 56t-4.5 84l-95 -114t-283 -114q-149 0 -270.5 72.5
t-121.5 285.5q0 204 160 286t488 77h106q1 54 -12.5 171.5t-239.5 116.5q-128 -1 -201 -19t-73 -79v-54h-147v96q0 45 71 113t320 80q107 0 201.5 -25.5t141.5 -76.5q46 -51 66 -107t20 -160v-500q0 -50 31 -80t62 -30v0z" />
    <glyph glyph-name="agrave" unicode="&#xe0;" horiz-adv-x="1253" 
d="M762 1322h-147l-240 254h201zM844 479l6 78h-119q-239 0 -362 -59t-123 -165q0 -95 53 -158.5t195 -63.5q174 0 260.5 143.5t89.5 224.5v0zM1089 136h88v-136h-139q-49 0 -82 14.5t-57 42.5q-25 29 -29.5 56t-4.5 84l-95 -114t-283 -114q-149 0 -270.5 72.5t-121.5 285.5
q0 204 160 286t488 77h106q1 54 -12.5 171.5t-239.5 116.5q-128 -1 -201 -19t-73 -79v-54h-147v96q0 45 71 113t320 80q107 0 201.5 -25.5t141.5 -76.5q46 -51 66 -107t20 -160v-500q0 -50 31 -80t62 -30v0z" />
    <glyph glyph-name="acircumflex" unicode="&#xe2;" horiz-adv-x="1253" 
d="M683 1659l252 -293l-66 -68l-229 201l-228 -201l-65 68l250 293h86zM844 479l6 78h-119q-239 0 -362 -59t-123 -165q0 -95 53 -158.5t195 -63.5q174 0 260.5 143.5t89.5 224.5v0zM1089 136h88v-136h-139q-49 0 -82 14.5t-57 42.5q-25 29 -29.5 56t-4.5 84l-95 -114
t-283 -114q-149 0 -270.5 72.5t-121.5 285.5q0 204 160 286t488 77h106q1 54 -12.5 171.5t-239.5 116.5q-128 -1 -201 -19t-73 -79v-54h-147v96q0 45 71 113t320 80q107 0 201.5 -25.5t141.5 -76.5q46 -51 66 -107t20 -160v-500q0 -50 31 -80t62 -30v0z" />
    <glyph glyph-name="adieresis" unicode="&#xe4;" horiz-adv-x="1253" 
d="M851 1364q-20 0 -37.5 8t-33.5 23q-15 15 -23 33t-8 38q0 41 31 72t71 31q41 0 72 -31t31 -72t-31 -71.5t-72 -30.5v0zM432 1364q-20 0 -38 8t-34 23q-15 15 -23 33t-8 38q0 41 31 72t72 31t71.5 -31t30.5 -72t-30.5 -71.5t-71.5 -30.5v0zM844 479l6 78h-119
q-239 0 -362 -59t-123 -165q0 -95 53 -158.5t195 -63.5q174 0 260.5 143.5t89.5 224.5v0zM1089 136h88v-136h-139q-49 0 -82 14.5t-57 42.5q-25 29 -29.5 56t-4.5 84l-95 -114t-283 -114q-149 0 -270.5 72.5t-121.5 285.5q0 204 160 286t488 77h106q1 54 -12.5 171.5
t-239.5 116.5q-128 -1 -201 -19t-73 -79v-54h-147v96q0 45 71 113t320 80q107 0 201.5 -25.5t141.5 -76.5q46 -51 66 -107t20 -160v-500q0 -50 31 -80t62 -30v0z" />
    <glyph glyph-name="atilde" unicode="&#xe3;" horiz-adv-x="1253" 
d="M963 1579q-25 -97 -69 -146t-108 -49q-20 0 -62 11.5t-86 26.5q-44 14 -81 25t-45 11q-36 0 -60 -22t-36 -66l-97 29q27 97 71.5 145.5t105.5 48.5q18 0 61 -11t88 -25q45 -15 82 -26t45 -11q33 0 56.5 22.5t37.5 67.5zM844 479l6 78h-119q-239 0 -362 -59t-123 -165
q0 -95 53 -158.5t195 -63.5q174 0 260.5 143.5t89.5 224.5v0zM1089 136h88v-136h-139q-49 0 -82 14.5t-57 42.5q-25 29 -29.5 56t-4.5 84l-95 -114t-283 -114q-149 0 -270.5 72.5t-121.5 285.5q0 204 160 286t488 77h106q1 54 -12.5 171.5t-239.5 116.5q-128 -1 -201 -19
t-73 -79v-54h-147v96q0 45 71 113t320 80q107 0 201.5 -25.5t141.5 -76.5q46 -51 66 -107t20 -160v-500q0 -50 31 -80t62 -30v0z" />
    <glyph glyph-name="aring" unicode="&#xe5;" horiz-adv-x="1253" 
d="M642 1266q-104 0 -166.5 62.5t-62.5 160.5t58.5 157.5t162.5 59.5q107 0 171.5 -63.5t64.5 -161.5q0 -99 -60.5 -157t-167.5 -58v0zM640 1358q51 0 79 34.5t28 90.5q0 55 -31 92t-80 37t-76.5 -35t-27.5 -90q0 -53 29.5 -91t78.5 -38v0zM844 479l6 78h-119
q-239 0 -362 -59t-123 -165q0 -95 53 -158.5t195 -63.5q174 0 260.5 143.5t89.5 224.5v0zM1089 136h88v-136h-139q-49 0 -82 14.5t-57 42.5q-25 29 -29.5 56t-4.5 84l-95 -114t-283 -114q-149 0 -270.5 72.5t-121.5 285.5q0 204 160 286t488 77h106q1 54 -12.5 171.5
t-239.5 116.5q-128 -1 -201 -19t-73 -79v-54h-147v96q0 45 71 113t320 80q107 0 201.5 -25.5t141.5 -76.5q46 -51 66 -107t20 -160v-500q0 -50 31 -80t62 -30v0z" />
    <glyph glyph-name="ccedilla" unicode="&#xe7;" horiz-adv-x="1108" 
d="M572 -494q-92 0 -144 53.5t-52 141.5h106q0 -41 22.5 -69.5t69.5 -28.5t76 28.5t29 75.5q0 41 -27 67t-82 38l-100 20l39 168h18q-69 18 -131 53.5t-115 87.5q-82 80 -124 182.5t-42 226.5q0 125 41.5 227.5t123.5 180.5t184 117.5t222 39.5q103 0 182.5 -22t134.5 -66
q54 -45 83 -68.5l29 -23.5l-87 -119l-20.5 18t-66.5 57q-45 38 -105.5 60.5t-142.5 22.5q-86 0 -161 -29.5t-138 -86.5q-63 -58 -90.5 -133.5t-27.5 -174.5q0 -98 26.5 -170t87.5 -133q62 -60 133.5 -89.5t158.5 -29.5q34 0 73.5 7t83.5 22q45 14 75 37t46 58l22 51l122 -56
l-12 -36q-26 -65 -71.5 -110.5t-110.5 -70.5t-120.5 -37.5t-101.5 -12.5q-31 0 -60.5 2.5t-57.5 7.5l-22 -107q112 -18 172.5 -57t60.5 -129q0 -88 -58.5 -139.5t-150.5 -51.5v0z" />
    <glyph glyph-name="eacute" unicode="&#xe9;" horiz-adv-x="1210" 
d="M848 1657l88 -128l-400 -256l-82 126zM1122 616v-117h-895q11 -102 27.5 -150t60.5 -104q46 -58 145 -99t189 -39q85 2 183.5 44.5t164.5 78.5l62 -137q-103 -49 -215 -86t-193 -37q-156 0 -278 50.5t-182 129.5q-64 85 -97.5 189t-35.5 210q8 260 157 419.5t420 159.5
q220 0 353.5 -133t133.5 -379v0zM634 991q-155 0 -268.5 -95t-129.5 -266h737q0 186 -92.5 273.5t-246.5 87.5v0z" />
    <glyph glyph-name="egrave" unicode="&#xe8;" horiz-adv-x="1210" 
d="M732 1322h-147l-240 254h201zM1122 616v-117h-895q11 -102 27.5 -150t60.5 -104q46 -58 145 -99t189 -39q85 2 183.5 44.5t164.5 78.5l62 -137q-103 -49 -215 -86t-193 -37q-156 0 -278 50.5t-182 129.5q-64 85 -97.5 189t-35.5 210q8 260 157 419.5t420 159.5
q220 0 353.5 -133t133.5 -379v0zM634 991q-155 0 -268.5 -95t-129.5 -266h737q0 186 -92.5 273.5t-246.5 87.5v0z" />
    <glyph glyph-name="ecircumflex" unicode="&#xea;" horiz-adv-x="1210" 
d="M653 1659l252 -293l-66 -68l-229 201l-228 -201l-65 68l250 293h86zM1122 616v-117h-895q11 -102 27.5 -150t60.5 -104q46 -58 145 -99t189 -39q85 2 183.5 44.5t164.5 78.5l62 -137q-103 -49 -215 -86t-193 -37q-156 0 -278 50.5t-182 129.5q-64 85 -97.5 189t-35.5 210
q8 260 157 419.5t420 159.5q220 0 353.5 -133t133.5 -379v0zM634 991q-155 0 -268.5 -95t-129.5 -266h737q0 186 -92.5 273.5t-246.5 87.5v0z" />
    <glyph glyph-name="edieresis" unicode="&#xeb;" horiz-adv-x="1210" 
d="M820 1364q-20 0 -37.5 8t-33.5 23q-15 15 -23 33t-8 38q0 41 31 72t71 31q41 0 72 -31t31 -72t-31 -71.5t-72 -30.5v0zM401 1364q-20 0 -38 8t-34 23q-15 15 -23 33t-8 38q0 41 31 72t72 31t71.5 -31t30.5 -72t-30.5 -71.5t-71.5 -30.5v0zM1122 616v-117h-895
q11 -102 27.5 -150t60.5 -104q46 -58 145 -99t189 -39q85 2 183.5 44.5t164.5 78.5l62 -137q-103 -49 -215 -86t-193 -37q-156 0 -278 50.5t-182 129.5q-64 85 -97.5 189t-35.5 210q8 260 157 419.5t420 159.5q220 0 353.5 -133t133.5 -379v0zM634 991q-155 0 -268.5 -95
t-129.5 -266h737q0 186 -92.5 273.5t-246.5 87.5v0z" />
    <glyph glyph-name="iacute" unicode="&#xed;" horiz-adv-x="690" 
d="M603 1657l88 -128l-400 -256l-82 126zM348 1171q31 0 46.5 -15.5t15.5 -47.5v-857q0 -56 22.5 -85t67.5 -29h105v-146h-173q-91 0 -136.5 58t-45.5 174v826l-123 2v120h221z" />
    <glyph glyph-name="igrave" unicode="&#xec;" horiz-adv-x="690" 
d="M488 1322h-147l-240 254h201zM348 1171q31 0 46.5 -15.5t15.5 -47.5v-857q0 -56 22.5 -85t67.5 -29h105v-146h-173q-91 0 -136.5 58t-45.5 174v826l-123 2v120h221z" />
    <glyph glyph-name="icircumflex" unicode="&#xee;" horiz-adv-x="690" 
d="M409 1659l252 -293l-66 -68l-229 201l-228 -201l-65 68l250 293h86zM348 1171q31 0 46.5 -15.5t15.5 -47.5v-857q0 -56 22.5 -85t67.5 -29h105v-146h-173q-91 0 -136.5 58t-45.5 174v826l-123 2v120h221z" />
    <glyph glyph-name="idieresis" unicode="&#xef;" horiz-adv-x="690" 
d="M576 1364q-20 0 -37.5 8t-33.5 23q-15 15 -23 33t-8 38q0 41 31 72t71 31q41 0 72 -31t31 -72t-31 -71.5t-72 -30.5v0zM157 1364q-20 0 -38 8t-34 23q-15 15 -23 33t-8 38q0 41 31 72t72 31t71.5 -31t30.5 -72t-30.5 -71.5t-71.5 -30.5v0zM348 1171q31 0 46.5 -15.5
t15.5 -47.5v-857q0 -56 22.5 -85t67.5 -29h105v-146h-173q-91 0 -136.5 58t-45.5 174v826l-123 2v120h221z" />
    <glyph glyph-name="ntilde" unicode="&#xf1;" horiz-adv-x="1460" 
d="M1079 1579q-25 -97 -69 -146t-108 -49q-20 0 -62 11.5t-86 26.5q-44 14 -81 25t-45 11q-36 0 -60 -22t-36 -66l-97 29q27 97 71.5 145.5t105.5 48.5q18 0 61 -11t88 -25q45 -15 82 -26t45 -11q33 0 56.5 22.5t37.5 67.5zM1226 0q-98 0 -147.5 58t-49.5 174v515
q0 129 -71 179t-184 50q-96 0 -213.5 -77.5t-170.5 -126.5v-772h-161v948h-144v136h217q32 0 49 -15t17 -46v-88q109 85 206.5 131.5t205.5 46.5q178 0 294.5 -90t116.5 -276v-499q0 -56 22 -84t66 -28h86v-136h-139z" />
    <glyph glyph-name="oacute" unicode="&#xf3;" 
d="M874 1657l88 -128l-400 -256l-82 126zM679 1115q234 0 400.5 -167t166.5 -401q0 -233 -166.5 -400t-400.5 -167t-401 167t-167 400q0 234 167 401t401 167v0zM976 252q64 64 94.5 136t30.5 160q0 87 -30.5 160.5t-94.5 137.5t-137 95t-160 31t-161 -32t-138 -96
t-94 -136.5t-30 -159.5q0 -88 30.5 -160t94.5 -136t137.5 -96t160.5 -32t160 32t137 96v0z" />
    <glyph glyph-name="ograve" unicode="&#xf2;" 
d="M758 1322h-147l-240 254h201zM679 1115q234 0 400.5 -167t166.5 -401q0 -233 -166.5 -400t-400.5 -167t-401 167t-167 400q0 234 167 401t401 167v0zM976 252q64 64 94.5 136t30.5 160q0 87 -30.5 160.5t-94.5 137.5t-137 95t-160 31t-161 -32t-138 -96t-94 -136.5
t-30 -159.5q0 -88 30.5 -160t94.5 -136t137.5 -96t160.5 -32t160 32t137 96v0z" />
    <glyph glyph-name="ocircumflex" unicode="&#xf4;" 
d="M679 1659l252 -293l-66 -68l-229 201l-228 -201l-65 68l250 293h86zM679 1115q234 0 400.5 -167t166.5 -401q0 -233 -166.5 -400t-400.5 -167t-401 167t-167 400q0 234 167 401t401 167v0zM976 252q64 64 94.5 136t30.5 160q0 87 -30.5 160.5t-94.5 137.5t-137 95
t-160 31t-161 -32t-138 -96t-94 -136.5t-30 -159.5q0 -88 30.5 -160t94.5 -136t137.5 -96t160.5 -32t160 32t137 96v0z" />
    <glyph glyph-name="odieresis" unicode="&#xf6;" 
d="M847 1364q-20 0 -37.5 8t-33.5 23q-15 15 -23 33t-8 38q0 41 31 72t71 31q41 0 72 -31t31 -72t-31 -71.5t-72 -30.5v0zM428 1364q-20 0 -38 8t-34 23q-15 15 -23 33t-8 38q0 41 31 72t72 31t71.5 -31t30.5 -72t-30.5 -71.5t-71.5 -30.5v0zM679 1115q234 0 400.5 -167
t166.5 -401q0 -233 -166.5 -400t-400.5 -167t-401 167t-167 400q0 234 167 401t401 167v0zM976 252q64 64 94.5 136t30.5 160q0 87 -30.5 160.5t-94.5 137.5t-137 95t-160 31t-161 -32t-138 -96t-94 -136.5t-30 -159.5q0 -88 30.5 -160t94.5 -136t137.5 -96t160.5 -32
t160 32t137 96v0z" />
    <glyph glyph-name="otilde" unicode="&#xf5;" 
d="M959 1579q-25 -97 -69 -146t-108 -49q-20 0 -62 11.5t-86 26.5q-44 14 -81 25t-45 11q-36 0 -60 -22t-36 -66l-97 29q27 97 71.5 145.5t105.5 48.5q18 0 61 -11t88 -25q45 -15 82 -26t45 -11q33 0 56.5 22.5t37.5 67.5zM679 1115q234 0 400.5 -167t166.5 -401
q0 -233 -166.5 -400t-400.5 -167t-401 167t-167 400q0 234 167 401t401 167v0zM976 252q64 64 94.5 136t30.5 160q0 87 -30.5 160.5t-94.5 137.5t-137 95t-160 31t-161 -32t-138 -96t-94 -136.5t-30 -159.5q0 -88 30.5 -160t94.5 -136t137.5 -96t160.5 -32t160 32t137 96v0z
" />
    <glyph glyph-name="uacute" unicode="&#xfa;" horiz-adv-x="1436" 
d="M960 1657l88 -128l-400 -256l-82 126zM1052 1084h167v-836q0 -28 6 -49t17 -35q12 -14 29.5 -21t40.5 -7h71v-136h-126q-87 0 -129 35t-42 105v91q-17 -106 -72.5 -148.5t-99.5 -65.5q-47 -24 -114 -35.5t-117 -11.5q-99 0 -150 16.5t-125 59.5q-75 44 -119.5 120
t-44.5 171v611h-148v136h244q17 0 30.5 -3.5t22.5 -11.5t13.5 -20t4.5 -28v-663q0 -76 20.5 -122t68.5 -72t81.5 -39.5t99.5 -14.5q52 -1 117.5 16t127.5 59q63 42 94.5 166.5t31.5 234.5v498z" />
    <glyph glyph-name="ugrave" unicode="&#xf9;" horiz-adv-x="1436" 
d="M844 1322h-147l-240 254h201zM1052 1084h167v-836q0 -28 6 -49t17 -35q12 -14 29.5 -21t40.5 -7h71v-136h-126q-87 0 -129 35t-42 105v91q-17 -106 -72.5 -148.5t-99.5 -65.5q-47 -24 -114 -35.5t-117 -11.5q-99 0 -150 16.5t-125 59.5q-75 44 -119.5 120t-44.5 171v611
h-148v136h244q17 0 30.5 -3.5t22.5 -11.5t13.5 -20t4.5 -28v-663q0 -76 20.5 -122t68.5 -72t81.5 -39.5t99.5 -14.5q52 -1 117.5 16t127.5 59q63 42 94.5 166.5t31.5 234.5v498z" />
    <glyph glyph-name="ucircumflex" unicode="&#xfb;" horiz-adv-x="1436" 
d="M765 1659l252 -293l-66 -68l-229 201l-228 -201l-65 68l250 293h86zM1052 1084h167v-836q0 -28 6 -49t17 -35q12 -14 29.5 -21t40.5 -7h71v-136h-126q-87 0 -129 35t-42 105v91q-17 -106 -72.5 -148.5t-99.5 -65.5q-47 -24 -114 -35.5t-117 -11.5q-99 0 -150 16.5
t-125 59.5q-75 44 -119.5 120t-44.5 171v611h-148v136h244q17 0 30.5 -3.5t22.5 -11.5t13.5 -20t4.5 -28v-663q0 -76 20.5 -122t68.5 -72t81.5 -39.5t99.5 -14.5q52 -1 117.5 16t127.5 59q63 42 94.5 166.5t31.5 234.5v498z" />
    <glyph glyph-name="udieresis" unicode="&#xfc;" horiz-adv-x="1436" 
d="M933 1364q-20 0 -37.5 8t-33.5 23q-15 15 -23 33t-8 38q0 41 31 72t71 31q41 0 72 -31t31 -72t-31 -71.5t-72 -30.5v0zM514 1364q-20 0 -38 8t-34 23q-15 15 -23 33t-8 38q0 41 31 72t72 31t71.5 -31t30.5 -72t-30.5 -71.5t-71.5 -30.5v0zM1052 1084h167v-836
q0 -28 6 -49t17 -35q12 -14 29.5 -21t40.5 -7h71v-136h-126q-87 0 -129 35t-42 105v91q-17 -106 -72.5 -148.5t-99.5 -65.5q-47 -24 -114 -35.5t-117 -11.5q-99 0 -150 16.5t-125 59.5q-75 44 -119.5 120t-44.5 171v611h-148v136h244q17 0 30.5 -3.5t22.5 -11.5t13.5 -20
t4.5 -28v-663q0 -76 20.5 -122t68.5 -72t81.5 -39.5t99.5 -14.5q52 -1 117.5 16t127.5 59q63 42 94.5 166.5t31.5 234.5v498z" />
    <glyph glyph-name="dagger" unicode="&#x2020;" horiz-adv-x="905" 
d="M39 1034v137h336v324h155v-324l336 -2v-135h-336v-1034h-155v1034h-336z" />
    <glyph glyph-name="degree" unicode="&#xb0;" horiz-adv-x="895" 
d="M179 829q-48 52 -74.5 127.5t-26.5 167.5q0 191 93 292.5t267 101.5t276.5 -109t102.5 -299q0 -186 -95 -288.5t-269 -102.5q-86 0 -156 28.5t-118 81.5v0zM211 1122q0 -141 65.5 -221t169.5 -80q118 0 177 74.5t59 222.5q0 129 -64.5 213t-175.5 84q-110 0 -170.5 -76.5
t-60.5 -216.5v0z" />
    <glyph glyph-name="cent" unicode="&#xa2;" horiz-adv-x="1108" 
d="M338 457q29 -68 75 -118t117 -69l84 969q-98 -4 -161.5 -50t-100.5 -114q-37 -69 -51 -151t-14 -162q0 -78 11 -158t40 -147v0zM232 1164q57 87 153 142.5t240 57.5l30 348h95l-31 -352q65 -8 137 -29.5t150 -60.5l-54 -119q-63 35 -123.5 55.5t-119.5 28.5l-84 -975
q98 3 166.5 56.5t107.5 156.5l131 -43q-57 -147 -161.5 -221t-256.5 -74l-28 -350h-95l31 356q-108 19 -183 81.5t-122 148.5t-67.5 185t-20.5 192q0 110 23.5 219.5t81.5 196.5v0z" />
    <glyph glyph-name="sterling" unicode="&#xa3;" horiz-adv-x="1255" 
d="M369 136h652v136h136v-272h-993v94q52 43 78 98.5t26 122.5v332h-188v126h188v290q0 225 100.5 343t331.5 118q181 0 291.5 -92.5t151.5 -278.5l-146 -35q-35 141 -110 211t-189 70q-147 0 -206.5 -85t-59.5 -251v-290h410v-126h-410v-311q0 -84 -8 -118.5t-55 -81.5v0z
" />
    <glyph glyph-name="section" unicode="&#xa7;" horiz-adv-x="1079" 
d="M772 510q0 92 -49 145.5t-141 98.5q-10 2 -22.5 3t-27.5 1q-106 0 -166.5 -60.5t-60.5 -152.5q0 -88 47 -142.5t140 -99.5q10 -2 23.5 -3t29.5 -1q100 0 163.5 61.5t63.5 149.5v0zM934 524q0 -123 -61.5 -201.5t-167.5 -115.5q122 -60 189 -138.5t67 -207.5
q0 -84 -32 -150.5t-88 -113.5q-57 -46 -133.5 -70.5t-166.5 -24.5q-187 0 -298.5 95.5t-146.5 275.5l142 35q35 -142 108.5 -212.5t185.5 -70.5q130 0 198.5 61.5t68.5 161.5q0 84 -48.5 135.5t-121.5 90.5q-74 39 -158 73.5t-157 81.5q-74 47 -122.5 119t-48.5 182
q0 123 60.5 202t171.5 116q-123 59 -189.5 139t-66.5 209q0 86 31.5 152.5t88.5 112.5q56 46 133 70.5t165 24.5q184 0 295.5 -96t150.5 -274l-143 -35q-32 140 -104.5 209.5t-186.5 69.5q-129 0 -198.5 -60.5t-69.5 -159.5q0 -84 48 -136t121 -91q72 -39 157 -74t158 -84
t121 -119.5t48 -181.5v0z" />
    <glyph glyph-name="bullet" unicode="&#x2022;" horiz-adv-x="526" 
d="M379 565q-23 -24 -53.5 -37.5t-63.5 -13.5t-62.5 13.5t-52.5 37.5q-24 23 -37.5 52.5t-13.5 62.5t13.5 63.5t37.5 53.5q23 22 52.5 35.5t62.5 13.5q68 0 117 -49t49 -117q0 -33 -13.5 -62.5t-35.5 -52.5v0z" />
    <glyph glyph-name="paragraph" unicode="&#xb6;" horiz-adv-x="1159" 
d="M717 121v440h-105q-106 0 -192 35t-147 97q-62 61 -95 147t-33 188q0 105 34 191t96 147q61 61 147 95t190 34h207q32 0 48 -15.5t16 -47.5v-1311l127 -15v-106h-510v104z" />
    <glyph glyph-name="germandbls" unicode="&#xdf;" horiz-adv-x="1368" 
d="M782 691h-372v-628q0 -31 -17.5 -47t-52.5 -16h-223v119l129 2v870q0 266 124 400.5t339 134.5q217 0 338.5 -108.5t121.5 -295.5q0 -125 -39.5 -215.5t-163.5 -123.5q141 -8 232.5 -115t91.5 -295q0 -187 -103.5 -300t-305.5 -102q-166 9 -201.5 24t-106.5 72l81 121
q93 -72 108 -80t130 -8q112 0 174 74t62 215q0 143 -86 222.5t-260 79.5v0zM410 993v-154h311q137 0 214 65t77 206t-79 216t-220 75q-151 0 -227 -102t-76 -306v0z" />
    <glyph glyph-name="registered" unicode="&#xae;" horiz-adv-x="1475" 
d="M133 1157q0 130 39.5 237t118.5 191q78 84 189.5 126t256.5 42q144 0 256.5 -44t190.5 -124t117.5 -189.5t39.5 -238.5t-45 -240.5t-124 -194.5q-80 -83 -191 -131t-244 -48q-135 0 -245.5 47t-190.5 130t-124 195.5t-44 241.5v0zM211 1155q0 -116 37 -213.5t110 -175.5
q74 -78 169 -117t210 -39q117 0 213.5 42t166.5 116q69 74 108 173t39 214q0 117 -36 214t-103 168q-68 71 -166.5 110t-221.5 39q-125 0 -222 -39t-164 -110q-68 -71 -104 -168t-36 -214v0zM850 1006q-16 45 -44 59t-83 14h-25v72h62q82 0 123 41.5t41 124.5q0 82 -42 126
t-122 44h-123v-670h92v-67h-258v69h64v668h-64v69h289q129 0 195.5 -61t66.5 -178q0 -88 -37 -142.5t-111 -76.5q28 -14 47.5 -35t30.5 -49l107 -264h-111z" />
    <glyph glyph-name="copyright" unicode="&#xa9;" horiz-adv-x="1475" 
d="M133 1157q0 130 39.5 237t118.5 191q78 84 189.5 126t256.5 42q144 0 256.5 -44t190.5 -124t117.5 -189.5t39.5 -238.5t-45 -240.5t-124 -194.5q-80 -83 -191 -131t-244 -48q-135 0 -245.5 47t-190.5 130t-124 195.5t-44 241.5v0zM211 1155q0 -116 37 -213.5t110 -175.5
q74 -78 169 -117t210 -39q117 0 213.5 42t166.5 116q69 74 108 173t39 214q0 117 -36 214t-103 168q-68 71 -166.5 110t-221.5 39q-125 0 -222 -39t-164 -110q-68 -71 -104 -168t-36 -214v0zM958 1434q-63 31 -117 46t-98 15q-59 0 -100 -27.5t-65 -72.5
q-25 -45 -36.5 -105.5t-11.5 -124.5q0 -61 9.5 -123.5t33.5 -114.5q23 -53 63 -85.5t103 -32.5q78 0 125.5 54.5t63.5 162.5l90 -20q-28 -136 -98 -204.5t-181 -68.5q-94 0 -154.5 41t-94.5 104q-35 62 -48.5 135.5t-13.5 141.5q0 72 13.5 145.5t50.5 134.5q36 60 98.5 98
t161.5 38q55 0 116.5 -14.5t122.5 -49.5z" />
    <glyph glyph-name="trademark" unicode="&#x2122;" horiz-adv-x="1784" 
d="M403 1507v-811h-127v811h-219v86h566v-86h-220zM739 1593h185q21 0 33 -9.5t16 -29.5l205 -581l213 583q6 19 19 28t32 9h133v-897h-74l-45 731l-221 -585h-115l-211 585v-731h-170v897z" />
    <glyph glyph-name="acute" unicode="&#xb4;" horiz-adv-x="643" 
d="M496 1657l88 -128l-400 -256l-82 126z" />
    <glyph glyph-name="dieresis" unicode="&#xa8;" horiz-adv-x="987" 
d="M702 1364q-20 0 -37.5 8t-33.5 23q-15 15 -23 33t-8 38q0 41 31 72t71 31q41 0 72 -31t31 -72t-31 -71.5t-72 -30.5v0zM283 1364q-20 0 -38 8t-34 23q-15 15 -23 33t-8 38q0 41 31 72t72 31t71.5 -31t30.5 -72t-30.5 -71.5t-71.5 -30.5v0z" />
    <glyph glyph-name="AE" unicode="&#xc6;" horiz-adv-x="1909" 
d="M899 750v632h-96l-207 -632h303zM688 1495h987q32 0 48 -15.5t16 -47.5v-169h-124l1 119h-553v-632h582v-113h-582v-526h573l1 100h122v-148q0 -31 -15.5 -47t-47.5 -16h-797v637h-340l-189 -584q-9 -26 -27 -39.5t-46 -13.5h-160v121h98z" />
    <glyph glyph-name="Oslash" unicode="&#xd8;" horiz-adv-x="1785" 
d="M283 774q0 -134 50.5 -253.5t138.5 -208.5l691 1007q-59 27 -130 47.5t-141 20.5q-125 0 -233.5 -44t-196.5 -130q-89 -87 -134 -197.5t-45 -241.5v0zM1323 323q89 89 134 202.5t45 248.5q0 131 -45 241.5t-134 197.5q-13 11 -19 16t-19 15l-702 -1023q71 -46 145.5 -62
t163.5 -16q125 0 233 45t198 135v0zM1434 1312q111 -107 167.5 -242.5t56.5 -295.5q0 -164 -56.5 -302t-167.5 -248q-111 -111 -247.5 -166.5t-294.5 -55.5q-113 0 -208 21.5t-183 76.5l-110 -148l-118 81l114 155q-6 5 -18.5 17.5l-18.5 18.5q-111 110 -167 248t-56 302
q0 160 56 295.5t167 242.5t247 161.5t295 54.5q93 0 185 -25.5t169 -62.5l97 135l119 -81l-93 -128q20 -15 33 -25.5t32 -28.5v0z" />
    <glyph glyph-name="plusminus" unicode="&#xb1;" horiz-adv-x="1196" 
d="M664 1151v-338h335v-131h-335v-340h-134v340h-335v131h335v338h134zM1001 131v-131h-806v131h806z" />
    <glyph glyph-name="yen" unicode="&#xa5;" horiz-adv-x="1122" 
d="M645 510v-510h-164v510h-401v94h369l-91 207h-276v94h233l-260 590h183l325 -784l324 784h184l-262 -590h238v-94h-279l-92 -207h371v-94h-402z" />
    <glyph glyph-name="ordfeminine" unicode="&#xaa;" horiz-adv-x="838" 
d="M276 719q-88 0 -142 54t-54 153q0 133 107.5 197.5t347.5 64.5v49q0 100 -37 140t-117 40q-43 0 -96.5 -15.5t-112.5 -49.5l-43 98q71 34 138.5 51t131.5 17q129 0 199 -61.5t70 -211.5v-346q0 -32 13.5 -48.5t39.5 -16.5q16 0 29 1.5t24 4.5l17 -103q-31 -9 -59.5 -13.5
t-55.5 -4.5q-60 0 -98.5 33.5t-40.5 121.5q-41 -77 -106 -116t-155 -39v0zM319 821q95 0 155.5 77t60.5 206q-165 0 -247.5 -41.5t-82.5 -124.5q0 -58 28.5 -87.5t85.5 -29.5v0z" />
    <glyph glyph-name="ordmasculine" unicode="&#xba;" horiz-adv-x="834" 
d="M422 719q-160 0 -252 109.5t-92 295.5q0 191 85 292.5t245 101.5q159 0 253.5 -109t94.5 -299q0 -186 -87 -288.5t-247 -102.5v0zM209 1122q0 -141 57.5 -221t149.5 -80q104 0 155.5 74.5t51.5 222.5q0 131 -56.5 214t-154.5 83q-99 0 -151 -77.5t-52 -215.5v0z" />
    <glyph glyph-name="ae" unicode="&#xe6;" horiz-adv-x="1975" 
d="M1082 957q-40 -56 -61.5 -94t-29.5 -124h731q0 186 -83.5 258.5t-236.5 72.5q-78 0 -179 -29t-141 -84v0zM712 227q48 56 80.5 178.5t32.5 237.5q-288 0 -437 -69t-149 -216q0 -92 63.5 -172t163.5 -80q76 0 137 32.5t109 88.5v0zM879 283q-56 -164 -176.5 -238
t-272.5 -74q-149 0 -247 120.5t-98 268.5q0 96 61.5 187.5t141.5 139.5t194.5 66.5t297.5 26.5l37 2q-6 47 -20 127.5t-35 102.5q-33 35 -95 48.5t-134 13.5q-71 0 -165.5 -38t-181.5 -87l-54 123q106 49 211.5 85.5t200.5 36.5q137 0 247.5 -43t152.5 -135q66 92 193 140.5
t253 48.5q111 0 221 -36t170 -108q59 -73 81 -172t22 -222v-64h-897q0 -102 23.5 -211t69.5 -169q46 -61 155 -91t199 -30q78 0 161 24.5t172 70.5l51 -118q-103 -49 -200.5 -75.5t-189.5 -26.5q-170 0 -327.5 75t-221.5 231v0z" />
    <glyph glyph-name="oslash" unicode="&#xf8;" horiz-adv-x="1482" 
d="M270 610q0 -94 34 -176t101 -151l524 757q-44 20 -91 30t-97 10q-96 0 -179 -35.5t-152 -104.5q-70 -70 -105 -153t-35 -177v0zM1071 279q69 69 104.5 152t35.5 179q0 94 -35.5 177t-104.5 153q-7 6 -14 12.5t-14 12.5l-530 -767q51 -30 108.5 -44.5t119.5 -14.5
q94 0 177 35t153 105v0zM1353 672q2 -16 3 -32t1 -31t-1 -30.5t-3 -30.5q-2 -16 -4.5 -31.5t-4.5 -29.5q-3 -15 -7 -30t-9 -30t-10 -29.5t-10 -27.5q-6 -14 -13 -27.5t-13 -25.5q-7 -13 -15 -26t-16 -25q-9 -13 -18 -25t-18 -23q-10 -12 -20 -23t-19 -21l-22 -20t-22 -19
q-12 -10 -24 -19t-24 -17q-13 -9 -26 -17t-25 -14q-13 -7 -26.5 -14t-26.5 -12q-14 -6 -28.5 -11t-29.5 -10t-30 -9t-29 -6q-15 -3 -30.5 -5.5t-30.5 -4.5q-16 -2 -31.5 -2.5t-29.5 -0.5q-16 0 -32 0.5t-31 2.5q-16 2 -31.5 4.5t-29.5 5.5q-15 2 -30 6t-30 9t-29 10t-27 11
q-14 5 -28 12t-26 14q-5 2 -9 4.5t-8 4.5l-101 -145l-113 77l104 150q-4 3 -8 7t-7 8q-11 10 -21 21t-19 23q-10 11 -19 23t-17 25q-9 12 -17 25t-14 26q-7 12 -13.5 25.5t-11.5 27.5q-6 13 -11.5 27.5t-10.5 29.5t-8.5 30t-5.5 30q-3 14 -5.5 29.5t-3.5 31.5
q-2 15 -2.5 30.5t-0.5 30.5t0.5 31t2.5 32q1 15 3.5 30.5t5.5 30.5q2 14 5.5 29t8.5 30t10.5 29t11.5 28q5 13 11.5 27t13.5 27q6 12 14 25t17 26q8 12 17 24t19 24q9 11 19 22t21 21q9 10 20 20t23 20q11 9 23 18t25 18q12 8 25 16t26 15q12 6 26 12.5t28 12.5
q13 5 27 10.5t29 10.5t30 8.5t30 6.5q14 2 29.5 4.5t31.5 4.5q15 1 31 2t32 1q14 0 29.5 -1t31.5 -2q15 -2 30.5 -4.5t30.5 -4.5q14 -3 29 -6.5t30 -8.5t29.5 -10.5t28.5 -10.5q8 -4 16.5 -7.5t16.5 -7.5l99 143l113 -77l-97 -141q1 0 2 -1t2 -1l22 -20l22 -20q9 -10 19 -21
l20 -22l18 -24l18 -24l16 -26t15 -25q6 -13 13 -27t13 -27l10 -28t10 -29t9 -30t7 -29q2 -15 4.5 -30.5t4.5 -30.5v0z" />
    <glyph glyph-name="questiondown" unicode="&#xbf;" horiz-adv-x="936" 
d="M416 1092q0 45 31.5 76.5t74.5 31.5q45 0 78 -31.5t33 -76.5q0 -43 -33 -76t-78 -33q-43 0 -74.5 33t-31.5 76v0zM500 -217q118 0 187 77t69 193h141q0 -88 -27.5 -160.5t-79.5 -124.5q-53 -51 -127.5 -79.5t-168.5 -28.5q-187 0 -292.5 105.5t-105.5 283.5q0 86 32 168
t97 156l111 123q65 73 97 155t34 172h119q-2 -106 -30 -198.5t-89 -165.5l-98 -119q-60 -72 -90.5 -142.5t-30.5 -148.5q0 -55 17.5 -103t50.5 -85q32 -37 78 -57.5t106 -20.5v0z" />
    <glyph glyph-name="exclamdown" unicode="&#xa1;" horiz-adv-x="575" 
d="M395 1092q0 -43 -31.5 -76t-76.5 -33q-43 0 -76 33t-33 76q0 45 33 76.5t76 31.5q45 0 76.5 -31.5t31.5 -76.5v0zM195 -311l33 1134h112l32 -1134h-177z" />
    <glyph glyph-name="logicalnot" unicode="&#xac;" horiz-adv-x="1196" 
d="M1001 813v-414h-122v283h-684v131h806z" />
    <glyph glyph-name="florin" unicode="&#x192;" horiz-adv-x="979" 
d="M838 783v-130h-367v-1118l-164 -12v1130h-229v130h229v249q0 242 97.5 367t318.5 125q70 0 128.5 -13.5t106.5 -40.5l-43 -120q-38 25 -84 37t-100 12q-141 0 -200.5 -93.5t-59.5 -273.5v-249h367z" />
    <glyph glyph-name="guillemotleft" unicode="&#xab;" horiz-adv-x="913" 
d="M461 705l270 313l66 -47l-193 -314l193 -313l-66 -43l-270 309v95zM96 705l271 313l65 -47l-190 -314l190 -313l-65 -43l-271 309v95z" />
    <glyph glyph-name="guillemotright" unicode="&#xbb;" horiz-adv-x="913" 
d="M289 657l-193 314l68 47l268 -313v-95l-268 -309l-68 43zM653 657l-192 314l65 47l271 -313v-95l-271 -309l-65 43z" />
    <glyph glyph-name="ellipsis" unicode="&#x2026;" horiz-adv-x="1610" 
d="M1454 96q0 -45 -34 -78.5t-81 -33.5q-45 0 -77.5 32.5t-32.5 77.5q0 47 33.5 81t78.5 34t79 -34t34 -79v0zM918 96q0 -45 -34 -78.5t-81 -33.5q-45 0 -78 32.5t-33 77.5q0 47 34 81t79 34t79 -34t34 -79v0zM381 96q0 -45 -34 -78.5t-81 -33.5q-45 0 -77.5 32.5
t-32.5 77.5q0 47 33.5 81t78.5 34t79 -34t34 -79v0z" />
    <glyph glyph-name="Agrave" unicode="&#xc0;" horiz-adv-x="1317" 
d="M780 1646h-147l-240 254h201zM898 586l-247 755h-11l-247 -755h505zM218 53q-9 -26 -27 -39.5t-46 -13.5h-164v137h102l453 1358h217l455 -1359h98v-136h-160q-28 0 -46.5 13.5t-27.5 39.5l-133 406h-587z" />
    <glyph glyph-name="Atilde" unicode="&#xc3;" horiz-adv-x="1317" 
d="M981 1903q-25 -97 -69 -146t-108 -49q-20 0 -62 11.5t-86 26.5q-44 14 -81 25t-45 11q-36 0 -60 -22t-36 -66l-97 29q27 97 71.5 145.5t105.5 48.5q18 0 61 -11t88 -25q45 -15 82 -26t45 -11q33 0 56.5 22.5t37.5 67.5zM898 586l-247 755h-11l-247 -755h505zM218 53
q-9 -26 -27 -39.5t-46 -13.5h-164v137h102l453 1358h217l455 -1359h98v-136h-160q-28 0 -46.5 13.5t-27.5 39.5l-133 406h-587z" />
    <glyph glyph-name="Otilde" unicode="&#xd5;" horiz-adv-x="1448" 
d="M1047 1903q-25 -97 -69 -146t-108 -49q-20 0 -62 11.5t-86 26.5q-44 14 -81 25t-45 11q-36 0 -60 -22t-36 -66l-97 29q27 97 71.5 145.5t105.5 48.5q18 0 61 -11t88 -25q45 -15 82 -26t45 -11q33 0 56.5 22.5t37.5 67.5zM51 772q0 323 223 538.5t542 215.5
q318 0 542 -215.5t224 -538.5q0 -328 -224 -550t-542 -222q-319 0 -542 222t-223 550v0zM207 772q0 -271 178.5 -451t430.5 -180q251 0 430.5 180t179.5 451q0 265 -179.5 439t-430.5 174q-252 0 -430.5 -174t-178.5 -439v0z" />
    <glyph glyph-name="OE" unicode="&#x152;" horiz-adv-x="1974" 
d="M289 748q0 -316 114.5 -484t319.5 -168q117 0 200 55.5t135 147.5t76.5 209t24.5 240q0 309 -115.5 480t-320.5 171q-203 0 -318.5 -168t-115.5 -483v0zM1710 815v-113h-387q-6 -198 -59.5 -346t-155.5 -245h594l2 160h121v-208q0 -31 -16 -47t-48 -16h-846
q-48 -14 -96 -21.5t-96 -7.5q-139 0 -250 51.5t-187 150.5q-77 99 -118 243.5t-41 331.5q0 186 41 330.5t118 243.5q76 99 187 150.5t250 51.5q48 0 96 -7t96 -22h826q32 0 47.5 -15.5t15.5 -47.5v-215h-121l-2 165h-573q98 -91 151 -232.5t62 -334.5h389z" />
    <glyph glyph-name="oe" unicode="&#x153;" horiz-adv-x="2068" 
d="M1952 551h-805l-2 -29q14 -203 104 -314.5t260 -111.5q76 0 159.5 23t174.5 69l51 -118q-103 -49 -200.5 -74t-190.5 -25q-150 0 -258 60t-174 180q-63 -120 -172 -180t-264 -60q-115 0 -208 44t-159 125q-67 81 -104 197t-37 259q0 291 130 447.5t378 156.5
q141 0 250.5 -66.5t177.5 -185.5q63 126 168.5 189t253.5 63q110 0 197 -40t147 -112q59 -73 91 -173.5t32 -223.5v-100zM1240 957q-40 -56 -61.5 -130.5t-29.5 -160.5h641q0 186 -82 297.5t-235 111.5q-78 0 -135.5 -31.5t-97.5 -86.5v0zM643 96q166 0 254 126t88 356
q0 233 -96 365t-262 132q-162 0 -251 -125t-89 -354q0 -115 25.5 -207t71.5 -157q46 -66 112.5 -101t146.5 -35v0z" />
    <glyph glyph-name="endash" unicode="&#x2013;" horiz-adv-x="1174" 
d="M1036 707v-113h-901v113h901z" />
    <glyph glyph-name="emdash" unicode="&#x2014;" horiz-adv-x="1855" 
d="M1718 707v-113h-1583v113h1583z" />
    <glyph glyph-name="quotedblleft" unicode="&#x201c;" horiz-adv-x="811" 
d="M532 1090q-49 0 -75.5 29.5t-26.5 72.5q0 59 19.5 114.5t52.5 104.5t74.5 91t89.5 77l47 -57q-48 -45 -72.5 -92t-24.5 -97q0 -28 12.5 -67t12.5 -76q0 -39 -27.5 -69.5t-81.5 -30.5v0zM201 1090q-49 0 -77 29.5t-28 72.5q0 59 19.5 114.5t52.5 104.5t75 91t89 77l49 -57
q-49 -46 -73.5 -93t-24.5 -96q0 -28 12 -67t12 -76q0 -39 -27.5 -69.5t-78.5 -30.5v0z" />
    <glyph glyph-name="quotedblright" unicode="&#x201d;" horiz-adv-x="811" 
d="M276 1569q50 0 77.5 -29t27.5 -72q0 -107 -59 -204.5t-177 -184.5l-49 60q50 46 74.5 92t24.5 92q0 29 -12.5 69t-12.5 76q0 41 28.5 71t77.5 30v0zM608 1569q51 0 78 -29t27 -72q0 -107 -59 -204.5t-177 -184.5l-47 60q48 45 72 91t24 93q0 29 -12 69t-12 76
q0 41 28.5 71t77.5 30v0z" />
    <glyph glyph-name="quoteleft" unicode="&#x2018;" horiz-adv-x="477" 
d="M201 1090q-49 0 -77 29.5t-28 72.5q0 59 19.5 114.5t52.5 104.5t75 91t89 77l49 -57q-49 -46 -73.5 -93t-24.5 -96q0 -28 12 -67t12 -76q0 -39 -27.5 -69.5t-78.5 -30.5v0z" />
    <glyph glyph-name="quoteright" unicode="&#x2019;" horiz-adv-x="477" 
d="M276 1569q50 0 77.5 -29t27.5 -72q0 -107 -59 -204.5t-177 -184.5l-49 60q50 46 74.5 92t24.5 92q0 29 -12.5 69t-12.5 76q0 41 28.5 71t77.5 30v0z" />
    <glyph glyph-name="divide" unicode="&#xf7;" horiz-adv-x="1196" 
d="M711 1116q0 -45 -34 -78.5t-79 -33.5t-79 32.5t-34 77.5q0 47 34 81t79 34t79 -34t34 -79v0zM1001 813v-131h-806v131h806zM711 379q0 -45 -34 -79t-79 -34t-79 33t-34 78q0 47 34 81t79 34t79 -34t34 -79v0z" />
    <glyph glyph-name="ydieresis" unicode="&#xff;" horiz-adv-x="1219" 
d="M792 1364q-20 0 -37.5 8t-33.5 23q-15 15 -23 33t-8 38q0 41 31 72t71 31q41 0 72 -31t31 -72t-31 -71.5t-72 -30.5v0zM373 1364q-20 0 -38 8t-34 23q-15 15 -23 33t-8 38q0 41 31 72t72 31t71.5 -31t30.5 -72t-30.5 -71.5t-71.5 -30.5v0zM1017 1084h163v-136h-100
l-434 -1168q-14 -40 -29 -73.5t-30 -59.5q-14 -26 -31 -47.5t-35 -37.5t-39 -27.5t-43 -19.5q-22 -7 -53.5 -10.5t-59.5 -3.5t-68.5 11.5t-67.5 18.5q-26 7 -65 23.5t-62 30.5l45 118q19 -11 52 -25t52 -20q19 -5 51 -15.5t50 -10.5q30 0 61.5 8t52.5 24t38.5 40.5
t26.5 56.5l66 219l-419 968h-100v136h163q15 0 27.5 -3.5t21.5 -9.5t16 -16.5t11 -23.5l351 -879l312 879q4 13 11 23.5t16 16.5t21.5 9.5t27.5 3.5v0z" />
    <glyph glyph-name="Ydieresis" unicode="&#x178;" horiz-adv-x="1288" 
d="M770 1688q-20 0 -37.5 8t-33.5 23q-15 15 -23 33t-8 38q0 41 31 72t71 31q41 0 72 -31t31 -72t-31 -71.5t-72 -30.5v0zM351 1688q-20 0 -38 8t-34 23q-15 15 -23 33t-8 38q0 41 31 72t72 31t71.5 -31t30.5 -72t-30.5 -71.5t-71.5 -30.5v0zM763 537l1 -537h-167v530
l-422 828h-136v137h212q29 0 48 -11.5t28 -35.5l353 -737l334 737q10 24 29 35.5t47 11.5h210v-137h-136z" />
    <glyph glyph-name="fraction" unicode="&#x2044;" horiz-adv-x="618" 
d="M618 1628l-491 -1763h-127l492 1763h126z" />
    <glyph glyph-name="currency" unicode="&#xa4;" horiz-adv-x="1278" 
d="M1221 1235l-234 -236q41 -56 61.5 -119.5t20.5 -134.5q0 -68 -21 -131t-63 -120l236 -234l-95 -94l-235 233q-54 -41 -117 -61.5t-135 -20.5q-71 0 -134 20.5t-118 61.5l-235 -233l-95 94l234 234q-41 56 -61.5 119.5t-20.5 134.5q0 72 20.5 134.5t61.5 116.5l-234 236
l95 94l233 -235q55 41 120.5 62.5t133.5 21.5q70 0 133.5 -21t120.5 -63l233 235zM843 953q-40 40 -92.5 62.5t-111.5 22.5t-111.5 -22.5t-92.5 -61.5t-63.5 -93t-23.5 -116q0 -61 22.5 -113t62.5 -92t92.5 -62.5t113.5 -22.5t113.5 23.5t92.5 63.5t62.5 92t22.5 111
q0 62 -23.5 115t-63.5 93v0z" />
    <glyph glyph-name="guilsinglleft" unicode="&#x2039;" horiz-adv-x="549" 
d="M96 705l271 313l101 -98l-226 -263l223 -254l-98 -102l-271 309v95z" />
    <glyph glyph-name="guilsinglright" unicode="&#x203a;" horiz-adv-x="549" 
d="M289 657l-223 294l98 67l268 -313v-95l-268 -309l-101 95z" />
    <glyph glyph-name="daggerdbl" unicode="&#x2021;" horiz-adv-x="905" 
d="M866 1034h-336v-573h336v-137h-336v-324h-155v324h-336v137h336v573h-336v137h336v324h155v-324l336 -2v-135z" />
    <glyph glyph-name="periodcentered" unicode="&#xb7;" horiz-adv-x="537" 
d="M266 518q-23 0 -42.5 8.5t-35.5 24.5q-16 17 -24 37t-8 43q0 47 35.5 79.5t76.5 32.5q43 0 78 -34.5t35 -77.5q0 -41 -33 -77t-82 -36v0z" />
    <glyph glyph-name="quotesinglbase" unicode="&#x201a;" horiz-adv-x="537" 
d="M279 209q10 0 22 -5t16 -5q28 -17 42 -41.5t14 -55.5v-14q-4 -39 -11.5 -78t-29.5 -80l-17 -30q-16 -27 -35.5 -53.5t-48.5 -55.5l-36 -37l-43 -35l-52 58l25 24q41 56 55.5 86.5t9.5 67.5l-2 29q-4 4 -6 12l-4 16q-1 4 -1.5 9t-0.5 10l-6 20q-2 8 -6 16.5t-4 24.5
q0 14 6 34.5t24 53.5l39 23l4 2q5 0 7.5 0.5t3.5 1.5z" />
    <glyph glyph-name="quotedblbase" unicode="&#x201e;" horiz-adv-x="870" 
d="M678 180l14 -18q-2 -4 7.5 -16.5t7.5 -43.5l-2 -41q-6 -38 -18.5 -76t-31.5 -75l-39 -60q-8 -10 -16 -21t-18 -22l-54 -53l-43 -35l-51 58q2 3 6.5 7t10.5 9q28 27 43.5 58.5t29.5 72.5v10q1 3 1.5 8.5t0.5 12.5l-2 29q-4 6 -9 20t-9 31q-4 16 -6 31.5t-2 23.5v12
q0 18 5 35t15 33l19 18q18 19 34.5 19t30.5 2h10q21 -4 32 -5t34 -24v0zM262 209q29 0 44.5 -7t17.5 -7q19 -10 31.5 -31t17.5 -53l-2 -50q-4 -16 -10.5 -48.5t-34.5 -92.5l-11 -20q-4 -6 -13 -23.5t-27 -41.5q-19 -23 -48.5 -53t-74.5 -63l-52 58l25 24q41 56 53 86.5
t12 67.5v14l-10 47q-12 31 -15 45.5t-3 24.5q0 43 19.5 83t80.5 40v0z" />
    <glyph glyph-name="perthousand" unicode="&#x2030;" horiz-adv-x="2423" 
d="M1153 1628l-491 -1763h-127l491 1763h127zM434 715q-143 0 -227 113.5t-84 306.5q0 192 79 297.5t220 105.5q143 0 227 -111.5t84 -308.5q0 -192 -77.5 -297.5t-221.5 -105.5v0zM254 1133q0 -148 48 -233t126 -85q86 0 129 78t43 233q0 136 -46 224t-130 88
q-80 0 -125 -81t-45 -224v0zM2001 -16q-143 0 -227 113.5t-84 305.5q0 193 78.5 298.5t220.5 105.5q143 0 227 -111.5t84 -308.5q0 -192 -78 -297.5t-221 -105.5v0zM1266 -16q-144 0 -228 113.5t-84 305.5q0 193 79 298.5t220 105.5q144 0 228 -111.5t84 -308.5
q0 -192 -78 -297.5t-221 -105.5v0zM1821 401q0 -147 48 -232t126 -85q86 0 129 78t43 233q0 135 -46 223.5t-130 88.5q-80 0 -125 -81t-45 -225v0zM1085 401q0 -147 48.5 -232t126.5 -85q86 0 129 78t43 233q0 135 -46.5 223.5t-130.5 88.5q-79 0 -124.5 -81t-45.5 -225v0z
" />
    <glyph glyph-name="Acircumflex" unicode="&#xc2;" horiz-adv-x="1317" 
d="M701 1983l252 -293l-66 -68l-229 201l-228 -201l-65 68l250 293h86zM898 586l-247 755h-11l-247 -755h505zM218 53q-9 -26 -27 -39.5t-46 -13.5h-164v137h102l453 1358h217l455 -1359h98v-136h-160q-28 0 -46.5 13.5t-27.5 39.5l-133 406h-587z" />
    <glyph glyph-name="Ecircumflex" unicode="&#xca;" horiz-adv-x="1284" 
d="M685 1983l252 -293l-66 -68l-229 201l-228 -201l-65 68l250 293h86zM109 1358v137h912q31 0 46 -15.5t15 -47.5v-210h-115v136h-559v-531h582v-137h-582v-553h559v135h136v-209q0 -31 -16 -47t-48 -16h-794v1358h-136z" />
    <glyph glyph-name="Aacute" unicode="&#xc1;" horiz-adv-x="1317" 
d="M896 1981l88 -128l-400 -256l-82 126zM898 586l-247 755h-11l-247 -755h505zM218 53q-9 -26 -27 -39.5t-46 -13.5h-164v137h102l453 1358h217l455 -1359h98v-136h-160q-28 0 -46.5 13.5t-27.5 39.5l-133 406h-587z" />
    <glyph glyph-name="Edieresis" unicode="&#xcb;" horiz-adv-x="1284" 
d="M852 1688q-20 0 -37.5 8t-33.5 23q-15 15 -23 33t-8 38q0 41 31 72t71 31q41 0 72 -31t31 -72t-31 -71.5t-72 -30.5v0zM433 1688q-20 0 -38 8t-34 23q-15 15 -23 33t-8 38q0 41 31 72t72 31t71.5 -31t30.5 -72t-30.5 -71.5t-71.5 -30.5v0zM109 1358v137h912
q31 0 46 -15.5t15 -47.5v-210h-115v136h-559v-531h582v-137h-582v-553h559v135h136v-209q0 -31 -16 -47t-48 -16h-794v1358h-136z" />
    <glyph glyph-name="Egrave" unicode="&#xc8;" horiz-adv-x="1284" 
d="M764 1646h-147l-240 254h201zM109 1358v137h912q31 0 46 -15.5t15 -47.5v-210h-115v136h-559v-531h582v-137h-582v-553h559v135h136v-209q0 -31 -16 -47t-48 -16h-794v1358h-136z" />
    <glyph glyph-name="Iacute" unicode="&#xcd;" horiz-adv-x="717" 
d="M596 1981l88 -128l-400 -256l-82 126zM576 137v-137h-436v137h136v1221h-136v137h436v-137h-136v-1221h136z" />
    <glyph glyph-name="Icircumflex" unicode="&#xce;" horiz-adv-x="717" 
d="M402 1983l252 -293l-66 -68l-229 201l-228 -201l-65 68l250 293h86zM576 137v-137h-436v137h136v1221h-136v137h436v-137h-136v-1221h136z" />
    <glyph glyph-name="Idieresis" unicode="&#xcf;" horiz-adv-x="717" 
d="M569 1688q-20 0 -37.5 8t-33.5 23q-15 15 -23 33t-8 38q0 41 31 72t71 31q41 0 72 -31t31 -72t-31 -71.5t-72 -30.5v0zM150 1688q-20 0 -38 8t-34 23q-15 15 -23 33t-8 38q0 41 31 72t72 31t71.5 -31t30.5 -72t-30.5 -71.5t-71.5 -30.5v0zM576 137v-137h-436v137h136
v1221h-136v137h436v-137h-136v-1221h136z" />
    <glyph glyph-name="Igrave" unicode="&#xcc;" horiz-adv-x="717" 
d="M481 1646h-147l-240 254h201zM576 137v-137h-436v137h136v1221h-136v137h436v-137h-136v-1221h136z" />
    <glyph glyph-name="Oacute" unicode="&#xd3;" horiz-adv-x="1448" 
d="M962 1981l88 -128l-400 -256l-82 126zM51 772q0 323 223 538.5t542 215.5q318 0 542 -215.5t224 -538.5q0 -328 -224 -550t-542 -222q-319 0 -542 222t-223 550v0zM207 772q0 -271 178.5 -451t430.5 -180q251 0 430.5 180t179.5 451q0 265 -179.5 439t-430.5 174
q-252 0 -430.5 -174t-178.5 -439v0z" />
    <glyph glyph-name="Ocircumflex" unicode="&#xd4;" horiz-adv-x="1448" 
d="M767 1983l252 -293l-66 -68l-229 201l-228 -201l-65 68l250 293h86zM51 772q0 323 223 538.5t542 215.5q318 0 542 -215.5t224 -538.5q0 -328 -224 -550t-542 -222q-319 0 -542 222t-223 550v0zM207 772q0 -271 178.5 -451t430.5 -180q251 0 430.5 180t179.5 451
q0 265 -179.5 439t-430.5 174q-252 0 -430.5 -174t-178.5 -439v0z" />
    <glyph glyph-name="Ograve" unicode="&#xd2;" horiz-adv-x="1448" 
d="M846 1646h-147l-240 254h201zM51 772q0 323 223 538.5t542 215.5q318 0 542 -215.5t224 -538.5q0 -328 -224 -550t-542 -222q-319 0 -542 222t-223 550v0zM207 772q0 -271 178.5 -451t430.5 -180q251 0 430.5 180t179.5 451q0 265 -179.5 439t-430.5 174
q-252 0 -430.5 -174t-178.5 -439v0z" />
    <glyph glyph-name="Uacute" unicode="&#xda;" horiz-adv-x="1536" 
d="M1005 1981l88 -128l-400 -256l-82 126zM1279 1358v-784q0 -160 -37.5 -269.5t-107.5 -176.5q-70 -68 -169 -98t-220 -30q-117 0 -214 29t-168 97q-71 67 -109.5 176.5t-38.5 271.5v784h-136v137h232q34 0 50.5 -15.5t16.5 -47.5v-852q0 -225 92 -329.5t275 -104.5
q186 0 278.5 104.5t92.5 329.5v852q0 32 17 47.5t50 15.5h232v-137h-136z" />
    <glyph glyph-name="Ucircumflex" unicode="&#xdb;" horiz-adv-x="1536" 
d="M810 1983l252 -293l-66 -68l-229 201l-228 -201l-65 68l250 293h86zM1279 1358v-784q0 -160 -37.5 -269.5t-107.5 -176.5q-70 -68 -169 -98t-220 -30q-117 0 -214 29t-168 97q-71 67 -109.5 176.5t-38.5 271.5v784h-136v137h232q34 0 50.5 -15.5t16.5 -47.5v-852
q0 -225 92 -329.5t275 -104.5q186 0 278.5 104.5t92.5 329.5v852q0 32 17 47.5t50 15.5h232v-137h-136z" />
    <glyph glyph-name="Ugrave" unicode="&#xd9;" horiz-adv-x="1536" 
d="M889 1646h-147l-240 254h201zM1279 1358v-784q0 -160 -37.5 -269.5t-107.5 -176.5q-70 -68 -169 -98t-220 -30q-117 0 -214 29t-168 97q-71 67 -109.5 176.5t-38.5 271.5v784h-136v137h232q34 0 50.5 -15.5t16.5 -47.5v-852q0 -225 92 -329.5t275 -104.5
q186 0 278.5 104.5t92.5 329.5v852q0 32 17 47.5t50 15.5h232v-137h-136z" />
    <glyph glyph-name="dotlessi" unicode="&#x131;" horiz-adv-x="690" 
d="M348 1171q31 0 46.5 -15.5t15.5 -47.5v-857q0 -56 22.5 -85t67.5 -29h105v-146h-173q-91 0 -136.5 58t-45.5 174v826l-123 2v120h221z" />
    <glyph glyph-name="circumflex" unicode="&#x2c6;" horiz-adv-x="821" 
d="M453 1659l252 -293l-66 -68l-229 201l-228 -201l-65 68l250 293h86z" />
    <glyph glyph-name="tilde" unicode="&#x2dc;" horiz-adv-x="856" 
d="M750 1579q-25 -97 -69 -146t-108 -49q-20 0 -62 11.5t-86 26.5q-44 14 -81 25t-45 11q-36 0 -60 -22t-36 -66l-97 29q27 97 71.5 145.5t105.5 48.5q18 0 61 -11t88 -25q45 -15 82 -26t45 -11q33 0 56.5 22.5t37.5 67.5z" />
    <glyph glyph-name="macron" unicode="&#xaf;" horiz-adv-x="1174" 
d="M965 1760v-127h-736v127h736z" />
    <glyph glyph-name="breve" unicode="&#x2d8;" horiz-adv-x="870" 
d="M434 1446q72 0 108 38t36 113h116q0 -137 -66.5 -208.5t-189.5 -71.5t-192.5 75.5t-69.5 204.5h115q0 -67 40 -109t103 -42v0z" />
    <glyph glyph-name="dotaccent" unicode="&#x2d9;" horiz-adv-x="598" 
d="M403 1464q0 -41 -31.5 -71.5t-74.5 -30.5q-41 0 -71.5 30.5t-30.5 71.5q0 43 30.5 75t71.5 32q43 0 74.5 -32t31.5 -75v0z" />
    <glyph glyph-name="ring" unicode="&#x2da;" horiz-adv-x="782" 
d="M393 1266q-104 0 -166.5 62.5t-62.5 160.5t58.5 157.5t162.5 59.5q107 0 171.5 -63.5t64.5 -161.5q0 -99 -60.5 -157t-167.5 -58v0zM391 1358q51 0 79 34.5t28 90.5q0 55 -31 92t-80 37t-76.5 -35t-27.5 -90q0 -53 29.5 -91t78.5 -38v0z" />
    <glyph glyph-name="cedilla" unicode="&#xb8;" horiz-adv-x="616" 
d="M264 -494q-92 0 -144 53.5t-52 141.5h106q0 -41 22.5 -69.5t69.5 -28.5t76 28.5t29 75.5q0 41 -27 67t-82 38l-100 20l39 168h63l-24 -117q112 -18 172.5 -57t60.5 -129q0 -88 -58.5 -139.5t-150.5 -51.5v0z" />
    <glyph glyph-name="hungarumlaut" unicode="&#x2dd;" horiz-adv-x="1006" 
d="M682 1704l123 -100l-316 -344l-88 67zM303 1704l123 -100l-315 -344l-88 67z" />
    <glyph glyph-name="ogonek" unicode="&#x2db;" horiz-adv-x="680" 
d="M315 -55q-57 -36 -85.5 -78t-28.5 -90q0 -49 30.5 -78t85.5 -29q53 0 97 32t80 97l77 -49q-39 -82 -111.5 -136t-164.5 -54t-146.5 49t-54.5 141q0 86 47 144.5t152 121.5l174 107l37 -62z" />
    <glyph glyph-name="caron" unicode="&#x2c7;" horiz-adv-x="760" 
d="M410 1479l229 200l66 -67l-252 -293h-86l-250 293l65 67z" />
    <glyph glyph-name="glyph00001" horiz-adv-x="0" 
 />
    <glyph glyph-name="glyph00002" horiz-adv-x="682" 
 />
    <glyph glyph-name="uni00A0" unicode="&#xa0;" horiz-adv-x="594" 
 />
    <glyph glyph-name="glyph00112" horiz-adv-x="725" 
d="M623 1556v-137h-521v137h521z" />
    <glyph glyph-name="uni00B5" unicode="&#xb5;" horiz-adv-x="1440" 
d="M1098 1171q31 0 46 -15.5t15 -47.5v-887q0 -56 22 -83t66 -27h106l1 -148l-160 -1q-82 0 -130 44t-63 123q-106 -79 -206.5 -118.5t-194.5 -39.5q-72 0 -124 19.5t-83 58.5v-514l-149 -12v1648h92q34 0 50.5 -15.5t16.5 -47.5v-770q0 -129 47.5 -186.5t159.5 -57.5
q97 0 193.5 39.5t193.5 118.5v919h101z" />
    <glyph glyph-name="Euro" unicode="&#x20ac;" 
d="M305 570q35 -228 133 -352t258 -124q123 0 203.5 64.5t162.5 207.5l138 -37q-98 -187 -213.5 -273.5t-292.5 -86.5q-133 0 -229 47t-162 127q-67 80 -107 195t-57 232h-139v114h129q-2 21 -3 28t-1 42v43t2 25h-127v113h137q37 281 177.5 435t381.5 154q112 0 226.5 -29
t230.5 -88l-53 -123q-103 58 -204 86.5t-200 28.5q-168 0 -267 -118.5t-130 -345.5h583v-113h-591q-2 -14 -2 -22.5v-43.5q0 -33 1 -41t3 -31h589v-114h-577z" />
    <glyph glyph-name="uniFB01" unicode="&#xfb01;" horiz-adv-x="1443" 
d="M1169 1464q0 -41 -30.5 -71.5t-73.5 -30.5q-41 0 -72.5 30.5t-31.5 71.5q0 43 31.5 75t72.5 32q43 0 73.5 -32t30.5 -75v0zM440 1051v-1051h-305v137h144v914h-144v120h144q10 215 104 326t297 111q65 0 121 -13.5t104 -40.5l-43 -120q-37 25 -83.5 37t-102.5 12
q-109 0 -168 -78t-68 -234h242v-120h-242zM1081 1171q31 0 46.5 -15.5t15.5 -47.5v-858q0 -56 22.5 -84t67.5 -28h104v-138h-172q-91 0 -136.5 58t-45.5 174v817l-123 2v120h221z" />
    <glyph glyph-name="uniFB02" unicode="&#xfb02;" horiz-adv-x="1423" 
d="M1081 1577q31 0 46.5 -16t15.5 -48v-1263q0 -56 22 -84t66 -28h104v-138h-157q-98 0 -147.5 58t-49.5 174v1222h-107l-12 -20q-37 25 -83.5 37t-102.5 12q-109 0 -168 -78t-68 -234h242v-112h-242v-1059h-305v121h144v938h-144v112h144q10 215 104 326t297 111
q47 0 91.5 -7t86.5 -24h223z" />
    <glyph glyph-name="glyph00228" horiz-adv-x="672" 
d="M594 938v-142l-516 -207v142z" />
    <glyph glyph-name="glyph00229" horiz-adv-x="721" 
d="M741 803v-113h-706v113h706z" />
    <glyph glyph-name="glyph00230" horiz-adv-x="480" 
d="M384 1712l-166 -1927h-122l166 1927h122z" />
    <glyph glyph-name="Ccaron" unicode="&#x10c;" 
d="M635 1803l229 200l66 -67l-252 -293h-86l-250 293l65 67zM40 752q0 324 213 544.5t529 220.5q159 0 348 -74t231 -244l-137 -38q-46 123 -177.5 169t-260.5 46q-249 0 -419.5 -176.5t-170.5 -447.5q0 -268 170.5 -458t426.5 -190q231 0 348 92.5l117 92.5l112 -82
l-151 -122t-428 -122q-329 0 -540 231t-211 558v0z" />
    <glyph glyph-name="Ccircumflex" unicode="&#x108;" 
d="M678 1983l252 -293l-66 -68l-229 201l-228 -201l-65 68l250 293h86zM40 752q0 324 213 544.5t529 220.5q159 0 348 -74t231 -244l-137 -38q-46 123 -177.5 169t-260.5 46q-249 0 -419.5 -176.5t-170.5 -447.5q0 -268 170.5 -458t426.5 -190q231 0 348 92.5l117 92.5
l112 -82l-151 -122t-428 -122q-329 0 -540 231t-211 558v0z" />
    <glyph glyph-name="Dcaron" unicode="&#x10e;" horiz-adv-x="1456" 
d="M727 1803l229 200l66 -67l-252 -293h-86l-250 293l65 67zM70 1358v137h654q307 0 474.5 -190.5t167.5 -556.5q0 -367 -167.5 -558.5t-474.5 -189.5l-518 3v1355h-136zM732 1358h-362v-1227h362q223 0 351.5 153.5t128.5 463.5q0 309 -128.5 459.5t-351.5 150.5v0z" />
    <glyph glyph-name="Dcroat" unicode="&#x110;" horiz-adv-x="1456" 
d="M70 1358v137h654q307 0 474.5 -190.5t167.5 -556.5q0 -367 -167.5 -558.5t-474.5 -189.5l-518 3v1355h-136zM732 1358h-362v-1227h362q223 0 351.5 153.5t128.5 463.5q0 309 -128.5 459.5t-351.5 150.5v0z" />
    <glyph glyph-name="Ecaron" unicode="&#x11a;" horiz-adv-x="1284" 
d="M641 1803l229 200l66 -67l-252 -293h-86l-250 293l65 67zM109 1358v137h912q31 0 46 -15.5t15 -47.5v-210h-115v136h-559v-531h582v-137h-582v-553h559v135h136v-209q0 -31 -16 -47t-48 -16h-794v1358h-136z" />
    <glyph glyph-name="Eogonek" unicode="&#x118;" horiz-adv-x="1284" 
d="M1135 -250q-39 -82 -111.5 -136t-164.5 -54t-146.5 49t-54.5 141q0 80 41 136t132 114h-586v1358h-136v137h912q31 0 46 -15.5t15 -47.5v-210h-115v136h-559v-531h582v-137h-582v-553h559v135h136v-209q0 -31 -16 -47t-48 -16h-70l-90 -55q-57 -36 -85.5 -78t-28.5 -90
q0 -49 30.5 -78t85.5 -29q53 0 97 32t80 97z" />
    <glyph glyph-name="Gbreve" unicode="&#x11e;" horiz-adv-x="1305" 
d="M651 1770q72 0 108 38t36 113h116q0 -137 -66.5 -208.5t-189.5 -71.5t-192.5 75.5t-69.5 204.5h115q0 -67 40 -109t103 -42v0zM31 758q0 322 216.5 547.5t533.5 225.5q260 0 393 -91.5l133 -91.5l-88 -112l-117.5 77t-318.5 77q-252 0 -424 -181.5t-172 -450.5
q0 -276 175.5 -457.5t428.5 -181.5q169 0 306 89t157 138q2 5 2 20v15v144q0 24 -12.5 35.5t-34.5 11.5h-206v132h263q69 0 100 -31t31 -99v-229q0 -109 -190 -238t-418 -129q-306 0 -532 221.5t-226 558.5v0z" />
    <glyph glyph-name="Idotaccent" unicode="&#x130;" horiz-adv-x="717" 
d="M462 1788q0 -41 -31.5 -71.5t-74.5 -30.5q-41 0 -71.5 30.5t-30.5 71.5q0 43 30.5 75t71.5 32q43 0 74.5 -32t31.5 -75v0zM576 137v-137h-436v137h136v1221h-136v137h436v-137h-136v-1221h136z" />
    <glyph glyph-name="IJ" unicode="&#x132;" horiz-adv-x="1753" 
d="M576 137v-137h-436v137h136v1221h-136v137h436v-137h-136v-1221h136zM1660 1495q34 0 51 -15.5t17 -47.5v-985q0 -223 -125 -335t-327 -112q-199 0 -340.5 112t-141.5 335v61h147v-55q0 -164 104 -242.5t229 -78.5q122 0 210.5 64.5t88.5 256.5v905h-383v137h470z" />
    <glyph glyph-name="Lacute" unicode="&#x139;" horiz-adv-x="1053" 
d="M685 1981l88 -128l-400 -256l-82 126zM444 1495v-1359h466l-2 136h124v-209q0 -31 -15.5 -47t-47.5 -16h-693v1358h-136v137h304z" />
    <glyph glyph-name="Lcaron" unicode="&#x13d;" horiz-adv-x="1053" 
d="M276 0v1358h-136v137h275q34 38 51 76t17 76q0 29 -12.5 69t-12.5 76q0 41 28.5 71t77.5 30q50 0 77.5 -29t27.5 -72q0 -105 -56.5 -200t-168.5 -181v-1275h466l-2 136h124v-209q0 -31 -15.5 -47t-47.5 -16h-693z" />
    <glyph glyph-name="Nacute" unicode="&#x143;" horiz-adv-x="1624" 
d="M970 1981l88 -128l-400 -256l-82 126zM1368 1358v-1358h-135q-26 0 -45 10.5t-31 30.5l-717 1194v-1172q0 -31 -15.5 -47t-47.5 -16h-236v137h136v1360h135q22 -2 42.5 -12t32.5 -31l717 -1196v1174q0 32 15.5 47.5t46.5 15.5h238v-137h-136z" />
    <glyph glyph-name="Ncaron" unicode="&#x147;" horiz-adv-x="1624" 
d="M811 1803l229 200l66 -67l-252 -293h-86l-250 293l65 67zM1368 1358v-1358h-135q-26 0 -45 10.5t-31 30.5l-717 1194v-1172q0 -31 -15.5 -47t-47.5 -16h-236v137h136v1360h135q22 -2 42.5 -12t32.5 -31l717 -1196v1174q0 32 15.5 47.5t46.5 15.5h238v-137h-136z" />
    <glyph glyph-name="Uhungarumlaut" unicode="&#x170;" horiz-adv-x="1536" 
d="M1036 2028l123 -100l-316 -344l-88 67zM657 2028l123 -100l-315 -344l-88 67zM1279 1358v-784q0 -160 -37.5 -269.5t-107.5 -176.5q-70 -68 -169 -98t-220 -30q-117 0 -214 29t-168 97q-71 67 -109.5 176.5t-38.5 271.5v784h-136v137h232q34 0 50.5 -15.5t16.5 -47.5
v-852q0 -225 92 -329.5t275 -104.5q186 0 278.5 104.5t92.5 329.5v852q0 32 17 47.5t50 15.5h232v-137h-136z" />
    <glyph glyph-name="Uring" unicode="&#x16e;" horiz-adv-x="1536" 
d="M768 1590q-104 0 -166.5 62.5t-62.5 160.5t58.5 157.5t162.5 59.5q107 0 171.5 -63.5t64.5 -161.5q0 -99 -60.5 -157t-167.5 -58v0zM766 1682q51 0 79 34.5t28 90.5q0 55 -31 92t-80 37t-76.5 -35t-27.5 -90q0 -53 29.5 -91t78.5 -38v0zM1279 1358v-784
q0 -160 -37.5 -269.5t-107.5 -176.5q-70 -68 -169 -98t-220 -30q-117 0 -214 29t-168 97q-71 67 -109.5 176.5t-38.5 271.5v784h-136v137h232q34 0 50.5 -15.5t16.5 -47.5v-852q0 -225 92 -329.5t275 -104.5q186 0 278.5 104.5t92.5 329.5v852q0 32 17 47.5t50 15.5h232
v-137h-136z" />
    <glyph glyph-name="Tcommaaccent" unicode="&#x162;" horiz-adv-x="1143" 
d="M593 -459q-92 0 -144 53.5t-52 141.5h106q0 -41 22.5 -69.5t69.5 -28.5t76 28.5t29 75.5q0 41 -27 67t-82 38l-100 20l31 133h-34v1358h-313v-136h-136v210q0 32 16 47.5t47 15.5h938q32 0 48 -15.5t16 -47.5v-210h-136v136h-314v-1358h-68l-17 -82q112 -18 172.5 -57
t60.5 -129q0 -88 -58.5 -139.5t-150.5 -51.5v0z" />
    <glyph glyph-name="uni021A" unicode="&#x21a;" horiz-adv-x="1143" 
d="M39 1432q0 32 16 47.5t47 15.5h938q32 0 48 -15.5t16 -47.5v-210h-136v136h-314v-1358h-166v1358h-313v-136h-136v210zM573 -46q10 0 22 -5t16 -5q28 -18 42 -42t14 -55v-14q-4 -39 -11.5 -78t-29.5 -80l-17 -30q-16 -27 -35.5 -53.5t-48.5 -55.5l-36 -37l-43 -35l-52 58
l25 24q41 56 55.5 86.5t9.5 67.5l-2 29q-4 4 -6 12l-4 16q-1 4 -1.5 8.5t-0.5 10.5l-6 20q-2 8 -6 16.5t-4 24.5q0 14 6 34.5t24 53.5l39 23l4 2q5 0 7.5 0.5t3.5 1.5z" />
    <glyph glyph-name="Tcaron" unicode="&#x164;" horiz-adv-x="1143" 
d="M570 1803l229 200l66 -67l-252 -293h-86l-250 293l65 67zM39 1432q0 32 16 47.5t47 15.5h938q32 0 48 -15.5t16 -47.5v-210h-136v136h-314v-1358h-166v1358h-313v-136h-136v210z" />
    <glyph glyph-name="Ohungarumlaut" unicode="&#x150;" horiz-adv-x="1448" 
d="M992 2028l123 -100l-316 -344l-88 67zM613 2028l123 -100l-315 -344l-88 67zM51 772q0 323 223 538.5t542 215.5q318 0 542 -215.5t224 -538.5q0 -328 -224 -550t-542 -222q-319 0 -542 222t-223 550v0zM207 772q0 -271 178.5 -451t430.5 -180q251 0 430.5 180t179.5 451
q0 265 -179.5 439t-430.5 174q-252 0 -430.5 -174t-178.5 -439v0z" />
    <glyph glyph-name="Racute" unicode="&#x154;" horiz-adv-x="1366" 
d="M841 1981l88 -128l-400 -256l-82 126zM400 1358v-611h296q160 0 239.5 75t79.5 231q0 159 -79.5 232t-239.5 73h-296zM620 616h-220v-616h-164v1358h-136v137h596q235 0 357 -113.5t122 -328.5q0 -163 -74.5 -267.5t-189.5 -142.5q50 -23 79 -61.5t52 -92.5l160 -352h136
l1 -137h-207q-27 0 -45.5 12t-28.5 35l-178 420q-20 47 -41.5 75.5t-50.5 45.5q-29 16 -69.5 22t-98.5 6v0z" />
    <glyph glyph-name="Rcaron" unicode="&#x158;" horiz-adv-x="1366" 
d="M682 1803l229 200l66 -67l-252 -293h-86l-250 293l65 67zM400 1358v-611h296q160 0 239.5 75t79.5 231q0 159 -79.5 232t-239.5 73h-296zM620 616h-220v-616h-164v1358h-136v137h596q235 0 357 -113.5t122 -328.5q0 -163 -74.5 -267.5t-189.5 -142.5q50 -23 79 -61.5
t52 -92.5l160 -352h136l1 -137h-207q-27 0 -45.5 12t-28.5 35l-178 420q-20 47 -41.5 75.5t-50.5 45.5q-29 16 -69.5 22t-98.5 6v0z" />
    <glyph glyph-name="Sacute" unicode="&#x15a;" horiz-adv-x="1116" 
d="M716 1981l88 -128l-400 -256l-82 126zM1068 1164h-132q-1 42 -10 86.5t-52 76.5q-42 20 -58 27t-53 17q-45 11 -90.5 16.5t-83.5 5.5q-70 0 -126 -19t-95 -52q-39 -34 -55.5 -73.5t-16.5 -96.5q0 -38 11.5 -70.5t27.5 -58.5t40.5 -50t51.5 -44q25 -20 58 -38.5t67 -33.5
t70.5 -30.5t72.5 -30.5q34 -15 68.5 -32t68.5 -35t72 -39t65 -45q25 -24 52.5 -52.5t43.5 -62.5q16 -33 24 -74t8 -88t-13 -88.5t-30 -78.5q-17 -36 -56 -67.5t-69 -56.5q-31 -25 -67 -45t-78 -33q-43 -13 -108 -20t-114 -7q-102 0 -179.5 30.5t-139.5 83.5
q-63 54 -103 113.5t-72 132.5l138 78q24 -64 60.5 -115t79.5 -92q42 -40 95 -65t119 -25q73 0 143.5 16.5t117.5 45.5q46 28 86.5 76.5t40.5 112.5q0 46 -19.5 89t-46.5 71q-28 28 -78.5 51.5t-91.5 45.5q-42 22 -89.5 43t-96.5 40q-49 20 -97.5 44.5t-89.5 52.5
q-42 28 -80 63t-65 77q-28 42 -45 96t-17 119q0 44 8.5 83t26.5 74q17 34 41 63t55 53q30 23 66 41t78 31q41 12 85.5 18t94.5 6q48 0 104 -4.5t108 -16.5q41 -10 106.5 -34t103.5 -62q57 -51 58 -147.5l1 -96.5v0z" />
    <glyph glyph-name="Scommaaccent" unicode="&#x218;" horiz-adv-x="1116" 
d="M1068 1164h-132q-1 42 -10 86.5t-52 76.5q-42 20 -58 27t-53 17q-45 11 -90.5 16.5t-83.5 5.5q-70 0 -126 -19t-95 -52q-39 -34 -55.5 -73.5t-16.5 -96.5q0 -38 11.5 -70.5t27.5 -58.5t40.5 -50t51.5 -44q25 -20 58 -38.5t67 -33.5t70.5 -30.5t72.5 -30.5
q34 -15 68.5 -32t68.5 -35t72 -39t65 -45q25 -24 52.5 -52.5t43.5 -62.5q16 -33 24 -74t8 -88t-13 -88.5t-30 -78.5q-17 -36 -56 -67.5t-69 -56.5q-31 -25 -67 -45t-78 -33q-43 -13 -108 -20t-114 -7q-102 0 -179.5 30.5t-139.5 83.5q-63 54 -103 113.5t-72 132.5l138 78
q24 -64 60.5 -115t79.5 -92q42 -40 95 -65t119 -25q73 0 143.5 16.5t117.5 45.5q46 28 86.5 76.5t40.5 112.5q0 46 -19.5 89t-46.5 71q-28 28 -78.5 51.5t-91.5 45.5q-42 22 -89.5 43t-96.5 40q-49 20 -97.5 44.5t-89.5 52.5q-42 28 -80 63t-65 77q-28 42 -45 96t-17 119
q0 44 8.5 83t26.5 74q17 34 41 63t55 53q30 23 66 41t78 31q41 12 85.5 18t94.5 6q48 0 104 -4.5t108 -16.5q41 -10 106.5 -34t103.5 -62q57 -51 58 -147.5l1 -96.5v0zM538 -74q10 0 22 -5t16 -5q28 -18 42 -42t14 -55v-14q-4 -39 -11.5 -78t-29.5 -80l-17 -30
q-16 -27 -35.5 -53.5t-48.5 -55.5l-36 -37l-43 -35l-52 58l25 24q41 56 55.5 86.5t9.5 67.5l-2 29q-4 4 -6 12l-4 16q-1 4 -1.5 8.5t-0.5 10.5l-6 20q-2 8 -6 16.5t-4 24.5q0 14 6 34.5t24 53.5l39 23l4 2q5 0 7.5 0.5t3.5 1.5z" />
    <glyph glyph-name="Zacute" unicode="&#x179;" horiz-adv-x="1231" 
d="M774 1981l88 -128l-400 -256l-82 126zM919 272h136v-209q0 -31 -15.5 -47t-47.5 -16h-918v109l788 1249h-627v-136h-136v210q0 32 16 47.5t47 15.5h883v-116l-773 -1243h647v136z" />
    <glyph glyph-name="Zdotaccent" unicode="&#x17b;" horiz-adv-x="1231" 
d="M719 1788q0 -41 -31.5 -71.5t-74.5 -30.5q-41 0 -71.5 30.5t-30.5 71.5q0 43 30.5 75t71.5 32q43 0 74.5 -32t31.5 -75v0zM919 272h136v-209q0 -31 -15.5 -47t-47.5 -16h-918v109l788 1249h-627v-136h-136v210q0 32 16 47.5t47 15.5h883v-116l-773 -1243h647v136z" />
    <glyph glyph-name="abreve" unicode="&#x103;" horiz-adv-x="1253" 
d="M625 1446q72 0 108 38t36 113h116q0 -137 -66.5 -208.5t-189.5 -71.5t-192.5 75.5t-69.5 204.5h115q0 -67 40 -109t103 -42v0zM844 479l6 78h-119q-239 0 -362 -59t-123 -165q0 -95 53 -158.5t195 -63.5q174 0 260.5 143.5t89.5 224.5v0zM1089 136h88v-136h-139
q-49 0 -82 14.5t-57 42.5q-25 29 -29.5 56t-4.5 84l-95 -114t-283 -114q-149 0 -270.5 72.5t-121.5 285.5q0 204 160 286t488 77h106q1 54 -12.5 171.5t-239.5 116.5q-128 -1 -201 -19t-73 -79v-54h-147v96q0 45 71 113t320 80q107 0 201.5 -25.5t141.5 -76.5
q46 -51 66 -107t20 -160v-500q0 -50 31 -80t62 -30v0z" />
    <glyph glyph-name="aogonek" unicode="&#x105;" horiz-adv-x="1253" 
d="M844 479l6 78h-119q-239 0 -362 -59t-123 -165q0 -95 53 -158.5t195 -63.5q174 0 260.5 143.5t89.5 224.5v0zM1176 -250q-39 -82 -111.5 -136t-164.5 -54t-146.5 49t-54.5 141q0 86 47 144.5t152 121.5l27 16q-7 6 -13.5 12t-12.5 13q-25 29 -29.5 56t-4.5 84l-95 -114
t-283 -114q-149 0 -270.5 72.5t-121.5 285.5q0 204 160 286t488 77h106q1 54 -12.5 171.5t-239.5 116.5q-128 -1 -201 -19t-73 -79v-54h-147v96q0 45 71 113t320 80q107 0 201.5 -25.5t141.5 -76.5q46 -51 66 -107t20 -160v-500q0 -50 31 -80t62 -30h88v-136h-139
q-7 0 -13.5 0.5t-12.5 0.5l97 60l-37 62l-147 -91q17 -13 38.5 -20.5t48.5 -10.5l-92 -56q-57 -36 -85.5 -78t-28.5 -90q0 -49 30.5 -78t85.5 -29q53 0 97 32t80 97z" />
    <glyph glyph-name="cacute" unicode="&#x107;" horiz-adv-x="1108" 
d="M712 1657l88 -128l-400 -256l-82 126zM281 141q-82 80 -124 182.5t-42 226.5q0 125 41.5 227.5t123.5 180.5t184 117.5t222 39.5q103 0 182.5 -22t134.5 -66q54 -45 83 -68.5l29 -23.5l-87 -119l-20.5 18t-66.5 57q-45 38 -105.5 60.5t-142.5 22.5q-86 0 -161 -29.5
t-138 -86.5q-63 -58 -90.5 -133.5t-27.5 -174.5q0 -98 26.5 -170t87.5 -133q62 -60 133.5 -89.5t158.5 -29.5q34 0 73.5 7t83.5 22q45 14 75 37t46 58l22 51l122 -56l-12 -36q-26 -65 -71.5 -110.5t-110.5 -70.5t-120.5 -37.5t-101.5 -12.5q-120 0 -222.5 40.5t-184.5 120.5
v0z" />
    <glyph glyph-name="ccaron" unicode="&#x10d;" horiz-adv-x="1108" 
d="M553 1479l229 200l66 -67l-252 -293h-86l-250 293l65 67zM281 141q-82 80 -124 182.5t-42 226.5q0 125 41.5 227.5t123.5 180.5t184 117.5t222 39.5q103 0 182.5 -22t134.5 -66q54 -45 83 -68.5l29 -23.5l-87 -119l-20.5 18t-66.5 57q-45 38 -105.5 60.5t-142.5 22.5
q-86 0 -161 -29.5t-138 -86.5q-63 -58 -90.5 -133.5t-27.5 -174.5q0 -98 26.5 -170t87.5 -133q62 -60 133.5 -89.5t158.5 -29.5q34 0 73.5 7t83.5 22q45 14 75 37t46 58l22 51l122 -56l-12 -36q-26 -65 -71.5 -110.5t-110.5 -70.5t-120.5 -37.5t-101.5 -12.5
q-120 0 -222.5 40.5t-184.5 120.5v0z" />
    <glyph glyph-name="ccircumflex" unicode="&#x109;" horiz-adv-x="1108" 
d="M596 1659l252 -293l-66 -68l-229 201l-228 -201l-65 68l250 293h86zM281 141q-82 80 -124 182.5t-42 226.5q0 125 41.5 227.5t123.5 180.5t184 117.5t222 39.5q103 0 182.5 -22t134.5 -66q54 -45 83 -68.5l29 -23.5l-87 -119l-20.5 18t-66.5 57q-45 38 -105.5 60.5
t-142.5 22.5q-86 0 -161 -29.5t-138 -86.5q-63 -58 -90.5 -133.5t-27.5 -174.5q0 -98 26.5 -170t87.5 -133q62 -60 133.5 -89.5t158.5 -29.5q34 0 73.5 7t83.5 22q45 14 75 37t46 58l22 51l122 -56l-12 -36q-26 -65 -71.5 -110.5t-110.5 -70.5t-120.5 -37.5t-101.5 -12.5
q-120 0 -222.5 40.5t-184.5 120.5v0z" />
    <glyph glyph-name="dcaron" unicode="&#x10f;" horiz-adv-x="1839" 
d="M1640 1569q50 0 77.5 -29t27.5 -72q0 -107 -59 -204.5t-177 -184.5l-49 60q50 46 74.5 92t24.5 92q0 29 -12.5 69t-12.5 76q0 41 28.5 71t77.5 30v0zM968 883q-62 35 -159.5 68.5t-175.5 33.5q-166 1 -284.5 -109t-118.5 -355q0 -203 115.5 -301t290.5 -98q90 0 179.5 70
t150.5 163zM845 1358v137h218q35 0 48 -15.5t13 -48.5v-1183q0 -56 22 -84t66 -28h105v-136h-158q-88 0 -126.5 40.5t-47.5 132.5q-68 -92 -157.5 -137.5t-190.5 -45.5q-275 0 -415 142.5t-142 399.5q-2 230 129 406.5t408 176.5q76 0 177 -19t174 -57v319h-123z" />
    <glyph glyph-name="ecaron" unicode="&#x11b;" horiz-adv-x="1210" 
d="M604 1479l229 200l66 -67l-252 -293h-86l-250 293l65 67zM1122 616v-117h-895q11 -102 27.5 -150t60.5 -104q46 -58 145 -99t189 -39q85 2 183.5 44.5t164.5 78.5l62 -137q-103 -49 -215 -86t-193 -37q-156 0 -278 50.5t-182 129.5q-64 85 -97.5 189t-35.5 210
q8 260 157 419.5t420 159.5q220 0 353.5 -133t133.5 -379v0zM634 991q-155 0 -268.5 -95t-129.5 -266h737q0 186 -92.5 273.5t-246.5 87.5v0z" />
    <glyph glyph-name="eogonek" unicode="&#x119;" horiz-adv-x="1210" 
d="M818 -440q-92 0 -146.5 49t-54.5 141q0 76 36 129.5t115 106.5q-32 -8 -61.5 -12t-55.5 -4q-156 0 -278 50.5t-182 129.5q-64 85 -97.5 189t-35.5 210q8 260 157 419.5t420 159.5q220 0 353.5 -133t133.5 -379v-117h-895q11 -102 27.5 -150t60.5 -104q46 -58 145 -99
t189 -39q85 2 183.5 44.5t164.5 78.5l62 -137q-10 -5 -20 -9.5t-20 -9.5l8 -13l-189 -116q-57 -36 -85.5 -78t-28.5 -90q0 -49 30.5 -78t85.5 -29q53 0 97 32t80 97l77 -49q-39 -82 -111.5 -136t-164.5 -54v0zM634 991q-155 0 -268.5 -95t-129.5 -266h737q0 186 -92.5 273.5
t-246.5 87.5v0z" />
    <glyph glyph-name="gbreve" unicode="&#x11f;" horiz-adv-x="1182" 
d="M590 1446q72 0 108 38t36 113h116q0 -137 -66.5 -208.5t-189.5 -71.5t-192.5 75.5t-69.5 204.5h115q0 -67 40 -109t103 -42v0zM951 494q1 149 -8 215.5t-40 119.5q-32 57 -120.5 100.5t-198.5 42.5q-162 -1 -259.5 -115.5t-97.5 -282.5q0 -201 107.5 -309t247.5 -113
q107 -4 237.5 63.5t131.5 278.5v0zM878 -427q-77 -27 -194.5 -44t-262.5 6q-56 9 -141 35.5t-126 42.5l52 139q19 -6 105 -35.5t133 -38.5q112 -21 195 -11t139 28q63 24 115.5 60.5t68.5 83.5v302q-14 -10 -34.5 -27.5t-36.5 -27.5q-46 -30 -136 -58t-171 -28
q-60 0 -157.5 28t-222.5 140q-64 70 -101 143.5t-37 260.5q0 215 138 378t385 163q105 0 208.5 -44t158.5 -96v76q0 15 11.5 25t29.5 10h214v-136h-70q-28 0 -35.5 -20t-7.5 -49v-1092q-4 -19 -11.5 -37t-17.5 -35q-29 -46 -74 -81.5t-117 -60.5v0z" />
    <glyph glyph-name="ij" unicode="&#x133;" horiz-adv-x="1315" 
d="M1166 1388q0 -41 -30.5 -71.5t-73.5 -30.5q-41 0 -73 30.5t-32 71.5q0 43 32 75t73 32q43 0 73.5 -32t30.5 -75v0zM402 1388q0 -41 -30.5 -71.5t-73.5 -30.5q-41 0 -73 30.5t-32 71.5q0 43 32 75t73 32q43 0 73.5 -32t30.5 -75v0zM1090 1084q31 0 45.5 -15.5t14.5 -47.5
v-1084q0 -121 -7.5 -194.5t-54.5 -126.5q-56 -44 -112 -53.5t-168 -9.5h-162v137h162q67 0 103.5 6.5t62.5 40.5q25 34 28 76t3 128v1007h-158v136h243zM321 1084q31 0 46.5 -15.5t15.5 -47.5v-785q0 -56 22.5 -78t67.5 -22h104v-136h-187q-91 0 -129 50t-38 166v732h-123
v136h221z" />
    <glyph glyph-name="lacute" unicode="&#x13a;" horiz-adv-x="672" 
d="M496 1990l88 -128l-400 -256l-82 126zM325 1495q31 0 46 -16t15 -48v-1184q0 -56 22 -83.5t66 -27.5h105v-136h-158q-98 0 -145 58t-47 174v1126h-123v137h219z" />
    <glyph glyph-name="lcaron" unicode="&#x13e;" horiz-adv-x="1149" 
d="M748 1569q50 0 77.5 -29t27.5 -72q0 -107 -59 -204.5t-177 -184.5l-49 60q50 46 74.5 92t24.5 92q0 29 -12.5 69t-12.5 76q0 41 28.5 71t77.5 30v0zM325 1495q31 0 46 -16t15 -48v-1184q0 -56 22 -83.5t66 -27.5h105v-136h-158q-98 0 -145 58t-47 174v1126h-123v137h219z
" />
    <glyph glyph-name="nacute" unicode="&#x144;" horiz-adv-x="1460" 
d="M888 1657l88 -128l-400 -256l-82 126zM1226 0q-98 0 -147.5 58t-49.5 174v515q0 129 -71 179t-184 50q-96 0 -213.5 -77.5t-170.5 -126.5v-772h-161v948h-144v136h217q32 0 49 -15t17 -46v-88q109 85 206.5 131.5t205.5 46.5q178 0 294.5 -90t116.5 -276v-499
q0 -56 22 -84t66 -28h86v-136h-139z" />
    <glyph glyph-name="zdotaccent" unicode="&#x17c;" horiz-adv-x="1167" 
d="M687 1464q0 -41 -31.5 -71.5t-74.5 -30.5q-41 0 -71.5 30.5t-30.5 71.5q0 43 30.5 75t71.5 32q43 0 74.5 -32t31.5 -75v0zM904 272h136v-209q0 -31 -15 -47t-46 -16h-856v112l696 836h-528v-136h-136v209q0 31 16.5 47t47.5 16h797v-114l-691 -834h579v136z" />
    <glyph glyph-name="zacute" unicode="&#x17a;" horiz-adv-x="1167" 
d="M742 1657l88 -128l-400 -256l-82 126zM904 272h136v-209q0 -31 -15 -47t-46 -16h-856v112l696 836h-528v-136h-136v209q0 31 16.5 47t47.5 16h797v-114l-691 -834h579v136z" />
    <glyph glyph-name="uhungarumlaut" unicode="&#x171;" horiz-adv-x="1436" 
d="M986 1704l123 -100l-316 -344l-88 67zM607 1704l123 -100l-315 -344l-88 67zM1052 1084h167v-836q0 -28 6 -49t17 -35q12 -14 29.5 -21t40.5 -7h71v-136h-126q-87 0 -129 35t-42 105v91q-17 -106 -72.5 -148.5t-99.5 -65.5q-47 -24 -114 -35.5t-117 -11.5
q-99 0 -150 16.5t-125 59.5q-75 44 -119.5 120t-44.5 171v611h-148v136h244q17 0 30.5 -3.5t22.5 -11.5t13.5 -20t4.5 -28v-663q0 -76 20.5 -122t68.5 -72t81.5 -39.5t99.5 -14.5q52 -1 117.5 16t127.5 59q63 42 94.5 166.5t31.5 234.5v498z" />
    <glyph glyph-name="uring" unicode="&#x16f;" horiz-adv-x="1436" 
d="M718 1266q-104 0 -166.5 62.5t-62.5 160.5t58.5 157.5t162.5 59.5q107 0 171.5 -63.5t64.5 -161.5q0 -99 -60.5 -157t-167.5 -58v0zM716 1358q51 0 79 34.5t28 90.5q0 55 -31 92t-80 37t-76.5 -35t-27.5 -90q0 -53 29.5 -91t78.5 -38v0zM1052 1084h167v-836q0 -28 6 -49
t17 -35q12 -14 29.5 -21t40.5 -7h71v-136h-126q-87 0 -129 35t-42 105v91q-17 -106 -72.5 -148.5t-99.5 -65.5q-47 -24 -114 -35.5t-117 -11.5q-99 0 -150 16.5t-125 59.5q-75 44 -119.5 120t-44.5 171v611h-148v136h244q17 0 30.5 -3.5t22.5 -11.5t13.5 -20t4.5 -28v-663
q0 -76 20.5 -122t68.5 -72t81.5 -39.5t99.5 -14.5q52 -1 117.5 16t127.5 59q63 42 94.5 166.5t31.5 234.5v498z" />
    <glyph glyph-name="ohungarumlaut" unicode="&#x151;" 
d="M904 1704l123 -100l-316 -344l-88 67zM525 1704l123 -100l-315 -344l-88 67zM679 1115q234 0 400.5 -167t166.5 -401q0 -233 -166.5 -400t-400.5 -167t-401 167t-167 400q0 234 167 401t401 167v0zM976 252q64 64 94.5 136t30.5 160q0 87 -30.5 160.5t-94.5 137.5
t-137 95t-160 31t-161 -32t-138 -96t-94 -136.5t-30 -159.5q0 -88 30.5 -160t94.5 -136t137.5 -96t160.5 -32t160 32t137 96v0z" />
    <glyph glyph-name="ncaron" unicode="&#x148;" horiz-adv-x="1460" 
d="M729 1479l229 200l66 -67l-252 -293h-86l-250 293l65 67zM1226 0q-98 0 -147.5 58t-49.5 174v515q0 129 -71 179t-184 50q-96 0 -213.5 -77.5t-170.5 -126.5v-772h-161v948h-144v136h217q32 0 49 -15t17 -46v-88q109 85 206.5 131.5t205.5 46.5q178 0 294.5 -90
t116.5 -276v-499q0 -56 22 -84t66 -28h86v-136h-139z" />
    <glyph glyph-name="racute" unicode="&#x155;" horiz-adv-x="856" 
d="M586 1657l88 -128l-400 -256l-82 126zM552 1008q55 46 141.5 73.5t166.5 31.5h47v-147h-17q-93 4 -194.5 -55t-157.5 -122q-56 -64 -91.5 -145t-35.5 -188v-456h-152v948h-144v136h207q32 0 48 -15.5t16 -47.5v-216q26 70 68 113.5t98 89.5v0z" />
    <glyph glyph-name="rcaron" unicode="&#x159;" horiz-adv-x="856" 
d="M427 1479l229 200l66 -67l-252 -293h-86l-250 293l65 67zM552 1008q55 46 141.5 73.5t166.5 31.5h47v-147h-17q-93 4 -194.5 -55t-157.5 -122q-56 -64 -91.5 -145t-35.5 -188v-456h-152v948h-144v136h207q32 0 48 -15.5t16 -47.5v-216q26 70 68 113.5t98 89.5v0z" />
    <glyph glyph-name="sacute" unicode="&#x15b;" horiz-adv-x="1034" 
d="M675 1657l88 -128l-400 -256l-82 126zM759 519q69 -42 116 -105t45 -152q-2 -75 -31 -120.5t-83 -87.5q-55 -42 -116.5 -63t-151.5 -21t-163.5 22t-128.5 65q-56 43 -92.5 109t-56.5 138l142 46q17 -61 44 -107.5t63 -77.5q35 -30 80 -45.5t99 -15.5q60 0 109 8t82 33
q60 49 63.5 107t-45.5 107q-22 23 -65.5 46t-103.5 50q-44 15 -97.5 34.5t-101.5 43.5q-70 41 -112 64.5t-82 79.5q-58 78 -43.5 182t105.5 173q54 42 126 62.5t162 20.5t166.5 -21.5t132.5 -64.5q55 -43 63.5 -80.5t13.5 -117.5h-139q-1 40 -1 47t-28 48q-36 30 -86.5 44
t-104.5 14q-60 0 -109.5 -11.5t-81.5 -36.5q-62 -49 -70.5 -99.5t40.5 -99.5q30 -31 65.5 -55.5t80.5 -42.5h1q3 -2 1.5 2t1.5 3q70 -31 148 -58t143 -67v0z" />
    <glyph glyph-name="tcommaaccent" unicode="&#x163;" horiz-adv-x="723" 
d="M448 -473q-92 0 -144 53.5t-52 141.5h106q0 -41 22.5 -69.5t69.5 -28.5t76 28.5t29 75.5q0 41 -27 67t-82 38l-100 20l36 155q-64 16 -94 72t-30 156v712h-178v136h178v414h162v-414h223v-136h-223v-698q0 -55 22.5 -82.5t67.5 -27.5h133v-140h-194h-5l-20 -96
q112 -18 172.5 -57t60.5 -129q0 -88 -58.5 -139.5t-150.5 -51.5v0z" />
    <glyph glyph-name="uni021B" unicode="&#x21b;" horiz-adv-x="723" 
d="M258 948h-178v136h178v414h162v-414h223v-136h-223v-698q0 -55 22.5 -82.5t67.5 -27.5h133v-140h-194q-99 0 -145 56.5t-46 179.5v712zM415 -98q10 0 22 -5t16 -5q28 -17 42 -41.5t14 -55.5v-14q-4 -39 -11.5 -78t-29.5 -80l-17 -30q-16 -27 -35.5 -53.5t-48.5 -55.5
l-36 -37l-43 -35l-52 58l25 24q41 56 55.5 86.5t9.5 67.5l-2 29q-4 4 -6 12l-4 16q-1 4 -1.5 8.5t-0.5 10.5l-6 20q-2 8 -6 16.5t-4 24.5q0 14 6 34.5t24 53.5l39 23l4 2q5 0 7.5 0.5t3.5 1.5z" />
    <glyph glyph-name="tcaron" unicode="&#x165;" horiz-adv-x="1200" 
d="M999 1569q50 0 77.5 -29t27.5 -72q0 -107 -59 -204.5t-177 -184.5l-49 60q50 46 74.5 92t24.5 92q0 29 -12.5 69t-12.5 76q0 41 28.5 71t77.5 30v0zM258 948h-178v136h178v414h162v-414h223v-136h-223v-698q0 -55 22.5 -82.5t67.5 -27.5h133v-140h-194q-99 0 -145 56.5
t-46 179.5v712z" />
    <glyph glyph-name="scedilla" unicode="&#x15f;" horiz-adv-x="1034" 
d="M510 -494q-92 0 -144 53.5t-52 141.5h106q0 -41 22.5 -69.5t69.5 -28.5t76 28.5t29 75.5q0 41 -27 67t-82 38l-100 20l34 145q-58 9 -107 29t-89 51q-56 43 -92.5 109t-56.5 138l142 46q17 -61 44 -107.5t63 -77.5q35 -30 80 -45.5t99 -15.5q60 0 109 8t82 33
q60 49 63.5 107t-45.5 107q-22 23 -65.5 46t-103.5 50q-44 15 -97.5 34.5t-101.5 43.5q-70 41 -112 64.5t-82 79.5q-58 78 -43.5 182t105.5 173q54 42 126 62.5t162 20.5t166.5 -21.5t132.5 -64.5q55 -43 63.5 -80.5t13.5 -117.5h-139q-1 40 -1 47t-28 48q-36 30 -86.5 44
t-104.5 14q-60 0 -109.5 -11.5t-81.5 -36.5q-62 -49 -70.5 -99.5t40.5 -99.5q30 -31 65.5 -55.5t80.5 -42.5h1q3 -2 1.5 2t1.5 3q70 -31 148 -58t143 -67q69 -42 116 -105t45 -152q-2 -75 -31 -120.5t-83 -87.5q-55 -42 -116.5 -63t-151.5 -21h-17.5t-16.5 1l6 29h-63
l-5 -23q15 -2 30.5 -3.5t31.5 -2.5l-18 -88q112 -18 172.5 -57t60.5 -129q0 -88 -58.5 -139.5t-150.5 -51.5v0z" />
    <glyph glyph-name="scommaaccent" unicode="&#x219;" horiz-adv-x="1034" 
d="M759 519q69 -42 116 -105t45 -152q-2 -75 -31 -120.5t-83 -87.5q-55 -42 -116.5 -63t-151.5 -21t-163.5 22t-128.5 65q-56 43 -92.5 109t-56.5 138l142 46q17 -61 44 -107.5t63 -77.5q35 -30 80 -45.5t99 -15.5q60 0 109 8t82 33q60 49 63.5 107t-45.5 107
q-22 23 -65.5 46t-103.5 50q-44 15 -97.5 34.5t-101.5 43.5q-70 41 -112 64.5t-82 79.5q-58 78 -43.5 182t105.5 173q54 42 126 62.5t162 20.5t166.5 -21.5t132.5 -64.5q55 -43 63.5 -80.5t13.5 -117.5h-139q-1 40 -1 47t-28 48q-36 30 -86.5 44t-104.5 14
q-60 0 -109.5 -11.5t-81.5 -36.5q-62 -49 -70.5 -99.5t40.5 -99.5q30 -31 65.5 -55.5t80.5 -42.5h1q3 -2 1.5 2t1.5 3q70 -31 148 -58t143 -67v0zM500 -74q10 0 22 -5t16 -5q28 -18 42 -42t14 -55v-14q-4 -39 -11.5 -78t-29.5 -80l-17 -30q-16 -27 -35.5 -53.5t-48.5 -55.5
l-36 -37l-43 -35l-52 58l25 24q41 56 55.5 86.5t9.5 67.5l-2 29q-4 4 -6 12l-4 16q-1 4 -1.5 8.5t-0.5 10.5l-6 20q-2 8 -6 16.5t-4 24.5q0 14 6 34.5t24 53.5l39 23l4 2q5 0 7.5 0.5t3.5 1.5z" />
    <glyph glyph-name="Amacron" unicode="&#x100;" horiz-adv-x="1317" 
d="M1044 1753v-127h-736v127h736zM898 586l-247 755h-11l-247 -755h505zM218 53q-9 -26 -27 -39.5t-46 -13.5h-164v137h102l453 1358h217l455 -1359h98v-136h-160q-28 0 -46.5 13.5t-27.5 39.5l-133 406h-587z" />
    <glyph glyph-name="Emacron" unicode="&#x112;" horiz-adv-x="1284" 
d="M1044 1753v-127h-736v127h736zM109 1358v137h912q31 0 46 -15.5t15 -47.5v-210h-115v136h-559v-531h582v-137h-582v-553h559v135h136v-209q0 -31 -16 -47t-48 -16h-794v1358h-136z" />
    <glyph glyph-name="Edotaccent" unicode="&#x116;" horiz-adv-x="1284" 
d="M746 1788q0 -41 -31.5 -71.5t-74.5 -30.5q-41 0 -71.5 30.5t-30.5 71.5q0 43 30.5 75t71.5 32q43 0 74.5 -32t31.5 -75v0zM109 1358v137h912q31 0 46 -15.5t15 -47.5v-210h-115v136h-559v-531h582v-137h-582v-553h559v135h136v-209q0 -31 -16 -47t-48 -16h-794v1358h-136
z" />
    <glyph glyph-name="Imacron" unicode="&#x12a;" horiz-adv-x="717" 
d="M618 1750v-125h-490v125h490zM576 137v-137h-436v137h136v1221h-136v137h436v-137h-136v-1221h136z" />
    <glyph glyph-name="Iogonek" unicode="&#x12e;" horiz-adv-x="717" 
d="M293 -440q-92 0 -146.5 49t-54.5 141q0 80 41 136t132 114h-125v137h136v1221h-136v137h436v-137h-136v-1221h136v-137h-173l-90 -55q-57 -36 -85.5 -78t-28.5 -90q0 -49 30.5 -78t85.5 -29q53 0 97 32t80 97l77 -49q-39 -82 -111.5 -136t-164.5 -54v0z" />
    <glyph glyph-name="Omacron" unicode="&#x14c;" horiz-adv-x="1448" 
d="M1115 1753v-127h-736v127h736zM51 772q0 323 223 538.5t542 215.5q318 0 542 -215.5t224 -538.5q0 -328 -224 -550t-542 -222q-319 0 -542 222t-223 550v0zM207 772q0 -271 178.5 -451t430.5 -180q251 0 430.5 180t179.5 451q0 265 -179.5 439t-430.5 174
q-252 0 -430.5 -174t-178.5 -439v0z" />
    <glyph glyph-name="Umacron" unicode="&#x16a;" horiz-adv-x="1536" 
d="M1145 1772v-127h-736v127h736zM1279 1358v-784q0 -160 -37.5 -269.5t-107.5 -176.5q-70 -68 -169 -98t-220 -30q-117 0 -214 29t-168 97q-71 67 -109.5 176.5t-38.5 271.5v784h-136v137h232q34 0 50.5 -15.5t16.5 -47.5v-852q0 -225 92 -329.5t275 -104.5
q186 0 278.5 104.5t92.5 329.5v852q0 32 17 47.5t50 15.5h232v-137h-136z" />
    <glyph glyph-name="emacron" unicode="&#x113;" horiz-adv-x="1210" 
d="M1010 1460v-127h-736v127h736zM1122 616v-117h-895q11 -102 27.5 -150t60.5 -104q46 -58 145 -99t189 -39q85 2 183.5 44.5t164.5 78.5l62 -137q-103 -49 -215 -86t-193 -37q-156 0 -278 50.5t-182 129.5q-64 85 -97.5 189t-35.5 210q8 260 157 419.5t420 159.5
q220 0 353.5 -133t133.5 -379v0zM634 991q-155 0 -268.5 -95t-129.5 -266h737q0 186 -92.5 273.5t-246.5 87.5v0z" />
    <glyph glyph-name="edotaccent" unicode="&#x117;" horiz-adv-x="1210" 
d="M709 1464q0 -41 -31.5 -71.5t-74.5 -30.5q-41 0 -71.5 30.5t-30.5 71.5q0 43 30.5 75t71.5 32q43 0 74.5 -32t31.5 -75v0zM1122 616v-117h-895q11 -102 27.5 -150t60.5 -104q46 -58 145 -99t189 -39q85 2 183.5 44.5t164.5 78.5l62 -137q-103 -49 -215 -86t-193 -37
q-156 0 -278 50.5t-182 129.5q-64 85 -97.5 189t-35.5 210q8 260 157 419.5t420 159.5q220 0 353.5 -133t133.5 -379v0zM634 991q-155 0 -268.5 -95t-129.5 -266h737q0 186 -92.5 273.5t-246.5 87.5v0z" />
    <glyph glyph-name="imacron" unicode="&#x12b;" horiz-adv-x="690" 
d="M703 1466v-127h-736v127h736zM348 1171q31 0 46.5 -15.5t15.5 -47.5v-857q0 -56 22.5 -85t67.5 -29h105v-146h-173q-91 0 -136.5 58t-45.5 174v826l-123 2v120h221z" />
    <glyph glyph-name="iogonek" unicode="&#x12f;" horiz-adv-x="690" 
d="M402 1388q0 -41 -30.5 -71.5t-73.5 -30.5q-41 0 -73 30.5t-32 71.5q0 43 32 75t73 32q43 0 73.5 -32t30.5 -75v0zM307 -440q-92 0 -146.5 49t-54.5 141q0 86 47 144.5t151 120.5q-43 20 -62 69t-19 132v732h-123v136h221q31 0 46.5 -15.5t15.5 -47.5v-785q0 -56 22.5 -78
t67.5 -22h104v-136h-160l-90 -55q-57 -36 -85.5 -78t-28.5 -90q0 -49 30.5 -78t85.5 -29q53 0 97 32t80 97l77 -49q-39 -82 -111.5 -136t-164.5 -54v0z" />
    <glyph glyph-name="uogonek" unicode="&#x173;" horiz-adv-x="1436" 
d="M1350 -250q-39 -82 -111.5 -136t-164.5 -54t-146.5 49t-54.5 141q0 86 47 144.5t152 121.5l46 28q-16 17 -24 41t-8 55v91q-17 -106 -72.5 -148.5t-99.5 -65.5q-47 -24 -114 -35.5t-117 -11.5q-99 0 -150 16.5t-125 59.5q-75 44 -119.5 120t-44.5 171v611h-148v136h244
q17 0 30.5 -3.5t22.5 -11.5t13.5 -20t4.5 -28v-663q0 -76 20.5 -122t68.5 -72t81.5 -39.5t99.5 -14.5q52 -1 117.5 16t127.5 59q63 42 94.5 166.5t31.5 234.5v498h167v-836q0 -28 6 -49t17 -35q12 -14 29.5 -21t40.5 -7h71v-136h-126q-18 0 -34 1.5t-30 4.5l-99 -61
q-57 -36 -85.5 -78t-28.5 -90q0 -49 30.5 -78t85.5 -29q53 0 97 32t80 97z" />
    <glyph glyph-name="Abreve" unicode="&#x102;" horiz-adv-x="1317" 
d="M657 1770q72 0 108 38t36 113h116q0 -137 -66.5 -208.5t-189.5 -71.5t-192.5 75.5t-69.5 204.5h115q0 -67 40 -109t103 -42v0zM898 586l-247 755h-11l-247 -755h505zM218 53q-9 -26 -27 -39.5t-46 -13.5h-164v137h102l453 1358h217l455 -1359h98v-136h-160
q-28 0 -46.5 13.5t-27.5 39.5l-133 406h-587z" />
    <glyph glyph-name="Aogonek" unicode="&#x104;" horiz-adv-x="1317" 
d="M1043 -440q-92 0 -146.5 49t-54.5 141q0 86 47 144.5t152 121.5l37 23q-2 3 -3.5 6.5t-2.5 7.5l-133 406h-587l-134 -406q-9 -26 -27 -39.5t-46 -13.5h-164v137h102l453 1358h217l455 -1359h98v-136h-153l-90 -55q-57 -36 -85.5 -78t-28.5 -90q0 -49 30.5 -78t85.5 -29
q53 0 97 32t80 97l77 -49q-39 -82 -111.5 -136t-164.5 -54v0zM898 586l-247 755h-11l-247 -755h505z" />
    <glyph glyph-name="Cacute" unicode="&#x106;" 
d="M794 1981l88 -128l-400 -256l-82 126zM40 752q0 324 213 544.5t529 220.5q159 0 348 -74t231 -244l-137 -38q-46 123 -177.5 169t-260.5 46q-249 0 -419.5 -176.5t-170.5 -447.5q0 -268 170.5 -458t426.5 -190q231 0 348 92.5l117 92.5l112 -82l-151 -122t-428 -122
q-329 0 -540 231t-211 558v0z" />
    <glyph glyph-name="amacron" unicode="&#x101;" horiz-adv-x="1253" 
d="M1010 1460v-127h-736v127h736zM844 479l6 78h-119q-239 0 -362 -59t-123 -165q0 -95 53 -158.5t195 -63.5q174 0 260.5 143.5t89.5 224.5v0zM1089 136h88v-136h-139q-49 0 -82 14.5t-57 42.5q-25 29 -29.5 56t-4.5 84l-95 -114t-283 -114q-149 0 -270.5 72.5
t-121.5 285.5q0 204 160 286t488 77h106q1 54 -12.5 171.5t-239.5 116.5q-128 -1 -201 -19t-73 -79v-54h-147v96q0 45 71 113t320 80q107 0 201.5 -25.5t141.5 -76.5q46 -51 66 -107t20 -160v-500q0 -50 31 -80t62 -30v0z" />
    <glyph glyph-name="Uogonek" unicode="&#x172;" horiz-adv-x="1536" 
d="M1279 1358v-784q0 -160 -37.5 -269.5t-107.5 -176.5q-70 -68 -169 -98t-220 -30q-117 0 -214 29t-168 97q-71 67 -109.5 176.5t-38.5 271.5v784h-136v137h232q34 0 50.5 -15.5t16.5 -47.5v-852q0 -225 92 -329.5t275 -104.5q186 0 278.5 104.5t92.5 329.5v852
q0 32 17 47.5t50 15.5h232v-137h-136zM1171 -55q-57 -36 -85.5 -78t-28.5 -90q0 -49 30.5 -78t85.5 -29q53 0 97 32t80 97l77 -49q-39 -82 -111.5 -136t-164.5 -54t-146.5 49t-54.5 141q0 86 47 144.5t152 121.5l174 107l37 -62z" />
    <glyph glyph-name="omacron" unicode="&#x14d;" 
d="M1010 1460v-127h-736v127h736zM679 1115q234 0 400.5 -167t166.5 -401q0 -233 -166.5 -400t-400.5 -167t-401 167t-167 400q0 234 167 401t401 167v0zM976 252q64 64 94.5 136t30.5 160q0 87 -30.5 160.5t-94.5 137.5t-137 95t-160 31t-161 -32t-138 -96t-94 -136.5
t-30 -159.5q0 -88 30.5 -160t94.5 -136t137.5 -96t160.5 -32t160 32t137 96v0z" />
    <glyph glyph-name="umacron" unicode="&#x16b;" horiz-adv-x="1436" 
d="M1010 1460v-127h-736v127h736zM1052 1084h167v-836q0 -28 6 -49t17 -35q12 -14 29.5 -21t40.5 -7h71v-136h-126q-87 0 -129 35t-42 105v91q-17 -106 -72.5 -148.5t-99.5 -65.5q-47 -24 -114 -35.5t-117 -11.5q-99 0 -150 16.5t-125 59.5q-75 44 -119.5 120t-44.5 171v611
h-148v136h244q17 0 30.5 -3.5t22.5 -11.5t13.5 -20t4.5 -28v-663q0 -76 20.5 -122t68.5 -72t81.5 -39.5t99.5 -14.5q52 -1 117.5 16t127.5 59q63 42 94.5 166.5t31.5 234.5v498z" />
    <glyph glyph-name="Scedilla" unicode="&#x15e;" horiz-adv-x="1116" 
d="M551 -494q-92 0 -144 53.5t-52 141.5h106q0 -41 22.5 -69.5t69.5 -28.5t76 28.5t29 75.5q0 41 -27 67t-82 38l-100 20l34 145q-73 10 -132 38.5t-108 70.5q-63 54 -103 113.5t-72 132.5l138 78q24 -64 60.5 -115t79.5 -92q42 -40 95 -65t119 -25q73 0 143.5 16.5
t117.5 45.5q46 28 86.5 76.5t40.5 112.5q0 46 -19.5 89t-46.5 71q-28 28 -78.5 51.5t-91.5 45.5q-42 22 -89.5 43t-96.5 40q-49 20 -97.5 44.5t-89.5 52.5q-42 28 -80 63t-65 77q-28 42 -45 96t-17 119q0 44 8.5 83t26.5 74q17 34 41 63t55 53q30 23 66 41t78 31
q41 12 85.5 18t94.5 6q48 0 104 -4.5t108 -16.5q41 -10 106.5 -34t103.5 -62q57 -51 58 -147.5l1 -96.5h-132q-1 42 -10 86.5t-52 76.5q-42 20 -58 27t-53 17q-45 11 -90.5 16.5t-83.5 5.5q-70 0 -126 -19t-95 -52q-39 -34 -55.5 -73.5t-16.5 -96.5q0 -38 11.5 -70.5
t27.5 -58.5t40.5 -50t51.5 -44q25 -20 58 -38.5t67 -33.5t70.5 -30.5t72.5 -30.5q34 -15 68.5 -32t68.5 -35t72 -39t65 -45q25 -24 52.5 -52.5t43.5 -62.5q16 -33 24 -74t8 -88t-13 -88.5t-30 -78.5q-17 -36 -56 -67.5t-69 -56.5q-31 -25 -67 -45t-78 -33q-43 -13 -108 -20
t-114 -7h-8.5h-8.5l-18 -89q112 -18 172.5 -57t60.5 -129q0 -88 -58.5 -139.5t-150.5 -51.5v0z" />
    <glyph glyph-name="uni2000" unicode="&#x2000;" horiz-adv-x="1024" 
 />
    <glyph glyph-name="uni2001" unicode="&#x2001;" horiz-adv-x="2048" 
 />
    <glyph glyph-name="uni2002" unicode="&#x2002;" horiz-adv-x="1024" 
 />
    <glyph glyph-name="uni2003" unicode="&#x2003;" horiz-adv-x="2048" 
 />
    <glyph glyph-name="uni2004" unicode="&#x2004;" horiz-adv-x="683" 
 />
    <glyph glyph-name="uni2005" unicode="&#x2005;" horiz-adv-x="512" 
 />
    <glyph glyph-name="uni2006" unicode="&#x2006;" horiz-adv-x="341" 
 />
    <glyph glyph-name="uni2007" unicode="&#x2007;" horiz-adv-x="1145" 
 />
    <glyph glyph-name="uni2008" unicode="&#x2008;" horiz-adv-x="580" 
 />
    <glyph glyph-name="uni2009" unicode="&#x2009;" horiz-adv-x="410" 
 />
    <glyph glyph-name="uni200A" unicode="&#x200a;" horiz-adv-x="205" 
 />
    <glyph glyph-name="uni200B" unicode="&#x200b;" horiz-adv-x="0" 
 />
    <glyph glyph-name="gcommaaccent" unicode="&#x123;" horiz-adv-x="1182" 
d="M553 1414q-49 0 -77 29.5t-28 72.5q0 59 19.5 114.5t52.5 104.5t75 91t89 77l49 -57q-49 -46 -73.5 -93t-24.5 -96q0 -28 12 -67t12 -76q0 -39 -27.5 -69.5t-78.5 -30.5v0zM951 494q1 149 -8 215.5t-40 119.5q-32 57 -120.5 100.5t-198.5 42.5q-162 -1 -259.5 -115.5
t-97.5 -282.5q0 -201 107.5 -309t247.5 -113q107 -4 237.5 63.5t131.5 278.5v0zM878 -427q-77 -27 -194.5 -44t-262.5 6q-56 9 -141 35.5t-126 42.5l52 139q19 -6 105 -35.5t133 -38.5q112 -21 195 -11t139 28q63 24 115.5 60.5t68.5 83.5v302q-14 -10 -34.5 -27.5
t-36.5 -27.5q-46 -30 -136 -58t-171 -28q-60 0 -157.5 28t-222.5 140q-64 70 -101 143.5t-37 260.5q0 215 138 378t385 163q105 0 208.5 -44t158.5 -96v76q0 15 11.5 25t29.5 10h214v-136h-70q-28 0 -35.5 -20t-7.5 -49v-1092q-4 -19 -11.5 -37t-17.5 -35q-29 -46 -74 -81.5
t-117 -60.5v0z" />
    <glyph glyph-name="kcommaaccent" unicode="&#x137;" horiz-adv-x="1235" 
d="M675 534l294 -345q22 -32 46.5 -41.5t51.5 -11.5h91v-136h-138q-54 0 -98.5 29t-73.5 72l-311 369h-115v-470h-162v1358h-143v137h241q32 0 48 -16t16 -48v-815h120l433 468h179zM600 -85q10 0 22 -5t16 -5q28 -18 42 -42t14 -55v-14q-4 -39 -11.5 -78t-29.5 -80l-17 -30
q-16 -27 -35.5 -53.5t-48.5 -55.5l-36 -37l-43 -35l-52 58l25 24q41 56 55.5 86.5t9.5 67.5l-2 29q-4 4 -6 12l-4 16q-1 4 -1.5 8.5t-0.5 10.5l-6 20q-2 8 -6 16.5t-4 24.5q0 14 6 34.5t24 53.5l39 23l4 2q5 0 7.5 0.5t3.5 1.5z" />
    <glyph glyph-name="lcommaaccent" unicode="&#x13c;" horiz-adv-x="672" 
d="M325 1495q31 0 46 -16t15 -48v-1184q0 -56 22 -83.5t66 -27.5h105v-136h-158q-98 0 -145 58t-47 174v1126h-123v137h219zM396 -93q10 0 22 -5t16 -5q28 -18 42 -42t14 -55v-14q-4 -39 -11.5 -78t-29.5 -80l-17 -30q-16 -27 -35.5 -53.5t-48.5 -55.5l-36 -37l-43 -35
l-52 58l25 24q41 56 55.5 86.5t9.5 67.5l-2 29q-4 4 -6 12l-4 16q-1 4 -1.5 8.5t-0.5 10.5l-6 20q-2 8 -6 16.5t-4 24.5q0 14 6 34.5t24 53.5l39 23l4 2q5 0 7.5 0.5t3.5 1.5z" />
    <glyph glyph-name="ncommaaccent" unicode="&#x146;" horiz-adv-x="1460" 
d="M1226 0q-98 0 -147.5 58t-49.5 174v515q0 129 -71 179t-184 50q-96 0 -213.5 -77.5t-170.5 -126.5v-772h-161v948h-144v136h217q32 0 49 -15t17 -46v-88q109 85 206.5 131.5t205.5 46.5q178 0 294.5 -90t116.5 -276v-499q0 -56 22 -84t66 -28h86v-136h-139zM759 -88
q10 0 22 -5t16 -5q28 -18 42 -42t14 -55v-14q-4 -39 -11.5 -78t-29.5 -80l-17 -30q-16 -27 -35.5 -53.5t-48.5 -55.5l-36 -37l-43 -35l-52 58l25 24q41 56 55.5 86.5t9.5 67.5l-2 29q-4 4 -6 12l-4 16q-1 4 -1.5 8.5t-0.5 10.5l-6 20q-2 8 -6 16.5t-4 24.5q0 14 6 34.5
t24 53.5l39 23l4 2q5 0 7.5 0.5t3.5 1.5z" />
    <glyph glyph-name="Kcommaaccent" unicode="&#x136;" horiz-adv-x="1325" 
d="M1316 137v-137h-189q-23 0 -47.5 15t-39.5 35l-414 635h-186v-685h-168v1358h-136v137h235q32 0 50.5 -18.5t18.5 -50.5v-598h194l495 667h179l-536 -741l399 -617h145zM681 -62q10 0 22 -5t16 -5q28 -18 42 -42t14 -55v-14q-4 -39 -11.5 -78t-29.5 -80l-17 -30
q-16 -27 -35.5 -53.5t-48.5 -55.5l-36 -37l-43 -35l-52 58l25 24q41 56 55.5 86.5t9.5 67.5l-2 29q-4 4 -6 12l-4 16q-1 4 -1.5 8.5t-0.5 10.5l-6 20q-2 8 -6 16.5t-4 24.5q0 14 6 34.5t24 53.5l39 23l4 2q5 0 7.5 0.5t3.5 1.5z" />
    <glyph glyph-name="Gcommaaccent" unicode="&#x122;" horiz-adv-x="1305" 
d="M31 758q0 322 216.5 547.5t533.5 225.5q260 0 393 -91.5l133 -91.5l-88 -112l-117.5 77t-318.5 77q-252 0 -424 -181.5t-172 -450.5q0 -276 175.5 -457.5t428.5 -181.5q169 0 306 89t157 138q2 5 2 20v15v144q0 24 -12.5 35.5t-34.5 11.5h-206v132h263q69 0 100 -31
t31 -99v-229q0 -109 -190 -238t-418 -129q-306 0 -532 221.5t-226 558.5v0zM676 -116q10 0 22 -5t16 -5q28 -18 42 -42t14 -55v-14q-4 -39 -11.5 -78t-29.5 -80l-17 -30q-16 -27 -35.5 -53.5t-48.5 -55.5l-36 -37l-43 -35l-52 58l25 24q41 56 55.5 86.5t9.5 67.5l-2 29
q-4 4 -6 12l-4 16q-1 4 -1.5 8.5t-0.5 10.5l-6 20q-2 8 -6 16.5t-4 24.5q0 14 6 34.5t24 53.5l39 23l4 2q5 0 7.5 0.5t3.5 1.5z" />
    <glyph glyph-name="Lcommaaccent" unicode="&#x13b;" horiz-adv-x="1053" 
d="M444 1495v-1359h466l-2 136h124v-209q0 -31 -15.5 -47t-47.5 -16h-693v1358h-136v137h304zM547 -77q10 0 22 -5t16 -5q28 -18 42 -42t14 -55v-14q-4 -39 -11.5 -78t-29.5 -80l-17 -30q-16 -27 -35.5 -53.5t-48.5 -55.5l-36 -37l-43 -35l-52 58l25 24q41 56 55.5 86.5
t9.5 67.5l-2 29q-4 4 -6 12l-4 16q-1 4 -1.5 8.5t-0.5 10.5l-6 20q-2 8 -6 16.5t-4 24.5q0 14 6 34.5t24 53.5l39 23l4 2q5 0 7.5 0.5t3.5 1.5z" />
    <glyph glyph-name="Ncommaaccent" unicode="&#x145;" horiz-adv-x="1624" 
d="M1368 1358v-1358h-135q-26 0 -45 10.5t-31 30.5l-717 1194v-1172q0 -31 -15.5 -47t-47.5 -16h-236v137h136v1360h135q22 -2 42.5 -12t32.5 -31l717 -1196v1174q0 32 15.5 47.5t46.5 15.5h238v-137h-136zM811 -98q10 0 22 -5t16 -5q28 -17 42 -41.5t14 -55.5v-14
q-4 -39 -11.5 -78t-29.5 -80l-17 -30q-16 -27 -35.5 -53.5t-48.5 -55.5l-36 -37l-43 -35l-52 58l25 24q41 56 55.5 86.5t9.5 67.5l-2 29q-4 4 -6 12l-4 16q-1 4 -1.5 8.5t-0.5 10.5l-6 20q-2 8 -6 16.5t-4 24.5q0 14 6 34.5t24 53.5l39 23l4 2q5 0 7.5 0.5t3.5 1.5z" />
    <glyph glyph-name="uniFB03" unicode="&#xfb03;" horiz-adv-x="2156" 
d="M1868 1388q0 -41 -30.5 -71.5t-73.5 -30.5q-41 0 -73 30.5t-32 71.5q0 43 32 75t73 32q43 0 73.5 -32t30.5 -75v0zM1179 948v-948h-166l-1 948h-201v136h201q10 215 95.5 313t288.5 98h75v-137h-79q-109 0 -156.5 -59t-56.5 -215h257v-136h-257zM446 948v-948h-166
l-1 948h-201v136h201q10 215 95.5 313t288.5 98h75v-137h-79q-109 0 -156.5 -59t-56.5 -215h257v-136h-257zM1787 1084q31 0 46.5 -15.5t15.5 -47.5v-785q0 -56 22.5 -78t67.5 -22h104v-136h-187q-91 0 -129 50t-38 166v732h-123v136h221z" />
    <glyph glyph-name="uniFB04" unicode="&#xfb04;" horiz-adv-x="2138" 
d="M1791 1495q31 0 46 -16t15 -48v-1184q0 -56 22 -83.5t66 -27.5h105v-136h-158q-98 0 -145 58t-47 174v1126h-123v137h219zM1179 948v-948h-166l-1 948h-201v136h201q10 215 95.5 313t288.5 98h75v-137h-79q-109 0 -156.5 -59t-56.5 -215h257v-136h-257zM446 948v-948
h-166l-1 948h-201v136h201q10 215 95.5 313t288.5 98h75v-137h-79q-109 0 -156.5 -59t-56.5 -215h257v-136h-257z" />
    <glyph glyph-name="uni00B9" unicode="&#xb9;" horiz-adv-x="659" 
d="M414 1524v-793h-133v672l-183 -39l-10 94l221 66h105z" />
    <glyph glyph-name="uni00B2" unicode="&#xb2;" horiz-adv-x="782" 
d="M391 1438q-65 0 -104 -39t-39 -111h-125q0 123 70.5 186.5t195.5 63.5q129 0 198.5 -56.5t69.5 -166.5q0 -74 -45 -136.5t-125 -144.5l-202 -205h385v-98h-557v92l284 285q37 37 61.5 63.5t40.5 50.5q15 23 21 45.5t6 47.5q0 51 -34.5 87t-100.5 36v0z" />
    <glyph glyph-name="uni00B3" unicode="&#xb3;" horiz-adv-x="811" 
d="M283 1169h57q96 0 144 36t48 108q0 57 -37.5 92t-105.5 35q-65 0 -103 -41t-38 -111h-119q0 113 70.5 182.5t195.5 69.5t197 -57.5t72 -167.5q0 -60 -33 -108t-96 -72q71 -21 109 -72t38 -113q0 -112 -75 -172.5t-210 -60.5t-206.5 67.5t-71.5 184.5h121q0 -70 38.5 -112
t112.5 -42q76 0 118 35t42 98q0 73 -51.5 109.5t-155.5 36.5h-61v75z" />
    <glyph glyph-name="rcommaaccent" unicode="&#x157;" horiz-adv-x="856" 
d="M552 1008q55 46 141.5 73.5t166.5 31.5h47v-147h-17q-93 4 -194.5 -55t-157.5 -122q-56 -64 -91.5 -145t-35.5 -188v-456h-152v948h-144v136h207q32 0 48 -15.5t16 -47.5v-216q26 70 68 113.5t98 89.5v0zM394 -60q10 0 22 -5t16 -5q28 -18 42 -42t14 -55v-14
q-4 -39 -11.5 -78t-29.5 -80l-17 -30q-16 -27 -35.5 -53.5t-48.5 -55.5l-36 -37l-43 -35l-52 58l25 24q41 56 55.5 86.5t9.5 67.5l-2 29q-4 4 -6 12l-4 16q-1 4 -1.5 8.5t-0.5 10.5l-6 20q-2 8 -6 16.5t-4 24.5q0 14 6 34.5t24 53.5l39 23l4 2q5 0 7.5 0.5t3.5 1.5z" />
    <glyph glyph-name="Rcommaaccent" unicode="&#x156;" horiz-adv-x="1366" 
d="M400 1358v-611h296q160 0 239.5 75t79.5 231q0 159 -79.5 232t-239.5 73h-296zM620 616h-220v-616h-164v1358h-136v137h596q235 0 357 -113.5t122 -328.5q0 -163 -74.5 -267.5t-189.5 -142.5q50 -23 79 -61.5t52 -92.5l160 -352h136l1 -137h-207q-27 0 -45.5 12t-28.5 35
l-178 420q-20 47 -41.5 75.5t-50.5 45.5q-29 16 -69.5 22t-98.5 6v0zM719 -110q10 0 22 -5t16 -5q28 -18 42 -42t14 -55v-14q-4 -39 -11.5 -78t-29.5 -80l-17 -30q-16 -27 -35.5 -53.5t-48.5 -55.5l-36 -37l-43 -35l-52 58l25 24q41 56 55.5 86.5t9.5 67.5l-2 29q-4 4 -6 12
l-4 16q-1 4 -1.5 8.5t-0.5 10.5l-6 20q-2 8 -6 16.5t-4 24.5q0 14 6 34.5t24 53.5l39 23l4 2q5 0 7.5 0.5t3.5 1.5z" />
    <glyph glyph-name="dcroat" unicode="&#x111;" horiz-adv-x="1362" 
d="M968 883q-62 35 -159.5 68.5t-175.5 33.5q-166 1 -284.5 -109t-118.5 -355q0 -203 115.5 -301t290.5 -98q90 0 179.5 70t150.5 163zM985 173q-68 -92 -157.5 -137.5t-190.5 -45.5q-275 0 -415 142.5t-142 399.5q-2 230 129 406.5t408 176.5q76 0 177 -19t174 -57v236
h-504v125h381v95h218q35 0 48 -15.5t13 -48.5v-31h61v-125h-61v-1027q0 -56 22 -84t66 -28h105v-136h-158q-88 0 -126.5 40.5t-47.5 132.5v0z" />
    <glyph glyph-name="uni00AD" unicode="&#xad;" horiz-adv-x="993" 
d="M856 713v-125h-721v125h721z" />
  </font>
</defs>
</svg>
