<?xml version="1.0" encoding="UTF-8" standalone="no"?>
<!-- Generator: Adobe Illustrator 16.2.1, SVG Export Plug-In . SVG Version: 6.00 Build 0)  -->

<svg
   xmlns:dc="http://purl.org/dc/elements/1.1/"
   xmlns:cc="http://creativecommons.org/ns#"
   xmlns:rdf="http://www.w3.org/1999/02/22-rdf-syntax-ns#"
   xmlns:svg="http://www.w3.org/2000/svg"
   xmlns="http://www.w3.org/2000/svg"
   xmlns:sodipodi="http://sodipodi.sourceforge.net/DTD/sodipodi-0.dtd"
   xmlns:inkscape="http://www.inkscape.org/namespaces/inkscape"
   version="1.1"
   id="Layer_1"
   x="0px"
   y="0px"
   width="110"
   height="110"
   viewBox="0 0 110 110"
   enable-background="new 0 0 100 100"
   xml:space="preserve"
   inkscape:version="0.91 r13725"
   sodipodi:docname="lock-open.svg"><metadata
     id="metadata9"><rdf:RDF><cc:Work
         rdf:about=""><dc:format>image/svg+xml</dc:format><dc:type
           rdf:resource="http://purl.org/dc/dcmitype/StillImage" /><dc:title></dc:title></cc:Work></rdf:RDF></metadata><defs
     id="defs7" /><sodipodi:namedview
     pagecolor="#ffffff"
     bordercolor="#666666"
     borderopacity="1"
     objecttolerance="10"
     gridtolerance="10"
     guidetolerance="10"
     inkscape:pageopacity="0"
     inkscape:pageshadow="2"
     inkscape:window-width="676"
     inkscape:window-height="480"
     id="namedview5"
     showgrid="false"
     inkscape:zoom="2.0813008"
     inkscape:cx="116.54492"
     inkscape:cy="50"
     inkscape:window-x="57"
     inkscape:window-y="21"
     inkscape:window-maximized="0"
     inkscape:current-layer="Layer_1" /><path
     d="m 84.243667,31.812333 c 0,-15.646 -13.19,-26.6429997 -29.101,-26.6429997 -15.906,0 -30.172,10.9459997 -29.675,29.6429997 l -0.016,15.633 c 0,0 0.24,0.021 -0.96,0.021 -1.27,0 -9.64,1.473 -9.64,8.936 l 0,35.824 c 0,7.958997 9.42,9.942997 9.64,9.942997 16.76,0 44.438,0 61.202,0 0.22,0 9.154,-0.993 9.154,-9.942997 l 0,-35.329 c 0,-8.457 -8.455,-9.434 -8.681,-9.434 -1.194,0 -47.241,0 -47.241,0 l 0.016,-15.446 c 0,-9.949 6.071,-17.903 15.906,-17.903 9.741,0 16.483,6.383 16.483,17.383 m -7.33,56.891 -18.273,0 4.963,-14.565 c -2.12,-1.412 -3.528,-3.866 -3.528,-6.665 0,-4.385 3.442,-7.938 7.687,-7.938 4.245,0 7.687,3.558 7.687,7.938 0,2.795 -1.404,5.253 -3.522,6.66 l 4.986,14.57 z"
     id="path3"
     inkscape:connector-curvature="0"
     style="fill:#4b9441;fill-opacity:0.67" /></svg>
