<?xml version="1.0" encoding="UTF-8" standalone="no"?>
<!-- Generator: Adobe Illustrator 16.2.1, SVG Export Plug-In . SVG Version: 6.00 Build 0)  -->

<svg
   xmlns:dc="http://purl.org/dc/elements/1.1/"
   xmlns:cc="http://creativecommons.org/ns#"
   xmlns:rdf="http://www.w3.org/1999/02/22-rdf-syntax-ns#"
   xmlns:svg="http://www.w3.org/2000/svg"
   xmlns="http://www.w3.org/2000/svg"
   xmlns:sodipodi="http://sodipodi.sourceforge.net/DTD/sodipodi-0.dtd"
   xmlns:inkscape="http://www.inkscape.org/namespaces/inkscape"
   version="1.1"
   id="Layer_1"
   x="0px"
   y="0px"
   width="120"
   height="120"
   viewBox="0 0 120 120"
   xml:space="preserve"
   inkscape:version="0.91 r13725"
   sodipodi:docname="force-graph.svg"><metadata
     id="metadata9"><rdf:RDF><cc:Work
         rdf:about=""><dc:format>image/svg+xml</dc:format><dc:type
           rdf:resource="http://purl.org/dc/dcmitype/StillImage" /><dc:title></dc:title></cc:Work></rdf:RDF></metadata><defs
     id="defs7" /><sodipodi:namedview
     pagecolor="#ffffff"
     bordercolor="#666666"
     borderopacity="1"
     objecttolerance="10"
     gridtolerance="10"
     guidetolerance="10"
     inkscape:pageopacity="0"
     inkscape:pageshadow="2"
     inkscape:window-width="676"
     inkscape:window-height="480"
     id="namedview5"
     showgrid="false"
     inkscape:zoom="2.0813008"
     inkscape:cx="116.54492"
     inkscape:cy="50"
     inkscape:window-x="62"
     inkscape:window-y="26"
     inkscape:window-maximized="0"
     inkscape:current-layer="Layer_1" /><path
     d="m 96.507667,66.405333 c -3.338,0 -6.229,1.804 -7.829,4.471 l -19.054,-8.076 c 0.56,-1.667 0.875,-3.445 0.875,-5.301 0,-2.775 -0.688,-5.387 -1.889,-7.688 l 18.362,-14.514 c 1.303,0.711 2.772,1.151 4.36,1.151 5.058,0 9.159003,-4.101 9.159003,-9.159 0,-5.059 -4.102003,-9.16 -9.159003,-9.16 -5.057,0 -9.159,4.101 -9.159,9.16 0,1.755 0.52,3.379 1.375,4.772 l -17.707,13.9 c -2.506,-2.608 -5.852,-4.392 -9.604,-4.936 l 0.703,-18.728 c 3.441,-0.542 6.176,-3.403 6.404,-7.026 0.264,-4.194 -2.923,-7.8069997 -7.117,-8.0729997 -4.196,-0.265 -7.81,2.9199997 -8.075,7.1149997 -0.195,3.093 1.492,5.86 4.074,7.211 l -0.748,19.493 c -3.791,0.537 -7.167,2.339 -9.689,4.978 l -16.562,-13.643 c 0.909,-1.605 1.363,-3.49 1.169,-5.464 -0.5,-5.099 -5.037,-8.825 -10.135,-8.325 -5.098,0.5 -8.8240003,5.036 -8.3240003,10.135 0.5,5.098 5.0390003,8.824 10.1340003,8.324 1.394,-0.137 2.674,-0.598 3.805,-1.271 l 17.147,14.125 c -1.179,2.286 -1.857,4.874 -1.857,7.623 0,2.254 0.453,4.401 1.264,6.362 l -17.577,9.735 c -1.581,-1.879 -3.919,-3.096 -6.566,-3.096 -4.7610003,0.001 -8.6210003,3.858 -8.6210003,8.621 0,4.762 3.86,8.621 8.6210003,8.621 4.761,0 8.621,-3.859 8.621,-8.621 0,-0.449 -0.065,-0.881 -0.132,-1.312 l 18.086,-9.855 c 2.313,2.865 5.555,4.941 9.268,5.785 l -0.004,14.494 c -3.402,0.758 -5.949,3.785 -5.949,7.414 0,4.203 3.407,7.608997 7.611,7.608997 4.204,0 7.61,-3.405997 7.61,-7.608997 0,-3.1 -1.858,-5.754 -4.518,-6.939 l 0.006,-14.596 c 5.229,-0.328 9.803,-3.054 12.625,-7.106 l 19.854,8.371 c -0.001,0.063 -0.02,0.124 -0.02,0.188 0,5.058 4.103,9.158 9.16,9.158 5.059003,0 9.159003,-4.102 9.159003,-9.158 0.002,-5.058 -4.1,-9.16 -9.157003,-9.16 z"
     id="path3"
     inkscape:connector-curvature="0"
     style="fill:#337fb2;fill-opacity:0.67" /></svg>
