<?xml version="1.0" standalone="no"?>
<!DOCTYPE svg PUBLIC "-//W3C//DTD SVG 1.1//EN" "http://www.w3.org/Graphics/SVG/1.1/DTD/svg11.dtd" >
<svg xmlns="http://www.w3.org/2000/svg">
<metadata>Generated by IcoMoon</metadata>
<defs>
<font id="Mailpile-Interface" horiz-adv-x="1024">
<font-face units-per-em="1024" ascent="960" descent="-64" />
<missing-glyph horiz-adv-x="1024" />
<glyph unicode="&#x20;" d="" horiz-adv-x="512" />
<glyph unicode="&#xe600;" d="M892.054 838.963l9.066-838.709c0-29.117-25.256-40.505-56.411-40.505l-675.386 1.538c-31.104 0-56.411 11.487-56.411 40.506v881.916c0 29.118 25.257 52.542 56.411 52.542h575.454c0 0 33.845 0 33.845-49.629 0-33.093 11.282-792.834 11.282-792.834s0-21-26.527-21c-7.141 0-560.212 2.193-560.212 2.193 0-28.99 2.402-52.232 33.761-52.232h552.977c31.107 0 47.947 13.096 47.947 41.992l-15.473 822.221h42.307c0 0 27.368 1.598 27.368-48zM510.652 496.991c-6.406 7.272-6.406 7.272-2.105 34.307 7.332 30.259 13.984 11.476 24.474 71.825 8.798 50.69-9.99 94.24-67.076 94.24-57.071 0-75.875-43.55-67.061-94.24 10.487-60.353 17.116-41.566 24.467-71.825 4.301-27.038 4.301-27.038-2.111-34.307-30.376-34.498-115.173-21.074-124.349-65.118v-29.158c0 0-1.69-13.639 18.582-13.639 96.198 0 205.909 0 302.377 0 17.031 0 16.893 13.639 16.893 13.639s0 16.369 0.138 23.187c-9.183 44.045-93.831 36.592-124.228 71.089z" />
<glyph unicode="&#xe601;" d="M990.72 882.76h-962.58c-16.957 0-30.71-13.742-30.71-30.71v-808.991c0-16.947 13.742-30.7 30.71-30.7h962.58c16.968 0 30.71 13.752 30.71 30.7v808.991c0 16.957-13.742 30.71-30.71 30.71zM642.56 144.2c0-10.588-11.274-19.21-21.064-19.21h-514.14c-9.81 0-17.766 8.622-17.766 19.21v2.55c0 10.619 7.956 19.2 17.766 19.2h514.14c9.789 0 21.064-8.581 21.064-19.2v-2.55zM106.783 288.829h496.333c9.492 0 19.681-8.305 19.681-18.565v-3.82c0-10.24-10.189-18.575-19.681-18.575h-496.333c-9.513 0-17.193 8.335-17.193 18.575v3.82c0 10.271 7.69 18.565 17.193 18.565zM89.59 389.939v2.591c0 10.588 7.956 19.19 17.766 19.19h466.749c9.82 0 19.077-8.602 19.077-19.19v-2.591c0-10.588-9.257-19.19-19.077-19.19h-466.749c-9.81 0-17.766 8.602-17.766 19.19zM926.833 155.924l-32.625-24.207c-2.365-1.751-5.253-2.703-8.141-2.703-0.717 0-1.403 0.031-2.13 0.154-3.604 0.563-6.851 2.55-8.98 5.519l-65.751 90.685-37.745-27.812c-3.707-2.714-8.53-3.41-12.861-1.823-4.332 1.597-7.547 5.253-8.602 9.728l-46.49 198.236c-1.26 5.315 0.737 10.865 5.12 14.090 4.393 3.297 10.26 3.645 14.981 0.952l176.886-100.874c3.994-2.253 6.584-6.41 6.892-11.008 0.276-4.598-1.741-8.991-5.386-11.776l-38.216-29.071 65.956-91.054c4.403-6.072 3.103-14.561-2.908-19.036zM949.75 555.069c0-16.957-13.742-30.71-30.71-30.71h-819.21c-16.968 0-30.71 13.752-30.71 30.71v194.56c0 16.968 13.742 30.73 30.71 30.73h819.21c16.968 0 30.71-13.763 30.71-30.73v-194.56z" />
<glyph unicode="&#xe602;" d="M520.010-18.23c50.935 3.22 101.487 41.663 93.42 128.31-74.724-4.541-138.92-5.296-193.503-2.177-10.24-76.083 46.605-129.541 100.083-126.133v0zM497.818 160.438c-434.74-0.005-397.427 83.318-335.214 126.743 62.217 43.448 69.756 139.015 70.265 303.604 0.322 104.13 133.22 150.316 186.135 155.1 57.211 9.19 151.238 4.565 166.236 0 75.807-16.607 177.543-57.601 177.513-155.117 0.028-164.573 8.068-260.147 70.279-303.572 52.607-36.768 87.341-101.997-166.63-121.3-9.553-0.684-158.28-5.465-168.583-5.458v0zM494.965 796.277c-35.751 0-75.437-4.443-77.475-4.443-12.291 5.536-14.748 24.443-14.745 31.422-0.018 44.661 37.334 85.55 92.22 85.544 54.861 0.001 91.659-40.874 91.646-85.538-0.001-7.961-1.066-27.878-15.162-31.428-3.174 0-42.042 4.443-76.484 4.443v0z" />
<glyph unicode="&#xe603;" d="M869.649 161.865c-23.802 63.944-107.789 80.552-147.685 124.565-83.485 92.218-63.519 243.238-207.261 252.255-143.814-9.016-123.848-160.037-207.369-252.255-39.897-44.013-123.884-60.622-147.649-124.565-29.143-78.456 18.783-149.439 54.88-180.046 72.516-61.334 189.123-0.672 267.303 8.265 11.22 1.384 22.081 1.621 32.799 1.621 10.682 0 21.579-0.237 32.799-1.621 78.108-8.937 194.751-69.598 267.339-8.265 36.061 30.607 83.987 101.59 54.844 180.046zM921.932 524.634c-18.891-77.942-77.14-128.362-130.157-112.781-52.909 15.778-80.51 91.546-61.583 169.488 18.891 77.824 77.176 128.362 130.121 112.662 52.98-15.739 80.546-91.506 61.619-169.369zM276.727 581.279c18.891-77.863-8.639-153.789-61.619-169.369-52.98-15.62-111.266 34.839-130.157 112.662-18.891 77.942 8.675 153.71 61.619 169.488 53.016 15.501 111.23-34.839 130.157-112.781zM455.939 818.577c18.927-77.784-8.675-153.631-61.619-169.29-52.98-15.62-111.23 34.839-130.121 112.583-18.927 77.942 8.639 153.789 61.619 169.409 52.944 15.66 111.23-34.76 130.121-112.702zM742.734 761.898c-18.891-77.784-77.176-128.362-130.157-112.623-52.909 15.699-80.546 91.546-61.619 169.33 18.927 77.903 77.176 128.362 130.121 112.662 52.98-15.581 80.582-91.427 61.655-169.369z" />
<glyph unicode="&#xe604;" d="M959.119 813.24h-894.249c-36.71 0-64.87-34.15-64.87-64.881v-600.699c0-27.341 33.28-64.891 64.87-64.891h894.249c35.43 0 64.881 34.14 64.881 64.891v600.689c0 32.44-35.85 64.891-64.881 64.891zM525.66 232.96c-36.762 0-66.56 29.798-66.56 66.56 0 23.419 12.124 43.981 30.423 55.839 9.861 6.656 21.893 10.732 32.727 10.732 0.614 0 1.219-0.072 1.833-0.092 0.512 0.010 1.034 0.082 1.577 0.082 36.762 0 66.56-29.798 66.56-66.56s-29.798-66.56-66.56-66.56zM727.040 484.598c0-9.318-7.588-16.876-17.019-16.876h-375.583c-9.39 0-16.998 7.557-16.998 16.876v181.688c0 9.308 7.608 16.845 16.998 16.845h42.957c19.63 0 17.9-16.681 17.9-16.681l0.092-102.339c0-9.39 7.649-17.019 17.060-17.019h216.177c9.441 0 17.060 7.629 17.060 17.019l0.195 102.339c0 0 0.748 16.691 16.527 16.681h47.616c9.431 0 17.019-7.547 17.019-16.845v-181.688z" />
<glyph unicode="&#xe605;" d="M129.069 797.072c79.612 0 185.956 0 363.98 0 182.090 0 282.26 0 359.040 0 45.44 0 76.16-51.2 50.56-97.28-66.302-110.504-159.921-266.24-159.921-266.24s-124.212-180.375-193.359-286.72c-40.96-56.32-92.16-51.2-122.88 0-66.43 100.855-172.879 266.24-172.879 266.24s-99.648 163.395-170.161 276.48c-40.96 66.56 0 107.52 45.62 107.52z" />
<glyph unicode="&#xe606;" d="M834.56 811.98c0-79.612 0-185.956 0-363.98 0-182.090 0-282.26 0-359.040 0-45.44-51.2-76.16-97.28-50.56-110.504 66.302-266.24 159.921-266.24 159.921s-180.375 124.212-286.72 193.359c-56.32 40.96-51.2 92.16 0 122.88 100.855 66.43 266.24 172.879 266.24 172.879s163.395 99.648 276.48 170.161c66.56 40.96 107.52 0 107.52-45.62z" />
<glyph unicode="&#xe607;" d="M215.657 91.581c0 79.612 0 185.956 0 363.98 0 182.090 0 282.26 0 359.040 0 45.44 51.2 76.16 97.28 50.56 110.504-66.302 266.24-159.921 266.24-159.921s180.375-124.212 286.72-193.359c56.32-40.96 51.2-92.16 0-122.88-100.855-66.43-266.24-172.879-266.24-172.879s-163.395-99.648-276.48-170.161c-66.56-40.96-107.52 0-107.52 45.62z" />
<glyph unicode="&#xe608;" d="M859.708 106.489c-79.612 0-185.956 0-363.98 0-182.090 0-282.26 0-359.040 0-45.44 0-76.16 51.2-50.56 97.28 66.302 110.504 159.921 266.24 159.921 266.24s124.212 180.375 193.359 286.72c40.96 56.32 92.16 51.2 122.88 0 66.43-100.855 172.879-266.24 172.879-266.24s99.648-163.395 170.161-276.48c40.96-66.56 0-107.52-45.62-107.52z" />
<glyph unicode="&#xe609;" d="M92.16 138.225c0 39.426 16.324 77.479 44.981 106.076l409.024 409.458c40.944 39.426 107.792 39.426 148.69 0 40.907-40.845 35.493-96.602-2.707-134.701l-219.529-213.516c-30.071-28.588-73.638 16.294-45.027 44.827l215.409 206.789c10.957 12.294 10.957 32.698 0 43.546-12.287 12.22-32.74 12.22-43.651 0l-410.364-408.038c-31.401-31.298-30.024-78.944 0-108.859 28.611-32.652 81.796-28.542 107.7 0l531.727 530.491c51.854 50.356 51.854 133.374 0 183.684-50.432 50.31-133.567 50.31-184.091 0l-410.382-405.347c-34.071-34.072-84.549 14.911-50.432 48.937l409.015 408.084c79.098 78.861 208.665 78.861 287.753 0 80.419-78.944 80.419-208.116 0-288.387l-530.396-529.155c-28.694-28.616-66.848-44.91-106.416-44.91-83.163 0-151.304 72.088-151.304 151.023v0z" />
<glyph unicode="&#xe60a;" d="M61.44 642.56h901.12v-613.437c0-45.804-36.669-82.883-81.93-82.883h-737.28c-45.23 0-81.91 37.079-81.91 82.883v613.437zM757.76 847.36h122.87c45.261 0 81.93-37.11 81.93-82.872v-70.728h-901.12v70.728c0 45.763 36.68 82.872 81.91 82.872h122.88v71.68c0 16.978 23.992 30.72 40.96 30.72s40.96-13.742 40.96-30.72v-71.68h327.68v71.68c0 16.978 24.013 30.72 40.98 30.72 16.947 0 40.95-13.742 40.95-30.72v-71.68zM696.32 99.84v103.742h-100.596v326.338h-107.47l-129.854-121.975 72.752-74.599 58.517 56.176v-185.94h-110.558v-103.742h317.209z" />
<glyph unicode="&#xe60b;" d="M439.972-13.179l-441.999 331.53 133.171 171.971 258.959-200.315 454.236 615.752 177.633-131.144z" />
<glyph unicode="&#xe60c;" d="M947.681 313.518c-12.698 3.942-22.958 12.472-29.44 22.374-6.605 10.004-8.858 21.248-6.482 32.553 1.679 11.428 8.612 20.869 18.493 27.607 10.086 6.646 22.354 10.66 35.512 9.472 13.322-1.198 25.057-7.68 32.164-17.787 7.311-10.066 10.691-23.828 8.458-38.021-2.908-14.049-11.837-25.385-22.415-31.908-10.721-6.564-23.593-8.243-36.291-4.291zM862.976 157.102c-10.076 8.407-16.374 20.275-18.555 31.918-2.243 11.745-0.154 23.142 6.533 32.573 5.949 9.912 15.974 15.985 27.679 18.391 11.868 2.263 24.617 1.311 36.372-4.895 11.786-6.185 20.255-16.763 22.897-28.795 2.877-12.114 0.717-26.112-6.799-38.359-8.233-11.745-20.654-18.883-32.932-20.838-12.39-1.946-24.852 1.382-35.195 10.004zM724.9 45.005c-6.185 11.745-7.127 24.504-4.874 36.372 2.406 11.715 8.479 21.74 18.391 27.689 9.431 6.687 20.818 8.755 32.563 6.533 11.643-2.202 23.511-8.489 31.918-18.565 8.622-10.342 11.96-22.804 10.025-35.195-1.956-12.268-9.083-24.678-20.828-32.911-12.247-7.526-26.255-9.697-38.369-6.82-12.042 2.642-22.63 11.1-28.826 22.897zM554.476-5.755c-1.188 13.158 2.816 25.416 9.482 35.512 6.738 9.882 16.189 16.814 27.617 18.493 11.305 2.376 22.538 0.123 32.532-6.472 9.912-6.492 18.432-16.753 22.374-29.45 3.953-12.698 2.294-25.559-4.27-36.28-6.533-10.568-17.838-19.497-31.898-22.415-14.193-2.222-27.945 1.147-38.031 8.458-10.117 7.086-16.599 18.831-17.807 32.154zM377.518 12.319c3.953 12.698 12.472 22.958 22.385 29.44 9.994 6.605 21.238 8.858 32.532 6.482 11.448-1.679 20.89-8.612 27.617-18.493 6.646-10.086 10.66-22.354 9.472-35.512-1.198-13.322-7.68-25.057-17.787-32.164-10.056-7.311-23.818-10.691-38.011-8.458-14.070 2.908-25.385 11.837-31.918 22.415-6.574 10.721-8.243 23.593-4.291 36.291zM221.102 97.024c8.407 10.076 20.275 16.374 31.928 18.555 11.745 2.243 23.122 0.154 32.563-6.533 9.923-5.949 15.974-15.974 18.391-27.679 2.253-11.868 1.3-24.617-4.884-36.372-6.205-11.786-16.773-20.255-28.815-22.897-12.104-2.877-26.102-0.717-38.349 6.799-11.756 8.233-18.883 20.654-20.849 32.932-1.946 12.39 1.393 24.852 10.015 35.195zM109.005 235.090c11.745 6.195 24.494 7.137 36.372 4.884 11.715-2.406 21.74-8.479 27.689-18.391 6.687-9.431 8.765-20.818 6.523-32.563-2.191-11.643-8.479-23.511-18.565-31.918-10.353-8.622-22.794-11.96-35.185-10.025-12.278 1.956-24.689 9.083-32.932 20.828-7.506 12.247-9.677 26.255-6.799 38.369 2.642 12.042 11.11 22.63 22.897 28.815zM58.245 405.524c13.158 1.188 25.426-2.816 35.512-9.482 9.882-6.738 16.814-16.189 18.493-27.617 2.376-11.305 0.123-22.538-6.472-32.532-6.492-9.912-16.753-18.432-29.45-22.374-12.698-3.953-25.569-2.294-36.27 4.27-10.568 6.533-19.497 17.838-22.415 31.898-2.232 14.193 1.147 27.945 8.468 38.031 7.066 10.117 18.801 16.599 32.133 17.807zM76.319 582.482c12.708-3.953 22.968-12.472 29.45-22.385 6.605-9.994 8.847-21.238 6.472-32.532-1.69-11.448-8.612-20.89-18.493-27.617-10.086-6.646-22.354-10.66-35.512-9.472-13.322 1.198-25.068 7.68-32.154 17.787-7.311 10.056-10.691 23.818-8.468 38.011 2.918 14.070 11.858 25.385 22.426 31.918 10.711 6.574 23.583 8.243 36.28 4.291zM161.024 738.898c10.086-8.407 16.364-20.275 18.555-31.928 2.232-11.745 0.154-23.122-6.523-32.563-5.96-9.923-15.985-15.974-27.689-18.391-11.878-2.253-24.617-1.3-36.362 4.884-11.786 6.205-20.255 16.773-22.897 28.815-2.877 12.104-0.707 26.102 6.799 38.349 8.233 11.756 20.654 18.883 32.932 20.849 12.38 1.946 24.832-1.393 35.185-10.015zM299.1 850.995c6.185-11.745 7.137-24.494 4.874-36.372-2.417-11.715-8.479-21.74-18.401-27.689-9.431-6.687-20.808-8.765-32.553-6.523-11.643 2.191-23.511 8.479-31.918 18.565-8.622 10.353-11.971 22.794-10.025 35.185 1.956 12.278 9.083 24.689 20.838 32.932 12.237 7.506 26.245 9.677 38.359 6.799 12.052-2.642 22.62-11.11 28.826-22.897zM469.524 901.755c1.188-13.158-2.826-25.426-9.482-35.512-6.738-9.882-16.179-16.814-27.628-18.493-11.295-2.376-22.538-0.123-32.522 6.472-9.902 6.492-18.422 16.753-22.374 29.45-3.942 12.698-2.284 25.569 4.27 36.27 6.523 10.568 17.838 19.497 31.908 22.415 14.193 2.232 27.955-1.147 38.021-8.468 10.117-7.066 16.599-18.801 17.807-32.133zM646.482 883.681c-3.942-12.708-12.472-22.968-22.374-29.45-10.004-6.605-21.248-8.847-32.553-6.472-11.428 1.69-20.869 8.612-27.607 18.493-6.646 10.086-10.66 22.354-9.472 35.512 1.198 13.322 7.68 25.068 17.787 32.154 10.066 7.311 23.828 10.691 38.021 8.468 14.049-2.918 25.385-11.858 31.908-22.426 6.564-10.711 8.243-23.583 4.291-36.28zM802.898 798.976c-8.407-10.086-20.275-16.364-31.918-18.555-11.745-2.232-23.142-0.154-32.573 6.523-9.912 5.96-15.985 15.985-18.391 27.689-2.263 11.878-1.311 24.617 4.884 36.362 6.195 11.786 16.773 20.255 28.805 22.897 12.114 2.877 26.112 0.707 38.359-6.799 11.745-8.233 18.883-20.654 20.838-32.932 1.946-12.38-1.382-24.832-10.004-35.185zM914.995 660.9c-11.745-6.185-24.504-7.137-36.372-4.874-11.715 2.417-21.74 8.479-27.689 18.401-6.687 9.431-8.755 20.808-6.533 32.553 2.202 11.643 8.489 23.511 18.565 31.918 10.342 8.622 22.804 11.971 35.195 10.025 12.268-1.956 24.678-9.083 32.911-20.838 7.526-12.237 9.697-26.245 6.82-38.359-2.642-12.052-11.1-22.62-22.897-28.826zM965.755 490.476c-13.158-1.188-25.416 2.826-35.512 9.482-9.882 6.738-16.814 16.179-18.493 27.628-2.376 11.295-0.123 22.538 6.472 32.522 6.492 9.902 16.753 18.422 29.45 22.374 12.698 3.942 25.559 2.284 36.28-4.27 10.568-6.523 19.497-17.838 22.415-31.908 2.222-14.193-1.147-27.955-8.458-38.021-7.086-10.117-18.831-16.599-32.154-17.807z" />
<glyph unicode="&#xe60d;" d="M512 962.693c-282.767 0-512-229.233-512-512 0-282.778 229.233-512 512-512 282.757 0 512 229.222 512 512 0 282.767-229.243 512-512 512zM509.727 791.030c44.452 0 80.476-36.024 80.476-80.466s-36.035-80.466-80.476-80.466c-44.442 0-80.456 36.024-80.456 80.466 0 44.431 36.014 80.466 80.456 80.466zM620.052 148.511h-106.783c-41.482 0-59.126 17.664-59.126 59.996v244.613c0 13.23-7.055 19.415-19.415 19.415h-35.297v95.314h106.783c41.482 0 59.136-18.534 59.136-60.017v-245.484c0-12.349 7.045-19.415 19.415-19.415h35.297l-0.010-94.423z" />
<glyph unicode="&#xe60e;" d="M874.035 810.035c-199.946 199.946-524.134 199.946-724.081 0s-199.946-524.134 0-724.081c199.946-199.936 524.134-199.946 724.081 0s199.946 524.145 0 724.081zM661.309 207.104l-144.957 144.968-145.654-145.654-92.979 92.969 145.664 145.664-144.968 144.957 92.273 92.283 144.957-144.957 144.957 144.947 92.979-92.979-144.947-144.968 144.957-144.957-92.283-92.273z" />
<glyph unicode="&#xe60f;" d="M460.8 548.358v190.548c0 13.875 22.931 14.909 51.2 14.909 28.248 0 51.2-1.024 51.2-14.909l-2.039-189.532c23.489-11.411 42.416-30.748 53.307-54.531h102.118c13.875 0 14.909-22.932 14.909-51.2 0-28.248-1.024-51.2-14.909-51.2l-105.4 2.129c-19.031-35.256-56.311-59.212-99.187-59.212-62.209 0-112.64 50.431-112.64 112.64 0 43.773 24.968 81.714 61.44 100.358zM512-12.8c-260.148 0-471.040 210.892-471.040 471.040s210.892 471.040 471.040 471.040c260.148 0 471.040-210.892 471.040-471.040s-210.892-471.040-471.040-471.040zM512 99.84c197.939 0 358.4 160.461 358.4 358.4s-160.461 358.4-358.4 358.4c-197.939 0-358.4-160.461-358.4-358.4s160.461-358.4 358.4-358.4z" />
<glyph unicode="&#xe610;" d="M214.346 438.916l250.515-349.653c26.975-37.058-6.598-89.623-30.14-104.328s-85.020-31.045-115.558 5.841l-319.162 448.14 319.162 453.075c33.325 37.141 94.803 15.172 108.67 5.199s68.683-55.043 37.028-102.807l-250.515-355.467zM809.654 438.916l-250.515-349.653c-26.975-37.058 6.598-89.623 30.14-104.328s85.020-31.045 115.558 5.841l319.162 448.14-319.162 453.075c-33.325 37.141-94.803 15.172-108.67 5.199s-68.683-55.043-37.028-102.807l250.515-355.467z" />
<glyph unicode="&#xe611;" d="M51.118 86.18c-57.149 0.184-65.044 83.405-30.351 99.41 0.143 0.102 444.375 203.827 440.689 205.445 34.355 15.954 66.857 15.954 98.365 0 1.004-0.655 435.63-204.257 439.419-207.462 37.765-17.254 32.778-97.444-18.176-97.413 0-0.195-929.638-0.010-929.946 0.020zM972.882 809.82c57.149-0.174 65.044-83.405 30.341-99.41-0.133-0.102-446.157-206.152-445.798-206.080-34.355-15.944-66.857-15.944-98.365 0-1.014 0.666-430.51 204.892-434.309 208.077-37.765 17.244-32.768 97.434 18.196 97.413 0.010 0.225 929.638 0.020 929.935 0z" />
<glyph unicode="&#xe612;" d="M563.968 905.39h-114.186c-22.62 0-40.96-18.34-40.96-40.96v-334.51c0-22.6 18.34-40.94 40.96-40.94h114.186c22.62 0 40.96 18.34 40.96 40.94v334.51c0 22.61-18.34 40.96-40.96 40.96zM283.218 864.43c0 22.62-18.34 40.96-40.96 40.96h-114.207c-22.62 0-40.96-18.34-40.96-40.96v-334.51c0-22.6 18.34-40.94 40.96-40.94h114.207c22.62 0 40.96 18.34 40.96 40.94v334.51zM885.678 905.39h-114.166c-22.63 0-40.97-18.34-40.97-40.96v-334.51c0-22.6 18.34-40.94 40.97-40.94h114.166c22.62 0 40.96 18.34 40.96 40.94v334.51c0 22.61-18.34 40.96-40.96 40.96zM563.978 412.959h-114.196c-22.62 0-40.96-18.34-40.96-40.96v-339.517c0-22.6 18.34-40.94 40.96-40.94h114.186c22.62 0 40.96 18.34 40.96 40.94l0.010 339.517c0 22.62-18.34 40.96-40.96 40.96zM242.258 412.959h-114.207c-22.62 0-40.96-18.34-40.96-40.96v-339.517c0-22.6 18.34-40.94 40.96-40.94h114.207c22.62 0 40.96 18.34 40.96 40.94v339.517c0 22.62-18.34 40.96-40.96 40.96zM885.678 412.959h-114.166c-22.63 0-40.97-18.34-40.97-40.96v-339.517c0-22.6 18.34-40.94 40.97-40.94h114.166c22.62 0 40.96 18.34 40.96 40.94v339.517c0 22.62-18.34 40.96-40.96 40.96z" />
<glyph unicode="&#xe613;" d="M148.111 888.32c-81.797 0-127.631-29.235-127.631-115.835v-458.565c0-86.6 45.834-136.295 127.631-136.295h133.796v-185.11c0-10.211 13.885-17.419 21.053-8.844 60.211 62.594 144.343 134.736 202.957 193.913h369.91c81.797 0 127.631 49.736 127.631 136.295v458.607c0.061 86.6-45.773 115.835-127.57 115.835h-727.777z" />
<glyph unicode="&#xe614;" d="M975.452 858.87c-40.346 44.79-109.22 48.394-154.051 8.038l-541.399-488.612c36.28-11.459 69.356-31.734 95.56-60.826 26.624-29.542 42.701-64.717 50.391-101.13l541.471 488.581c44.78 40.274 48.374 109.21 8.028 153.948zM321.249 263.434c-40.305 44.79-109.23 48.384-153.999 8.028l-156.385-287.324 302.346 125.317c44.749 40.315 48.343 109.24 8.038 153.979z" />
<glyph unicode="&#xe615;" d="M931.828 217.331c22.628 0 40.972 18.328 40.972 40.948v335.249c0 22.615-18.374 40.948-40.972 40.948h-129.255c-22.628 0-40.972-18.327-40.972-40.948v-335.249c0-22.615 18.374-40.948 40.972-40.948zM93.68 210.075h262.080c0 0 38.703-20.524 28.538-70.613-12.213-60.187-15.89-88.622-6.784-120.325s1.431-78.353 59.395-80.886c33.994 5.258 54.96 23.655 54.96 70.896v54.878c6.261 82.519 81.855 175.437 123.427 181.701s113.894 10.226 113.894 10.226v351.42c0 0-76.43-0.102-95.536 7.726-13.288 5.446-88.889 55.923-114.060 55.923-25.229 0-319.917 0-336.75 0-25.123 0-52.225-5.551-56.81-49.078-4.733-17.953 6.508-39.621 26.32-44.777h65.19c19.755 0 22-24.83 22-24.83s-77.222 0.857-81.822 0c-36.702 0.857-54.575 0-67.766-46.132 0.001-19.792 16.025-43.498 31.064-43.498h99.522c19.002 0 19.002-25.15 19.002-25.15s-103.291 0-108.924 0c-20.183 0-40.664 0-51.158-39.29 0-16.827 0.895-45.552 23.686-49.679h117.394c20.172-3.346 21.478-26.214 21.478-26.214l-133.68 2.17c0 0-16.212-1.017-18.384-2.066-16.516-7.981-36.576-23.839-36.576-53.785 0-50.921 40.301-58.614 40.301-58.614z" />
<glyph unicode="&#xe616;" d="M614.963 961.618c44.237 0 66.796-26.429 66.796-26.429l221.901-227.318c0 0 28.477-23.071 28.477-70.154 0-22.067 0-22.067 0-648.858 0 0-9.257-51.251-61.747-51.251-19.19 0-694.548 0-720.2 0-47.79 0-58.481 51.251-58.481 51.251 0 889.19 0 889.19 0 913.091 0 49.5 51.22 59.658 51.22 59.658s455.987 0.010 472.033 0.010zM233.492 38.369h556.933c0 0 40.315 1.3 41.001 46.1 0.358 23.542 0.020 415.14 0.020 536.34 0 38.4-41.021 37.97-41.021 37.97s-95.355-0.317-132.485 0c-49.92 0.43-43.807 51.22-43.807 51.22v109.875c0 0 2.847 40.98-34.273 40.98-85.053 0-321.331 0-346.358 0-37.652 0-40.98-39.096-40.98-39.096s-0.594-711.537 0-742.41c0.758-39.68 40.97-40.98 40.97-40.98zM729.518 487.229c0-14.141-11.459-25.6-25.6-25.6h-384c-14.141 0-25.6 11.459-25.6 25.6v0c0 14.141 11.459 25.6 25.6 25.6h384c14.141 0 25.6-11.459 25.6-25.6v0zM729.518 343.828c0-14.141-11.459-25.6-25.6-25.6h-384c-14.141 0-25.6 11.459-25.6 25.6v0c0 14.141 11.459 25.6 25.6 25.6h384c14.141 0 25.6-11.459 25.6-25.6v0zM729.518 198.758c0-14.141-11.459-25.6-25.6-25.6h-384c-14.141 0-25.6 11.459-25.6 25.6v0c0 14.141 11.459 25.6 25.6 25.6h384c14.141 0 25.6-11.459 25.6-25.6v0z" />
<glyph unicode="&#xe617;" d="M759.231 897.106c-125.631 0-168.514-64.010-242.111-156.621-73.541 92.611-116.48 156.621-242.176 156.621-134.847 0-223.744-97.71-223.744-244.204 0-85.924 35.261-181.924 116.48-269.486l349.44-382.31 349.44 382.31c81.219 87.562 116.48 183.562 116.48 269.486 0 146.504-88.898 244.204-223.809 244.204v0z" />
<glyph unicode="&#xe618;" d="M405.768 673.313c0 28.146 22.903 51.167 51.154 51.167h107.9c28.257 0 51.153-22.908 51.153-51.167v-268.259c46.922 0 79.993 0 107.71 0 25.87 0 43.36-18.832 28.786-35.782-37.748-40.647-91.049-97.93-91.049-97.93s-70.717-66.346-110.085-105.463c-23.32-20.716-52.47-18.832-69.96 0-37.82 37.097-98.425 97.93-98.425 97.93s-56.734 60.101-96.879 101.697c-23.32 24.482 0 39.548 25.973 39.548 25.117 0 54.906 0 93.722 0zM819.194-12.8c84.834 0 153.606 68.704 153.606 153.606v614.388c0 84.834-68.704 153.606-153.606 153.606h-614.388c-84.834 0-153.606-68.704-153.606-153.606v-614.388c0-84.834 68.704-153.606 153.606-153.606z" />
<glyph unicode="&#xe619;" d="M981.064 382.423c50.985 0.020 55.962-80.159 18.186-97.413-3.789-3.195-438.426-206.787-439.419-207.452-31.508-15.964-64.010-15.964-98.376 0 3.686 1.618-440.545 205.353-440.689 205.435-34.693 16.005-26.798 99.226 30.351 99.43 0.297 0.020 929.925 0.215 929.946 0zM42.947 512.963c-50.975-0.020-55.962 80.169-18.196 97.413 3.799 3.185 433.295 207.401 434.278 208.077 31.508 15.944 64.031 15.944 98.386 0-0.358 0.072 445.676-205.978 445.829-206.080 34.703-15.995 26.798-99.226-30.351-99.41-0.307-0.031-929.935-0.225-929.946 0z" />
<glyph unicode="&#xe61a;" d="M1023.949 452.966c-0.051 0.43-0.102 0.829-0.102 1.249 0 0.215-0.041 0.43-0.041 0.635-0.051 0.307-0.102 0.614-0.154 0.922-0.041 0.328-0.092 0.707-0.143 1.034 0 0.051 0 0.123 0 0.123-1.27 7.936-5.038 15.38-10.691 21.084-32.686 38.697-71.557 73.175-111.084 104.653-85.125 67.789-182.395 124.529-289.864 147.354-62.126 13.189-124.59 13.752-187.013 2.591-56.76-10.148-111.462-31.283-162.714-57.426-80.179-40.98-153.385-97.444-217.17-160.758-11.776-11.704-23.552-23.675-34.294-36.413-14.275-16.937-14.275-36.987 0-53.924 32.686-38.717 71.506-73.155 111.032-104.622 85.115-67.84 182.446-124.559 289.905-147.405 62.085-13.148 124.549-13.711 187.013-2.591 56.771 10.168 111.462 31.283 162.724 57.467 80.128 40.98 153.385 97.423 217.16 160.727 11.827 11.715 23.562 23.675 34.304 36.413 5.704 5.714 9.421 13.117 10.691 21.053 0 0.051 0.051 0.082 0.051 0.123 0 0.358 0.051 0.707 0.092 1.065 0.051 0.307 0.154 0.614 0.154 0.922 0.041 0.215 0.041 0.42 0.041 0.635 0.051 0.43 0.102 0.829 0.102 1.249 0.041 0.635 0.041 1.27 0.041 1.905 0 0.666-0.041 1.28-0.041 1.935zM511.98 254.034c-108.82 0-197.007 88.187-197.007 197.007s88.187 197.028 197.007 197.028 197.048-88.207 197.048-197.028-88.228-197.007-197.048-197.007zM511.98 516.28c-36.035 0-65.198-29.225-65.198-65.249 0-36.014 29.164-65.239 65.198-65.239s65.188 29.225 65.188 65.239c0 36.024-29.153 65.249-65.188 65.249z" />
<glyph unicode="&#xe61b;" d="M81.92 432.25v118.15h860.16v-118.15l-286.772-329.69v-133.12h-233.796v133.12l-339.592 329.69zM174.080 652.8v-71.68h71.68v71.68h-71.68zM327.68 652.8v-71.68h71.68v71.68h-71.68zM481.28 652.8v-71.68h71.68v71.68h-71.68zM645.12 652.8v-71.68h71.68v71.68h-71.68zM92.16 796.16v-71.68h71.68v71.68h-71.68zM245.76 796.16v-71.68h71.68v71.68h-71.68zM409.6 796.16v-71.68h71.68v71.68h-71.68zM563.2 796.16v-71.68h71.68v71.68h-71.68zM716.8 796.16v-71.68h71.68v71.68h-71.68zM798.72 652.8v-71.68h71.68v71.68h-71.68zM870.4 796.16v-71.68h71.68v71.68h-71.68zM0 929.28v-71.68h71.68v71.68h-71.68zM327.68 929.28v-71.68h71.68v71.68h-71.68zM645.12 929.28v-71.68h71.68v71.68h-71.68zM952.32 929.28v-71.68h71.68v71.68h-71.68z" />
<glyph unicode="&#xe61c;" d="M503.961 351.586c4.536 12.761-1.29 27.097-13.042 32.043-11.679 4.915-24.924-1.402-29.459-14.163-27.619-77.619-125.604-225.091-216.315-279.489-11.013-6.632-15.012-21.693-8.941-33.666 4.159-8.176 11.955-12.792 19.982-12.792 3.71 0 7.492 0.992 10.998 3.072 105.013 62.984 206.679 220.333 236.776 304.994v0zM585.891 303.726c30.010 93.877-7.26 157.349-57.47 178.601-50.789 21.536-121.127 2.836-151.629-73.933-25.938-65.252-92.914-179.168-171.148-225.564-11.042-6.554-15.114-21.599-9.071-33.619 6.028-11.973 19.867-16.431 30.923-9.862 95.203 56.509 166.656 187.849 191.131 249.399 19.2 48.301 62.324 60.526 93.276 47.419 28.996-12.256 52.354-49.231 30.966-116.185-33.328-104.212-156.904-245.445-237.008-292.911-11.056-6.538-15.128-21.583-9.1-33.603 4.144-8.255 11.955-12.918 20.026-12.918 3.666 0 7.405 0.961 10.882 3.025 88.914 52.681 221.083 204.012 258.222 320.15v0zM559.431 568.927c-34.661 14.651-72.25 18.464-108.534 11.012-67.526-13.832-124.546-64.181-152.586-134.68-29.285-73.728-72.496-127.134-128.473-158.736-11.172-6.317-15.505-21.268-9.723-33.398 5.825-12.115 19.533-16.841 30.72-10.571 65.526 37.006 115.765 98.619 149.296 183.075 22.011 55.375 66.57 94.87 119.17 105.63 28.054 5.734 56.933 2.836 83.596-8.476 65.874-27.853 119.214-112.735 80.683-233.283-36.763-114.972-145.732-245.303-234.399-314.636-10.216-7.987-12.549-23.457-5.188-34.564 4.449-6.727 11.419-10.303 18.519-10.303 4.608 0 9.259 1.528 13.288 4.663 94.478 73.854 210.968 213.89 250.817 338.582 48.471 151.52-21.591 259.497-107.187 295.684v0zM590.426 655.525c-49.456 20.937-103.173 26.372-155.353 15.722-95.275-19.503-169.206-77.43-208.229-163.163l-1.087-2.379c-13.433-29.601-27.329-60.211-50.5-67.915-12.042-4.001-18.823-17.849-15.128-30.941 3.666-13.076 16.461-20.433 28.43-16.447 42.008 13.974 62.005 57.99 78.075 93.373l1.072 2.363c32.502 71.428 94.942 119.887 175.814 136.428 43.704 8.98 88.827 4.395 130.401-13.202 106.129-44.883 185.001-179.657 130.401-350.381-24.924-77.919-78.365-166.376-150.499-249.053-8.651-9.941-8.274-25.616 0.84-35.021 4.405-4.553 10.056-6.79 15.693-6.79 6.028 0 12.056 2.584 16.534 7.719 76.496 87.717 133.473 182.477 160.469 266.902 64.077 200.31-30.445 359.298-156.933 412.782v0zM621.465 742.109c-64.411 27.301-134.414 34.328-202.201 20.464-99.449-20.37-182.596-81.967-240.427-178.16-6.898-11.453-3.941-26.797 6.608-34.296s24.677-4.301 31.531 7.168c51.615 85.843 122.503 138.524 210.707 156.577 59.542 12.193 120.822 5.971 177.263-17.944 140.747-59.518 251.73-243.602 180.132-467.464-10.39-32.437-24.504-65.867-41.936-99.328-6.202-11.894-2.362-27.018 8.593-33.776 3.565-2.174 7.405-3.214 11.216-3.214 7.941 0 15.635 4.521 19.852 12.556 18.794 36.061 34.038 72.2 45.326 107.473 80.959 253.212-46.066 462.029-206.664 529.944v0zM672.907 822.264c-133.56 60.731-286.957 48.506-410.402-32.626-10.766-7.089-14.215-22.307-7.694-34.028 6.477-11.689 20.446-15.439 31.285-8.381 111.041 72.988 249.078 83.968 369.234 29.318 114.722-52.177 194.391-155.9 224.314-292.061 2.492-11.374 11.839-19.015 22.142-19.015 1.753 0 3.536 0.221 5.318 0.677 12.245 3.182 19.78 16.542 16.867 29.854-33.401 151.946-122.576 267.815-251.064 326.262v0zM395.673 896.465c277.625 51.421 409.199-96.445 452.888-162.406 4.449-6.727 11.433-10.287 18.519-10.287 4.608 0 9.259 1.512 13.288 4.663 10.216 7.987 12.52 23.473 5.188 34.58-48.703 73.492-194.768 238.356-497.519 182.288-12.418-2.3-20.736-15.092-18.62-28.577 2.101-13.501 13.911-22.591 26.257-20.259v0z" />
<glyph unicode="&#xe61d;" d="M1008.64 217.6c0 0 0-20.48-24.058-20.48h-52.506v491.52h51.226c25.338 0 25.338-20.48 25.338-20.48zM746.986 560.901h-306.189v50.096c0 0 0 20.48-21.012 20.48h-194.874c-22.393 0-22.393-20.48-22.393-20.48v-50.096c0 0-133.26 0-150.023 0-34.663 0-34.663-30.72-34.663-30.72v-174.602c0 0 0-30.72 36.89-30.72 16.345 0 692.264 0 692.264 0l152.416-127.739v491.52z" />
<glyph unicode="&#xe61e;" d="M362.724 811.189c0 0-38.464 12.975-22.119 56.447s51.368 25.365 51.368 25.365c95.734-9.996 126.025-71.318 152.107-177.556 449.115 122.837 361.565-280.665 307.995-388.698-15.419-95.816-106.142-336.358-227.706-334.389-27.87 0.451-97.725 38.549-116.614 65.208-10.512 4.626-15.16 7.052-23.26 0-30.614-26.651-99.731-64.875-121.77-65.208-130.636-1.978-192.006 242.243-208.080 334.389-39.164 135.125-116.308 507.525 299.838 396.97-22.077 67.758-45.389 87.472-91.759 87.472z" />
<glyph unicode="&#xe61f;" d="M337.92 490.204c-38.524-39.193-119.543-113.831-156.867-153.356-4.555-5.551-13.379-0.885-13.379 5.725v150.545h-88.629c-51.978 0-79.046 23.278-79.046 79.336v308.196c0 56.058 27.068 79.35 79.046 79.35h466.587c51.978 0 79.046-23.292 79.007-79.35v-279.050h-210.786c-49.422 0-75.971-33.291-75.934-86.978v-24.418zM943.496 550.4c52.831 0 80.504-24.055 80.504-81.951v-297.821c0-57.896-27.674-81.937-80.504-81.937h-36.12v-144.234c0-6.827-8.968-11.646-13.598-5.913-45.372 35.616-144.427 110.557-182.284 150.119h-241.868c-52.831 0-80.504 24.069-80.504 81.937v297.849c-0.040 57.896 27.634 81.951 80.465 81.951h473.911z" />
<glyph unicode="&#xe620;" d="M581.243 889.661l447.877-448.481-447.877-448.379 1.802 304.845h-577.925v289.352h575.611z" />
<glyph unicode="&#xe621;" d="M534.802 929.28c-164.090 0-296.96-129.748-296.96-289.716 0-45.887 11.17-89.112 30.515-127.668l266.427-545.176 266.679 545.123c19.128 38.609 30.299 81.817 30.299 127.721 0 159.969-132.852 289.716-296.96 289.716zM702.031 632.145c0-36.635-13.047-70.275-34.702-96.936-29.27-36.001-74.439-59.191-125.201-59.191s-95.877 23.19-125.201 59.191c-21.673 26.661-34.72 60.301-34.72 96.936 0.018 86.24 71.623 156.162 159.939 156.162s159.885-69.94 159.885-156.162z" />
<glyph unicode="&#xe622;" d="M930.212 334.623c-34.181 0-63.785-18.473-80.169-45.783l-195.113 82.698c5.734 17.070 8.96 35.277 8.96 54.282 0 28.416-7.045 55.163-19.343 78.725l188.027 148.623c13.343-7.281 28.385-11.786 44.646-11.786 51.794 0 93.788 41.994 93.788 93.788 0 51.804-42.004 93.798-93.788 93.798s-93.788-41.994-93.788-93.798c0-17.971 5.325-34.601 14.080-48.865l-181.32-142.336c-25.661 26.706-59.924 44.974-98.345 50.545l7.199 191.775c35.236 5.55 63.242 34.847 65.577 71.946 2.703 42.947-29.932 79.944-72.878 82.668-42.967 2.714-79.974-29.901-82.688-72.858-1.997-31.672 15.278-60.006 41.718-73.841l-7.66-199.608c-38.82-5.499-73.39-23.951-99.215-50.975l-169.595 139.704c9.308 16.435 13.957 35.738 11.971 55.951-5.12 52.214-51.579 90.368-103.782 85.248s-90.358-51.569-85.238-103.782c5.12-52.204 51.599-90.358 103.772-85.238 14.275 1.403 27.382 6.124 38.963 13.015l175.585-144.64c-12.073-23.409-19.016-49.91-19.016-78.060 0-23.081 4.639-45.066 12.943-65.147l-179.988-99.686c-16.189 19.241-40.131 31.703-67.236 31.703-48.753-0.010-88.279-39.506-88.279-88.279 0-48.763 39.526-88.279 88.279-88.279s88.279 39.516 88.279 88.279c0 4.598-0.666 9.021-1.352 13.435l185.201 100.915c23.685-29.338 56.883-50.596 94.904-59.238l-0.041-148.419c-34.836-7.762-60.918-38.758-60.918-75.919 0-43.039 34.888-77.916 77.937-77.916s77.926 34.877 77.926 77.916c0 31.744-19.026 58.921-46.264 71.055l0.061 149.463c53.545 3.359 100.383 31.273 129.28 72.765l203.305-85.719c-0.010-0.645-0.205-1.27-0.205-1.925 0-51.794 42.015-93.778 93.798-93.778 51.804 0 93.788 42.004 93.788 93.778 0.020 51.794-41.984 93.798-93.768 93.798z" />
<glyph unicode="&#xe623;" d="M750.713 464.245c41.345-34.339 56.179-57.752 64.301-83.197 5.919-19.18 31.059-187.838 31.059-187.838s6.559-55.453 35.638-55.453c12.243 0 64.693 6.838 114.235 20.48 34.507 9.502 26.329 34.973 28.054 45.872v169.977c-2.187 10.441-17.437 77.721-110.564 130.935l-0.833 28.663c0 0 81.958 25.363 87.786 30.105 0 0-14.601 43.142-20.601 64.504-6.143 21.342-10.153 54.788-10.153 57.803 0 3.117-12.611 92.741-19.495 107.646-6.823 14.895-16.245 35.070-32.146 45-15.88 9.91-39.578 24.043-73.571 25.952-0.477 0.030-0.995 0.030-1.503 0.102-0.518-0.071-0.975-0.071-1.523-0.102-33.892-1.909-57.631-16.012-73.551-25.952-15.86-9.92-25.17-30.105-32.146-45-6.843-14.905-19.454-104.529-19.454-107.646 0-3.026-3.533-37.811-9.676-59.174-6.072-21.342-18.327-65.124-18.327-65.124 8.6-6.772 84.933-28.125 84.933-28.125s-22.465-40.258-22.465-69.429zM781.427 279.272c-13.48 62.756-27.715 127.463-101.98 163.348-37.182 19.195-88.61 45.254-88.61 45.254 0 2.189-9.707 67.502-9.707 67.502 38.707 11.4 69.937 164.538 69.937 164.538 7.369 50.187-5.626 126.997-5.626 126.997-17.343 127.711-242.654 112.854-273.151 27.198-30.704-32.893-24.118-136.417-24.118-136.417l28.605-129.951c10.737-50.583 44.036-53.782 44.036-53.782 0.168-7.399-14.649-74.822-14.649-74.822s-69.028-29.437-101.793-43.709c-77.633-27.446-75.108-92.202-87.212-158.296l-29.752-242.594c0-8.926-11.093-40.033 45.69-56.625 10.493-3.066 143.481-30.72 273.517-30.72 125.768 0 249.427 27.821 256.496 30.72 54.169 22.211 48.909 56.625 48.909 56.625l-30.594 244.733zM279.269 484.063c-4.871 21.442-34.974 56.036-34.974 56.036s34.044 30.113 41.705 87.76c0 0 10.691 85.050 11.251 101.622 0.95 24.633 0.99 64.187-41.595 91.94-25.043 12.801-102.622 28.663-150.247-3.43-39.885-33.754-44.145-76.769-42.875-101.442 0.83-16.652 0.99-47.735 7.411-71.558 10.271-38.494 48.005-104.822 48.005-104.822s-1.8-41.815-4.691-47.325c-49.656-27.123-113.287-42.335-113.287-120.344l0.38-179.269c0-8.315 0-40.269 19.152-45.225 42.989-11.125 85.632-20.46 101.654-20.46 20.554 0 26.633 44.535 26.633 44.535l25.203 199.499c30.673 89.16 56.268 84.38 106.273 112.483z" />
<glyph unicode="&#xe624;" d="M706.433 289.565h-133.991v-133.728h-106.031v133.728h-133.991v105.545h133.991v133.727h106.031v-133.727h133.991zM801.697 834.94c0 0 0 43.654-40.202 43.654h-491.579c-48.412 0-47.407-43.654-47.407-43.654l-1.005-152.248h-141.617c-44.137 0-79.887-46.566-79.887-90.584v-497.826c0 0 10.894-76.396 87.745-76.396 77.435 0 805.213 0 855.255 0 70.107 0 81 76.396 81 76.396v497.826c0 44.018-35.789 90.584-79.886 90.584h-141.617zM676.687 779.823c10.068 0.163 19.223-4.381 20.505-21.828v-76.396h-359.49v76.396c0 0 0 21.828 18.877 21.828h320.108z" />
<glyph unicode="&#xe625;" d="M553.185 902.431c-33.785 23.064-44.98 24.092-78.93 0l-459.403-332.176c-9.075-5.365-12.835-13.275-12.835-25.446 0-21.627 14.193-18.319 16.507-21.627h989.397c16.079 7.498 16.796 17.654 16.079 21.627-0.686 3.973 0 14.786-16.079 25.446l-454.736 332.176zM877.097 737.044c2.601-1.823 5.652-2.755 8.735-2.755 2.417 0 4.833 0.573 7.045 1.72 5.028 2.621 8.202 7.834 8.202 13.527v172.646c0 8.417-6.83 15.237-15.247 15.237h-116.869c-8.428 0-15.237-6.83-15.237-15.237v-90.839c-0.010-4.956 2.417-9.626 6.502-12.483l116.869-81.818zM160.461 449.864c-26.982 1.393-37.222-38.226-37.222-43.213v-403.999c0-35.727 27.31-45.967 35.727-45.967h220.18c8.417 0 35.727 10.24 35.727 45.967v286.603c0 24.499 0 44.979 30.72 44.979h136.397c30.72 0 30.72-20.48 30.72-42.809 0-35.36 0-288.773 0-288.773 0-35.727 27.3-45.967 35.727-45.967h218.194c8.428 0 35.707 10.24 35.707 45.967v405.412c0 4.966-10.24 43.192-37.212 43.192l-704.666-1.393z" />
<glyph unicode="&#xe626;" d="M485.704 961.628c0 0-34.241-3.041-68.795-20.768-56.068-28.764-269.923-147.229-269.923-147.229h433.49l277.012 167.997zM622.991 749.64v-805.509l247.222 238.473c0 0 31.121 32.383 32.78 85.638 0.994 31.904 0 661.396 0 661.396zM118.989 745.636v-777.288c0 0-1.181-28.843 55.346-30.72 22.765-0.756 400.662 0 400.662 0v808.008zM198.984 657.633h288v-47.995h-288zM198.984 561.633h288v-47.995h-288zM198.984 465.633h288v-48.005h-288zM198.984 369.633h288v-48.005h-288z" />
<glyph unicode="&#xe627;" d="M660.972 231.26c-47.411 14.828-123.208 17.889-142.162 17.889-29.43 0-58.378-2.314-86.712-6.615-30.587 196.372 0.625 321.403 46.336 400.169 8.489-13.435 22.784-22.272 39.045-22.272 22.589 0 41.431 17.132 46.029 39.997 4.495-1.516 9.298-2.386 14.295-2.386 26.010 0 47.114 22.753 47.114 50.801 0 0.788-0.061 1.546-0.154 2.314 8.765-5.857 17.603-12.329 26.214-19.476 38.277-31.764 71.301-75.479 71.26-131.615 0-13.609-1.956-28.027-6.236-43.366-0.911-3.246 0.707-6.707 3.635-7.844 0.666-0.266 1.382-0.379 2.017-0.379 2.335 0 4.526 1.495 5.437 3.942 0.133 0.399 19.333 49.93 19.354 108.943 0 41.226-9.523 87.613-42.435 123.955-8.305 9.185-18.074 17.664-29.471 25.242 0.881 0.010 1.772 0.020 2.683 0.020 36.71 0.010 76.36-5.837 110.121-23.808 33.751-18.053 61.727-47.759 76.339-96.963 0.84-2.703 3.154-4.454 5.683-4.454 0.461 0 1.004 0.061 1.485 0.215 3.052 0.901 4.946 4.168 4.291 7.496-0.113 0.41-10.097 51.251-39.301 102.646-28.979 51.251-78.182 103.711-155.658 103.7-34.017 0-73.175-10.158-118.17-34.324-74.803 95.109-145.162 128.829-206.612 128.819-130.12-0.666-214.026-147.773-219.843-157.727v-0.020c-0.215-0.328-0.307-0.512-0.317-0.532-1.608-2.918-0.809-6.687 1.843-8.561 2.611-1.874 6.164-1.188 8.028 1.536 39.864 58.378 91.72 77.64 144.916 77.763 50.514 0.020 101.868-17.971 142.449-37.468-8.387 1.044-16.456 1.567-24.166 1.567-80.056 0.133-123.515-53.453-145.562-105.554-22.292-52.224-24.709-103.752-24.75-104.182-0.154-3.389 2.171-6.318 5.304-6.666 0.205-0.031 0.42-0.041 0.614-0.041 2.908 0 5.386 2.284 5.857 5.437 8.509 59.668 42.199 92.867 83.077 112.312 40.827 19.251 88.535 23.572 122.112 23.542 3.912 0 7.629-0.051 11.121-0.164-155.884-143.186-136.591-483.523-132.506-536.668-136.868-46.541-253.030-143.196-329.912-270.121 8.632-0.307 1013.484 0.727 1024 0.686-84.931 137.329-213.217 243.046-366.694 282.214z" />
<glyph unicode="&#xe628;" d="M595.572 596.803l-64.86 301.757h-32.084l-56.749-302.363-110.104-0.518 187.375-273.384 185.503 275.035-109.081-0.527zM1008.91 304.149c0 0-151.826 463.093-156.484 481.393s-42.166 18.3-42.166 18.3l-202.408 9.974 19.703-76.282h148.472l108.152-438.355-192.078 19.947c0 0-18.19 0-24.323-21.164-10.503-27.27-31.51-81.811-31.51-81.811h-234.484c0 0-19.079 54.708-30.748 81.467-9.38 21.508-29.677 21.508-29.677 21.508l-189.116-19.947 108.103 438.355h152.646l19.674 76.282-215.041-9.974c0 0-15.338 0-19.828-18.754-56.313-159.725-168.939-479.174-168.939-479.174l-2.161-275.461c0 0 0-30.187 29.894-30.187 21.171 0 899.264-0.734 922.417 0s29.904 30.187 29.904 30.187v273.697z" />
<glyph unicode="&#xe629;" d="M974.92 509.952h-497.848c-30.956 98.785-123.197 181.361-232.192 181.361-134.369 0-243.302-108.933-243.302-243.313s108.933-243.292 243.302-243.292c113.101 0 208.148 88.084 235.428 192.625h175.35l0.020-101.806h63.703l0.256 101.806h47.718l0.031-101.704h63.693l0.246 101.704h42.363v-101.704h63.744v101.704h37.53c36.086 0 50.627 20.224 50.627 56.32-0.041 36.045-14.551 56.3-50.668 56.3zM243.2 314.542c-73.697 0-133.458 59.761-133.458 133.468s59.761 133.458 133.458 133.458c73.708 0 133.458-59.75 133.458-133.458s-59.75-133.468-133.458-133.468z" />
<glyph unicode="&#xe62a;" d="M504.187 954.911c-282.778 0-512-229.222-512-512 0-282.767 229.222-512 512-512s512 229.233 512 512c-0.010 282.778-229.202 512-512 512zM809.267 368.077l-333.773-0.901c-19.722 0-45.414 34.161-45.414 54.374v333.281c0 20.193 36.598 36.588 56.32 36.588 19.753 0 56.32-16.364 56.32-36.588v-286.351h265.206c19.794 0 32.44-32.676 32.44-52.859 0-20.244-11.315-47.544-31.099-47.544z" />
<glyph unicode="&#xe62b;" d="M454.963 933.768c-76.399-16.49-148.168-72.096-182.509-141.124-22.38-45.252-28.553-75.164-26.238-131.154 1.158-39.499 3.087-50.621 13.505-78.232 6.56-17.641 16.206-39.116 21.608-47.936 15.434-26.844 52.090-108.528 65.981-148.794 18.907-54.072 24.695-77.465 28.939-122.333 5.402-53.305 6.56-58.674 17.363-70.179l9.261-9.971h106.496c65.595 0 109.583 1.534 114.213 3.835 12.733 6.903 18.521 24.543 22.765 68.261 6.945 75.548 30.097 145.343 83.345 253.487 35.113 70.562 42.444 90.504 47.846 131.537 21.608 156.080-106.496 299.506-265.854 297.972-18.135 0-43.602-2.684-56.721-5.369v0zM399.4 118.199l7.717-6.903-7.717-5.369c-10.418-7.286-10.418-29.529 0-36.815l7.717-5.369-7.717-6.903c-9.646-8.82-10.032-25.694-0.772-33.747 6.174-5.752 20.064-6.519 113.827-6.519 101.866 0 107.268 0.383 114.599 7.67 10.032 9.971 9.646 21.859-1.158 31.446l-8.875 8.053 8.875 8.82c11.19 11.121 11.19 18.791 0 29.912l-8.875 8.82 8.875 8.053c10.804 9.587 11.19 21.475 1.158 31.446-7.331 7.286-12.733 7.67-115.371 7.67-92.991 0-108.811-0.767-113.827-6.136-8.489-8.437-7.717-25.694 1.543-34.131v0zM437.986-9.006c0-6.519 33.184-26.461 51.705-31.063 32.026-8.053 71.383 3.451 92.605 26.844l7.331 8.053h-75.628c-45.531 0-76.013-1.534-76.013-3.835v0zM528.455 240.918h-29.303v332.673c0 0-14.152 11.954-21.459 18.819-30.745 28.886-42.333 91.324 5.442 130.658 24.55 20.213 38.138 20.562 58.947 18.528 28.494-2.786 35.641-24.258 41.93-46.88 8.994-32.353 0.642-39.056-8.47-52.561-26.053-21.744-41.632 10.087-26.053 14.024 6.68 8.926 13.518 14.722 9.057 24.603-6.562 15.277-4.727 30.080-18.988 31.687-13.792 1.555-37.302-11.615-37.798-12.023-33.778-27.811-22.19-69.593-4.002-86.681 2.876-2.702 30.697-23.111 30.697-23.111v-349.737z" />
<glyph unicode="&#xe62c;" d="M92.172 606.989c-22.628 0-40.972-18.328-40.972-40.948v-335.249c0-22.615 18.373-40.948 40.972-40.948h129.256c22.628 0 40.972 18.327 40.972 40.948v335.249c0 22.615-18.374 40.948-40.972 40.948zM930.32 614.245h-262.081c0 0-38.703 20.524-28.538 70.613 12.213 60.187 15.89 88.622 6.784 120.325s-1.431 78.354-59.395 80.886c-33.994-5.258-54.96-23.655-54.96-70.896v-54.878c-6.261-82.519-81.855-175.437-123.427-181.701-41.571-6.265-113.894-10.226-113.894-10.226v-351.42c0 0 76.43 0.102 95.536-7.726 13.288-5.446 88.889-55.923 114.060-55.923h317.55c0 0 35.806 5.813 47.21 49.078 4.733 17.953 3.092 39.621-16.72 44.777h-45.99c-19.755 0-22 24.83-22 24.83s58.022-0.857 62.622 0c17.696 3.297 60.577 13.088 60.576 59.562 0 19.792-8.835 30.069-23.874 30.069h-80.322c-19.002 0-19.002 25.15-19.002 25.15s93.691 0 99.324 0c20.183 0 46.54 11.205 50.264 41.83 0 16.828 0 43.011-22.791 47.139h-107.794c-20.172 3.346-21.478 26.214-21.478 26.214l133.68-2.17c0 0 16.212 1.017 18.384 2.066 16.516 7.981 36.576 23.839 36.576 53.785 0 50.921-40.301 58.614-40.301 58.614z" />
<glyph unicode="&#xe62d;" d="M865.113 803.533c-99.331 99.391-260.422 99.391-359.771 0.026l-108.707-108.707c-9.384-9.376-17.891-19.354-25.512-29.719-1.66-2.236-3.165-4.619-4.739-6.89 52.513 14.175 108.251 13.332 160.385-2.589l8.885 8.894 59.97 59.953c52.573 52.573 137.823 52.573 190.439 0 52.599-52.599 52.599-137.858 0-190.465l-96.149-96.14-23.414-22.777c-23.732-23.74-51.455-36.694-85.861-39v-0.103c0 0.034 0.662 0.034 0.628 0.034-6.511-0.559-12.902-0.628-17.659-0.421-10.52 0.49-19.534 2.047-19.534 2.047-27.689 3.768-47.128 17.521-67.385 37.795-19.741 19.741-32.041 43.842-36.978 69.355-0.146 0.705-0.224 1.342-0.353 2.047-23.061-1.892-45.563-11.595-63.187-29.202l-36.204-36.204c12.429-31.465 31.258-60.985 56.685-86.394 25.409-25.444 54.861-44.272 86.291-56.702 5.772-2.279 11.638-4.352 17.539-6.176 4.955-1.54 9.9-2.976 14.941-4.232 0.37-0.103 0.688-0.138 0.998-0.206 0.912-0.241 1.815-0.387 2.727-0.594 52.108-12.034 107.236-7.449 157.039 13.728 6.090 2.623 12.18 5.428 18.124 8.533 0.318 0.146 0.628 0.318 0.946 0.499 1.015 0.525 1.961 1.084 2.942 1.643 2.52 1.359 5.041 2.727 7.518 4.198 0.043 0 0.077 0 0.077 0.034 18.063 10.675 35.069 23.766 50.612 39.266l108.707 108.707c99.366 99.366 99.366 260.465 0 359.762zM492.371 240.352l-68.847-68.847c-52.59-52.564-137.849-52.564-190.448 0-52.607 52.607-52.607 137.858 0 190.474l96.14 96.14 21.401 22.786c23.758 23.697 57.992 36.677 83.797 38.991 0 0 13.496 0.86 18.278 0.654 10.52-0.456 12.094-0.533 20.566-2.15 30.372-7.526 48.909-18.33 69.165-38.552 19.741-19.741 32.067-43.507 36.961-68.985 0.146-0.74 0.241-1.204 0.353-1.901 23.104 1.849 45.64 11.681 63.213 29.245l36.221 36.29c-12.421 31.465-31.258 60.968-56.702 86.412-25.409 25.409-54.878 44.29-86.308 56.71-5.754 2.279-11.621 4.352-17.513 6.167-4.955 1.54-9.943 2.976-14.941 4.206-0.404 0.103-0.688 0.181-1.015 0.284-0.895 0.206-1.815 0.353-2.71 0.559-52.134 12.034-107.236 7.415-157.022-13.754-6.124-2.589-12.18-5.385-18.132-8.507-0.353-0.181-0.645-0.318-0.963-0.49-0.998-0.525-1.961-1.084-2.942-1.643-2.52-1.368-5.075-2.727-7.509-4.198-0.069 0-0.069-0.034-0.086-0.069-18.081-10.64-35.086-23.732-50.595-39.232l-108.733-108.698c-99.366-99.366-99.366-260.465 0-359.796 99.348-99.366 260.431-99.366 359.779 0l108.724 108.707c9.384 9.419 17.883 19.354 25.521 29.753 1.643 2.279 3.183 4.619 4.722 6.933-52.513-14.253-108.26-13.41-160.377 2.512zM578.654 379.509c0-0.069 0-0.138-0.043-0.206h0.043v0.206z" />
<glyph unicode="&#xe62e;" d="M1003.448 440.535c0-36.721-21.473-66.56-58.245-66.56h-687.483c-36.731 0-58.225 29.839-58.225 66.56v0c0 36.762 21.494 66.56 58.225 66.56h687.483c36.772 0 58.245-29.798 58.245-66.56v0zM153.661 440.535c0-36.721-29.819-66.56-66.56-66.56v0c-36.762 0-66.56 29.839-66.56 66.56v0c0 36.762 29.798 66.56 66.56 66.56v0c36.751 0 66.56-29.798 66.56-66.56v0zM1003.52 136.755c0-36.721-21.484-66.54-58.245-66.54h-687.565c-36.741 0-58.245 29.819-58.245 66.54v0c0 36.803 21.494 66.58 58.245 66.58h687.575c36.751 0 58.235-29.778 58.235-66.58v0zM153.62 136.755c0-36.721-29.819-66.54-66.56-66.54v0c-36.762 0-66.58 29.829-66.58 66.54v0c0 36.803 29.798 66.58 66.58 66.58v0c36.751 0 66.56-29.778 66.56-66.58v0zM1003.52 744.294c0-36.731-21.484-66.56-58.245-66.56h-687.514c-36.731 0-58.235 29.819-58.235 66.56v0c0 36.762 21.504 66.56 58.235 66.56h687.524c36.751 0 58.235-29.798 58.235-66.56v0zM153.692 744.294c0-36.731-29.819-66.56-66.56-66.56v0c-36.772 0-66.57 29.819-66.57 66.56v0c0 36.762 29.788 66.56 66.57 66.56v0c36.741 0 66.56-29.798 66.56-66.56v0z" />
<glyph unicode="&#xe62f;" d="M834.58 497.848c-12.237 0-19.712 0-19.712 0v160.287c-1.004 196.547-135.066 303.544-297.994 303.544-162.877 0-308.961-112.087-303.872-303.544l-0.164-160.082c0 0 2.458-0.215-9.83-0.215-13.005 0-98.714-15.084-98.714-91.505v-366.838c0-81.5 96.461-101.816 98.714-101.816 171.622 0 455.045 0 626.708 0 2.253 0 93.737 10.168 93.737 101.816v361.769c0.010 86.579-86.569 96.584-88.873 96.584zM607.58 78.797h-187.116l50.821 149.156c-21.709 14.459-36.127 39.588-36.127 68.25 0 44.892 35.246 81.285 78.715 81.285s78.715-36.424 78.715-81.285c0-28.621-14.377-53.791-36.065-68.209l51.057-149.197zM350.833 497.848l0.164 158.167c0 101.878 62.167 183.327 162.877 183.327 99.748 0 162.867-71.25 162.867-183.327l0.102-158.167h-326.011z" />
<glyph unicode="&#xe630;" d="M823.9 494.346h-19.722v160.236c-1.004 196.536-135.055 303.544-297.984 303.544-162.877 0-308.92-112.077-303.841-303.544l-0.164-160.031c0 0 2.458-0.215-9.841-0.215-13.005 0-98.703-15.063-98.703-91.464v-366.807c0-81.5 96.461-101.816 98.703-101.816h626.688c2.243 0 93.737 10.168 93.737 101.816v361.748c0.010 86.518-86.569 96.532-88.873 96.532v0zM340.316 652.462c0 101.878 62.157 183.316 162.877 183.316 99.748 0 162.867-71.24 162.867-183.316l0.102-158.116h-326.011l0.164 158.116zM608.291 29.46l-112.078 112.078-104.741-106.87-67.514 67.661 112.087 112.041-104.842 104.667 65.643 66.417 112.096-112.050 106.723 105.884 66.694-66.703-112.096-112.059 105.672-105.58-67.643-65.486z" />
<glyph unicode="&#xe631;" d="M814.868 688.855c0 160.215-135.066 272.824-297.994 272.824-162.877 0-308.961-112.087-303.872-303.544l-0.164-160.082c0 0 2.458-0.215-9.83-0.215-13.005 0-98.714-15.084-98.714-91.505v-366.838c0-81.5 96.461-101.816 98.714-101.816 171.622 0 455.045 0 626.708 0 2.253 0 93.737 10.168 93.737 101.816v361.769c0 86.6-86.579 96.604-88.893 96.604-12.227 0-483.748 0-483.748 0l0.164 158.167c0 101.878 62.167 183.327 162.877 183.327 99.748 0 168.786-65.362 168.786-178.002zM607.58 78.797h-187.116l50.821 149.146c-21.709 14.459-36.127 39.588-36.127 68.25 0 44.902 35.246 81.285 78.715 81.285s78.715-36.434 78.715-81.285c0-28.621-14.377-53.791-36.065-68.198l51.057-149.197z" />
<glyph unicode="&#xe632;" d="M610.376 541.911l-35 213.996-110.326-137.175-59.044-55.521 80.906-79.411 103.076-75.633-9.871-13.814-70.267 39.301-120.197 115.825-64.84-80.804-94.7 50.934-27.689-58.9-104.909-143.288-20.244 13.087 103.649 142.541 36.116 65.044-96.215 44.81-117.524 82.186 11.172-150.252 38.676-224.829 199.905-9.216 227.297 46.582 121.068 15.841 23.941 36.598zM234.67 561.766l82.862-56.453 49.521 60.467 81.613 76.831 123.259 143.309-259.86-33.444-178.125-27.464-134.912-30.013 132.721-87.020zM750.131 179.927l23.388 136.591-95.181-59.884-47.258-21.268 32.338-64.799 46.52-67.154-8.796-6.308-34.304 38.38-48.507 95.027-56.013-35.318-46.592 50.493-29-29.829-93.215-64.748-9.503 12.134 92.314 64.543 35.348 31.805-48.794 47.073-43.612-10.916-34.816-8.038-23.429-143.882 118.845-47.217 147.016-19.18 76.442-15.647 22.098 17.111zM527.237 270.193l38.318-51.374 42.527 26.255 65.3 29.42 104.294 60.887-140.308 28.129-23.265-35.164-75.428-8.479-38.103-3.379-18.207-4.649zM972.237 755.671l-148.541-26.44-148.931-30.996-54.876-8.714 26.358-142.295 27.156-125.583 100.065 22.825 155.095 27.187 94.464 21.002-20.296 87.726zM879.892 527.534l1.495-8.52-52.398-8.1-112.005-20.5-1.597 9.318-2.284 9.482 44.943 9.892 70.738 10.67 50.053 6.912zM706.304 541.153l-0.041 7.24 57.62 11.715 56.484 9.933 26.716 5.745 22.999 4.25 2.017-15.473-28.078-6.38-80.21-13.722-54.61-11.254zM863.304 613.437l1.925-8.714-55.613-10.742-60.18-9.196-48.998-8.735-4.424 16.271 114.842 21.094 51.681 8.509zM958.28 679.905l-46.756-7.332-6.574 22.252-3.021 26.829 21.484 2.693 26.88 5.54 6.431-25.047z" />
<glyph unicode="&#xe633;" d="M238.106 783.391c-109.041 0-217.626-231.392-217.626-371.327 0-257.268 217.769-465.824 486.4-465.824s486.4 208.557 486.4 465.824c0 135.478-110.616 363.068-218.234 363.046-25.141-0.005-46.184-10.59-46.184-33.743 0 0-0.85-132.382 6.392-140.365 45.467-50.116 72.989-127.354 72.989-198.956 0-157.68-136.718-288.607-301.363-288.607s-301.363 130.927-301.363 288.607c0 75.447 30.558 155.851 80.467 206.895 7.109 7.271-2.229 142.666-2.229 142.666 0 21.544-20.371 31.784-45.649 31.784zM417.968 897.719v-509.408c0-28.742 23.466-52.041 52.198-52.041h72.025c28.828 0 52.198 23.3 52.198 52.041v509.408c0 28.742-23.466 52.041-52.198 52.041h-72.025c-28.828 0-52.198-23.3-52.198-52.041z" />
<glyph unicode="&#xe634;" d="M1018.624 137.753v-73.312c0 0 5.376-39.995-42.249-48.57-93.35-16.453-268.412-47.143-268.412-47.143v384.076l145.958-14.765 14.233-128.656 150.471-71.629zM680.704 356.301v-387.553l-325.768 50.514v193.962l155.255 107.958 170.513 35.119zM315.003 213.583v-190.133l-266.013-50.094c0 0-44.648-6.7-44.648 42.714v238.805l158.944 25.347 151.717-66.639zM354.936 287.15v93.64l130.494 303.165 195.274 33.254v-300.354l-184.049-37.385-141.72-92.321zM315.003 288.475l-138.181 60.276-172.481-23.172v349.849c0 32.883 37.748 28.593 37.748 28.593l127.32-29.811 145.593-312.954-0.001-72.781zM1018.624 209.912l-95.454 46.024-16.598 142.671-198.434 16.881-0.175-2.247v303.99c0 0 238.403-44.465 268.412-50.035 33.64-6.351 42.249-46.416 42.249-46.416v-410.868zM459.592 804.198c0-16.589-3.082-32.532-8.714-47.145l-125.614-295.506c0 0-123.873 292.188-125.338 296.038-5.56 14.602-9.38 30.095-9.38 46.572 0 73.646 60.201 133.376 134.533 133.376 74.312 0 134.513-59.73 134.513-133.335v0zM325.151 863.406c-33.034 0-59.802-26.491-59.802-59.208 0-32.676 26.767-59.238 59.802-59.238 32.901 0.010 59.709 26.563 59.709 59.238 0 32.717-26.726 59.208-59.709 59.208v0z" />
<glyph unicode="&#xe635;" d="M583.68 426.271v214.428c76.486 0.026 136.117 0.057 136.17 0.068 27.248 0.186 31.012 51.091 14.471 67.218-0.068 0.103-222.111 238.328-220.353 239.958-16.38 16.075-31.876 16.075-46.899 0-0.478-0.66-217.942-238.761-219.748-241.991-18.006-17.386-15.628-65.236 8.666-65.206 0-0.076 68.912-0.094 153.614-0.087v0-208.309l-294.801-377.328c-10.473-13.405-8.175-32.699 5.299-43.226l88.953-69.498c13.399-10.469 32.681-8.179 43.224 5.316l242.835 310.814 250.376-309.188c10.777-13.308 30.096-15.262 43.31-4.561l87.726 71.039c13.288 10.761 15.249 30.092 4.544 43.312l-297.385 367.24z" />
<glyph unicode="&#xe636;" d="M680.11 485.55l284.16-294.113-46.193-41.779-286.618 296.643-123.003-88.781-117.617 86.211-288.44-293.233-46.387 40.1 285.727 290.468-344.535 257.833v-613.55l48.579-54.252h923.505l50.504 52.593v615.209l-339.681-253.348zM0 818.668h1024l-512.164-366.756-511.836 366.756z" />
<glyph unicode="&#xe637;" d="M153.6 561.684h716.8v-227.359h-716.8v227.359z" />
<glyph unicode="&#xe638;" d="M40.933 744.96c-22.606 0-40.933-18.388-40.933-41.027v-532.346c0-22.659 18.427-41.027 40.933-41.027h942.135c22.606 0 40.933 18.388 40.933 41.027v532.346c0 22.659-18.427 41.027-40.933 41.027h-942.135zM327.68 442.88c0 104.625 82.523 189.44 184.32 189.44s184.32-84.815 184.32-189.44c0-104.625-82.523-189.44-184.32-189.44s-184.32 84.815-184.32 189.44zM448.324 405.951c-35.451-37.63-28.865-58.447-26.242-66.872s19.703-22.091 46.508-31.087c15.315-5.14 47.055-2.912 63.89 0s35.869 10.289 41.321 23.818c5.453 13.529-12.636 39.552-19.776 51.148-1.080 1.744-17.135 30.377-16.752 35.114 2.755 33.708 27.032 15.866 36.528 21.93 8.833 5.629 7.305 39.904 6.692 41.604-1.35 3.729 15.819 7.949 13.143 12.849-1.919 3.515-11.067 38.532-11.339 40.968-1.326 11.664-8.057 26.636-10.136 29.526-8.257 11.522-35.643 16.108-48.772 16.167-38.395 0.169-61.134-4.532-71.042-42.946-6.254-24.242 5.458-43.023 19.717-62.739 13.79-19.054-23.74-69.48-23.74-69.48zM844.8 547.262v45.495c8.961 0.458 15.234 1.145 18.819 2.062 5.709 1.451 10.355 4.353 13.94 8.705 2.456 2.978 4.315 6.949 5.576 11.913 0.73 2.978 1.095 5.193 1.095 6.644h52.73v-182.847h-58.206v108.029h-33.954zM91.86 547.262v45.495c8.961 0.458 15.234 1.145 18.819 2.062 5.709 1.451 10.355 4.353 13.94 8.705 2.456 2.978 4.315 6.949 5.576 11.913 0.73 2.978 1.095 5.193 1.095 6.644h52.73v-182.847h-58.206v108.029h-33.954z" />
<glyph unicode="&#xe639;" d="M406.671 72.837l235.049 0.84c0 0 64.563-0.84 64.563 36.547 0 41.605-59.996 46.060-59.996 46.060l-58.225 7.444c-4.495 0-24.556 4.106-24.556 19.999 0 13.609 9.564 20.224 24.556 21.719l116.224 7.004c22.436 0 55.89 14.060 55.89 45.056 0 33.065-37.673 44.114-55.89 44.114l-120.166 10.004c0 0-22.047 1.065-20.552 19.497l-0.061 0.113c0 13.558 10.998 20.5 24.556 20.5l129.055 7.004c27.167 0 69.335 12.564 69.335 46.285 0 33.894-42.158 45.885-69.335 45.885l-132.997 7.997c-13.548 0-20.552 6.277-20.552 19.722v0.051c0 13.609 7.834 21.443 21.381 21.443l113.234 3.164 260.608 5.059c27.156 0 65.219 9.718 65.219 44.052 0 37.448-37.673 43.776-63.283 47.718l-581.161 36.055 135.66 53.893 55.562 50.166c0 0 34.222 29.727 43.387 62.72 4.495 16.169 4.895 37.059-11.059 49.275-15.053 11.5-57.938-10.445-57.938-10.445l-60.058-33.055c-51.548-27.054-129.72-64.389-207.78-88.381l0.113-0.44c-170.291-62.618-277.176-156.785-277.176-156.785s-0.276-41.39-0.276-136.223v0-214.446c193.331-139.612 406.671-139.612 406.671-139.612v0z" />
<glyph unicode="&#xe63a;" d="M921.61 959.13c-301.445-4.895-468.091-69.458-553.503-101.714-38.502-14.541-34.724-75.592-34.724-75.592l-0.215-580.669c-34.929 13.875-77.394 17.162-120.525 6.676-93.020-22.589-153.938-100.526-136.049-174.172 17.879-73.605 107.756-114.924 200.755-92.344 87.695 21.32 146.821 91.802 138.291 161.495v0c0 0-0.215 436.705 0 452.71 0.358 27.525 21.35 34.324 21.35 34.324s155.146 60.672 412.897 78.111c0 0 22.211 2.13 22.211-22.19 0-11.52 0-333.087 0-333.087v0c-34.601 13.24-76.237 16.23-118.589 5.939-93.020-22.61-153.907-100.577-136.028-174.193 17.859-73.574 107.776-114.924 200.755-92.324 81.234 19.763 137.943 81.684 139.141 146.084l0.020-0.082c0.010 0.041 0.010 521.779 0.010 710.062 0 16.978-3.164 47.995-35.799 50.964z" />
<glyph unicode="&#xe63b;" d="M383.272 504.32l-112.046 112.046c-18.928 18.928-18.978 49.775 0.018 68.77 18.956 18.956 49.784 19.003 68.77 0.018l110.546-110.546v170.369c0 33.982 27.508 61.424 61.44 61.424 33.863 0 61.44-27.5 61.44-61.424v-163.128l106.926 106.926c18.928 18.928 49.775 18.978 68.77-0.018 18.956-18.956 19.003-49.784 0.018-68.77l-115.666-115.666h180.673c33.857 0 61.36-27.508 61.36-61.44 0-33.863-27.472-61.44-61.36-61.44h-170.433l108.211-108.211c18.928-18.928 18.978-49.775-0.018-68.77-18.956-18.956-49.784-19.003-68.77-0.018l-109.71 109.71v-163.128c0-33.982-27.508-61.424-61.44-61.424-33.863 0-61.44 27.5-61.44 61.424v170.369l-113.331-113.331c-18.928-18.928-49.775-18.978-68.77 0.018-18.956 18.956-19.003 49.784-0.018 68.77l104.59 104.59h-163.192c-33.857 0-61.36 27.508-61.36 61.44 0 33.863 27.472 61.44 61.36 61.44h173.432zM512 837.12c28.277 0 51.2 22.923 51.2 51.2s-22.923 51.2-51.2 51.2c-28.277 0-51.2-22.923-51.2-51.2s22.923-51.2 51.2-51.2v0zM952.32 386.56c28.277 0 51.2 22.923 51.2 51.2s-22.923 51.2-51.2 51.2c-28.277 0-51.2-22.923-51.2-51.2s22.923-51.2 51.2-51.2v0zM71.68 386.56c28.277 0 51.2 22.923 51.2 51.2s-22.923 51.2-51.2 51.2c-28.277 0-51.2-22.923-51.2-51.2s22.923-51.2 51.2-51.2v0zM829.44 714.24c28.277 0 51.2 22.923 51.2 51.2s-22.923 51.2-51.2 51.2c-28.277 0-51.2-22.923-51.2-51.2s22.923-51.2 51.2-51.2v0zM204.8 714.24c28.277 0 51.2 22.923 51.2 51.2s-22.923 51.2-51.2 51.2c-28.277 0-51.2-22.923-51.2-51.2s22.923-51.2 51.2-51.2v0zM829.44 69.12c28.277 0 51.2 22.923 51.2 51.2s-22.923 51.2-51.2 51.2c-28.277 0-51.2-22.923-51.2-51.2s22.923-51.2 51.2-51.2v0zM204.8 69.12c28.277 0 51.2 22.923 51.2 51.2s-22.923 51.2-51.2 51.2c-28.277 0-51.2-22.923-51.2-51.2s22.923-51.2 51.2-51.2v0zM512-43.52c28.277 0 51.2 22.923 51.2 51.2s-22.923 51.2-51.2 51.2c-28.277 0-51.2-22.923-51.2-51.2s22.923-51.2 51.2-51.2v0z" />
<glyph unicode="&#xe63c;" d="M1024 168.312c0-63.198-54.712-119.672-112.169-119.672h-776.581c-94.802 0-135.25 49.176-135.25 150.136v465.208c0 0 0 51.565 40.96 51.565 14.6 0 100.557 0 100.557 0v80.245c0 0 0 51.565 46.003 51.565 271.307 0 522.133 0 793.44 0 43.040 0 43.040-51.565 43.040-51.565v-627.483zM133.12 642.56h-61.44v-421.071c0-61.495 12.993-90.929 29.501-90.929 20.105 0 31.939 29.435 31.939 90.929v421.071zM849.92 540.16h-245.76v-276.48h245.76zM921.6 714.24h-645.12v-71.68h645.12zM337.92 222.72h174.080v40.96h-174.080zM337.92 355.84h174.080v51.2h-174.080zM512 488.96v51.2h-174.080v-51.2z" />
<glyph unicode="&#xe63d;" d="M323.84 885.76c-33.28 8.96-44.954-23.89-44.749-43.52 1.434-137.667 0.031-275.364 0-413.010 0-24.76 7.404-39.844 28.969-56.33 184.095-102.984 287.416 66.724 538.255 9.994 40.305-5.755 69.222 10.045 69.222 42.906 0 134.246 0 278.784 0 413.020 0 23.9-4.536 42.506-18.258 54.62-119.040 81.275-326.636-92.815-573.44-7.68zM178.217-66.181c-22.917 0-51.763 18.657-51.763 41.564v940.913c0 22.917 28.846 41.523 51.763 41.523 22.979 0 51.835-18.606 51.835-41.523v-940.913c0-22.907-28.867-41.564-51.835-41.564z" />
<glyph unicode="&#xe63e;" d="M436.275 631.224l68.127-316.375h33.7l59.607 317.010 115.651 0.543-196.813 286.628-194.847-288.358 114.575 0.553zM1008.91 314.389c0 0-151.826 463.093-156.484 481.393s-42.166 18.3-42.166 18.3l-130.728 9.974 40.183-76.282h56.312l108.152-438.355-192.078 19.947c0 0-18.19 0-24.323-21.164-10.503-27.27-31.51-81.811-31.51-81.811h-234.484c0 0-19.079 54.708-30.748 81.467-9.38 21.508-29.677 21.508-29.677 21.508l-189.116-19.947 108.103 438.355h60.486l40.154 76.282-143.361-9.974c0 0-15.338 0-19.828-18.754-56.313-159.725-168.939-479.174-168.939-479.174l-2.161-275.461c0 0 0-30.187 29.894-30.187 21.171 0 899.264-0.734 922.417 0s29.904 30.187 29.904 30.187v273.697z" />
<glyph unicode="&#xe63f;" d="M852.111 500.716l171.284-0.020-0.246-330.138c0-46.131-37.325-83.804-83.169-83.804h-857.661c-45.988 0-82.924 37.673-82.924 83.804v330.26l429.358-0.051c-7.923-22.922-12.228-47.54-12.228-73.164 0-123.654 100.242-223.897 223.897-223.897s223.897 100.242 223.897 223.897c0 25.6-4.296 50.195-12.208 73.113zM449.020 543.831l-449.378 0.476-0.246 123.628c0 46.418 36.946 84.081 82.924 84.081h42.107c0 0 3.516 25.998 13.793 29.348 15.010 4.892 61.467 4.892 76.268 0 10.101-3.338 10.154-19.497 12.538-29.348h107.083c10.558 23.248 30.297 80.009 52.923 86.292 36.896 10.246 229.5 5.971 243.736 1.962 32.94-9.278 52.71-88.254 52.71-88.254h84.446c0 0 7.003 39.009 22.738 44.175 22.427 7.363 89.556 7.363 111.821 0 15.585-5.154 17.831-32.295 21.768-44.175h15.741c45.834 0 83.169-37.663 83.169-84.081v-124.713l-191.088 0.203c-39.227 64.778-110.382 108.075-191.65 108.075-81.097 0-152.122-43.116-191.403-107.668zM640.423 579.444c83.859 0 151.841-67.981 151.841-151.841 0-83.858-67.981-151.841-151.841-151.841-83.858 0-151.84 67.982-151.84 151.841s67.981 151.841 151.84 151.841z" />
<glyph unicode="&#xe640;" d="M870.4 362.301v0h-271.36v-272.66h-174.090v272.66h-271.35v172.718h271.35v271.34h174.111v-271.35h271.34v-172.708z" />
<glyph unicode="&#xe641;" d="M820.664 424.581c-20.204 0-36.567 16.394-36.567 36.608v256.236c0 20.224 16.374 36.608 36.567 36.608h166.769c20.204 0 36.567-16.394 36.567-36.608v-256.236c0-20.224-16.374-36.608-36.567-36.608h-166.769zM904.049 920.934c20.193 0 46.807-16.384 46.807-36.608v-73.216h-93.635v73.216c0.010 20.224 26.634 36.608 46.828 36.608zM438.856 131.727c-20.193 0-36.567 16.394-36.567 36.608v256.246c0 20.214 16.374 36.608 36.567 36.608h166.769c20.204 0 36.577-16.394 36.577-36.608v-256.236c0-20.224-16.384-36.618-36.577-36.618h-166.769zM522.24 920.934c20.193 0 46.807-16.384 46.807-36.608v-366.060h-93.624v366.060c0.010 20.224 26.624 36.608 46.817 36.608zM36.577 278.149c-20.204 0-36.577 16.394-36.577 36.608v256.246c0 20.214 16.374 36.608 36.577 36.608h166.769c20.193 0 36.567-16.394 36.567-36.608v-256.246c-0.010-20.214-16.374-36.608-36.577-36.608h-166.758zM119.951 920.934c20.193 0 46.807-16.384 46.807-36.608v-219.638h-93.614v219.638c0 20.224 26.614 36.608 46.807 36.608zM119.962-35.164c-20.193 0-46.807 16.384-46.807 36.598v219.638h93.624v-219.638c-0.010-20.224-26.624-36.598-46.817-36.598zM522.24-35.164c-20.193 0-46.807 16.384-46.807 36.598v73.206h93.624v-73.206c-0.010-20.224-26.624-36.598-46.817-36.598zM904.049-35.164c-20.193 0-46.817 16.384-46.817 36.598v366.070h93.635v-366.070c-0.010-20.224-26.624-36.598-46.817-36.598z" />
<glyph unicode="&#xe642;" d="M512 573.307c-60.826 0-110.131-49.316-110.131-110.141s49.295-110.152 110.131-110.152c60.836 0 110.131 49.316 110.131 110.152s-49.306 110.141-110.131 110.141zM512 429.414c-20.132 0-36.444 16.323-36.444 36.454 0 20.142 16.312 36.465 36.444 36.465 20.122 0 36.465-16.323 36.465-36.465s-16.343-36.454-36.465-36.454zM1013.074 474.368l-474.716 474.706c-14.561 14.572-38.175 14.572-52.736 0l-474.706-474.706c-14.572-14.561-14.561-38.185 0-52.726l474.706-474.716c14.561-14.572 38.175-14.572 52.736 0l474.706 474.716c14.572 14.551 14.572 38.164 0.010 52.726zM798.188 462.090c0-0.236-0.051-0.471-0.051-0.696 0-0.123-0.020-0.236-0.020-0.358-0.031-0.164 0.328-0.348 0.287-0.502-0.020-0.205 0.307-0.389 0.307-0.604 0-0.020 0-0.041 0-0.061 0-4.434-3.195-8.571-6.369-11.766-6.001-7.127-12.769-13.814-19.374-20.357-35.656-35.389-76.677-66.949-121.487-89.876-28.631-14.633-59.279-26.409-91.034-32.102-34.888-6.226-69.837-5.929-104.55 1.464-60.058 12.749-114.463 44.472-162.038 82.381-22.088 17.603-43.837 36.844-62.095 58.491-7.977 9.462-7.977 20.675 0.010 30.147 5.98 7.107 12.564 13.793 19.159 20.337 35.666 35.4 76.595 66.97 121.405 89.866 28.631 14.633 59.218 26.44 90.962 32.123 34.898 6.226 69.816 5.919 104.53-1.454 60.058-12.759 114.473-44.472 162.048-82.391 22.098-17.572 44.186-36.844 62.474-58.47 3.174-3.215 6.369-7.363 6.369-11.796 0-0.020 0-0.051 0-0.072 0-0.195-0.328-0.399-0.307-0.604 0.041-0.154-0.133-0.338-0.133-0.502 0.041-0.123-0.072-0.236-0.051-0.358 0-0.225-0.020-0.461-0.020-0.696 0.031-0.358 0.020-0.707 0.020-1.065 0-0.369-0.020-0.717-0.041-1.075z" />
<glyph unicode="&#xe643;" d="M377.057 499.053c-55.706 74.161-81.025 173.072-51.927 261.346 35.62 108.060 92.201 169.505 242.196 168.87 51.292-0.218 137.8-37.324 170.056-80.663 8.12-10.87 35.369-44.332 40.55-88.207 1.065-9.162-3.142-47.036 14.737-71.564 11.643-15.982 48.331-100.423 55.827-113.645 10.455-18.434-49.695-28.956-44.421-42.982 2.396-6.393-2.621-56.239 0-62.503 3.144-7.564-6.577-82.697-41.086-103.87-37.1-22.811-130.66 44.257-141.422-82.535-1.495-17.818 9.556-49.871 55.592-85.101 80.702-61.76 121.253-120.505 106.31-193.48-29.68-35.945-142.94-49.332-268.703-49.332-124.552 0-291.487 6.129-318.917 49.332-25.5 40.162-42.070 82.068 57.89 210.968l75.671 93.155c0 0 101.519 118.543 47.647 190.212z" />
<glyph unicode="&#xe644;" d="M20.2 833.665c0.54 29.411 5.317 45.205 21.995 67.982s47.837 33.673 82.015 33.673c34.178 0 72.95-27.185 79.042-56.45 5.146-15.56 25.682-104.342 25.682-104.342h692.104c15.937 0 72.437 0 72.437-72.437l-21.797-239.273c0-15.365-14.418-78.261-72.437-74.413l-618.918-3.848 20.753-113.5h591.712c17.025 0 23.641-4.395 23.641-20.381-2.741-16.869-6.528-50.504-11.557-70.165s-5.63-22.719-32.564-22.719h-643.373c-31.456 0-38.853 27.877-38.853 38.853 0 7.902-4.061 37.755-12.183 89.559s-20.304 125.777-36.548 221.921l-47.491 284.666h-45.83c-16.291 0-28.13 24.568-27.83 40.875zM346.151 119.598c21.512 0 39.511-6.914 53.999-20.743s21.731-31.499 21.731-53.011c0-21.95-7.354-40.28-22.060-54.986s-32.597-22.060-53.669-22.060c-21.512 0-39.401 7.354-53.669 22.060s-21.402 33.036-21.402 54.986c0 21.512 6.914 39.182 20.743 53.011s31.938 20.743 54.328 20.743zM711.958 98.196c15.146 14.268 33.036 21.402 53.669 21.402 21.512 0 39.95-7.134 55.316-21.402s23.048-31.719 23.048-52.352c0-22.39-7.573-41.047-22.719-55.974s-33.474-22.39-54.986-22.39c-21.95 0-40.28 7.463-54.986 22.39s-22.060 33.584-22.060 55.974c0 20.633 7.573 38.084 22.719 52.352z" />
<glyph unicode="&#xe645;" d="M808.714 885.975l-97.853 74.025-99.492-74.025-94.781 74.025-102.82-74.025-105.032 74.025-98.929-74.025-107.407 74.025v-946.555l109.353-74.025 93.379 74.025 112.476-74.025 98.734 74.025 98.724-74.025 89.037 74.025 97.475-74.025 99.543 74.025v946.555l-92.406-74.025zM460.8 151.040h-245.76v40.96h245.76v-40.96zM460.8 294.4h-245.76v40.96h245.76v-40.96zM460.8 427.52h-245.76v40.96h245.76v-40.96zM764.129 205.527c-5.304-11.878-12.513-21.74-21.658-29.583-9.155-7.864-19.876-13.885-32.164-18.022-12.288-4.147-25.59-6.492-39.885-7.076v-33.454h-18.442v33.454c-15.452 0.287-29.594 2.724-42.445 7.301-12.882 4.567-23.9 11.059-33.034 19.497-9.165 8.428-16.241 18.801-21.238 31.099-4.987 12.298-7.352 26.44-7.066 42.445h48.896c-0.287-18.872 3.85-33.741 12.442-44.585 8.571-10.875 22.712-16.589 42.445-17.172v103.803c-11.725 3.144-23.347 6.932-34.949 11.366-11.581 4.424-22.016 10.138-31.304 17.142-9.298 6.994-16.814 15.8-22.508 26.368-5.734 10.578-8.591 23.726-8.591 39.465 0 13.732 2.652 25.815 7.926 36.229 5.304 10.445 12.452 19.159 21.453 26.173 9.021 7.004 19.374 12.36 31.099 16.077s24.013 5.571 36.874 5.571v33.454h18.442v-33.454c12.872 0 25.016-1.71 36.454-5.14 11.428-3.43 21.361-8.581 29.809-15.432 8.428-6.861 15.145-15.596 20.152-26.163 4.987-10.578 7.485-22.866 7.485-36.895h-48.865c-0.584 14.592-4.362 25.743-11.356 33.475-7.004 7.7-18.237 11.581-33.669 11.581v-90.491c12.872-3.441 25.436-7.444 37.755-12.022 12.268-4.567 23.153-10.445 32.584-17.562 9.431-7.168 17.009-16.036 22.743-26.614 5.714-10.568 8.571-23.583 8.571-39.014-0.020-16.036-2.683-29.962-7.956-41.82zM788.48 570.88h-573.44v40.96h573.44v-40.96zM788.48 714.24h-573.44v40.96h573.44v-40.96zM603.525 391.014c0-6.861 1.434-12.728 4.291-17.592 2.857-4.874 6.502-9.001 10.936-12.431s9.564-6.226 15.442-8.356c5.837-2.15 11.776-3.942 17.787-5.366v85.78c-15.452 0-27.372-3.215-35.809-9.656s-12.646-17.234-12.646-32.379zM706.683 274.36c-5.018 3.717-10.66 6.697-16.947 9.011-6.287 2.294-12.728 4.28-19.302 5.98v-99.912c15.432 1.137 28.088 5.663 37.96 13.507 9.851 7.875 14.766 20.378 14.766 37.53 0 7.987-1.495 14.715-4.495 20.163-2.98 5.427-6.994 10.004-11.981 13.722z" />
<glyph unicode="&#xe646;" d="M235.52 493.087l369.715 339.743-0.86-216.965c0 0 0.082 0 0.154 0 8.735 0 421.284-3.942 419.461-433.388 0 0-105.533 196.803-340.439 197.765-31.939 0.113-45.025-3.328-80.138-11.469l-0.881-218.819-367.012 343.132zM358.697 695.47l-228.997-204.073 228.035-202.138-0.973-118.815-356.762 322.652 359.475 319.263z" />
<glyph unicode="&#xe647;" d="M81.92 464.077l390.195 339.743-0.86-216.965c0 0 0.082 0 0.143 0 8.724 0 482.744-3.942 480.911-433.377 0 0-146.473 196.792-381.399 197.775-31.928 0.102-65.536-3.348-100.628-11.489l-0.881-218.808-387.482 343.122z" />
<glyph unicode="&#xe648;" d="M75.807 454.176c0 0-4.127 32 28.293 32.060 45.547 0.085 111.84 0.741 151.293 2.863 8.707 11.017 22.448 28.803 37.919 28.803h117.441v22.839h-74.458c-24.411 0-44.197 19.092-44.197 42.625v72.284h-26.297c-13.139 0-23.809 10.286-23.809 22.952v92.819c0 12.666 10.651 22.952 23.809 22.952h26.277v80.354c0 23.533 9.065 31.939 33.457 42.606l129.212 42.667h124.191l119.746-42.667c24.411-10.667 33.477-19.092 33.477-42.606v-80.354h25.927c13.177 0 23.848-10.267 23.848-22.952v-92.819c0-12.666-10.67-22.952-23.848-22.952h-25.927v-72.284c0-23.533-19.824-42.625-44.216-42.625h-73.875v-22.839h117.402c16.773 0 31.544-19.060 40.018-31.726 38.706 0 101.12 0 150.365 0 30.465 0 30.465-32 30.465-32v-367.479c0 0 0-19.442-25.128-20.916-3.765 0.425-79.652-42.141-88.742-42.141-26.014 0-26.014 21.765-26.014 21.765v285.198h-55.912v-348.757c0-25.331-21.321-45.847-47.579-45.847h-393.127c-26.297 0-47.598 20.535-47.598 45.847v348.757h-54.147v-299.152c0 0 0-21.333-22.35-21.333-1.91 0-93.5 43.615-94.3 43.615-21.617 0-25.744 21.333-25.744 21.333l4.127 379.11zM614.241 758.007c26.713 0 48.335 21.489 48.335 47.993 0 26.518-21.622 48.007-48.335 48.007-26.672 0-48.321-21.489-48.321-48.007 0-26.504 21.635-47.993 48.321-47.993zM382.582 664.14c0-23.315 8.357-31.551 31.909-31.551h195.106c23.535 0 31.892 8.236 31.892 31.551s-8.374 31.551-31.892 31.551h-195.106c-35.020 0-31.909-31.551-31.909-31.551zM420.045 758.007c26.695 0 48.328 21.489 48.328 47.993 0 26.518-21.632 48.007-48.328 48.007s-48.328-21.489-48.328-48.007c0-26.504 21.632-47.993 48.328-47.993z" />
<glyph unicode="&#xe649;" d="M769.561 314.117c-24.724 7.674-43.648 21.045-60.499 37.972l-72.617 66.519-122.721-119.044 107.947-106.635c25.334-25.465 82.364-59.317 147.931-72.122 0.019-47.258 0.038-81.557 0.046-81.592 0.149-20.843 40.957-23.722 53.885-11.069 0.083 0.052 191.056 169.899 192.362 168.554 12.887 12.53 12.887 24.383 0 35.874-0.529 0.366-191.403 166.71-193.992 168.091-13.937 13.773-52.297 11.954-52.272-6.629-0.048 0-0.068-33.504-0.071-79.921zM774.681 813.293c-61.055-8.423-104.615-32.697-130.316-58.532l-357.903-359.649c-27.042-27.163-67.892-78.204-121.011-78.204 0 0-138.29 0-153.29 0-15.72 0-15.72-20.48-15.72-20.48v-150.353c0 0-1.725-20.48 15.72-20.48h153.29c86.066 0 145.378 59.602 177.241 91.631l357.903 359.649c18.446 18.529 43.318 38.872 74.126 49.931 0.018-46.802 0.037-80.676 0.044-80.71 0.143-20.843 39.318-23.722 51.729-11.069 0.079 0.052 183.413 169.899 184.668 168.554 12.371 12.53 12.371 24.383 0 35.874-0.508 0.366-183.747 166.71-186.232 168.091-13.38 13.773-50.205 11.954-50.181-6.629-0.049 0-0.067-37.256-0.068-87.624v0zM332.261 530.877l118.277 116.159-100.084 96.466c-31.863 32.029-98.938 83.407-185.004 83.407h-155.66c-13.35 0-13.35-20.48-13.35-20.48v-140.363c0 0 0-20.48 15.803-20.48 51.069 0 153.207 0 153.207 0 53.119 0 93.969-41.050 121.011-68.213l45.799-46.496z" />
<glyph unicode="&#xe64a;" d="M277.852 76.442c0-77.564-62.208-140.442-138.947-140.442s-138.947 62.878-138.947 140.442c0 77.564 62.208 140.442 138.947 140.442s138.947-62.878 138.947-140.442zM671.396-64h-196.772c0 265.001-212.5 479.826-474.614 479.826v0 198.922c370.842 0 671.386-303.862 671.386-678.748zM810.353-64c0 452.444-362.783 819.2-810.332 819.2v204.8c559.38 0 1012.89-458.465 1012.89-1024h-202.557z" />
<glyph unicode="&#xe64b;" d="M653.148 210.77c-87.419 0-173.087 30.208-243.712 89.119l-69.038-168.212-174.95-174.92c-18.473-13.425-38.625-20.081-60.518-20.081-55.439 0-100.813 48.835-100.813 102.543 0 21.883 6.687 43.715 20.101 60.539l173.251 174.971 169.748 68.874c-58.952 70.625-89.088 158.044-89.088 245.514 0 203.479 171.51 371.569 374.968 371.569 201.748 0 373.34-171.51 373.34-373.238 0-97.516-35.328-193.341-107.674-265.748-73.902-73.892-169.738-110.93-265.615-110.93zM653.148 355.267c124.457 0 228.71 104.335 228.71 232.172 0 124.365-105.871 228.649-228.71 228.649-126.034 0-230.298-105.943-230.298-228.649 0-60.539 21.832-119.419 67.205-164.751 45.466-43.745 104.264-67.42 163.092-67.42z" />
<glyph unicode="&#xe64c;" d="M0.768 557.742l227.604-184.136 4.762-251.423 184.689 123.351 193.147-123.351 413.798 649.953-1024-214.395zM919.613 703.57l-549.673-398.019-79.124-83.261-1.393 141.578 630.19 339.702z" />
<glyph unicode="&#xe64d;" d="M901.601 437.576v18.985c0 18.964-1.597 39.496-6.318 58.481-1.577 14.234-6.298 28.426-9.482 42.66 36.332 25.283 72.684 52.142 107.459 79.022h1.556c-18.975 47.401-44.216 91.648-79.022 132.71-41.073-17.367-80.599-36.332-120.105-55.296-11.028 11.069-22.129 22.129-33.188 31.59-14.234 11.080-28.467 22.149-44.227 30.044-4.741 4.731-11.1 7.895-15.8 11.069 6.298 44.247 14.213 88.494 20.541 132.721-18.975 7.895-39.526 15.811-60.058 22.129-4.721 1.587-11.049 3.185-15.79 3.185-6.298 3.154-11.090 4.721-15.8 4.721-18.975 4.741-37.888 7.895-56.893 11.069-17.398-42.68-31.58-83.763-45.814-124.836h-28.488c-18.934-1.587-36.301-3.164-53.699-6.318-14.234-1.597-28.457-6.318-42.66-11.080-25.303 36.362-52.163 72.704-77.435 107.469l-1.597 1.567c-9.503-3.133-18.934-6.298-26.87-11.049-15.8-6.328-30.034-14.234-44.227-23.695-22.129-11.069-42.691-25.303-61.655-42.68 0 0 0 0 0-1.577 18.964-39.516 36.362-79.022 55.327-118.528-11.069-11.049-20.531-20.541-30.034-33.167-12.626-12.646-23.695-28.447-33.198-44.257-4.731-6.318-7.895-12.636-11.069-20.531-44.196 7.895-88.494 15.811-132.721 22.118-7.895-18.964-15.8-37.919-22.129-58.481-6.339-31.59-12.636-61.624-15.8-91.658 41.062-15.79 82.156-31.601 123.259-47.401v-22.129c0-17.377 1.597-36.342 6.298-55.306 1.597-15.8 6.339-31.601 11.069-47.401-36.332-25.293-71.096-50.565-107.459-77.435 18.995-47.432 45.865-91.658 77.455-132.792h1.567c39.496 18.985 79.022 36.372 120.115 55.327 9.431-9.482 18.964-17.367 28.426-26.86 14.234-12.667 31.631-23.695 50.596-34.744 4.7-3.195 11.039-6.339 17.336-11.1-7.895-42.66-14.203-86.876-20.5-131.164 17.336-7.895 34.765-14.244 53.699-18.964 4.762-1.567 14.234-4.741 30.034-7.895 22.129-6.298 44.257-9.472 64.799-12.616 17.367 42.68 33.167 83.763 47.421 126.423h20.531c18.985 0 36.342 1.556 53.729 4.731 15.811 3.174 31.611 7.895 47.37 12.626 0 0 0-1.526 1.628-1.526 25.272-36.372 52.173-72.735 77.394-109.046 7.895 4.741 15.841 7.875 22.159 11.059 15.8 6.328 30.044 14.244 44.227 22.129 23.685 14.213 45.834 29.972 66.345 47.401-17.347 41.073-36.321 80.558-55.255 121.651 9.441 9.503 17.326 18.985 26.829 28.457 11.069 14.203 22.129 30.003 31.601 44.216 0 1.597 1.597 3.195 1.597 4.782 3.164 4.731 6.298 11.028 9.472 15.8 44.247-7.895 88.494-14.244 132.751-22.129 7.895 18.975 14.244 37.929 20.531 58.46 1.567 4.731 3.174 9.513 4.731 15.8 1.597 4.731 1.597 9.492 4.782 15.831 3.133 20.541 7.895 41.062 9.462 60.027-41.042 17.408-83.743 31.621-124.805 47.401v0zM688.312 400.169c-12.001-48.2-40.622-84.347-82.79-108.401-45.189-25.62-90.348-31.621-137.032-18.094-48.189 12.052-85.821 40.663-109.896 82.842-25.6 43.663-31.631 88.812-18.104 137.011 12.073 48.179 40.684 84.296 84.347 109.906 42.138 24.095 88.801 30.095 135.475 18.074 48.189-13.568 85.852-40.663 109.947-84.337 25.569-43.653 31.631-88.822 18.053-137.001v0z" />
<glyph unicode="&#xe64e;" d="M54.557 694.442c-6.099 14.246 0.988 58.045 13.159 75.363 12.198 17.318 85.107 76.409 118.579 92.722 33.472 16.285 72.095-12.234 72.095-12.234l61.912-80.487c-97.412-32.571-193.757-156.83-193.757-156.83s-65.889 67.207-71.988 81.467zM521.289-43.561c-207.263 0-375.17 170.168-375.17 379.838 0 199.645 152.366 363.157 345.939 378.262v57.719h-64.605v95.292h180.458v-95.292h-57.431v-57.719c193.519-15.092 345.965-178.603 345.965-378.262 0-209.657-167.974-379.838-375.157-379.838zM528.908 225.86c62.596 0 113.34 50.666 113.34 113.165s-50.744 113.165-113.34 113.165c-62.596 0-113.34-50.666-113.34-113.165s50.744-113.165 113.34-113.165zM988.025 694.434c-6.097-14.245-72.021-81.459-72.021-81.459s-96.37 124.261-193.741 156.815l61.894 80.48c0 0 38.625 28.544 72.101 12.26 33.462-16.351 106.403-75.423 118.571-92.74 12.181-17.29 19.266-61.084 13.195-75.356z" />
<glyph unicode="&#xe64f;" d="M792.803 17.92l-279.675 279.769-279.69-279.769-150.36 150.472 279.675 279.631-279.705 279.662 150.375 150.38 279.705-279.677 279.705 279.693 150.375-150.349-279.705-279.708 279.675-279.631-150.375-150.472z" />
<glyph unicode="&#xe650;" d="M591.34 814.806l-452.339-440.392-92.146 93.939 452.339 440.447 92.146-93.994zM854.265 908.8l103.617-98.345-817.158-804.365-103.617 98.372 817.158 804.337zM423.677 64.001l440.437 440.389 94.076-94.52-440.437-440.444-94.076 94.576z" />
<glyph unicode="&#xe651;" d="M522.869-15.772c-254.888 0-462.293 207.355-462.293 462.286 0 254.905 207.418 462.286 462.293 462.286s462.28-207.382 462.28-462.286c0-254.918-207.392-462.286-462.28-462.286zM373.2 185.137c44.142-25.36 95.231-39.928 149.675-39.928 166.225 0 301.463 135.225 301.463 301.463 0 54.457-14.582 105.547-39.955 149.688l-411.184-411.223zM522.875 748.123c-166.225 0-301.463-135.225-301.463-301.463 0-53.467 14.067-103.684 38.568-147.271l410.18 410.167c-43.6 24.514-93.804 38.568-147.284 38.568z" horiz-adv-x="1034" />
<glyph unicode="&#xe652;" d="M126.874-35.588c-97.126 0-134.904 108.326-97.126 163.317 3.797 10.113 364.085 735.76 365.069 737.889 39.773 89.435 196.857 93.956 237.074 0-0.36 0.223 384.069-743.954 380.327-737.764 34.715-50.957-10.319-163.442-92.528-163.442 0 0-792.803-0.641-792.816 0zM526.884 209.010c-33.725 0-64.179-27.723-64.179-63.153 0-35.499 29.373-63.223 64.179-63.223s64.165 27.723 64.165 63.223c0.014 35.43-30.44 63.153-64.165 63.153zM524.513 668.16c-38.23 0-77.694-18.422-73.993-45.203l28.693-338.124h90.613l28.68 338.124c3.701 26.781-35.763 45.203-73.993 45.203z" horiz-adv-x="1034" />
<glyph unicode="&#xe653;" d="M520.25-28.694c265.804 0 481.28 215.476 481.28 481.28s-215.476 481.28-481.28 481.28c-265.804 0-481.28-215.476-481.28-481.28s215.476-481.28 481.28-481.28zM448.865 146.586v127.184h127.184v-127.184h-127.184zM712.378 531.306c-6.977-17.597-15.588-32.643-25.883-45.128-10.324-12.495-21.719-23.145-34.252-31.938-12.523-8.813-24.365-17.587-35.497-26.39-11.141-8.823-21.018-18.887-29.649-30.241-8.65-11.364-14.061-25.536-16.289-42.567v-32.355h-112.748v38.32c1.674 24.385 6.257 44.84 13.778 61.295 7.502 16.455 16.289 30.519 26.302 42.16 10.032 11.632 20.6 21.715 31.731 30.231 11.142 8.496 21.436 17.031 30.904 25.536 9.468 8.515 17.126 17.875 22.974 28.097s8.475 22.986 7.921 38.31c0 26.112-6.257 45.416-18.78 57.921-12.543 12.466-29.951 18.728-52.204 18.728-15.034 0-27.975-2.987-38.844-8.942-10.85-5.965-19.763-13.905-26.72-23.839-6.977-9.935-12.105-21.576-15.452-34.905-3.347-13.359-5.021-27.69-5.021-43.014h-122.751c0.535 30.668 5.702 58.765 15.452 84.301 9.731 25.546 23.373 47.688 40.917 66.407 17.544 18.748 38.698 33.357 63.472 43.887 24.784 10.51 52.496 15.761 83.109 15.761 39.526 0 72.522-5.548 98.97-16.614 26.438-11.076 47.738-24.852 63.891-41.327 16.153-16.465 27.693-34.201 34.66-53.217 6.957-19.026 10.431-36.751 10.431-53.217 0.019-27.243-3.464-49.683-10.421-67.26z" horiz-adv-x="1034" />
<glyph unicode="&#xe654;" d="M513.128-33.28c265.804 0 481.28 215.476 481.28 481.28s-215.476 481.28-481.28 481.28c-265.804 0-481.28-215.476-481.28-481.28s215.476-481.28 481.28-481.28zM474.966 166.313l-269.039 201.498 81.085 104.406 157.606-121.654 276.495 373.916 108.101-79.649-354.248-478.518z" />
<glyph unicode="&#xe655;" d="M460.457 207.551c13.347 62.135 17.099 126.201 90.629 161.731 5.781 2.985 12.411 6.137 19.479 9.331 37.941 17.142 68.051 35.476 68.051 35.476 0 2.167 9.61 56.594 9.61 56.594-38.324 11.287-69.245 152.669-69.245 152.669-7.296 49.69 5.57 125.74 5.57 125.74 17.171 126.447 240.252 111.737 270.447 26.929 30.401-32.568 23.879-135.067 23.879-135.067l-28.322-118.425c-10.63-50.082-43.6-53.25-43.6-53.25-0.167-7.326 14.504-63.841 14.504-63.841s68.142-29.145 100.583-43.277c76.864-27.174 64.024-91.29 76.007-156.729l19.319-209.371c0-8.837 10.125-56.064-45.238-56.064-20.78 0-468.182 0-483.402 0-55.392 0-48.425 56.064-48.425 56.064l20.153 211.489zM351.728 399.26c49.627-18.177 51.672-20.44 79.67-49.465-46.3-42.488-55.095-317.618-62.405-362.021 0 0-7.633-51.773-41.471-51.773-12.299 0-236.191-0.002-296.459 0-40.477 0.002-29.786 52.563-29.786 52.563s17.003 171.941 20.456 194.398c25.721 141.483 65.599 168.953 166.782 210.741l0.969 43.053c0 0-95.37 29.043-102.152 34.473 0 0 16.99 49.401 23.973 73.863 7.148 24.439 26.489 142.398 34.5 159.466 7.94 17.056 18.904 40.158 37.406 51.529 18.479 11.347 46.055 27.532 85.611 29.717 0.555 0.035 1.158 0.035 1.749 0.116 0.603-0.081 1.134-0.081 1.772-0.116 39.438-2.186 67.062-18.335 85.588-29.717 18.455-11.359 29.289-34.473 37.406-51.529 7.963-17.068 26.749-136.573 33.897-161.036 7.065-24.439 21.326-74.572 21.326-74.572-10.007-7.755-98.832-32.205-98.832-32.205s0-32.661 0-37.485z" />
<glyph unicode="&#xe656;" d="M961.475 584.612h-93.993c-9.677 29.030-23.644 43.592-38.154 62.372v237.169l-163.369-113.080c-60.365 23.941-111.073 57.682-221.798 53.064-186.921-7.803-310.374-136.161-310.374-136.161s-87.9-76.339-106.424-167.168c-3.379-18.309-13.65-68.035 0.010-136.335 18.657-71.342 73.021-136.417 139.346-184.146l-24.371-152.812h173.578l2.57 77.025c42.035-10.342 86.835-14.756 133.345-14.756 46.5 0 91.3 6.287 133.356 16.599l3-78.868h179.108l-32.348 142.725c45.978 19.364 106.189 104.694 106.189 104.694s-0.635 0.84-1.608 2.13l1.874-1.874c0 0 19.61 42.65 26.071 57.19h93.993c24.893-0.031 42.045 22.948 42.045 44.421v151.439c0 21.535-17.152 36.372-42.045 36.372zM730.378 657.265c17.275 0 31.283-13.742 31.283-30.72s-14.008-30.71-31.283-30.71c-17.285 0-31.314 13.742-31.314 30.71s14.029 30.72 31.314 30.72z" />
<glyph unicode="&#xe657;" d="M514.33 959.602c282.789 0 511.995-229.254 512.005-512.001 0-282.716-229.216-512-512.005-512-282.768 0-512.002 229.295-512.002 512 0 282.747 229.233 512.001 512.002 512.001zM597.063 506.634c18.27-19.959 29.415-46.542 29.415-75.729 0-61.959-50.227-112.187-112.186-112.187s-112.186 50.228-112.186 112.187c0 61.958 50.227 112.186 112.186 112.186 1.533 0 3.059-0.031 4.574-0.092l108.951 200.151 22.998-12.94-53.752-223.576zM488.913 880.236c-108.454-6.279-206.236-52.484-278.862-124.125l30.368-30.368-25.569-25.569-29.481 29.482c-65.071-75.817-104.399-174.365-104.399-282.056 0-4.784 0.078-9.55 0.232-14.297l36.929 2.527 2.469-36.076-36.731-2.514c10.568-91.222 49.492-173.825 107.722-238.767l28.164 23.847 23.367-27.597-26.231-22.21c77.625-73.297 182.306-118.242 297.439-118.242 111.015 0 212.315 41.788 289.013 110.489l-34.81 27.948 22.64 28.197 38.268-30.726c62.025 65.673 103.753 150.715 115.126 245.074l-53.115 4.157 2.822 36.050 53.124-4.158c0.201 5.409 0.301 10.841 0.301 16.298 0 111.569-42.215 213.326-111.536 290.158l-38.429-38.429-25.569 25.569 38.682 38.682c-74.353 69.805-173.329 113.684-282.46 117.166v-55.941h-39.473v55.431z" />
<glyph unicode="&#xe658;" d="M122.915 919.040c-45.263 0-81.955-36.642-81.955-81.955v-778.169c0-45.263 36.642-81.955 81.955-81.955h778.169c45.263 0 81.955 36.642 81.955 81.955v778.169c0 45.263-36.642 81.955-81.955 81.955h-778.169zM427.213 363.213v169.574h169.574v-169.574h-169.574zM596.787 259.584v-178.995h-169.574v178.995h169.574zM427.213 636.416v178.995h169.574v-178.995h-169.574zM144.589 815.411h178.995v-178.995h-178.995v178.995zM144.589 532.787h178.995v-169.574h-178.995v169.574zM144.589 259.584h178.995v-178.995h-178.995v178.995zM879.411 80.589h-178.995v178.995h178.995v-178.995zM879.411 363.213h-178.995v169.574h178.995v-169.574zM879.411 636.416h-178.995v178.995h178.995v-178.995z" />
<glyph unicode="&#xe659;" d="M776.054-32.296c-23.577 13.139-258.934 187.558-258.934 187.558s-247.464-178.916-265.657-191.841c-25.943-21.308-72.692 0-60.629 43.165 0 11.312 117.848 319.645 117.848 319.645s-185.673 122.665-264.142 187.359c-31.648 25.707-13.968 82.265 22.623 82.265 11.312 0 314.144 0.020 314.144 0.020l87.070 284.704c20.105 63.039 78.795 59.841 97.408 0 7.484-13 87.148-284.704 87.148-284.704s296.337-0.020 307.649-0.020c41.607 0 47.395-61.682 22.623-77.738-84.898-69.994-257.647-191.885-257.647-191.885s117.527-300.585 117.527-311.896c16.012-50.915-46.721-67.665-67.032-46.632z" />
<glyph unicode="&#xe65a;" d="M998.4 294.4c-76-76.015-341.969-331.729-343.040-332.8-35.84-30.72-81.92 0-81.92 0l-559.852 559.872v294.789l126.372 126.341h284.426c0 0 45.723-35.963 63.465-53.945 170.183-172.486 330.126-334.732 500.309-507.217 20.48-15.36 35.889-57.279 10.24-87.040zM173.087 783.145c-16.876-16.998-16.876-44.503 0-61.42 16.957-16.957 44.503-16.957 61.46 0 16.916 16.876 16.916 44.411 0 61.42-16.957 16.916-44.585 16.916-61.46 0v0z" />
<glyph unicode="&#xe65b;" d="M765.168 344.468c-84.389-81.543-168.779-163.085-253.168-244.628-25.6-20.48-56.32-20.48-89.386 11.449-109.56 109.565-304.33 304.342-385.499 385.514-23.197 23.198-37.116 37.117-37.116 37.117v233.713l100.206 100.206h202.974c0 0 34.739 0 65.261-34.712 101.712-102.206 393.715-395.544 404.679-405.608 35.84-35.84 5.12-66.56-7.952-83.052zM126.474 741.376c-13.419-13.438-13.419-35.271 0.010-48.709 13.419-13.429 35.271-13.429 48.69 0 13.448 13.41 13.448 35.271 0 48.709-13.419 13.4-35.28 13.4-48.699 0v0zM566.151 831.147c-38.791 41.813-97.686 37.977-97.686 37.977h-47.134c0 0 412.709-423.817 423.469-436.484 30.72-30.72 20.48-91.064-5.12-117.76-87.179-87.187-234.468-232.325-234.468-232.325s14.308-17.532 24.548-28.795c30.72-25.6 59.697-8.392 74.051 6.143 92.721 93.891 119.948 120.126 212.669 214.017 30.72 30.72 61.44 122.88 15.36 174.080-121.896 127.716-243.793 255.432-365.689 383.147z" />
<glyph unicode="&#xe65c;" d="M27.259 845.763h651.909l6.195-170.977h-27.597c-13.496 53.719-30.679 88.689-51.497 104.899-20.838 16.21-64.655 24.32-131.451 24.32h-64.184v-514.908c0-38.779 6.943-62.802 20.828-72.079 13.875-9.298 44.278-15.401 91.197-18.33v-18.668h-336.087v18.668c48.783 3.246 79.186 10.271 91.197 21.033s18.012 37.796 18.012 81.162v503.122h-64.737c-63.805 0-107.244-8.028-130.324-24.074-23.081-16.056-40.448-51.098-52.070-105.144h-28.15l6.758 170.977zM619.919 470.446h371.497l3.543-97.444h-15.718c-7.7 30.607-17.48 50.545-29.358 59.781-11.858 9.236-36.844 13.865-74.895 13.865h-36.577v-293.437c0-22.088 3.963-35.789 11.858-41.073 7.916-5.304 25.242-8.776 51.978-10.455v-10.639h-191.549v10.639c27.822 1.853 45.138 5.847 51.978 11.991 6.84 6.124 10.26 21.545 10.26 46.254v286.72h-36.884c-36.362 0-61.123-4.567-74.281-13.722s-23.040-29.123-29.676-59.924h-16.036l3.86 97.444z" />
<glyph unicode="&#xe65d;" d="M1000.796 602.481c-88.873-4.803-70.81 61.614-133.407 82.207-32.768 10.783-45.865 12.237-70.062 8.98-22.036-2.929-22.518-19.21-27.197-32.584-4.198-12.052-13.281-29.716-1.761-43.622 16.282-19.63 59.873-35.256 96.389-47.811 62.362-21.402 125.962 3.789 136.038 32.829zM740.68 628.398l25.569 73.574c3.789 10.967-19.395 29.174-28.692 32.123l-668.099 194.755c-9.329 2.959-21.78-9.984-25.549-20.9-3.799-10.957-5.284-26.644 3.912-30.024l650.363-257.198c9.175-3.379 38.656-3.267 42.496 7.67zM25.979 211.18c51.569-136.806 244.685-225.208 472.658-238.674v0c251.587-14.889 495.135 128.604 484.956 297.492-10.22 168.94-235.387 302.561-502.948 298.455-154.604-2.314-270.694-41.892-339.466-99.697-22.774-19.046-22.948-69.212 54.508-57.068 129.219 19.917 99.912-23.009 62.577-45.804-32.983-20.091-153.784-40.069-184.054-56.013-72.663-38.472-53.576-84.378-48.23-98.693zM800.911 280.422c16.681-1.546 51.773 76.257 94.28 15.903 4.895-7.004 34.417-52.091 7.977-71.322-7.383-5.335-23.849-30.812-32.471-33.628-43.858-14.602-116.183 81.777-69.786 89.047zM636.703 394.414c9.062 5.704 6.615 59.126 36.864 62.853 31.16 3.697 101.919 34.97 78.039-44.718-2.611-8.684-0.113-38.871-5.253-46.418-25.948-38.236-141.978-5.663-109.65 28.283zM620.585 144.998c1.966 8.847-4.751 40.622 2.14 46.694 62.505 53.955 89.989-41.892 102.922-46.684 28.109-10.516 19.784-32.307-9.37-39.014-13.496 3.277-29.184-12.739-42.67-9.482-8.376 2.048-60.375 16.507-53.023 48.486zM209.981 216.668c-1.208 19.579 22.415 32.164 52.705 28.068 30.351-4.086 55.921-23.224 57.119-42.813 1.126-19.507-22.518-32.102-52.859-27.996-30.31 4.055-55.828 23.224-56.965 42.742z" />
<glyph unicode="&#xe65e;" d="M326.999 40.286c7.657-4.151 15.528-8.169 23.597-12.049 15.149-7.251 28.25-12.309 40.923-16.025v0c-5.467 40.167-9.942 97.118-10.188 109.053-11.080 123.39 124.69 117.147 124.69 117.147s-73.040-29.585-63.794-162.936c0.981-14.145 5.237-32.12 12.657-74.182 7.088-0.734 14.631-1.469 22.786-2.287 53.798 0 50.145 6.238 66.475 5.401 9.534 22.005 26.040 81.287 31.337 130.092 0 56.643-52.795 526.952-52.795 526.952l21.458 79.512c0 0 31.964-17.674 36.616-21.695s40.504-104.293 53.238-111.336c50.99-27.862 123.602-42.672 162.757-77.72 73.758-66.503 115.64-159.974 115.64-258.835 0-97.959-45.529-192.324-122.014-255.235-71.931-59.317-171.177-84.482-267.696-84.482-60.097 0-113.82 2.691-172.090 21.571-132.935 44.037-242.826 156.375-251.020 291.191-7.287 105.151 16.388 185.138 99.253 268.719 42.789 44.037 112.311 73.733 171.502 114.177 29.142 19.775 79.814 76.59 7.524 134.661l31.859 53.589c0 0 7.893-10.662 40.906-25.305 13.409-5.947 19.44 162.538 26.998 144.047 3.991-9.764 21.727-58.726 29.149-96.308-2.916-12.999 103.138 112.208 126.528 126.64-0.285-20.749-29.616-107.672-37.266-124.517-10.055-19.755 117.658 24.628 141.173 33.929-9.807-23.556-193.056-133.094-193.056-133.094l-21.458-79.512-45.016 27.131c6.374-8.989-5.063-34.831-12.351-49.203-37.329-66.51-110.123-88.489-156.559-126.236-81.952-66.503-151.058-86.278-141.044-268.719 2.978-58.777 34.719-111.231 86.127-154.823-8.215 43.057-11.138 91.522-10.183 125.608-9.467 139.771 96.887 193.905 126.2 205.299 51.123 19.872 107.77 14.062 107.77 14.062s-121.316-47.531-161.353-154.037c-25.041-66.614-13.354-152.131 10.721-240.249z" />
<glyph unicode="&#xe65f;" d="M233.4-22.036h1.874c16.22-26.501 136.684-47.002 282.972-47.002 146.248 0 266.752 20.5 283.003 47.002h1.341l75.254 720.251h-725.944l81.5-720.251zM602.031 546.2c0.342 9.711 7.928 17.653 16.917 17.74l57.447 1.748c8.899 0.041 15.897-7.764 15.513-17.478l-15.946-450.496c-0.342-9.711-7.845-17.647-16.827-17.694l-57.499-1.752c-8.947-0.1-15.904 7.724-15.56 17.403l15.954 450.528zM416.433 570.078c9.219-0.032 17.004-7.923 17.424-17.703l17.996-450.454c0.467-9.72-6.674-17.514-15.958-17.51l-58.411 1.681c-9.24 0.033-16.959 7.96-17.385 17.669l-18.033 450.521c-0.377 9.658 6.758 17.517 15.998 17.483l58.369-1.686zM679.035 860.733l-70.697 94.228-4.209-2.54v2.54h-172.564v-3.379l-68.71-90.808h-160.184l-82.647-107.694h796.477l-89.334 107.653h-148.132z" />
<glyph unicode="&#xe660;" d="M607.457 373.689c0 0 77.633-180.847 101.447-328.024 3.629-22.427 15.498-33.247 33.801-33.991s56.971 49.367 56.971 49.367l24.582 467.148c183.194 149.945 192.035 258.104 192.035 258.104 12.705 24.746-5.718 48.127-5.718 48.127-0.31 0.426-16.86 25.181-44.314 20.736 0 0-105.598 25.015-304.814-102.877l-451.896 120.981c0 0-43.722-13.636-65.518-37.584-6.307-26.15 1.352-32.941 20.914-42.991 133.262-68.462 282.561-198.844 282.561-198.844s-94.471-114.367-223.257-246.385c0 0-183.038 50.867-188.208 43.911l-43.343-31.491c0 0-1.213-8.469 14.235-23.563l113.775-90.377c0 0 23.938-24.822 30.264-35.727 8.423-9.396 24.626-39.823 24.626-39.823l50.795-136.135c9.575-19.347 18.011-20.82 18.011-20.82l43.334 31.484c8.215 2.783 16.399 192.581 16.399 192.581 165.354 81.687 303.317 136.193 303.317 136.193z" />
<glyph unicode="&#xe661;" d="M922.097 826.368c-7.163 13.312-18.8 26.773-32.953 35.371-14.218 8.811-30.501 13.077-45.601 13.205-15.208 0.235-45.187-8.896-47.275-10.853 0.366 44.352-1.058 50.277-1.058 50.277-0.602 13.824-12.497 45.632-46.98 45.632h-472.506c-34.44 0-46.356-31.808-46.98-45.653 0 0-0.387-8.277 0-52.608-0.86 2.432-4.065 3.136-6.582 4.309-12.347 5.675-26.522 9.131-41.729 8.917-15.121-0.128-31.34-4.416-45.558-13.227-14.197-8.597-25.812-22.016-32.975-35.371-7.141-12.949-11.486-25.707-14.605-38.528-6.023-25.579-6.582-50.709-3.657-75.584 1.463-12.459 3.958-24.832 7.615-37.205 3.721-12.331 8.582-24.704 15.659-37.056 3.549-6.144 19.912-27.051 29.211-34.176 11.121-8.747 23.381-15.765 36.911-20.885 13.465-4.907 18.696-8.167 43.278-7.275s48.394 11.584 48.394 11.584c48.247-120.256 178.944-212.565 178.944-212.565 11.164-8.384 18.326-26.368 15.896-39.979 0 0-5.7-32.405-11.938-63.253-14.024-69.632-34.954-129.792-34.954-129.792-4.582-13.077-19.725-23.808-33.685-23.808h-110.946c-13.96 0-25.382-11.328-25.382-25.173v-131.499c0-13.867 11.4-25.173 25.382-25.173h488.039c13.981 0 25.446 11.285 25.446 25.173v131.499c0 13.824-11.443 25.173-25.446 25.173h-110.924c-13.96 0-29.124 10.731-33.685 23.808 0 0-20.929 60.16-34.975 129.792-6.216 30.848-11.917 63.275-11.917 63.275-2.366 13.632 4.754 31.616 15.917 39.957 0 0 132.828 93.78 181.031 214.079 0 0 24.338-13.695 46.284-13.119 14.949-0.576 29.791 2.325 43.3 7.296 13.508 5.077 25.747 12.075 36.89 20.885 2.732 2.197 5.571 4.629 8.238 7.125 2.732 2.581 5.743 5.781 8.217 8.704 5.033 5.995 9.228 12.16 12.777 18.325 7.055 12.331 11.917 24.704 15.638 37.077 3.678 12.352 6.173 24.747 7.615 37.184 2.796 24.875 2.216 50.005-3.786 75.605-3.119 12.821-7.507 25.579-14.584 38.528v0zM203.020 656.717c-5.798 3.044-20.196 11.708-25.98 24.149-5.316 11.433-7.48 14.603-11.636 38.908s0 47.392 12.158 62.197c9.369 9.748 17.614 14.388 25.459 14.183 6.199-0.171 19.136-1.401 26.171-5.165 2.51-46.278 3.129-80.771 16.57-134.272-18.26-4.278-31.145-6.088-42.74 0v0zM831.22 656.996c-11.596-6.523-24.48-4.583-42.74 0 13.44 57.322 14.060 94.28 16.57 143.863 7.035 4.033 19.972 5.351 26.171 5.534 7.844 0.22 16.090-4.752 25.459-15.196 12.158-15.862 16.313-40.598 12.158-66.639s-6.32-29.438-11.636-41.687c-5.785-13.329-20.182-22.612-25.98-25.874z" />
<glyph unicode="&#xe662;" d="M294.881 910.623c54.098 34.847 120.576 52.265 199.434 52.265 103.619 0 189.706-24.76 258.263-74.271 68.536-49.51 102.789-122.87 102.789-220.068 0-59.597-14.889-109.804-44.585-150.61-17.347-24.75-50.77-56.371-100.096-94.894l-48.712-37.827c-26.542-20.623-44.134-44.708-52.849-72.202-5.437-17.418-8.417-44.493-8.899-81.152h-186.368c2.734 77.466 10.045 131.011 21.944 160.584 11.878 29.573 42.496 63.601 91.873 102.124l50.053 39.188c16.435 12.37 29.727 25.907 39.762 40.571 18.278 25.211 27.453 52.961 27.453 83.21 0 34.847-10.199 66.601-30.525 95.252-20.357 28.652-57.539 42.967-111.483 42.967-53.084 0-90.696-17.654-112.876-52.951-22.17-35.297-33.27-71.977-33.27-110.029h-198.758c5.499 130.673 51.118 223.283 136.847 277.842zM409.047 137.626h205.65v-198.738h-205.65v198.738z" />
<glyph unicode="&#xe663;" d="M618.232 390.711c0-28.108-22.903-51.098-51.154-51.098h-107.9c-28.257 0-51.153 22.877-51.153 51.098v130.955c-29.763 0-52.347 0-71.825 0-22.017 0-36.903 18.832-24.498 35.782 32.126 40.647 77.488 97.93 77.488 97.93s60.186 66.346 93.69 105.463c19.846 20.716 44.655 18.832 59.539 0 32.187-37.097 83.766-97.93 83.766-97.93s48.284-60.101 82.449-101.697c19.847-24.482 0-39.548-22.104-39.548-18.834 0-40.755 0-68.299 0zM204.806 908.8c-84.834 0-153.606-68.704-153.606-153.606v-614.388c0-84.834 68.704-153.606 153.606-153.606h614.388c84.834 0 153.606 68.704 153.606 153.606v614.388c0 84.834-68.704 153.606-153.606 153.606zM735.133 243.2c16.977 0 30.748-13.784 30.748-30.788v-44.869c0-17.090-13.767-30.788-30.748-30.788h-448.386c-16.977 0-30.747 13.784-30.747 30.788v44.869c0 17.090 13.766 30.788 30.747 30.788z" />
<glyph unicode="&#xe664;" d="M647.895 311.357c-19.415 21.842-19.415 21.842-6.38 103.035 22.221 90.88 42.383 34.468 74.179 215.716 26.665 152.238-30.28 283.034-203.305 283.034-172.974 0-229.97-130.796-203.254-283.034 31.785-181.258 51.876-124.836 74.158-215.716 13.036-81.203 13.036-81.203-6.4-103.035-92.068-103.608-349.082-63.293-376.893-195.574v-87.572c0 0-5.12-40.96 56.32-40.96 291.567 0 624.093 0 916.48 0 51.62 0 51.2 40.96 51.2 40.96s0 49.162 0.42 69.642c-27.832 132.28-284.396 109.896-376.525 213.504z" />
<glyph unicode="&#xe665;" d="M778.24 443.058v-148.604c0-28.355-22.929-51.254-51.213-51.254h-675.814c-28.343 0-51.213 22.947-51.213 51.254v307.091c0 28.355 22.929 51.254 51.213 51.254h675.814c28.343 0 51.213-22.947 51.213-51.254v-155.813l245.76 165.421v-333.558l-245.76 165.462z" />
<glyph unicode="&#xe666;" d="M537.408 642.194l-0.115 0.119-523.664-521.338c-23.122-23.101-23.122-61.624 0-83.2l60.068-61.624c23.122-23.122 61.686-23.122 83.251 0l499.922 542.060c0.019 0.022 51.986 58.886 59.675 65.059 23.105 18.504 61.419 20.060 98.364-18.463 26.214-24.678 30.812-52.419 16.978-61.655-7.752-10.793-1.546-33.905 12.339-46.244l18.473-20.029c18.473-16.957 44.698-16.957 61.624 0l83.251 84.777c16.927 18.473 16.927 44.667 0 61.614l-16.978 18.504c-12.339 13.855-36.946 18.473-52.388 4.618-13.885 0-32.358 6.175-46.244 20.029-29.256 32.399-9.236 109.875-29.256 129.894-9.247 9.267-64.245 47.564-93.315 91.559s-140.901 133.363-422.9 60.925l17.090-67.66c0 0 132.41 31.84 232.516-66.781 0 0 35.461-39.988 0-75.439-9.247-10.783-13.824-15.401-13.824-15.401l-44.869-41.325z" />
<glyph unicode="&#xe667;" d="M777.503 58.040v0l-264.571 264.581-265.748-265.728-124.559 124.518 265.769 265.779-264.581 264.561 123.351 123.372 264.55-264.561 264.581 264.54 124.549-124.57-264.53-264.561 264.55-264.561-123.361-123.372z" />
<glyph unicode="&#xe668;" d="M621.578 689.592c0 11.203-9.073 20.265-20.265 20.265h-111.493c-11.203 0-20.265-9.062-20.265-20.265 0-11.162 9.062-20.214 20.265-20.214h111.503c11.182 0 20.255 9.052 20.255 20.214zM621.578 816.517c0 11.203-9.073 20.244-20.265 20.244h-111.493c-11.203 0-20.265-9.042-20.265-20.244s9.062-20.214 20.265-20.214h111.503c11.182 0 20.255 9.032 20.255 20.214zM621.578 943.442c0 11.141-9.073 20.265-20.265 20.265h-111.493c-11.203 0-20.265-9.124-20.265-20.275 0-11.182 9.062-20.224 20.265-20.224h111.503c11.182 0 20.255 9.042 20.255 20.234zM529.009 900.997h-111.565c-11.172 0-20.204-9.032-20.204-20.255 0-11.141 9.021-20.224 20.204-20.224h111.565c11.172 0 20.255 9.062 20.255 20.224 0 11.223-9.083 20.265-20.255 20.255zM397.24 626.975c0-11.203 9.021-20.244 20.204-20.244h111.565c11.172 0 20.255 9.042 20.255 20.244 0 11.192-9.083 20.244-20.255 20.244h-111.565c-11.172 0-20.204-9.052-20.204-20.244zM623.729 561.572c0 11.172-9.083 20.224-20.224 20.224h-111.544c-11.172 0-20.265-9.032-20.265-20.224 0-11.162 9.062-20.214 20.265-20.214h111.555c11.121 0 20.214 9.052 20.214 20.214zM399.36 498.934c0-11.172 9.062-20.265 20.244-20.265h111.565c11.172 0 20.224 9.093 20.224 20.265 0 11.192-9.052 20.244-20.224 20.244h-111.575c-11.172-0.010-20.234-9.062-20.234-20.244zM397.24 753.859c0-11.182 9.021-20.214 20.204-20.214h111.565c11.172 0 20.255 9.032 20.255 20.214 0 11.203-9.083 20.275-20.255 20.275h-111.565c-11.172 0.010-20.204-9.073-20.204-20.275zM623.729 434.688c0 11.131-9.083 20.224-20.224 20.224h-111.544c-11.172 0-20.265-9.073-20.265-20.224 0-11.244 9.062-20.265 20.265-20.265h111.555c11.121 0.010 20.214 9.032 20.214 20.265zM400.968 377.395c0-11.203 9.021-20.244 20.204-20.244h111.565c11.182 0 20.265 9.042 20.265 20.244 0 11.192-9.083 20.244-20.265 20.244h-111.565c-11.172 0-20.204-9.052-20.204-20.244zM627.456 311.992c0 11.182-9.083 20.234-20.234 20.234h-111.534c-11.172 0-20.265-9.042-20.265-20.234 0-11.162 9.062-20.214 20.265-20.214h111.544c11.131 0 20.224 9.052 20.224 20.214zM403.077 249.354c0-11.172 9.062-20.265 20.244-20.265h111.565c11.182 0 20.234 9.103 20.234 20.265 0 11.192-9.052 20.244-20.234 20.244h-111.565c-11.172-0.010-20.244-9.062-20.244-20.244zM627.456 185.108c0 11.131-9.083 20.224-20.234 20.224h-111.534c-11.172 0-20.265-9.073-20.265-20.224 0-11.233 9.062-20.265 20.265-20.265h111.544c11.131 0.010 20.224 9.032 20.224 20.265zM404.695 125.348c0-11.213 9.021-20.265 20.193-20.265h111.575c11.172 0 20.255 9.052 20.255 20.265 0 11.172-9.083 20.224-20.255 20.224h-111.575c-11.182 0-20.193-9.052-20.193-20.224zM648.315 69.12h-274.35c-31.898 0-57.764-28.18-57.764-66.56 0-38.39 25.866-66.56 57.764-66.56h274.35c31.908 0 57.774 28.17 57.774 66.56 0 38.38-25.856 66.56-57.774 66.56zM512.389-35.471c-21.944 0-39.731 17.797-39.731 39.741s17.787 39.741 39.731 39.741c21.944 0 39.741-17.797 39.741-39.741s-17.797-39.741-39.741-39.741z" />
</font>
</defs>
</svg>
