<?xml version="1.0" encoding="utf-8"?>
  <svg version="1.1" class="logo-icon" xmlns="http://www.w3.org/2000/svg" xmlns:xlink="http://www.w3.org/1999/xlink" x="0px" y="0px" width="100px" height="70px" viewBox="0 2.5 100 70" enable-background="new 0 2.5 100 70" xml:space="preserve">
  <g id="logo-bluemail">
  	<polygon fill="#337FB2" points="59.607,26.329 56.189,5.431 45.415,18.827 39.649,24.249 47.549,32.004 57.616,39.39 56.652,40.74 49.79,36.901 38.052,25.59 31.72,33.481 22.472,28.507 19.768,34.259 9.523,48.252 7.546,46.974 17.668,33.054 21.195,26.703 11.799,22.326 0.322,14.3 1.413,28.974 5.19,50.929 24.712,51.829 46.909,47.281 58.732,45.733 61.07,42.159"/>
  	<polygon fill="#337FB2" points="22.917,24.39 31.009,29.904 35.845,23.998 43.815,16.495 55.852,2.5 30.475,5.766 13.08,8.448 -0.095,11.379 12.866,19.877"/>
  </g>
  <g id="logo-redmail">
  	<polygon fill="#BE1C21" points="73.255,61.679 75.539,48.34 66.244,54.188 61.629,56.265 64.787,62.593 69.33,69.151 68.471,69.767 65.121,66.019 60.384,56.74 54.914,60.188 50.365,55.257 47.531,58.17 38.429,64.493 37.501,63.308 46.516,57.005 49.967,53.899 45.203,49.302 40.944,50.369 37.544,51.154 35.256,65.204 46.862,69.815 61.219,71.688 68.684,73.216 70.842,71.545"/>
  	<polygon fill="#BE1C21" points="51.488,52.865 55.23,57.881 59.383,55.317 65.76,52.445 75.945,46.498 62.243,43.751 59.971,47.185 52.605,48.013 48.883,48.343 47.107,48.797"/>
  </g>
  <path id="logo-greenmail" fill="#4B9441" d="M94.945,5.454L80.439,8.036l-14.545,3.027l-5.359,0.851l2.574,13.896l2.652,12.264l9.772-2.229L90.68,33.19l9.225-2.051l-1.982-8.566L94.945,5.454z M85.927,27.733l0.146,0.832l-5.117,0.791l-10.938,2.002l-0.156-0.909l-0.223-0.927l4.33-0.955l0.059-0.01l6.908-1.043l4.888-0.675L85.927,27.733z M68.975,26.404l-0.004-0.708l5.627-1.143l5.516-0.97l2.609-0.561l2.246-0.415l0.197,1.511l-2.742,0.624l-7.833,1.339l-5.333,1.1L68.975,26.404z M84.307,19.344l0.188,0.851l-5.431,1.049l-5.877,0.898l-4.785,0.853l-0.432-1.589l11.215-2.06l5.047-0.831L84.307,19.344z M93.582,12.853l-4.566,0.716l-0.642-2.173l-0.295-2.62l2.098-0.263l2.625-0.541l0.628,2.446L93.582,12.853z"/>
</svg>