<?xml version="1.0" encoding="utf-8"?>
<!-- Generator: Adobe Illustrator 16.2.1, SVG Export Plug-In . SVG Version: 6.00 Build 0)  -->
<!DOCTYPE svg PUBLIC "-//W3C//DTD SVG 1.1//EN" "http://www.w3.org/Graphics/SVG/1.1/DTD/svg11.dtd">
<svg version="1.1" id="Layer_1" xmlns="http://www.w3.org/2000/svg" xmlns:xlink="http://www.w3.org/1999/xlink" x="0px" y="0px"
	 width="100px" height="100px" viewBox="0 0 100 100" enable-background="new 0 0 100 100" xml:space="preserve">
<path d="M3.464,83.595c0-4.278,1.767-8.407,4.869-11.51l44.275-44.429c4.432-4.278,11.668-4.278,16.095,0
	c4.428,4.432,3.842,10.482-0.293,14.616L44.647,65.44c-3.255,3.102-7.971-1.768-4.874-4.864l23.317-22.438
	c1.186-1.334,1.186-3.548,0-4.725c-1.33-1.326-3.544-1.326-4.725,0l-44.42,44.275c-3.399,3.396-3.25,8.566,0,11.812
	c3.097,3.543,8.854,3.097,11.658,0l57.557-57.562c5.613-5.464,5.613-14.472,0-19.931c-5.459-5.459-14.458-5.459-19.927,0
	L18.811,55.99c-3.688,3.697-9.152-1.618-5.459-5.31L57.626,6.4c8.562-8.557,22.587-8.557,31.148,0
	c8.705,8.566,8.705,22.582,0,31.292L31.361,95.109c-3.106,3.105-7.236,4.873-11.519,4.873C10.84,99.982,3.464,92.16,3.464,83.595z"
	/>
</svg>
