<?xml version="1.0" encoding="utf-8"?>
<!-- Generator: Adobe Illustrator 16.2.1, SVG Export Plug-In . SVG Version: 6.00 Build 0)  -->
<!DOCTYPE svg PUBLIC "-//W3C//DTD SVG 1.1//EN" "http://www.w3.org/Graphics/SVG/1.1/DTD/svg11.dtd">
<svg version="1.1" id="Layer_1" xmlns="http://www.w3.org/2000/svg" xmlns:xlink="http://www.w3.org/1999/xlink" x="0px" y="0px"
	 width="100px" height="100px" viewBox="0 0 100 100" enable-background="new 0 0 100 100" xml:space="preserve">
<path d="M6.334,32.016v59.906c0,4.473,3.582,8.094,7.999,8.094h72c4.42,0,8.001-3.621,8.001-8.094V32.016H6.334z M28.333,94.015h-16
	v-16h16V94.015z M28.333,74.016h-16v-16h16V74.016z M28.333,54.016h-16v-16h16V54.016z M48.334,94.015h-16v-16h16V94.015z
	 M48.334,74.016h-16v-16h16V74.016z M48.334,54.016h-16v-16h16V54.016z M68.334,94.015H52.333v-16h16.001V94.015z M68.334,74.016
	H52.333v-16h16.001V74.016z M68.334,54.016H52.333v-16h16.001V54.016z M88.334,94.015H72.332v-16h16.002V94.015z M88.334,74.016
	H72.332v-16h16.002V74.016z M88.334,54.016H72.332v-16h16.002V54.016z"/>
<path d="M86.333,12.015H73.334v-9c0-1.658-1.344-3-2.999-3c-1.657,0-3.002,1.342-3.002,3v9h-34v-9c0-1.658-1.343-3-3-3
	c-1.657,0-3,1.342-3,3v9H14.333c-4.417,0-7.999,3.624-7.999,8.093v6.907l0,0v1h88v-1l0,0v-6.907
	C94.334,15.639,90.753,12.015,86.333,12.015z M30.333,26.016c-3.312,0-5.999-2.688-5.999-6.001c0-2.217,1.209-4.151,3-5.189v5.189
	c0,1.659,1.342,3.001,3,3.001c1.656,0,3-1.342,3-3.001v-5.19c1.792,1.039,3.001,2.973,3.001,5.19
	C36.334,23.328,33.648,26.016,30.333,26.016z M70.335,26.016c-3.314,0-6.001-2.688-6.001-6.001c0-2.217,1.209-4.151,2.999-5.189
	v5.189c0,1.659,1.345,3.001,3.002,3.001c1.655,0,2.999-1.342,2.999-3.001v-5.19c1.791,1.039,3,2.973,3,5.19
	C76.334,23.328,73.647,26.016,70.335,26.016z"/>
</svg>
