<?xml version="1.0" encoding="utf-8"?>
<!-- Generator: Adobe Illustrator 16.2.1, SVG Export Plug-In . SVG Version: 6.00 Build 0)  -->
<!DOCTYPE svg PUBLIC "-//W3C//DTD SVG 1.1//EN" "http://www.w3.org/Graphics/SVG/1.1/DTD/svg11.dtd">
<svg version="1.1" id="Layer_1" xmlns="http://www.w3.org/2000/svg" xmlns:xlink="http://www.w3.org/1999/xlink" x="0px" y="0px"
	 width="100px" height="100px" viewBox="0 0 100 100" enable-background="new 0 0 100 100" xml:space="preserve">
<g>
	<path d="M19.543,44.41l17.383-11.156v6.955L24.54,47.597l12.386,7.414v6.931L19.543,50.785V44.41z"/>
	<path d="M53.305,33.291l4.8,0.085L45.987,61.723l-4.756-0.083L53.305,33.291z"/>
	<path d="M80.243,50.355L62.861,61.509v-6.93l12.4-7.423l-12.4-7.378v-6.955L80.243,44.03V50.355L80.243,50.355z"/>
	<path d="M74.84,78.931c1.161-0.75,2.589-1.122,4.281-1.122c2.225,0,4.072,0.531,5.546,1.595c1.47,1.062,2.205,2.638,2.205,4.724
		c0,1.279-0.318,2.356-0.957,3.232c-0.374,0.532-1.089,1.211-2.148,2.036l-1.046,0.812c-0.57,0.444-0.947,0.959-1.135,1.55
		c-0.116,0.375-0.181,0.956-0.191,1.743h-4c0.06-1.663,0.216-2.812,0.47-3.447c0.256-0.636,0.914-1.367,1.973-2.193l1.076-0.841
		c0.353-0.267,0.635-0.558,0.854-0.871c0.392-0.54,0.589-1.136,0.589-1.785c0-0.748-0.22-1.428-0.655-2.045
		c-0.438-0.615-1.234-0.922-2.395-0.922c-1.139,0-1.947,0.378-2.423,1.135c-0.476,0.759-0.714,1.546-0.714,2.363h-4.267
		C72.021,82.091,72.999,80.102,74.84,78.931z M77.291,95.524h4.413v4.267h-4.413V95.524z"/>
	<path d="M13.442,12.546h2.989L17.6,8.221h-2.999l0.66-2.465h3.005l1.61-5.965h2.938l-1.613,5.965h2.417l1.599-5.965h2.936
		l-1.6,5.965h3.001l-0.66,2.465h-3l-1.16,4.325h3.003l-0.661,2.465H24.07l-1.584,5.906h-2.936l1.584-5.906h-2.436l-1.595,5.906
		h-2.936l1.595-5.906h-2.981L13.442,12.546z M21.797,12.546l1.161-4.325h-2.422l-1.169,4.325H21.797z"/>
	<path d="M19.548,80.945c-0.276,0-0.495,0.055-0.656,0.162c-0.161,0.107-0.288,0.241-0.38,0.403
		c-0.092,0.16-0.149,0.342-0.173,0.541c-0.023,0.2-0.035,0.391-0.035,0.575v3.503c0,0.567-0.088,1.024-0.265,1.37
		c-0.177,0.345-0.384,0.615-0.623,0.806c-0.238,0.193-0.488,0.326-0.749,0.404c-0.261,0.075-0.476,0.122-0.645,0.138v0.068
		c0.168,0.016,0.384,0.066,0.645,0.15c0.261,0.085,0.51,0.223,0.749,0.415c0.239,0.191,0.446,0.445,0.623,0.76
		c0.176,0.314,0.265,0.718,0.265,1.209v3.687c0,0.169,0.011,0.353,0.035,0.553c0.023,0.199,0.081,0.38,0.173,0.541
		c0.092,0.162,0.219,0.296,0.38,0.403c0.162,0.107,0.38,0.161,0.656,0.161h1.245v2.581h-2.926c-0.261,0-0.557-0.066-0.886-0.197
		c-0.331-0.13-0.638-0.321-0.922-0.574c-0.285-0.255-0.526-0.577-0.726-0.968c-0.2-0.393-0.299-0.85-0.299-1.371v-4.47
		c0-0.353-0.077-0.652-0.23-0.898c-0.154-0.245-0.338-0.441-0.553-0.588c-0.216-0.145-0.446-0.253-0.691-0.322
		c-0.246-0.068-0.454-0.104-0.622-0.104V87.88c0.168,0,0.376-0.035,0.622-0.104c0.245-0.069,0.475-0.185,0.691-0.347
		c0.214-0.16,0.398-0.375,0.553-0.644c0.153-0.269,0.23-0.597,0.23-0.98v-4.33c0-0.521,0.1-0.979,0.299-1.371
		c0.199-0.391,0.441-0.714,0.726-0.968c0.284-0.253,0.591-0.445,0.922-0.574c0.33-0.131,0.625-0.197,0.886-0.197h2.926v2.58H19.548z
		"/>
	<path d="M28.44,96.795c0.277,0,0.496-0.054,0.657-0.161c0.162-0.107,0.288-0.241,0.38-0.403c0.092-0.161,0.15-0.342,0.173-0.541
		c0.023-0.2,0.035-0.384,0.035-0.553V91.45c0-0.491,0.088-0.895,0.265-1.209s0.384-0.568,0.623-0.76
		c0.237-0.192,0.487-0.33,0.748-0.415c0.261-0.084,0.476-0.135,0.645-0.15v-0.068c-0.169-0.016-0.384-0.062-0.645-0.138
		c-0.261-0.078-0.511-0.211-0.748-0.404c-0.238-0.19-0.446-0.461-0.623-0.806c-0.177-0.346-0.265-0.803-0.265-1.37v-3.503
		c0-0.185-0.011-0.375-0.035-0.575c-0.023-0.199-0.081-0.381-0.173-0.541c-0.092-0.162-0.219-0.296-0.38-0.403
		c-0.161-0.107-0.38-0.162-0.657-0.162h-1.244v-2.58h2.926c0.261,0,0.556,0.066,0.886,0.197c0.331,0.129,0.637,0.321,0.922,0.574
		c0.284,0.254,0.526,0.577,0.726,0.968c0.2,0.393,0.299,0.85,0.299,1.371v4.33c0,0.384,0.077,0.712,0.23,0.98
		c0.153,0.269,0.337,0.483,0.553,0.644c0.215,0.162,0.445,0.277,0.691,0.347c0.246,0.068,0.461,0.104,0.646,0.104v2.004
		c-0.184,0-0.4,0.035-0.646,0.104c-0.246,0.069-0.476,0.178-0.691,0.322c-0.215,0.146-0.399,0.343-0.553,0.588
		c-0.154,0.246-0.23,0.546-0.23,0.898v4.47c0,0.521-0.1,0.979-0.299,1.371c-0.2,0.391-0.441,0.713-0.726,0.968
		c-0.285,0.253-0.591,0.444-0.922,0.574c-0.33,0.131-0.625,0.197-0.886,0.197h-2.926v-2.581H28.44z"/>
</g>
</svg>
