<?xml version="1.0" encoding="utf-8"?>
<!-- Generator: Adobe Illustrator 16.2.1, SVG Export Plug-In . SVG Version: 6.00 Build 0)  -->
<!DOCTYPE svg PUBLIC "-//W3C//DTD SVG 1.1//EN" "http://www.w3.org/Graphics/SVG/1.1/DTD/svg11.dtd">
<svg version="1.1" id="Layer_1" xmlns="http://www.w3.org/2000/svg" xmlns:xlink="http://www.w3.org/1999/xlink" x="0px" y="0px"
	 width="100px" height="100px" viewBox="0 0 100 100" enable-background="new 0 0 100 100" xml:space="preserve">
<path d="M81.502,45.132c-1.196,0-1.925,0-1.925,0V29.479C79.479,10.285,66.386-0.164,50.476-0.164
	c-15.906,0-30.172,10.946-29.675,29.643l-0.016,15.633c0,0,0.24,0.021-0.96,0.021c-1.27,0-9.64,1.473-9.64,8.935v35.824
	c0,7.959,9.42,9.944,9.64,9.944c16.76,0,44.438,0,61.202,0c0.22,0,9.155-0.993,9.155-9.944V54.564
	C90.181,46.109,81.726,45.132,81.502,45.132z M57.332,86.055h-14.27l2.962-14.567c-2.12-1.412-3.528-3.866-3.528-6.665
	c0-4.383,3.442-7.938,7.687-7.938s7.687,3.556,7.687,7.938c0,2.795-1.404,5.253-3.523,6.661L57.332,86.055z M34.261,45.132
	l0.016-15.446c0-9.949,6.071-17.903,15.906-17.903c9.741,0,15.905,6.958,15.905,17.903l0.009,15.446H34.261z"/>
</svg>
