<?xml version="1.0" encoding="utf-8"?>
<!-- Generator: Adobe Illustrator 16.2.1, SVG Export Plug-In . SVG Version: 6.00 Build 0)  -->
<!DOCTYPE svg PUBLIC "-//W3C//DTD SVG 1.1//EN" "http://www.w3.org/Graphics/SVG/1.1/DTD/svg11.dtd">
<svg version="1.1" id="Layer_1" xmlns="http://www.w3.org/2000/svg" xmlns:xlink="http://www.w3.org/1999/xlink" x="0px" y="0px"
	 width="100px" height="100px" viewBox="0 0 100 100" enable-background="new 0 0 100 100" xml:space="preserve">
<path d="M64.199,0L91.17,27.628V100H9.097V0H64.199z M18.941,90.159h62.391l-0.165-58.993L60.111,9.841h-41.17V90.159z"/>
<path d="M56.328,31.672c0-0.752-0.608-1.36-1.359-1.36h-7.483c-0.752,0-1.36,0.608-1.36,1.36c0,0.749,0.608,1.357,1.36,1.357h7.483
	C55.72,33.029,56.328,32.421,56.328,31.672z"/>
<path d="M56.328,23.154c0-0.752-0.608-1.358-1.359-1.358h-7.483c-0.752,0-1.36,0.606-1.36,1.358c0,0.751,0.608,1.356,1.36,1.356
	h7.483C55.72,24.511,56.328,23.905,56.328,23.154z"/>
<path d="M56.328,14.636c0-0.748-0.608-1.36-1.359-1.36h-7.483c-0.752,0-1.36,0.612-1.36,1.361c0,0.75,0.608,1.357,1.36,1.357h7.483
	C55.72,15.994,56.328,15.387,56.328,14.636z"/>
<path d="M50.115,17.485h-7.487c-0.75,0-1.355,0.606-1.355,1.359c0,0.748,0.605,1.357,1.355,1.357h7.487
	c0.75,0,1.359-0.608,1.359-1.357C51.475,18.09,50.865,17.484,50.115,17.485z"/>
<path d="M41.272,35.875c0,0.752,0.605,1.358,1.355,1.358h7.487c0.75,0,1.359-0.606,1.359-1.358c0-0.751-0.609-1.358-1.359-1.358
	h-7.487C41.878,34.517,41.272,35.124,41.272,35.875z"/>
<path d="M56.473,40.265c0-0.75-0.609-1.357-1.357-1.357h-7.486c-0.75,0-1.36,0.606-1.36,1.357c0,0.749,0.608,1.356,1.36,1.356h7.486
	C55.862,41.621,56.473,41.014,56.473,40.265z"/>
<path d="M41.414,44.469c0,0.75,0.608,1.36,1.358,1.36h7.487c0.75,0,1.357-0.61,1.357-1.36c0-0.751-0.607-1.358-1.357-1.358h-7.487
	C42.022,43.11,41.414,43.718,41.414,44.469z"/>
<path d="M41.272,27.359c0,0.75,0.605,1.357,1.355,1.357h7.487c0.75,0,1.359-0.606,1.359-1.357c0-0.751-0.609-1.361-1.359-1.361
	h-7.487C41.878,25.999,41.272,26.608,41.272,27.359z"/>
<path d="M56.473,48.78c0-0.747-0.609-1.357-1.357-1.357h-7.486c-0.75,0-1.36,0.609-1.36,1.357c0,0.754,0.608,1.359,1.36,1.359h7.486
	C55.862,50.14,56.473,49.534,56.473,48.78z"/>
<path d="M41.522,52.625c0,0.752,0.605,1.358,1.355,1.358h7.487c0.75,0,1.359-0.606,1.359-1.358c0-0.751-0.609-1.358-1.359-1.358
	h-7.487C42.128,51.267,41.522,51.874,41.522,52.625z"/>
<path d="M56.723,57.015c0-0.75-0.609-1.357-1.357-1.357h-7.486c-0.75,0-1.36,0.606-1.36,1.357c0,0.749,0.608,1.356,1.36,1.356h7.486
	C56.112,58.371,56.723,57.764,56.723,57.015z"/>
<path d="M41.664,61.219c0,0.75,0.608,1.36,1.358,1.36h7.487c0.75,0,1.357-0.61,1.357-1.36c0-0.751-0.607-1.358-1.357-1.358h-7.487
	C42.272,59.86,41.664,60.468,41.664,61.219z"/>
<path d="M56.723,65.53c0-0.747-0.609-1.357-1.357-1.357h-7.486c-0.75,0-1.36,0.609-1.36,1.357c0,0.754,0.608,1.359,1.36,1.359h7.486
	C56.112,66.89,56.723,66.284,56.723,65.53z"/>
<path d="M41.772,69.541c0,0.752,0.605,1.359,1.355,1.359h7.487c0.75,0,1.36-0.607,1.36-1.359c0-0.75-0.609-1.357-1.36-1.357h-7.487
	C42.377,68.184,41.772,68.791,41.772,69.541z"/>
<path d="M58.123,73H39.71c-2.141,0-3.876,1.924-3.876,4.5S37.569,82,39.71,82h18.413C60.265,82,62,80.076,62,77.5
	S60.265,73,58.123,73z M49,80.334c-1.473,0-2.667-1.194-2.667-2.667S47.527,75,49,75s2.667,1.194,2.667,2.667
	S50.473,80.334,49,80.334z"/>
</svg>
