<?xml version="1.0" encoding="utf-8"?>
<!-- Generator: Adobe Illustrator 16.2.1, SVG Export Plug-In . SVG Version: 6.00 Build 0)  -->
<!DOCTYPE svg PUBLIC "-//W3C//DTD SVG 1.1//EN" "http://www.w3.org/Graphics/SVG/1.1/DTD/svg11.dtd">
<svg version="1.1" id="Layer_1" xmlns="http://www.w3.org/2000/svg" xmlns:xlink="http://www.w3.org/1999/xlink" x="0px" y="0px"
	 width="100px" height="100px" viewBox="0 0 100 100" enable-background="new 0 0 100 100" xml:space="preserve">
<path d="M64.199,0L91.17,27.628V100H9.097V0H64.199z M18.941,90.159h62.391l-0.165-58.993L60.111,9.841h-41.17V90.159z"/>
<g id="Your_Icon">
	<path d="M56.752,62.371c-2.086-0.652-5.422-0.787-6.256-0.787c-1.295,0-2.569,0.102-3.816,0.291
		c-1.346-8.642,0.027-14.144,2.039-17.61c0.374,0.591,1.002,0.98,1.718,0.98c0.994,0,1.823-0.754,2.025-1.76
		c0.198,0.067,0.409,0.105,0.629,0.105c1.145,0,2.073-1.001,2.073-2.235c0-0.035-0.003-0.068-0.007-0.102
		c0.386,0.258,0.774,0.542,1.153,0.857c1.685,1.397,3.138,3.321,3.136,5.792c0,0.599-0.086,1.233-0.274,1.908
		c-0.04,0.143,0.031,0.295,0.16,0.345c0.029,0.012,0.061,0.017,0.089,0.017c0.103,0,0.199-0.066,0.239-0.173
		c0.006-0.018,0.851-2.197,0.852-4.794c0-1.814-0.419-3.855-1.867-5.455c-0.365-0.404-0.795-0.777-1.297-1.111
		c0.039,0,0.078-0.001,0.118-0.001c1.615,0,3.36,0.257,4.846,1.048c1.485,0.794,2.717,2.102,3.359,4.267
		c0.037,0.119,0.139,0.196,0.25,0.196c0.021,0,0.044-0.003,0.065-0.009c0.134-0.04,0.218-0.184,0.188-0.33
		c-0.005-0.018-0.444-2.255-1.729-4.517c-1.274-2.254-3.439-4.563-6.849-4.562c-1.497,0-3.221,0.447-5.2,1.51
		c-3.292-4.185-6.388-5.669-9.092-5.668c-5.726,0.029-9.418,6.503-9.674,6.941v0c-0.009,0.015-0.014,0.022-0.014,0.023
		c-0.071,0.128-0.036,0.294,0.081,0.377c0.115,0.083,0.271,0.052,0.354-0.068c1.754-2.569,4.036-3.417,6.377-3.422
		c2.223-0.001,4.483,0.791,6.269,1.649c-0.369-0.046-0.724-0.069-1.063-0.069c-3.523-0.006-5.436,2.352-6.406,4.645
		c-0.981,2.298-1.087,4.565-1.089,4.584c-0.007,0.149,0.096,0.278,0.233,0.293c0.009,0.001,0.019,0.002,0.027,0.002
		c0.128,0,0.237-0.101,0.258-0.239c0.375-2.626,1.857-4.087,3.656-4.942c1.796-0.847,3.896-1.037,5.374-1.036
		c0.172,0,0.336,0.002,0.49,0.007c-6.859,6.301-6.01,21.277-5.831,23.616c-6.023,2.048-11.135,6.302-14.518,11.887
		c0.38,0.014,44.599-0.032,45.062-0.03C69.151,68.747,63.506,64.095,56.752,62.371z"/>
</g>
</svg>
