<?xml version="1.0" encoding="utf-8"?>
<!-- Generator: Adobe Illustrator 16.2.1, SVG Export Plug-In . SVG Version: 6.00 Build 0)  -->
<!DOCTYPE svg PUBLIC "-//W3C//DTD SVG 1.1//EN" "http://www.w3.org/Graphics/SVG/1.1/DTD/svg11.dtd">
<svg version="1.1" id="Layer_1" xmlns="http://www.w3.org/2000/svg" xmlns:xlink="http://www.w3.org/1999/xlink" x="0px" y="0px"
	 width="100px" height="100px" viewBox="0 0 100 100" enable-background="new 0 0 100 100" xml:space="preserve">
<path d="M64.199,0L91.17,27.628V100H9.097V0H64.199z M18.941,90.159h62.391l-0.165-58.993L60.111,9.841h-41.17V90.159z"/>
<g>
	<path d="M40.816,32.907c2.213-1.426,4.934-2.139,8.16-2.139c4.24,0,7.762,1.013,10.567,3.039s4.206,5.027,4.206,9.004
		c0,2.438-0.609,4.493-1.824,6.163c-0.71,1.013-2.077,2.307-4.096,3.883l-1.993,1.548c-1.086,0.844-1.806,1.829-2.162,2.954
		c-0.223,0.713-0.345,1.82-0.364,3.32h-7.625c0.112-3.17,0.411-5.36,0.898-6.57c0.486-1.21,1.739-2.603,3.759-4.179l2.048-1.604
		c0.673-0.506,1.217-1.06,1.627-1.66c0.748-1.032,1.123-2.167,1.123-3.405c0-1.426-0.417-2.725-1.249-3.897
		c-0.833-1.172-2.354-1.758-4.562-1.758c-2.172,0-3.711,0.722-4.619,2.167c-0.907,1.444-1.361,2.945-1.361,4.502h-8.132
		C35.441,38.929,37.308,35.14,40.816,32.907z M45.487,64.535h8.415v8.132h-8.415V64.535z"/>
</g>
</svg>
