<?xml version="1.0" encoding="utf-8"?>
<!-- Generator: Adobe Illustrator 16.2.1, SVG Export Plug-In . SVG Version: 6.00 Build 0)  -->
<!DOCTYPE svg PUBLIC "-//W3C//DTD SVG 1.1//EN" "http://www.w3.org/Graphics/SVG/1.1/DTD/svg11.dtd">
<svg version="1.1" id="Layer_1" xmlns="http://www.w3.org/2000/svg" xmlns:xlink="http://www.w3.org/1999/xlink" x="0px" y="0px"
	 width="100px" height="100px" viewBox="0 0 100 100" enable-background="new 0 0 100 100" xml:space="preserve">
<path d="M64.199,0L91.17,27.628V100H9.097V0H64.199z M18.941,90.159h62.391l-0.165-58.993L60.111,9.841h-41.17V90.159z"/>
<path d="M29,33v1v4v9v5v8v5v8v3v2h42v-2v-3v-8v-5v-8v-5v-9v-4v-1H29z M46,60v-8h7v8H46z M53,65v8h-7v-8H53z M46,47v-9h7v9H46z
	 M34,38h7v9h-7V38z M34,52h7v8h-7V52z M34,65h7v8h-7V65z M66,73h-8v-8h8V73z M66,60h-8v-8h8V60z M66,47h-8v-9h8V47z"/>
</svg>
