<?xml version="1.0" encoding="utf-8"?>
<!-- Generator: Adobe Illustrator 16.2.1, SVG Export Plug-In . SVG Version: 6.00 Build 0)  -->
<!DOCTYPE svg PUBLIC "-//W3C//DTD SVG 1.1//EN" "http://www.w3.org/Graphics/SVG/1.1/DTD/svg11.dtd">
<svg version="1.1" id="Layer_1" xmlns="http://www.w3.org/2000/svg" xmlns:xlink="http://www.w3.org/1999/xlink" x="0px" y="0px"
	 width="100px" height="100px" viewBox="0 0 100 100" enable-background="new 0 0 100 100" xml:space="preserve">
<path d="M64.199,0L91.17,27.628V100H9.097V0H64.199z M18.941,90.159h62.391l-0.165-58.993L60.111,9.841h-41.17V90.159z"/>
<path d="M63.602,50.645c-0.493,0-0.794,0-0.794,0v-6.456c-0.041-7.917-5.44-12.227-12.003-12.227
	c-6.562,0-12.446,4.515-12.241,12.227l-0.006,6.448c0,0,0.099,0.009-0.396,0.009c-0.523,0-3.976,0.607-3.976,3.686v14.776
	c0,3.283,3.885,4.102,3.976,4.102c6.913,0,18.33,0,25.244,0c0.091,0,3.776-0.41,3.776-4.102V54.536
	C67.182,51.048,63.693,50.645,63.602,50.645z M53.632,67.525h-5.886l1.222-6.009c-0.874-0.582-1.455-1.595-1.455-2.749
	c0-1.809,1.42-3.275,3.171-3.275s3.17,1.468,3.17,3.275c0,1.152-0.578,2.167-1.452,2.747L53.632,67.525z M44.116,50.645l0.007-6.37
	c0-4.104,2.504-7.385,6.561-7.385c4.018,0,6.56,2.87,6.56,7.385l0.004,6.37H44.116z"/>
</svg>
