<?xml version="1.0" encoding="utf-8"?>
<!-- Generator: Adobe Illustrator 16.2.1, SVG Export Plug-In . SVG Version: 6.00 Build 0)  -->
<!DOCTYPE svg PUBLIC "-//W3C//DTD SVG 1.1//EN" "http://www.w3.org/Graphics/SVG/1.1/DTD/svg11.dtd">
<svg version="1.1" id="Layer_1" xmlns="http://www.w3.org/2000/svg" xmlns:xlink="http://www.w3.org/1999/xlink" x="0px" y="0px"
	 width="100px" height="100px" viewBox="0 0 100 100" enable-background="new 0 0 100 100" xml:space="preserve">
<path d="M64.199,0L91.17,27.628V100H9.097V0H64.199z M18.941,90.159h62.391l-0.165-58.993L60.111,9.841h-41.17V90.159z"/>
<path d="M25.849,45.103l13.5-8.664v5.401l-9.619,5.738l9.619,5.758v5.382l-13.5-8.664V45.103z"/>
<path d="M53.896,33.565l5.415,0.096L45.639,65.645l-5.367-0.095L53.896,33.565z"/>
<path d="M73.674,56.054l-13.5,8.664v-5.382l9.63-5.766l-9.63-5.73v-5.401l13.5,8.703V56.054z"/>
<g>
	<path d="M65.866,71.029c0.807-0.52,1.798-0.779,2.974-0.779c1.545,0,2.828,0.369,3.851,1.107c1.021,0.738,1.532,1.832,1.532,3.281
		c0,0.889-0.221,1.637-0.664,2.246c-0.26,0.369-0.757,0.84-1.493,1.414l-0.726,0.564c-0.396,0.308-0.658,0.666-0.788,1.076
		c-0.081,0.26-0.126,0.664-0.133,1.211h-2.778c0.041-1.156,0.149-1.953,0.326-2.395c0.178-0.441,0.635-0.949,1.37-1.523l0.747-0.584
		c0.245-0.185,0.442-0.387,0.593-0.605c0.272-0.375,0.409-0.789,0.409-1.24c0-0.52-0.152-0.992-0.455-1.42
		c-0.305-0.428-0.858-0.641-1.663-0.641c-0.791,0-1.353,0.263-1.683,0.789s-0.496,1.073-0.496,1.641h-2.963
		C63.908,73.224,64.588,71.843,65.866,71.029z M67.568,82.555h3.066v2.963h-3.066V82.555z"/>
</g>
<g>
	<path d="M23.223,24.923h2.076l0.812-3.004h-2.083l0.458-1.712h2.087l1.119-4.143h2.04l-1.12,4.143h1.678l1.111-4.143h2.038
		l-1.111,4.143h2.084l-0.458,1.712H31.87l-0.806,3.004h2.086l-0.458,1.712h-2.087l-1.1,4.102h-2.039l1.1-4.102h-1.692l-1.108,4.102
		h-2.039l1.108-4.102h-2.071L23.223,24.923z M29.026,24.923l0.806-3.004h-1.682l-0.812,3.004H29.026z"/>
</g>
</svg>
