<?xml version="1.0" encoding="utf-8"?>
<!-- Generator: Adobe Illustrator 16.2.1, SVG Export Plug-In . SVG Version: 6.00 Build 0)  -->
<!DOCTYPE svg PUBLIC "-//W3C//DTD SVG 1.1//EN" "http://www.w3.org/Graphics/SVG/1.1/DTD/svg11.dtd">
<svg version="1.1" id="Layer_1" xmlns="http://www.w3.org/2000/svg" xmlns:xlink="http://www.w3.org/1999/xlink" x="0px" y="0px"
	 width="100px" height="100px" viewBox="0 0 100 100" enable-background="new 0 0 100 100" xml:space="preserve">
<g>
	<g>
		<path d="M66.188,43.583c0,0-0.614,1.908-0.712,2.165c-0.094,0.252-0.684,1.042-0.558,1.042c0.13,0,1.428,0.61,1.428,0.61
			l5.066,1.567l-0.078,2.388c-0.443,0.065-2.188,1.221-2.445,1.79c-0.167,0.375-0.537,1.042-0.891,1.506
			c4.605,1.859,7.308,4.582,7.413,7.625c0.078,0.546,2.873,10.53,3.036,12.776h21.297c0.016-0.089-0.644-13.008-0.651-13.102
			c0,0-1.217-3.108-3.157-3.426c-1.938-0.326-4.428-1.001-5.469-1.782c-0.606-0.464-2.588-1.262-3.508-1.6
			c-0.432-0.154-1.164-1.42-1.416-1.998c-0.252-0.569-2.002-1.725-2.449-1.79l-0.073-2.388l5.062-1.567c0,0,1.302-0.602,1.433-0.602
			c0.126,0-0.606-0.96-0.7-1.221c-0.098-0.252-0.573-1.994-0.573-1.994s1.713,2.091,2.575,2.482c0,0-1.701-3.198-2.205-4.976
			c-0.513-1.778-0.847-4.562-0.847-4.814c0-0.26-1.05-7.723-1.619-8.964c-0.57-1.241-1.351-2.921-2.678-3.747
			c-1.326-0.826-3.296-2.002-6.128-2.161c-0.04-0.004-0.081-0.004-0.126-0.008c-0.045,0.004-0.081,0.004-0.126,0.008
			c-2.824,0.159-4.802,1.334-6.128,2.161c-1.322,0.826-2.1,2.506-2.677,3.747c-0.57,1.241-1.62,8.704-1.62,8.964
			c0,0.252-0.293,3.149-0.806,4.928c-0.504,1.778-2.246,4.862-2.246,4.862C64.482,45.666,66.188,43.583,66.188,43.583z"/>
	</g>
	<g>
		<path d="M22.145,64.261v-0.126l0.008-0.126c1.379-5.948,8.551-8.789,12.461-10.498c0.006-0.004-0.002,0-0.002,0
			c-2.372-1.086-3.627-1.896-4.211-2.026c-0.24-0.488-0.755-4.117-0.755-4.117s2.853-2.523,3.496-7.353c0,0,1.408,0.773,1.493-2.165
			c0.063-2.266,0.454-3.145-1.086-3.809c0,0,0.114-1.574,0.161-2.962c0.08-2.063,0.456-4.956-3.111-7.283
			c-0.508-0.33-3.125-1.787-3.143-1.774c-0.932-0.565-2.116-0.932-2.116-0.932l0.039,0.854c-0.065-0.065-0.128-0.13-0.185-0.191
			c-0.238-0.24-0.368-1.18-0.35-1.55c0.047-0.659,0.047-0.659,0.047-0.659c-1.687,1.262-2.854,2.889-2.854,2.889l0.155-1.575
			c0,0-0.317,0.484-4.183,2.897c-3.792,2.368-3.166,5.863-3.06,7.931c0.069,1.396,0.206,2.355,0.206,2.355
			c-1.538,0.664-0.73,1.599-0.694,3.87c0.051,3.133,1.631,2.58,1.631,2.58c0.725,4.272,2.968,6.872,2.968,6.872
			s-0.637,3.658-0.879,4.122c-0.698,0.155-2.311,1.27-5.698,2.678c-4.993,2.079-3.424,0.871-7.489,2.905
			c-6.419,3.21-5.146,16.597-5.146,16.597h20.225L22.145,64.261z"/>
	</g>
	<g>
		<path d="M77.267,82.433c0-3.816-4.305-19.962-4.305-19.962c0-2.355-3.104-5.054-9.22-6.624c-3.183-0.813-5.835-2.637-5.835-2.637
			c-0.399-0.224-0.334-2.287-0.334-2.287l-1.97-0.297c0-0.167-0.171-2.636-0.171-2.636c2.353-0.786,2.112-5.428,2.112-5.428
			c1.493,0.826,2.47-2.844,2.47-2.844c1.774-5.094-0.879-4.789-0.879-4.789c0.842-3.816,0-9.391,0-9.391
			c-1.18-10.331-18.929-7.523-16.825-4.154c-5.182-0.952-4,10.774-4,10.774l1.125,3.036c-2.209,1.416-0.673,3.141-0.6,5.123
			c0.11,2.926,1.91,2.319,1.91,2.319c0.108,4.83,2.504,5.465,2.504,5.465c0.45,3.027,0.169,2.515,0.169,2.515l-2.13,0.26
			c0.091,0.765-0.169,2.046-0.169,2.046c-2.515,1.119-3.05,1.767-5.54,2.849c-4.815,2.096-10.048,4.825-10.978,8.491
			c-0.928,3.671-3.69,18.172-3.69,18.172H77.267L77.267,82.433z"/>
	</g>
</g>
</svg>
