<?xml version="1.0" encoding="utf-8"?>
<!-- Generator: Adobe Illustrator 16.2.1, SVG Export Plug-In . SVG Version: 6.00 Build 0)  -->
<!DOCTYPE svg PUBLIC "-//W3C//DTD SVG 1.1//EN" "http://www.w3.org/Graphics/SVG/1.1/DTD/svg11.dtd">
<svg version="1.1" id="Layer_1" xmlns="http://www.w3.org/2000/svg" xmlns:xlink="http://www.w3.org/1999/xlink" x="0px" y="0px"
	 width="100px" height="100px" viewBox="0 0 100 100" enable-background="new 0 0 100 100" xml:space="preserve">
<path d="M49.237,0.497c-27.615,0-50,22.385-50,50s22.385,50,50,50s50-22.385,50-50S76.853,0.497,49.237,0.497z M82.033,57.805
	l-35.598,0.087c-1.926,0-4.435-3.336-4.435-5.309V18.035c0-1.972,3.574-3.573,5.5-3.573c1.929,0,5.5,1.598,5.5,3.573V48h28.903
	c1.932,0,3.168,3.191,3.168,5.162C85.071,55.139,83.965,57.805,82.033,57.805z"/>
</svg>
