<?xml version="1.0" encoding="utf-8"?>
<!-- Generator: Adobe Illustrator 16.2.1, SVG Export Plug-In . SVG Version: 6.00 Build 0)  -->
<!DOCTYPE svg PUBLIC "-//W3C//DTD SVG 1.1//EN" "http://www.w3.org/Graphics/SVG/1.1/DTD/svg11.dtd">
<svg version="1.1" id="Layer_1" xmlns="http://www.w3.org/2000/svg" xmlns:xlink="http://www.w3.org/1999/xlink" x="0px" y="0px"
	 width="100px" height="100px" viewBox="0 0 100 100" enable-background="new 0 0 100 100" xml:space="preserve">
<g>
	<path d="M91.072,8.585C79.524-2.97,60.796-2.97,49.246,8.582L36.608,21.22c-1.091,1.09-2.08,2.25-2.966,3.455
		c-0.193,0.26-0.368,0.537-0.551,0.801c6.105-1.648,12.585-1.55,18.646,0.301l1.033-1.034l6.972-6.97
		c6.112-6.112,16.023-6.112,22.14,0c6.115,6.115,6.115,16.027,0,22.143l-7.947,7.946l-1.631,1.636l-1.591,1.587l-0.009,0.008
		l-2.722,2.648C65.223,56.501,62,58.007,58,58.275v0.012c0-0.004,0.077-0.004,0.073-0.004c-0.757,0.065-1.5,0.073-2.053,0.049
		c-1.223-0.057-2.271-0.238-2.271-0.238c-3.219-0.438-5.479-2.037-7.834-4.394c-2.295-2.295-3.725-5.097-4.299-8.063
		c-0.017-0.082-0.026-0.156-0.041-0.238c-2.681,0.22-5.297,1.348-7.346,3.395l-4.209,4.209c1.445,3.658,3.634,7.09,6.59,10.044
		c2.954,2.958,6.378,5.147,10.032,6.592c0.671,0.265,1.353,0.506,2.039,0.718c0.576,0.179,1.151,0.346,1.737,0.492
		c0.043,0.012,0.08,0.016,0.116,0.024c0.106,0.028,0.211,0.045,0.317,0.069c6.058,1.399,12.467,0.866,18.257-1.596
		c0.708-0.305,1.416-0.631,2.107-0.992c0.037-0.017,0.073-0.037,0.11-0.058c0.118-0.061,0.228-0.126,0.342-0.191
		c0.293-0.158,0.586-0.317,0.874-0.488c0.005,0,0.009,0,0.009-0.004c2.1-1.241,4.077-2.763,5.884-4.565L91.072,50.41
		C102.624,38.858,102.624,20.129,91.072,8.585z"/>
	<path d="M47.738,74.059l-1.034,1.033l-6.97,6.971c-6.114,6.111-16.026,6.111-22.141,0c-6.116-6.116-6.116-16.027,0-22.144
		l7.946-7.946l1.634-1.636l1.591-1.587l0.006-0.008l2.488-2.649C34.02,43.338,38,41.829,41,41.56c0,0,1.569-0.1,2.125-0.076
		c1.223,0.053,1.406,0.062,2.391,0.25c3.531,0.875,5.686,2.131,8.041,4.482c2.295,2.295,3.728,5.058,4.297,8.02
		c0.017,0.086,0.028,0.14,0.041,0.221c2.686-0.215,5.306-1.358,7.349-3.4l4.211-4.219c-1.444-3.658-3.634-7.088-6.592-10.046
		c-2.954-2.954-6.38-5.149-10.034-6.593c-0.669-0.265-1.351-0.506-2.036-0.717c-0.576-0.179-1.156-0.346-1.737-0.489
		c-0.047-0.012-0.08-0.021-0.118-0.033c-0.104-0.024-0.211-0.041-0.315-0.065c-6.061-1.399-12.467-0.862-18.255,1.599
		c-0.712,0.301-1.416,0.626-2.108,0.989c-0.041,0.021-0.075,0.037-0.112,0.057c-0.116,0.061-0.228,0.126-0.342,0.191
		c-0.293,0.159-0.59,0.317-0.873,0.488c-0.008,0-0.008,0.004-0.01,0.008c-2.102,1.237-4.079,2.759-5.882,4.561L8.4,49.425
		c-11.552,11.552-11.552,30.281,0,41.829c11.55,11.552,30.277,11.552,41.827,0l12.64-12.638c1.091-1.095,2.079-2.25,2.967-3.459
		c0.191-0.265,0.37-0.537,0.549-0.806C60.278,76.008,53.797,75.91,47.738,74.059z"/>
	<path d="M57.769,57.881c0,0.008,0,0.016-0.005,0.024c0.005,0,0.005,0,0.005,0S57.769,57.896,57.769,57.881z"/>
</g>
</svg>
