<?xml version="1.0" encoding="utf-8"?>
<!-- Generator: Adobe Illustrator 16.2.1, SVG Export Plug-In . SVG Version: 6.00 Build 0)  -->
<!DOCTYPE svg PUBLIC "-//W3C//DTD SVG 1.1//EN" "http://www.w3.org/Graphics/SVG/1.1/DTD/svg11.dtd">
<svg version="1.1" id="Layer_1" xmlns="http://www.w3.org/2000/svg" xmlns:xlink="http://www.w3.org/1999/xlink" x="0px" y="0px"
	 width="100px" height="70px" viewBox="0 15 100 70" enable-background="new 0 15 100 70" xml:space="preserve">
<g>
	<g>
		<polygon points="59.607,38.113 56.189,17.215 45.415,30.611 39.649,36.033 47.55,43.788 57.616,51.174 56.652,52.524 
			49.79,48.686 38.052,37.374 31.72,45.265 22.472,40.291 19.768,46.043 9.523,60.036 7.546,58.758 17.668,44.838 21.195,38.487 
			11.799,34.11 0.322,26.084 1.413,40.757 5.19,62.713 24.712,63.613 46.909,59.065 58.732,57.518 61.07,53.943 		"/>
		<polygon points="22.917,36.174 31.009,41.688 35.845,35.782 43.815,28.279 55.852,14.284 30.475,17.55 13.08,20.232 
			-0.095,23.163 12.866,31.661 		"/>
	</g>
	<g>
		<polygon points="73.255,73.463 75.539,60.124 66.244,65.973 61.629,68.049 64.787,74.377 69.33,80.936 68.471,81.551 
			65.121,77.803 60.384,68.524 54.914,71.973 50.364,67.041 47.532,69.954 38.429,76.277 37.501,75.092 46.516,68.789 
			49.968,65.684 45.203,61.086 40.944,62.153 37.544,62.938 35.256,76.988 46.862,81.6 61.219,83.473 68.684,85 70.842,83.329 		"/>
		<polygon points="51.488,64.649 55.23,69.665 59.383,67.102 65.76,64.229 75.945,58.282 62.243,55.535 59.971,58.969 
			52.605,59.797 48.884,60.127 47.106,60.581 		"/>
	</g>
	<path d="M94.945,17.238L80.439,19.82l-14.545,3.027l-5.359,0.851l2.574,13.896l2.652,12.263l9.773-2.228l15.145-2.654l9.225-2.051
		l-1.982-8.567L94.945,17.238z M85.927,39.517l0.146,0.832l-5.117,0.792l-10.938,2.001l-0.156-0.909l-0.223-0.927l4.33-0.955
		l0.059-0.01l6.908-1.042l4.887-0.675L85.927,39.517z M68.975,38.188l-0.004-0.708l5.627-1.143l5.516-0.97l2.609-0.561l2.246-0.415
		l0.197,1.511l-2.742,0.624l-7.833,1.339l-5.333,1.099L68.975,38.188z M84.307,31.128l0.188,0.851l-5.43,1.049l-5.877,0.898
		l-4.785,0.853l-0.432-1.589l11.215-2.06l5.047-0.831L84.307,31.128z M93.582,24.637l-4.566,0.716l-0.642-2.173l-0.295-2.62
		l2.098-0.263l2.625-0.541l0.628,2.446L93.582,24.637z"/>
</g>
</svg>
