<?xml version="1.0" encoding="utf-8"?>
<!-- Generator: Adobe Illustrator 16.2.1, SVG Export Plug-In . SVG Version: 6.00 Build 0)  -->
<!DOCTYPE svg PUBLIC "-//W3C//DTD SVG 1.1//EN" "http://www.w3.org/Graphics/SVG/1.1/DTD/svg11.dtd">
<svg version="1.1" id="Layer_1" xmlns="http://www.w3.org/2000/svg" xmlns:xlink="http://www.w3.org/1999/xlink" x="0px" y="0px"
	 width="100px" height="70px" viewBox="0 0 100 70" enable-background="new 0 0 100 70" xml:space="preserve">
<g>
	<g>
		<polygon points="59.607,23.829 56.189,2.931 45.415,16.327 39.649,21.749 47.55,29.504 57.616,36.89 56.652,38.239 49.79,34.401 
			38.052,23.09 31.72,30.981 22.472,26.007 19.768,31.759 9.523,45.752 7.546,44.474 17.668,30.554 21.195,24.202 11.799,19.826 
			0.322,11.8 1.413,26.473 5.19,48.429 24.712,49.329 46.909,44.78 58.732,43.233 61.07,39.659 		"/>
		<polygon points="22.917,21.89 31.009,27.403 35.845,21.498 43.815,13.995 55.852,0 30.475,3.266 13.08,5.948 -0.095,8.879 
			12.866,17.377 		"/>
	</g>
	<g>
		<polygon points="73.255,59.179 75.539,45.84 66.244,51.688 61.629,53.765 64.787,60.093 69.33,66.651 68.471,67.267 
			65.121,63.519 60.384,54.239 54.914,57.688 50.364,52.757 47.532,55.67 38.429,61.993 37.501,60.808 46.516,54.505 49.968,51.399 
			45.203,46.802 40.944,47.868 37.544,48.653 35.256,62.704 46.862,67.315 61.219,69.188 68.684,70.716 70.842,69.045 		"/>
		<polygon points="51.488,50.364 55.23,55.381 59.383,52.817 65.76,49.944 75.945,43.998 62.243,41.251 59.971,44.685 
			52.605,45.513 48.884,45.843 47.106,46.297 		"/>
	</g>
	<path d="M94.945,2.954L80.439,5.536L65.895,8.563l-5.359,0.851l2.574,13.896l2.652,12.264l9.772-2.229L90.68,30.69l9.225-2.051
		l-1.982-8.567L94.945,2.954z M85.927,25.233l0.146,0.832l-5.117,0.791l-10.938,2.002l-0.156-0.91l-0.223-0.926l4.33-0.955
		l0.059-0.011l6.908-1.042l4.888-0.675L85.927,25.233z M68.975,23.903l-0.004-0.707l5.627-1.144l5.516-0.97l2.609-0.561l2.246-0.415
		l0.197,1.511l-2.742,0.623l-7.833,1.34l-5.333,1.099L68.975,23.903z M84.307,16.844l0.188,0.851l-5.431,1.049l-5.877,0.898
		l-4.785,0.853l-0.432-1.589l11.215-2.06l5.047-0.831L84.307,16.844z M93.582,10.353l-4.566,0.716l-0.642-2.173l-0.295-2.62
		l2.098-0.263l2.625-0.541l0.628,2.446L93.582,10.353z"/>
</g>
</svg>
