<?xml version="1.0" encoding="utf-8"?>
<!-- Generator: Adobe Illustrator 16.2.1, SVG Export Plug-In . SVG Version: 6.00 Build 0)  -->
<!DOCTYPE svg PUBLIC "-//W3C//DTD SVG 1.1//EN" "http://www.w3.org/Graphics/SVG/1.1/DTD/svg11.dtd">
<svg version="1.1" id="Layer_1" xmlns="http://www.w3.org/2000/svg" xmlns:xlink="http://www.w3.org/1999/xlink" x="0px" y="0px"
	 width="100px" height="100px" viewBox="0 0 100 100" enable-background="new 0 0 100 100" xml:space="preserve">
<g>
	<g>
		<polygon points="59.608,38.623 56.189,17.725 45.415,31.121 39.649,36.543 47.55,44.298 57.616,51.684 56.653,53.034 
			49.79,49.196 38.052,37.884 31.72,45.775 22.472,40.801 19.768,46.553 9.523,60.546 7.546,59.268 17.668,45.348 21.195,38.997 
			11.799,34.62 0.322,26.594 1.413,41.267 5.19,63.222 24.712,64.123 46.909,59.575 58.732,58.027 61.071,54.453 		"/>
		<polygon points="22.917,36.684 31.009,42.198 35.845,36.292 43.815,28.789 55.851,14.794 30.475,18.06 13.08,20.742 
			-0.095,23.673 12.866,32.171 		"/>
	</g>
	<g>
		<polygon points="73.255,73.972 75.539,60.634 66.244,66.482 61.629,68.559 64.787,74.887 69.33,81.445 68.47,82.061 
			65.121,78.312 60.384,69.034 54.914,72.483 50.364,67.551 47.532,70.464 38.429,76.787 37.501,75.601 46.516,69.299 
			49.968,66.194 45.203,61.596 40.944,62.663 37.544,63.448 35.256,77.498 46.862,82.11 61.219,83.983 68.684,85.51 70.842,83.839 
					"/>
		<polygon points="51.489,65.159 55.231,70.175 59.383,67.612 65.76,64.739 75.945,58.792 62.243,56.045 59.97,59.478 
			52.606,60.306 48.884,60.637 47.106,61.091 		"/>
	</g>
	<path d="M94.946,17.748L80.44,20.33l-14.546,3.027l-5.359,0.851l2.575,13.896l2.652,12.263l9.773-2.228l15.145-2.654l9.224-2.051
		l-1.982-8.567L94.946,17.748z M85.927,40.027l0.145,0.832l-5.117,0.792l-10.938,2.001l-0.156-0.909l-0.222-0.927l4.33-0.955
		l0.059-0.01l6.907-1.042l4.887-0.675L85.927,40.027z M68.974,38.698l-0.003-0.708l5.627-1.143l5.515-0.97l2.61-0.561l2.246-0.415
		l0.197,1.511l-2.742,0.624l-7.833,1.339l-5.333,1.099L68.974,38.698z M84.307,31.638l0.187,0.851l-5.429,1.049l-5.877,0.898
		l-4.786,0.853L67.971,33.7l11.215-2.06l5.046-0.831L84.307,31.638z M93.582,25.147l-4.566,0.716l-0.642-2.173l-0.295-2.62
		l2.098-0.263l2.625-0.541l0.627,2.446L93.582,25.147z"/>
</g>
</svg>
