<?xml version="1.0" encoding="utf-8"?>
<!-- Generator: Adobe Illustrator 16.2.1, SVG Export Plug-In . SVG Version: 6.00 Build 0)  -->
<!DOCTYPE svg PUBLIC "-//W3C//DTD SVG 1.1//EN" "http://www.w3.org/Graphics/SVG/1.1/DTD/svg11.dtd">
<svg version="1.1" id="Layer_1" xmlns="http://www.w3.org/2000/svg" xmlns:xlink="http://www.w3.org/1999/xlink" x="0px" y="0px"
	 width="100px" height="100px" viewBox="0 0 100 100" enable-background="new 0 0 100 100" xml:space="preserve">
<path d="M93.497,0.153c-33.501-1.112-60.94,11.244-60.94,11.244l-0.021,62.708c-3.411-1.355-7.558-1.675-11.77-0.652
	c-9.084,2.207-15.033,9.819-13.286,17.01c1.746,7.188,10.523,11.223,19.605,9.018c8.564-2.082,14.338-8.966,13.505-15.771l0,0
	V36.854c0,0,19.405-6.783,44.576-8.486v34.848l0,0c-3.379-1.293-7.445-1.585-11.581-0.58c-9.084,2.208-15.031,9.822-13.284,17.01
	c1.744,7.185,10.525,11.223,19.605,9.016c7.933-1.929,13.471-7.976,13.588-14.265l0.002,0.007
	C93.497,74.401,93.497,12.88,93.497,0.153z"/>
</svg>
