<?xml version="1.0" encoding="utf-8"?>
<!-- Generator: Adobe Illustrator 16.2.1, SVG Export Plug-In . SVG Version: 6.00 Build 0)  -->
<!DOCTYPE svg PUBLIC "-//W3C//DTD SVG 1.1//EN" "http://www.w3.org/Graphics/SVG/1.1/DTD/svg11.dtd">
<svg version="1.1" id="Layer_1" xmlns="http://www.w3.org/2000/svg" xmlns:xlink="http://www.w3.org/1999/xlink" x="0px" y="0px"
	 width="100px" height="100px" viewBox="0 0 100 100" enable-background="new 0 0 100 100" xml:space="preserve">
<g>
	<path id="path2780" d="M58.767,31.845c7.955,0,14.864,4.378,18.673,10.832l22.478,0.024V30.522c0-4.533-3.646-8.211-8.122-8.211
		H8.039c-4.49,0-8.098,3.678-8.098,8.211l0.024,12.073l40.111,0.032C43.918,36.199,50.797,31.845,58.767,31.845"/>
	<path id="path2782" d="M20.946,18.445h-7.448l-0.863,2.714h8.932L20.946,18.445z"/>
	<path id="path2784" d="M88.133,16.997h-9.92l-1.758,4.188h13.289L88.133,16.997z"/>
	<path id="path2786" d="M54.081,19.739H45.54v-4.179h8.541V19.739z M61.908,13.884H37.796l-4.966,7.353h33.623L61.908,13.884z"/>
	<path id="path2788" d="M78.607,44.854c1.241,2.767,1.974,5.814,1.974,9.058c0,12.179-9.766,22.066-21.811,22.066
		c-12.067,0-21.833-9.888-21.833-22.066c0-3.244,0.722-6.292,1.976-9.07H-0.059v33.252c0,4.505,3.607,8.184,8.098,8.184h83.756
		c4.477,0,8.122-3.679,8.122-8.184l0.024-33.24H78.607z"/>
	<path id="path2790" d="M70.664,46.656c-0.346-0.61-0.776-1.188-1.24-1.737c-2.548-3.097-6.364-5.139-10.653-5.139
		c-4.313,0-8.126,2.026-10.671,5.111c-0.47,0.565-0.899,1.139-1.27,1.766c-1.275,2.132-2.051,4.59-2.051,7.256
		c0,7.783,6.262,14.115,13.992,14.115c7.683,0,13.945-6.332,13.945-14.115C72.716,51.246,71.954,48.789,70.664,46.656"/>
</g>
</svg>
