<?xml version="1.0" encoding="utf-8"?>
<!-- Generator: Adobe Illustrator 16.2.1, SVG Export Plug-In . SVG Version: 6.00 Build 0)  -->
<!DOCTYPE svg PUBLIC "-//W3C//DTD SVG 1.1//EN" "http://www.w3.org/Graphics/SVG/1.1/DTD/svg11.dtd">
<svg version="1.1" id="Layer_1" xmlns="http://www.w3.org/2000/svg" xmlns:xlink="http://www.w3.org/1999/xlink" x="0px" y="0px"
	 width="100px" height="100px" viewBox="0 0 100 100" enable-background="new 0 0 100 100" xml:space="preserve">
<path d="M63.2,1.502c-0.615-0.308-1.083-0.461-1.543-0.461c-1.852-0.463-3.7-0.771-5.556-1.081
	c-1.699,4.168-3.083,8.18-4.473,12.191c-0.771,0-1.542,0-2.161,0c-0.309,0-0.465,0-0.621,0c-1.849,0.155-3.545,0.309-5.244,0.617
	c-1.39,0.156-2.779,0.617-4.166,1.082c-2.471-3.551-5.094-7.1-7.562-10.495c-0.156-0.153-0.156-0.153-0.156-0.153
	c-0.928,0.306-1.849,0.615-2.624,1.079c-1.543,0.618-2.933,1.39-4.319,2.314c-2.161,1.081-4.169,2.471-6.021,4.168c0,0,0,0,0,0.154
	c1.852,3.859,3.551,7.717,5.403,11.575c-1.081,1.079-2.005,2.006-2.933,3.239c-1.233,1.235-2.314,2.778-3.242,4.322l0,0
	c-0.462,0.617-0.771,1.234-1.081,2.005c-4.316-0.771-8.642-1.544-12.961-2.16c-0.771,1.852-1.543,3.703-2.161,5.711
	c-0.619,3.085-1.234,6.018-1.543,8.951c4.01,1.542,8.023,3.086,12.037,4.629c0,0.617,0,1.39,0,2.161
	c0,1.697,0.156,3.549,0.615,5.401c0.156,1.543,0.619,3.086,1.081,4.629c-3.548,2.47-6.943,4.938-10.494,7.561
	c1.855,4.632,4.479,8.951,7.564,12.968c0,0,0,0,0.153,0c3.857-1.855,7.717-3.552,11.73-5.403l0,0
	c0.921,0.925,1.852,1.696,2.776,2.623c1.39,1.237,3.089,2.314,4.941,3.393c0.459,0.312,1.078,0.618,1.693,1.083
	c-0.771,4.166-1.387,8.485-2.002,12.809c1.693,0.771,3.395,1.39,5.244,1.852c0.465,0.153,1.39,0.462,2.933,0.771
	c2.161,0.615,4.322,0.925,6.328,1.233c1.696-4.169,3.239-8.18,4.631-12.346c0.619,0,1.234,0,1.849,0h0.156
	c1.853,0,3.548-0.153,5.247-0.462c1.543-0.31,3.086-0.771,4.626-1.233c0,0,0,0.149,0.159,0.149c2.467,3.551,5.094,7.103,7.558,10.65
	c0.771-0.463,1.546-0.769,2.164-1.081c1.543-0.618,2.933-1.39,4.319-2.161c2.314-1.387,4.476-2.927,6.48-4.629
	c-1.695-4.01-3.548-7.867-5.396-11.88l0,0c0.922-0.928,1.692-1.853,2.62-2.779c1.081-1.387,2.161-2.93,3.086-4.319
	c0-0.156,0.156-0.312,0.156-0.466c0.309-0.462,0.615-1.077,0.925-1.543c4.322,0.771,8.642,1.39,12.964,2.161
	c0.771-1.852,1.39-3.704,2.005-5.709c0.153-0.462,0.31-0.928,0.462-1.543c0.156-0.462,0.156-0.927,0.466-1.546
	c0.306-2.005,0.771-4.01,0.925-5.862c-4.011-1.698-8.18-3.087-12.19-4.628c0-0.619,0-1.083,0-1.854c0-1.852-0.156-3.857-0.618-5.711
	c-0.153-1.39-0.615-2.776-0.925-4.166c3.548-2.469,7.097-5.092,10.494-7.717c0,0,0,0,0.153,0c-1.853-4.629-4.319-8.95-7.718-12.96
	l0,0c-4.01,1.696-7.87,3.548-11.728,5.4c-1.077-1.081-2.161-2.161-3.241-3.085c-1.39-1.082-2.78-2.163-4.319-2.934
	c-0.463-0.462-1.084-0.771-1.543-1.081c0.615-4.321,1.387-8.642,2.005-12.961c-1.852-0.771-3.86-1.544-5.865-2.161
	C64.281,1.658,63.663,1.502,63.2,1.502z M34.499,59.219c-2.624-4.475-3.242-9.104-1.855-14.043c1.237-4.938,4.169-8.64,8.645-11.265
	c4.319-2.469,9.101-3.085,13.885-1.852c4.94,1.39,8.798,4.167,11.269,8.644c2.62,4.474,3.241,9.104,1.849,14.042
	c-1.23,4.94-4.163,8.645-8.485,11.111c-4.632,2.624-9.26,3.239-14.045,1.853C40.823,66.475,36.966,63.542,34.499,59.219z"/>
</svg>
