<?xml version="1.0" encoding="utf-8"?>
<!-- Generator: Adobe Illustrator 16.2.1, SVG Export Plug-In . SVG Version: 6.00 Build 0)  -->
<!DOCTYPE svg PUBLIC "-//W3C//DTD SVG 1.1//EN" "http://www.w3.org/Graphics/SVG/1.1/DTD/svg11.dtd">
<svg version="1.1" id="Layer_1" xmlns="http://www.w3.org/2000/svg" xmlns:xlink="http://www.w3.org/1999/xlink" x="0px" y="0px"
	 width="100px" height="100px" viewBox="0 0 100 100" enable-background="new 0 0 100 100" xml:space="preserve">
<g>
	<path d="M14.544,55.787c1.285,4.914,5.03,9.398,9.599,12.686L22.464,79h13.003l0.177-5.307c2.896,0.711,5.982,1.016,9.186,1.016
		c3.203,0,6.288-0.431,9.188-1.142l0.174,5.118l11.682,0.077l-44-43.882c0,0-6.055,5.258-7.331,11.515
		C14.31,47.656,13.602,51.082,14.544,55.787z"/>
	<path d="M84.103,40h-6.475C76.962,38,76,36.996,75,35.703V19.365l-11.254,7.79c-4.158-1.649-7.654-4.03-15.279-3.655
		c-3.748,0.184-6.983,2.125-6.983,2.125l34.348,34.312c0,0,1.352-2.938,1.796-3.938h6.475C85.818,56,87,54.417,87,52.937V42.506
		C87,41.022,85.819,40,84.103,40z M68.183,39.227c-1.19,0-2.156-0.947-2.156-2.116s0.966-2.116,2.156-2.116s2.156,0.947,2.156,2.116
		S69.373,39.227,68.183,39.227z"/>
	<path d="M49.75,0.083c-27.57,0-50,22.43-50,50s22.43,50,50,50c27.57,0,50-22.43,50-50S77.32,0.083,49.75,0.083z M49.75,90.084
		c-22.056,0-40-17.944-40-40c0-9.655,3.438-18.521,9.155-25.44l56.286,56.284C68.272,86.645,59.406,90.084,49.75,90.084z
		 M82.048,73.644L26.191,17.786c6.613-4.838,14.756-7.703,23.56-7.703c22.056,0,40,17.944,40,40
		C89.75,58.887,86.885,67.03,82.048,73.644z"/>
</g>
</svg>
