<?xml version="1.0" encoding="utf-8"?>
<!-- Generator: Adobe Illustrator 16.2.1, SVG Export Plug-In . SVG Version: 6.00 Build 0)  -->
<!DOCTYPE svg PUBLIC "-//W3C//DTD SVG 1.1//EN" "http://www.w3.org/Graphics/SVG/1.1/DTD/svg11.dtd">
<svg version="1.1" id="Layer_1" xmlns="http://www.w3.org/2000/svg" xmlns:xlink="http://www.w3.org/1999/xlink" x="0px" y="0px"
	 width="100px" height="100px" viewBox="0 0 100 100" enable-background="new 0 0 100 100" xml:space="preserve">
<g id="g3015" transform="matrix(1.0293389,0,0,1.0293389,-61.574911,3.3832216)">
	<path id="path3388" d="M130.096,64.276c4.384-5.226,6.783-11.839,6.783-18.654c0-16.03-12.993-29.023-29.019-29.023
		c-16.025,0-29.021,12.993-29.021,29.023c0,6.815,2.401,13.428,6.787,18.654l1.362,1.621l-5.724,4.807l1.601,1.905l5.724-4.803
		l-1.601-1.909l-3.243,2.72L82.383,67c-4.256-5.071-6.884-11.285-7.59-17.816l-3.256,0.226l-0.172-2.487l3.255-0.23
		c-0.012-0.356-0.019-0.712-0.019-1.071c0-8.53,3.211-16.306,8.489-22.192l-2.35-2.269l1.733-1.791l2.346,2.269
		c5.7-5.475,13.346-8.938,21.797-9.246V9.124h2.487v3.269c8.454,0.308,16.098,3.771,21.798,9.246l2.344-2.269l1.735,1.791
		l-2.356,2.269c5.282,5.886,8.491,13.662,8.491,22.192c0,0.36-0.008,0.715-0.016,1.071l3.254,0.23l-0.171,2.487l-3.257-0.226
		c-0.703,6.531-3.337,12.745-7.59,17.816l-1.36,1.618l2.478,2.082l-1.6,1.91l-5.724-4.803l1.601-1.909L130.096,64.276
		L130.096,64.276z"/>
	<path id="path3386" d="M98.225,51.409l3.447,3.594l4.327-4.772c0.672,0.273,1.415,0.399,2.19,0.352
		c2.739-0.181,4.817-2.549,4.633-5.289c-0.047-0.715-0.243-1.383-0.555-1.98l13.213-14.59l-15.127,12.594
		c-0.826-0.474-1.801-0.727-2.821-0.656c-2.739,0.182-4.817,2.55-4.633,5.289c0.031,0.471,0.126,0.916,0.278,1.34L98.225,51.409
		L98.225,51.409z"/>
	<path id="path3384" d="M107.861-2.953c-26.827,0-48.575,21.75-48.575,48.575c0,26.821,21.748,48.575,48.575,48.575
		c26.829,0,48.575-21.753,48.575-48.575C156.435,18.797,134.69-2.953,107.861-2.953z M107.861,4.507
		c22.698,0,41.115,18.417,41.115,41.115s-18.417,41.111-41.115,41.111S66.747,68.32,66.747,45.622S85.162,4.507,107.861,4.507z"/>
</g>
</svg>
