<?xml version="1.0" encoding="utf-8"?>
<!-- Generator: Adobe Illustrator 16.2.1, SVG Export Plug-In . SVG Version: 6.00 Build 0)  -->
<!DOCTYPE svg PUBLIC "-//W3C//DTD SVG 1.1//EN" "http://www.w3.org/Graphics/SVG/1.1/DTD/svg11.dtd">
<svg version="1.1" id="Layer_1" xmlns="http://www.w3.org/2000/svg" xmlns:xlink="http://www.w3.org/1999/xlink" x="0px" y="0px"
	 width="100px" height="100px" viewBox="0 0 100 100" enable-background="new 0 0 100 100" xml:space="preserve">
<path d="M0,0v2.273v9.091v18.182v11.364v18.182v11.363v18.183v6.817V100h100v-4.546v-6.817V70.454V59.091V40.909V29.545V11.364
	V2.273V0H0z M41,59V41h18v18H41z M59,70v19H41V70H59z M41,30V11h18v19H41z M11,11h19v19H11V11z M11,41h19v18H11V41z M11,70h19v19H11
	V70z M89,89H70V70h19V89z M89,59H70V41h19V59z M89,30H70V11h19V30z"/>
</svg>
