<?xml version="1.0" encoding="utf-8"?>
<!-- Generator: Adobe Illustrator 16.2.1, SVG Export Plug-In . SVG Version: 6.00 Build 0)  -->
<!DOCTYPE svg PUBLIC "-//W3C//DTD SVG 1.1//EN" "http://www.w3.org/Graphics/SVG/1.1/DTD/svg11.dtd">
<svg version="1.1" id="Layer_1" xmlns="http://www.w3.org/2000/svg" xmlns:xlink="http://www.w3.org/1999/xlink" x="0px" y="0px"
	 width="100px" height="100px" viewBox="0 0 100 100" enable-background="new 0 0 100 100" xml:space="preserve">
<g>
	<path d="M21.793,95.902h0.183c1.584,2.588,13.348,4.59,27.634,4.59c14.282,0,26.05-2.002,27.637-4.59h0.131l7.349-70.337H13.834
		L21.793,95.902z M64.833,91.016l4.553-56.458c0.098-1.217,0.879-2.148,1.742-2.08l3.523,0.285c0.854,0.073,1.473,1.115,1.371,2.332
		L71.47,91.549c-0.098,1.217-0.871,2.148-1.733,2.075l-3.528-0.285C65.35,93.273,64.735,92.229,64.833,91.016z M46.502,33.671
		c0-1.273,0.767-2.311,1.721-2.311h3.894c0.954,0,1.721,1.038,1.721,2.311v59.326c0,1.277-0.767,2.315-1.721,2.315h-3.894
		c-0.954,0-1.721-1.038-1.721-2.315V33.671z M24.423,32.41l3.613-0.301c0.885-0.077,1.685,0.846,1.791,2.071l4.75,56.433
		c0.11,1.217-0.523,2.259-1.414,2.34l-3.617,0.302c-0.887,0.077-1.681-0.851-1.787-2.067l-4.754-56.441
		C22.904,33.537,23.536,32.487,24.423,32.41z"/>
	<path d="M79.778,11.694H65.312L58.408,0.492L57.997,0.74V0.492H41.145v0.33l-6.71,10.868H18.792l-8.071,8.517h77.781L79.778,11.694
		z M41.349,11.694l3.818-6.193h9.41l3.818,6.193H41.349z"/>
</g>
</svg>
