<?xml version="1.0" encoding="utf-8"?>
<!-- Generator: Adobe Illustrator 16.2.1, SVG Export Plug-In . SVG Version: 6.00 Build 0)  -->
<!DOCTYPE svg PUBLIC "-//W3C//DTD SVG 1.1//EN" "http://www.w3.org/Graphics/SVG/1.1/DTD/svg11.dtd">
<svg version="1.1" id="Layer_1" xmlns="http://www.w3.org/2000/svg" xmlns:xlink="http://www.w3.org/1999/xlink" x="0px" y="0px"
	 width="100px" height="100px" viewBox="0 0 100 100" enable-background="new 0 0 100 100" xml:space="preserve">
<path d="M99.495,85.438C96.778,72.52,72.267,73.893,63.271,63.776c-1.896-2.133-1.896-2.133-0.623-10.062
	c2.17-8.876,4.139-3.366,7.245-21.068c2.606-14.867-2.957-27.64-19.852-27.64c-16.892,0-22.458,12.773-19.849,27.64
	c3.104,17.702,5.066,12.191,7.242,21.068c1.273,7.929,1.273,7.929-0.625,10.062C27.815,73.893,3.303,72.52,0.587,85.438
	c-0.321,1.529-0.546,9.988-0.546,9.988h100C100.041,95.426,99.815,86.967,99.495,85.438z"/>
</svg>
